<svg xmlns="http://www.w3.org/2000/svg" xmlns:xlink="http://www.w3.org/1999/xlink" width="1030.05" height="517" viewBox="0 0 1030.05 517">
  <defs>
    <linearGradient id="linear-gradient" x1="0.5" x2="0.5" y2="1" gradientUnits="objectBoundingBox">
      <stop offset="0" stop-color="#f6f6f6"/>
      <stop offset="1" stop-color="#fefefe"/>
    </linearGradient>
    <clipPath id="clip-path">
      <rect id="Rectángulo_402684" data-name="Rectángulo 402684" width="1011" height="517" rx="23" transform="translate(265.102 2219)" fill="url(#linear-gradient)"/>
    </clipPath>
    <clipPath id="clip-path-2">
      <rect id="Rectángulo_402682" data-name="Rectángulo 402682" width="723.821" height="417.036" fill="none"/>
    </clipPath>
    <clipPath id="clip-path-3">
      <rect id="Rectángulo_402686" data-name="Rectángulo 402686" width="22.675" height="58.045" fill="#b1bf34"/>
    </clipPath>
  </defs>
  <g id="Grupo_1103050" data-name="Grupo 1103050" transform="translate(-284.975 -2153.332)">
    <g id="Enmascarar_grupo_1098955" data-name="Enmascarar grupo 1098955" transform="translate(38.924 -65.668)" opacity="0.72" clip-path="url(#clip-path)">
      <rect id="Rectángulo_402683" data-name="Rectángulo 402683" width="1011" height="517" rx="23" transform="translate(265.102 2219)" fill="url(#linear-gradient)"/>
      <path id="Trazado_882508" data-name="Trazado 882508" d="M29.273,276.584c4.234-8.018,8.826-14.781,9.754-20.343,2.142-12.948,3.846-116.511-8.683-135.34-2.911-4.382-4.83-10.521-6.066-17.36-2.494,13.069-2.739,28.772-1.481,44.908,2.315,30.027-2.789,62.7,5.133,101.593a97.443,97.443,0,0,1,1.344,26.551Zm605.9-188.008c2.465,15.261,18.99,37.217,18.99,37.217s5.628,10.05,2.811,16.372c0,0,1.409,11.168-5.62,13.77s-20.047,5.212-31.662,1.119-25.309-4.093-32.676-4.466c-5.715-.281-7.195-.494-12.974.647-.97.19-4.9.669-5.406.905-3.687,1.666-6.067,2.3-9.818,4.534-5.384,3.218-12.6,8.338-16.482,13.26-7.015,9.3-13,22.7-13,22.7s-14.67,28.49-33.273,45.228c-18.58,16.736-21.844,27.563-29.743,34.455-7.922,6.892-13.506,12.3-13.506,12.3s-1.48,72.675-1.919,88.2c-.46,15.519-.244,6.831.417,17.68.373,6.078-.18,11.823.287,17.863.553,7.592-1.589,8.87,2.25,17,.51,1.065,1.035,2.13,1.566,3.2a112.759,112.759,0,0,0,6.62,11.952c1.459,2.3,7.173,10.575,7.1,12.9a6.373,6.373,0,0,1-.682,2.366c-5.075-.244-10.149-.57-15.224-.442-1.768.046-13.88.282-14.584-1.247-.022-.031-1.387-8.582-1.589-9.632-.417-2.221-.82-4.458-1.258-6.672l-.151-.692-.129-.677-7.389-12.37c-3.335-5.6.46-13.017.331-19.658-.13-6.6.575.921.7-5.713.086-6.011.2-12.035.2-18.045,0-18.875.618-22.131.618-22.131s-9.861,20.662-8.6,36.456c1.237,15.793,2.782,18.486,3.551,34.447.065,1.248-.288-1.726.129,3.766s5.34,12.119,8.338,19.97c.618,1.628,1.215,3.287,1.811,4.93-6.864,1.34-9.136,1.194-15.928.989a50.916,50.916,0,0,0-5.894.13c-4.9.411-7.13.251-9.646-4.739-1.523-3.02-1.408-6.429-1.48-9.753-3.882,5.142-1.854-2.755-5.363-6.063-1.789-1.7-2.451-.343-1.365-4.512,1.056-4.169,2.717-66.263,2.1-73.969s-2.954-14.774-4.284-20.982a207,207,0,0,1-3.22-21.766c-.417-4.633.661-8.026.863-12.622a211.65,211.65,0,0,0-.244-22.511c-2.048-7.121-4.787-16.471-11.184-20.45-11.565-6.84-20.363-4.96-32.676-2.351-74.25,15.748-139.206,24.215-200.655-18.966-5.779-4.062-3.881-3.857-7.964,2.473-12.442,19.361-13.815,13.572-20.787,35.2-3.644,11.351-6.929,23.706-10.307,35.284-1.366,4.64-2.494,9.22-3.687,13.907-.82,3.173-1.5,6.314-2.12,9.525,0,0-2.027,37.893-2.379,50.309-.331,12.416,4.3,22.253,7.769,31.45,2.164,5.729,4.809,11.138,6.994,16.95,3.421,9.121,4.894,10.149,10.285,17.627a10.284,10.284,0,0,1,2.078,7.866c-.791,3.675-7.813,2.731-10.48,2.5-2.451-.205-4.68-.449-7.131-.441-2.782.008-8.69.594-11.011-.86-1.61-1.027-3.378-3.91-4.615-5.485-.309-.4-.639-.783-.949-1.172-.438-.518-.884-1.042-1.322-1.56l-.439-.517s-9.287-2.96-9.754-8.369c-.489-5.417-10.523-115.8-13.772-120.718,0,0-7.432,45.28-7.9,67.434-.489,22.154-1.589,40.4,3.709,51.6,5.319,11.2,5.427,11.738,8.338,17.209,1.121,2.1,4.722,8.086.352,8.513-1.459.144-3.709.106-5.34.2a101.581,101.581,0,0,1-13.527.145l-.726-.053c-1.258-.092-7.5-.282-8.209-.594-1.078-.479-1.387-2-1.653-3.074-1.919-7.448,4.083-12.56-4.5-17.117-1.215-.64-2.43-1.065-3.637-1.727-2.185-1.194-2.12-4.047-3.306-6.383-2.954-5.782-2.142-2.876-2.005-9.707.043-2.13.043-4.268.108-6.4.841-29.244,1.237-46.574-.33-75.81-.532-10.179-1.546-25.9-4.543-35.5-.438-1.384-.791-2.746-1.1-4.093-2.6,7.912-5.513,14.492-7.483,22.785-.287,1.2-2.12,8.3-4.018,7.73-1.675-.51-3.026-4.861-3.242-6.6-.439-3.218-.373-6.6-.82-10.05-.2-1.369-.395-2.723-.618-4.085-.927-5.668-1.79-11.267-3-16.874C1.112,294.957-.233,286.482.034,277.094c.927-26.581,14.627-45.836,13.218-65.2s-6.613-101.25.776-139.585c2.76-14.409,8.38-21.926,14.411-25.8,6.886-5.189,21.14-13.412,42.983-14.082,32.079-.988,96.266-2.465,119.986-.988s225.56.578,235.774,1.073c10.235.494,57.675,4.427,64.187,4.922s42.322-7.38,42.322-7.38c-1.675-3.841-4.564-12.286-4.147-16.584.129-1.286.682-4.147,2.005-4.61,6.419-2.244,14.361-.51,20.19,2.785,0,0-2.142-1.621-1.833-11.647,0,0,8.87,11.974,14.98,11.974,6.131,0,8.87-5.181,24.467-4.853,6.268.145,13.837.372,19.968,1.552,1.718-.175,8.912-3.774,10.5-4.945,2.358-1.758,3.112-3.165,2.932,1.674-.18,4.428-1.718,12.492-5.1,15.254-.863.715-.618.251.4,2.1.532.944,1.056,1.879,1.589,2.815,15.3-9.875,28.464-15.17,46.684-12.271,1.229.205,6.893,1.369,7.058,2.837a38.529,38.529,0,0,1-1.071,7.364c-1.445,4.907-5.966,13.793-9.143,17.437a38.994,38.994,0,0,1-7.123,6.246,26.1,26.1,0,0,1-4.2,2.328c-.726.32-1.467.609-2.2.9a82.2,82.2,0,0,0-10.12,4.261c-2.034,1.087-2.236.806-2.646,2.86-2.177,9.753-3.227,21.073-1.71,31.039Z" transform="translate(-235.133 2283.883)" fill="#e8e8e8" fill-rule="evenodd" opacity="0.21"/>
      <path id="Trazado_882507" data-name="Trazado 882507" d="M695.656,310.069a129.018,129.018,0,0,0-3.07-23.938,134.807,134.807,0,0,0-6.037-19.985A79.461,79.461,0,0,0,678.481,251a48.071,48.071,0,0,0-13.6-13.814,34.934,34.934,0,0,0-13.661-5.086c-1.33-.206-1.716-.637-1.5-1.937a24.451,24.451,0,0,0,.139-4.429c-.087-4.5-.332-9-.3-13.489.027-4.13-.141-8.271.194-12.394a1.466,1.466,0,0,1,.666-1.3c3.8-2.339,7.581-4.7,11.373-7.049,3.426-2.122,6.959-4.087,10.264-6.39,2.136-1.49,4.494-2.7,6.669-4.141a6.618,6.618,0,0,0,2.9-7.249,22.117,22.117,0,0,0-4.567-9.165c-3-3.953-6.424-3.64-10.214-1.993a61.785,61.785,0,0,0-7.363,4.245c-2.591,1.582-5.138,3.226-7.69,4.863-5.953,3.819-12.288,7.055-18.389,10.646-4.207,2.475-8.6,4.668-12.9,7.013-1.426.78-2.825,1.609-4.195,2.477a2.049,2.049,0,0,1-2.75-.118c-4.056-3.347-8.18-6.615-12.241-9.956-4.637-3.816-9.222-7.687-13.851-11.511a1.961,1.961,0,0,1-.7-2.681,53.508,53.508,0,0,0,5.593-22.212c.076-4-.132-7.951-.41-11.939a99.63,99.63,0,0,0-3.37-19.579,102.994,102.994,0,0,0-5.217-13.455A113.365,113.365,0,0,0,572.6,81.108,147.44,147.44,0,0,0,558.95,64.144a206.114,206.114,0,0,0-19.3-18c-5.2-4.3-10.686-8.28-16.148-12.285-6.2-4.549-12.652-8.738-19.087-12.955-3.9-2.555-8.033-4.736-12.057-7.093-5.873-3.437-11.889-6.635-17.979-9.663C469.695,1.819,465-.726,459.594-1.335a18.118,18.118,0,0,1-2.081-.155q-.947.2-1.892.394c-4.236,1.913-5.881,5.144-5.275,9.727,1.787,13.523,5.836,26.606,9.383,39.787.282,1.05.586,2.095.87,3.146,1.819,6.737,4.339,13.29,6.348,19.979,1.7,5.645,3.832,11.174,5.8,16.741A86.514,86.514,0,0,0,476.6,98.11c1.085,2.182,1.6,4.6,2.51,6.871,1.9,4.766,3.641,9.586,5.829,14.255,1.587,3.391,2.842,6.921,4.521,10.27,2.491,4.969,5.1,9.887,7.893,14.726,1.726,2.989,3.52,5.937,5.473,8.781a86.866,86.866,0,0,0,21.664,21.672,89.049,89.049,0,0,0,19.551,10.3,82.778,82.778,0,0,0,16.373,4.307c5.7.81,11.416,1.024,16.979-.492a3.786,3.786,0,0,1,4.324,1.389,138.745,138.745,0,0,0,11.13,10.865,8.266,8.266,0,0,1,.759.812c1.2,1.381,1.17,1.508-.493,2.322-5.114,2.5-10.171,5.1-15.286,7.6-4.118,2.015-8.239,4.018-12.4,5.951-3.782,1.755-7.672,3.293-11.466,5.012-5.588,2.534-11.356,4.673-16.993,7.077-2.821,1.2-5.884,1.863-8.536,3.443-1.114.663-2.159.492-3.272-.6-4.456-4.367-9.083-8.579-13.591-12.9-2.522-2.418-4.947-4.927-7.392-7.415-1.2-1.225-.684-2.762-.706-4.138a64.681,64.681,0,0,0-1.181-13.139,150.1,150.1,0,0,0-5.695-19.537c-1.91-5.145-4.034-10.228-6.239-15.274-1.683-3.851-3.508-7.661-5.5-11.381-2.762-5.146-6.035-10.022-9.283-14.916a151.709,151.709,0,0,0-10.321-13.341c-2.738-3.268-5.808-6.3-8.821-9.349-3.978-4.031-8.2-7.824-12.562-11.479C438.489,95.29,432.958,90.951,427.2,86.9c-5.677-3.986-11.635-7.577-17.626-11.13-6.914-4.1-13.955-7.984-21-11.859-6.851-3.77-13.77-7.438-20.814-10.883-5.5-2.69-11.064-5.245-16.762-7.5-4.092-1.619-8.212-3.285-12.69-3.65-4.5-.368-8.736,2.281-9.162,6.646a18.025,18.025,0,0,0,2.081,9.515c.949,2.025,1.6,4.169,2.417,6.249,2.025,5.168,4.383,10.215,6.441,15.376,1.092,2.74,2.113,5.522,3.326,8.22,2.306,5.126,4.369,10.339,6.654,15.468,1.647,3.695,3.374,7.364,5.057,11.047,2.656,5.809,5.346,11.625,8.454,17.231a172.956,172.956,0,0,0,10.568,17.244q4.954,6.9,10.417,13.461c3.534,4.26,7.2,8.4,11.1,12.359a165.913,165.913,0,0,0,16.752,14.951c4.46,3.448,9.159,6.63,13.96,9.657,6.612,4.169,13.244,8.3,20.21,11.91,6.538,3.391,13.228,6.53,20.407,8.34,6.55,1.653,13.238,2.76,19.965,1.1.26-.064.525-.116.784-.182,3.655-.952,3.581-.9,5.86,2.193,3.267,4.441,6.822,8.678,10.5,12.828a16.255,16.255,0,0,1,2.509,3.425c.751,1.506.542,2.142-1.086,2.659-2.39.758-4.851,1.341-7.2,2.187-4.406,1.589-9.019,2.631-13.407,4.207-4.122,1.48-8.451,2.315-12.538,3.791-5.725,2.069-11.761,3.163-17.536,5.011-4.431,1.418-9,2.342-13.426,3.7-3.578,1.1-7.2,1.989-10.844,2.838a3.036,3.036,0,0,1-2.685-.582c-5.11-3.6-10.3-7.1-15.409-10.695-5.414-3.812-10.765-7.7-16.153-11.551a1.385,1.385,0,0,1-.421-1.919,62.554,62.554,0,0,0,3.783-10.153,43.435,43.435,0,0,0,1.2-14.55,52.941,52.941,0,0,0-1.819-9.536,60.24,60.24,0,0,0-6.36-13.845c-1.773-2.961-3.515-5.936-5.364-8.857-2.236-3.536-4.728-6.913-7.122-10.351-2.1-3.018-4.278-5.982-6.62-8.832a141.474,141.474,0,0,0-12.8-13.621,146.216,146.216,0,0,0-12.781-10.57,126.271,126.271,0,0,0-17.645-10.784q-7.957-4.08-16.038-7.913c-3.1-1.481-6.28-2.815-9.426-4.211-3.331-1.478-6.66-2.962-10-4.424-6.448-2.822-12.945-5.547-19.343-8.471-6.5-2.972-13.1-5.73-19.755-8.347a64.335,64.335,0,0,0-13.723-4.194c-3.091-.47-6.224-.3-8.334,2.371A6.526,6.526,0,0,0,232.764,98a113.991,113.991,0,0,0,4.756,15.607c1.443,3.838,2.423,7.832,4.143,11.551,2.193,4.74,3.07,9.882,5.527,14.52a18.73,18.73,0,0,1,.665,2.071c1.807,4.694,3.552,9.407,5.319,14.111,1.8,4.793,3.934,9.5,6.185,14.128a176.3,176.3,0,0,0,11.445,20.123,147.872,147.872,0,0,0,10.335,13.511,135.806,135.806,0,0,0,11.618,12.363,128.356,128.356,0,0,0,17.359,13.567A139.7,139.7,0,0,0,336.406,242.7a106.241,106.241,0,0,0,17.65,5.14,147.487,147.487,0,0,0,16.023,2.146c6.294.522,12.573.432,18.859.518a8.256,8.256,0,0,0,1.91-.287,2.532,2.532,0,0,1,2.135.487c5.38,3.913,10.748,7.845,16.141,11.742,1.424,1.031,2.96,1.921,4.367,2.968.428.318,1.309.446,1.175,1.125-.131.661-.956.548-1.5.656-4.214.83-8.436,1.627-12.653,2.437-2.058.394-4.106.837-6.173,1.181-5.658.945-11.347,1.8-17.041,2.46-4.424.508-8.805,1.492-13.257,1.559-4.379.065-8.592,1.225-13,1.039-2.187-.091-4.38.491-6.582.615-4.555.258-9.118.411-13.676.612a1.849,1.849,0,0,1-1.345-.426c-4-3.309-8.621-5.746-13.043-8.461-5.6-3.441-11.275-6.773-16.845-10.258-4.988-3.121-9.871-6.4-14.815-9.583a5.83,5.83,0,0,1-2.6-3.569c-.9-3.237-1.913-6.465-3.132-9.612-1.833-4.733-3.646-9.495-5.9-14.057a99.357,99.357,0,0,0-9.23-15.085c-2.719-3.673-5.43-7.337-8.443-10.8-2.258-2.594-4.728-5-7.218-7.386a113.682,113.682,0,0,0-10.539-8.749,137.584,137.584,0,0,0-17.255-11.023,156.519,156.519,0,0,0-20.142-8.984c-5.1-1.884-10.357-3.308-15.613-4.724-5.159-1.391-10.409-2.279-15.661-3.227a100.95,100.95,0,0,0-16.836-1.693c-5.392-.059-10.846.451-15.207,3.948a10.15,10.15,0,0,0-3.7,10.311,26.753,26.753,0,0,0,2.661,7.441c1.317,2.6,2.447,5.288,3.816,7.876,2.265,4.279,4.323,8.651,6.833,12.819,1.752,2.907,3.317,5.913,5.074,8.819a124.2,124.2,0,0,0,7.133,10.726c2.125,2.806,4.167,5.661,6.463,8.35a94.232,94.232,0,0,0,12.134,12.1,102.034,102.034,0,0,0,14.2,9.869,146.834,146.834,0,0,0,17.257,8.365c4.2,1.688,8.479,3.13,12.735,4.621a99.585,99.585,0,0,0,12.165,3.269c3.215.685,6.41,1.411,9.673,1.889q4.641.68,9.3,1.076a80.544,80.544,0,0,0,16.576-.443c2.547-.306,5.081-.766,7.645-.975a4.576,4.576,0,0,0,2.433-.722c1.139-.9,2.015-.443,2.98.226,5.836,4.043,11.866,7.8,17.982,11.439,3.175,1.888,6.274,3.894,9.391,5.872.383.243.913.371,1.142,1.066-1.982-.2-3.876.049-5.774-.013-5.583-.182-11.166-.305-16.749-.507q-6.208-.222-12.418-.509c-4.883-.224-9.758-.718-14.638-1.074-3.436-.25-6.878-.428-10.313-.7-5.094-.41-10.179-1.012-15.276-1.282-4.524-.239-9.015-.79-13.513-1.248-5.786-.59-11.6-.935-17.357-1.822-.531-.081-1.081-.04-1.616-.112-2.115-.29-4.293-.064-5.915-2.116-1.224-1.548-3.567-1.855-5.133-3.184q-5.483-4.647-11.071-9.177c-4.905-4-9.886-7.9-15.089-11.548-4.768-3.348-9.547-6.674-14.448-9.838a227.73,227.73,0,0,0-21.2-12.487c-4.5-2.258-9.162-4.232-13.886-6.048-4.773-1.835-9.579-3.59-14.511-4.951-4.151-1.145-8.307-2.264-12.573-3-3.606-.621-7.207-1.282-10.826-1.821-1.655-.247-3.331-.3-4.986-.409-4.078-.266-8.166-.292-12.255-.327a120.914,120.914,0,0,0-28.725,3.5,121.383,121.383,0,0,0-11.781,3.154,72.3,72.3,0,0,0-14.508,6.338c-3.765,2.312-6.845,5.179-7.017,9.885q.422,1.657.843,3.311a140.115,140.115,0,0,0,11.2,12.474c3.316,3.482,6.768,6.841,10,10.4,2.377,2.617,4.911,5.108,7.378,7.651,3.866,3.984,7.621,8.073,11.639,11.913,2.985,2.851,5.911,5.773,9.157,8.386,3.6,2.9,7.195,5.8,11,8.46a105.894,105.894,0,0,0,19.652,10.885,109.243,109.243,0,0,0,25.212,7.34,118.983,118.983,0,0,0,16.077,1.56,103.333,103.333,0,0,0,16.555-.834c1.736-.24,3.527-.193,5.277-.525a137.645,137.645,0,0,0,24.827-7.239,124.343,124.343,0,0,0,16.651-8.03c4.867-2.807,9.758-5.61,14.34-8.77,2.7-1.86,5.168-1.356,7.893-.982,3.2.44,6.392.942,9.591,1.392,4.26.6,8.518,1.217,12.787,1.745,3.206.4,6.425.667,9.639.987,2.785.279,5.56.679,8.342.985,1.928.211,3.859.229,5.785.441,5.4.6,10.825,1.091,16.246,1.329,4.081.181,8.162.461,12.254.523,5.42.084,10.844.52,16.266.773a18.755,18.755,0,0,1,3.477.248c-1.08.727-2.153,1.461-3.238,2.181-2.613,1.736-5.238,3.459-7.843,5.2-1.3.868-2.6,1.386-4.189.488a2.051,2.051,0,0,0-1.411-.2c-2.78.828-5.148-.669-7.655-1.319a103.884,103.884,0,0,0-13.422-2.83,97.989,97.989,0,0,0-18.678-.2,125.139,125.139,0,0,0-26.164,5.053,132.718,132.718,0,0,0-15.031,5.643,144.707,144.707,0,0,0-15.928,8.03,157.09,157.09,0,0,0-17.172,11.53,150.925,150.925,0,0,0-16.6,14.765c-2.436,2.52-4.613,5.249-6.831,7.951a89.448,89.448,0,0,0-7.564,10.648c-3.047,5.056-5.907,10.237-6.38,16.242-.42,5.333,2.816,9.406,7.826,11.08a24.728,24.728,0,0,0,8.622.975c5.751-.17,11.485-.463,17.225-.766,4.881-.259,9.755-.518,14.629-.87,6.86-.495,13.7-1.156,20.547-1.692,4.464-.349,8.833-1.209,13.271-1.515,6.6-.455,12.957-1.906,19.36-3.2a113.426,113.426,0,0,0,18.052-5.457,57.133,57.133,0,0,0,22.185-14.909,82.747,82.747,0,0,0,12.355-18.092c2.309-4.5,4.536-9.039,6.386-13.739,1.65-4.194,3.058-8.439,2.581-13.066-.2-1.908.385-3.161,2.428-4.165,5.472-2.693,10.707-5.808,16.1-8.649,1.718-.905,3.517-1.681,5.24-2.6,3.667-1.949,7.445-3.715,11.134-5.629a14.194,14.194,0,0,1,7.33-1.441c2.181.107,4.293-.206,6.44-.253,5.052-.112,10.087-.416,15.128-.724,3.059-.187,6.081-.709,9.139-.729,3.85-.026,7.58-.919,11.38-1.044,4.336-.144,8.509-1.276,12.786-1.412,4.653-.149,9.081-1.481,13.736-1.545a42.477,42.477,0,0,0,6.689-1.012c6.293-1.109,12.538-2.5,18.88-3.309,8.775-1.114,17.247-3.394,25.9-4.961a2.165,2.165,0,0,1,.467.069c-1.786,3.141-3.546,6.233-5.3,9.326-.606,1.066-1.272,2.106-1.791,3.21a2.25,2.25,0,0,1-2.828,1.4c-4.518-1.122-9.032-.29-13.5-.1a63.015,63.015,0,0,0-15.011,2.823,106.646,106.646,0,0,0-11.478,3.878,111.353,111.353,0,0,0-13.087,6.591,162.325,162.325,0,0,0-13.906,9.647c-4.485,3.312-8.758,6.886-13.039,10.437-4.518,3.75-8.83,7.716-13.043,11.771-3.281,3.16-6.44,6.433-9.584,9.722-3.642,3.81-7.057,7.8-10.444,11.805-3.128,3.7-6.058,7.552-8.992,11.394-2.872,3.758-5.726,7.535-8.425,11.407q-3.3,4.735-6.419,9.594c-4.086,6.338-7.876,12.836-11.5,19.419a177.416,177.416,0,0,0-8.93,19.125,151.97,151.97,0,0,0-5.487,15.708,69.711,69.711,0,0,0-2.626,13.161,38.235,38.235,0,0,0-.009,8.536c.808,5.771,5.652,9.671,11.777,9.679,6.91.01,13.351-1.87,19.813-3.743,2.974-.862,5.995-1.591,9-2.363,2.8-.72,5.7-1.2,8.387-2.175,4.948-1.794,10.041-3.181,15.078-4.7,5.72-1.725,11.327-3.732,17.041-5.47,4.771-1.451,9.374-3.384,14-5.22a175.274,175.274,0,0,0,19.2-9,120.071,120.071,0,0,0,18-11.749A116.387,116.387,0,0,0,430.473,417.6a108.349,108.349,0,0,0,14.684-20.823c1.776-3.352,3.44-6.748,4.914-10.212a141.521,141.521,0,0,0,7.482-25.139c.8-5,2.309-9.8,3.457-14.7a156.676,156.676,0,0,0,2.873-15.6c.422-3.275.767-6.571.915-9.895.176-3.929.087-7.855-.013-11.775a37.436,37.436,0,0,0-1.148-7.316,4.612,4.612,0,0,1,.778-3.913q9.391-13.443,18.793-26.879a2.523,2.523,0,0,1,1.7-1.021c5.2-1.062,10.156-2.9,15.216-4.37,4.235-1.235,8.562-2.321,12.661-3.894,3.285-1.263,6.728-2.042,10-3.277,5.66-2.14,11.447-3.981,17.066-6.19,2.144-.843,4.526-1.281,6.435-2.648a.781.781,0,0,1,.906-.1c.406.269.253.663.132.983Q545,256.97,542.645,263.1c-1.035,2.708-2.122,5.4-3.088,8.126a2.133,2.133,0,0,1-1.666,1.415,52.344,52.344,0,0,0-19.485,10.418c-3.837,3.29-6.942,7.209-10.265,10.94-2.786,3.128-5.244,6.5-7.728,9.828-2.7,3.618-5.16,7.4-7.511,11.253a172.475,172.475,0,0,0-12.145,24.081,184.687,184.687,0,0,0-6.145,17.574c-1.842,6.149-3.48,12.348-4.851,18.605q-1.681,7.675-3.02,15.434c-.953,5.521-1.869,11.048-2.7,16.586-.568,3.778-.869,7.6-1.4,11.382-.7,5.045-.967,10.143-1.846,15.168-.491,2.8-.625,5.669-.983,8.5-.488,3.838-1.065,7.664-1.55,11.5-.364,2.88-.637,5.773-.96,8.66a62.884,62.884,0,0,0-.539,10.225c.211,4,.576,8.105,3.822,11.209a8.87,8.87,0,0,0,8.808,2.218,23.637,23.637,0,0,0,8.218-4.571c3.17-2.448,6.278-4.973,9.366-7.514,4.173-3.431,8.3-6.913,12.451-10.366,3.476-2.889,7.008-5.72,10.432-8.665,3.505-3.011,7.118-5.9,10.54-9.011,3.607-3.274,7.233-6.528,10.822-9.822,2.978-2.734,5.683-5.7,8.454-8.619a119.813,119.813,0,0,0,13.937-18.213,155.023,155.023,0,0,0,9.2-16.778,150.019,150.019,0,0,0,6.31-15.089,116.983,116.983,0,0,0,4.77-15.768c.78-3.937,1.866-7.82,2.5-11.786.591-3.72.891-7.487,1.333-11.232.712-6.041.349-12.12.186-18.186-.054-1.989-.561-3.973-.746-5.967a59.536,59.536,0,0,0-2.384-12.106,90.059,90.059,0,0,0-8.121-19.139c-1.985-3.389-3.91-6.827-6.636-9.708-1.681-1.776-1.319-3-.381-4.879q4.3-8.629,8.8-17.163c2.273-4.339,4.5-8.717,7.146-12.867a5.266,5.266,0,0,1,2.439-2.057c5.305-2.36,10.623-4.717,15.781-7.342,5.391-2.743,10.857-5.362,16.2-8.182,5.066-2.675,10.08-5.447,15.071-8.249,2.93-1.644,5.9-3.241,8.852-4.865.874-.482,1.712-1.021,2.58-1.514.259-.148.571-.428.87-.157a.918.918,0,0,1,.187.7c-.756,6.226-1,12.5-1.362,18.756-.092,1.607-1.518,1.828-2.5,2.231-10.359,4.269-18.018,11.365-23.777,20.382a53.277,53.277,0,0,0-4.68,10.313c-1.982,5.346-2.893,10.913-3.92,16.455a70.487,70.487,0,0,0-.781,8.833c-.367,6.371.1,12.757.242,19.136.04,1.836.485,3.669.681,5.509.538,5.054,1.567,10.049,2.336,15.072,2.224,14.544,6.22,28.749,9.7,43.055,3.484,14.327,7.533,28.532,11.247,42.809a67.465,67.465,0,0,0,5.356,14.254c2.029,3.894,4.9,7.222,9.7,8.338a11.262,11.262,0,0,0,4.655-.184,19.717,19.717,0,0,0,8.117-3.793A51.029,51.029,0,0,0,663,417.716a143.84,143.84,0,0,0,9.895-14.992q3.719-6.482,6.9-13.2c2.311-4.888,4.294-9.91,6.121-15,1.62-4.517,2.916-9.115,4.2-13.718.931-3.33,1.628-6.723,2.264-10.132.833-4.455,1.64-8.913,2.187-13.412.339-2.781.464-5.587.707-8.38a148.075,148.075,0,0,0,.376-18.815m-171.911-195.7c-10.786-16.324-21.516-32.341-30.562-49.751,15.772,12.649,28.453,28.1,39.531,44.462C543.58,125.567,552.892,143,558.2,161.828c-12.751-15.221-23.462-31.259-34.452-47.456m-71.312,61.051c-14.35-15.366-27.229-31.4-42.046-46.241-19.309-20.116-40.05-38.381-61.079-57.092,38.93,18.692,71.694,48.581,95.759,82.993,8.1,11.572,14.129,23.566,24.856,33-6.632-2.9-12.413-7.619-17.49-12.661m-139.811-2.815C293.4,154.842,274.814,136.583,258.55,116.2c22.057,14.666,41.968,31.617,61.381,49.2,19.241,17.753,37.826,36.012,54.074,56.412-22.072-14.649-41.982-31.6-61.383-49.2m-150.2,1.542c16.437,10.168,30.754,22.5,45.744,34.18,14.871,11.857,29.722,22.586,45.719,33.347-37.285-6.98-71.194-37.932-91.463-67.527M30,233.87c25.1,8.444,49.535,17.2,74.849,24.5,25.252,7.508,50.565,13.329,76.271,19.8C129.407,280.635,71.931,263.734,30,233.87M213.076,348.647c-18.278,7.1-36.466,13.866-55.871,18.345,28.8-21.2,72.361-38.515,108.8-43.107-16.9,9.929-34.747,17.441-52.925,24.762m167.883,47.381c-19.52,20.442-40.686,39.543-64.76,55.188,18.143-21.509,37.544-41.551,56.748-62.051,19.395-20.34,38.3-40.8,58.891-60.215-13.806,24.438-31.55,46.474-50.879,67.079m135.035-2.3c-9.509,24.947-20.613,49.328-35.41,71.852,6.97-25.747,16.138-50.509,25.35-75.446,9.452-24.853,18.837-49.535,30.576-73.58-3.586,26.527-11.247,52.142-20.516,77.173M644.43,404.418c-.608-17.872.277-42.858.436-60.853.315-18.063.069-42.911,1.178-60.827a145.944,145.944,0,0,1,7.508,30.29c4.143,30.687,2.209,62.524-9.122,91.389" transform="translate(1236.613 2092.285) rotate(78)" fill="#e8e8e8" opacity="0.13" style="mix-blend-mode: multiply;isolation: isolate"/>
    </g>
    <g id="Grupo_1102227" data-name="Grupo 1102227" transform="translate(416.204 2192.338)">
      <g id="Grupo_1102226" data-name="Grupo 1102226" transform="translate(0.001 0)" clip-path="url(#clip-path-2)">
        <path id="Trazado_882492" data-name="Trazado 882492" d="M349.337,284.153l-14.381-2.739L346.824,303.6l20.318-7.805,17.069.65C383.22,283.166,375.359,228,375.359,228Z" transform="translate(104.677 71.252)" fill="#fba457"/>
        <path id="Trazado_882493" data-name="Trazado 882493" d="M578.177,143.8l-57.033-6.581S470.36,226.52,433.8,290.392l34.267,22.276L588.255,200.9Z" transform="translate(135.566 42.882)" fill="#eff2d6"/>
        <path id="Trazado_882494" data-name="Trazado 882494" d="M417.3,291.653l29.568,9.051L473.22,276.2l-34.267-22.276c-8.17,14.275-15.631,27.279-21.655,37.732" transform="translate(130.41 79.353)" fill="#483f40"/>
        <path id="Trazado_882495" data-name="Trazado 882495" d="M438.992,253.921,417.177,291.6l.16.05C423.36,281.2,430.822,268.195,438.992,253.921Z" transform="translate(130.372 79.353)" fill="#29abe2"/>
        <path id="Trazado_882496" data-name="Trazado 882496" d="M449.023,193.6l-10.272-13.011L423,193.6l-21.229-7.533L382.6,171.342,378.49,162.1l-16.409-19.174-10.3-23.968-24.653,5.478,24.653,193.8L377.8,262.077s7.861,55.166,8.852,68.445l54.834,2.088,3.826,1.172L467.133,296.1c22.671-39.605,50.806-88.98,68.916-120.788L499.7,167.577Z" transform="translate(102.232 37.175)" fill="#af7142"/>
        <path id="Trazado_882497" data-name="Trazado 882497" d="M351.165,52.892,386.773,246l-27.391,1.37L322.4,156.979l-39.718,24.653s-13.011,36.294-39.718,54.1-81.49-26.706-81.49-26.706L112.859,223.4V235.73l6.5,18.489-29.1,39.033v17.12s16.71,1.238,32.238,2.58L142.3,253.535l44.511,2.739L313.5,403.5,423.294,361.32l-11.868-22.187,14.381,2.739L401.154,148.077l24.653-5.478L397.045,43.305Z" transform="translate(28.207 13.533)" fill="#b1c034"/>
        <path id="Trazado_882498" data-name="Trazado 882498" d="M711.495,173.937l-10.957-17.8H664.93l-40.4-13.011L594.4,105.458,525.918,210.23l-38.349-13.011L436.21,41.772,382.111,0l-8.9,57.522-17.12,18.489-1.369,60.261-104.772,98.61-52.729-26.364L89.707,224.611,0,260.9,129.425,390.33l21.281-63.844c-15.53-1.343-32.238-2.58-32.238-2.58v-17.12l29.1-39.033-6.506-18.489V236.937l48.621-14.38s54.783,44.511,81.49,26.706,39.718-54.1,39.718-54.1l39.717-24.653L387.59,260.9l27.392-1.37L379.373,66.425l45.88-9.587,28.761,99.294,10.3,23.968,16.409,19.173,4.108,9.245L504,223.241l21.229,7.533,15.75-13.011,10.272,13.011,50.675-26.022,36.351,7.735C649.376,193,656.712,180.1,656.712,180.1l57.031,6.58Z" fill="#474c15"/>
        <path id="Trazado_882499" data-name="Trazado 882499" d="M116.834,194.076s-100.7,0-24.52,58.563c3.351,2.578,40.915-44.169,40.915-44.169Z" transform="translate(19.944 60.651)" fill="#57d3fb"/>
        <path id="Trazado_882500" data-name="Trazado 882500" d="M447.922,301.591,542.068,193.2l5.7-53.256" transform="translate(139.98 43.734)" fill="none" stroke="#483f40" stroke-miterlimit="10" stroke-width="0.25"/>
        <line id="Línea_2212" data-name="Línea 2212" x2="42.745" y2="30.328" transform="translate(588.814 299.252)" fill="none" stroke="#483f40" stroke-miterlimit="10" stroke-width="0.25"/>
        <line id="Línea_2213" data-name="Línea 2213" x2="70.164" y2="31.738" transform="translate(622.472 241.045)" fill="none" stroke="#483f40" stroke-miterlimit="10" stroke-width="0.25"/>
        <path id="Trazado_882501" data-name="Trazado 882501" d="M307.014,347.39c-.585-3.578-117.424-154.715-117.424-154.715" transform="translate(59.249 60.213)" fill="none" stroke="#483f40" stroke-miterlimit="10" stroke-width="0.25"/>
        <path id="Trazado_882502" data-name="Trazado 882502" d="M177.734,183.607,156.68,212.9l-39.978-35.1,6.611,65.9" transform="translate(36.471 55.562)" fill="none" stroke="#483f40" stroke-miterlimit="10" stroke-width="0.25"/>
        <line id="Línea_2214" data-name="Línea 2214" y1="82.809" x2="127.676" transform="translate(242.963 219.468)" fill="none" stroke="#483f40" stroke-miterlimit="10" stroke-width="0.25"/>
        <line id="Línea_2215" data-name="Línea 2215" y1="115.563" x2="80.789" transform="translate(306.801 260.904)" fill="none" stroke="#483f40" stroke-miterlimit="10" stroke-width="0.25"/>
        <line id="Línea_2216" data-name="Línea 2216" x2="39.358" y2="55.195" transform="translate(409.517 259.808)" fill="none" stroke="#483f40" stroke-miterlimit="10" stroke-width="0.25"/>
        <path id="Trazado_882503" data-name="Trazado 882503" d="M364.865,212.56c-8.084,4.515-110.7,128.616-110.7,128.616" transform="translate(79.429 66.427)" fill="none" stroke="#483f40" stroke-miterlimit="10" stroke-width="0.25"/>
        <path id="Trazado_882504" data-name="Trazado 882504" d="M304.445,152.839c-.322-1.743,37.441-78.562,37.441-78.562" transform="translate(95.142 23.212)" fill="none" stroke="#483f40" stroke-miterlimit="10" stroke-width="0.25"/>
        <path id="Trazado_882505" data-name="Trazado 882505" d="M306.89,46.882C305.4,50.4,333.473,146.958,333.473,146.958" transform="translate(95.888 14.651)" fill="none" stroke="#483f40" stroke-miterlimit="10" stroke-width="0.25"/>
      </g>
    </g>
    <path id="Trazado_886061" data-name="Trazado 886061" d="M8.832-2.783H3.952L3.024,0H.065L5.093-13.508H7.672L12.729,0H9.769ZM4.7-5.038H8.081l-1.7-5.056ZM6.958-17.126H9.88L7.311-14.25H5.13Zm12.5,9.6A7.284,7.284,0,0,0,18.49-7.6,1.964,1.964,0,0,0,16.5-6.568V0H13.814V-10.038h2.533l.074,1.2a2.484,2.484,0,0,1,2.236-1.382,2.809,2.809,0,0,1,.835.121ZM25.188.186a4.928,4.928,0,0,1-3.595-1.354,4.815,4.815,0,0,1-1.387-3.609v-.26a6.064,6.064,0,0,1,.584-2.7,4.289,4.289,0,0,1,1.656-1.837,4.648,4.648,0,0,1,2.445-.645,4.166,4.166,0,0,1,3.242,1.3,5.278,5.278,0,0,1,1.183,3.683v1.095H22.924a2.491,2.491,0,0,0,.784,1.577,2.37,2.37,0,0,0,1.656.594A2.894,2.894,0,0,0,27.786-3.1L29.1-1.624A4.025,4.025,0,0,1,27.47-.292,5.357,5.357,0,0,1,25.188.186Zm-.306-8.248a1.675,1.675,0,0,0-1.294.54,2.8,2.8,0,0,0-.635,1.547h3.729v-.214A2,2,0,0,0,26.2-7.573,1.729,1.729,0,0,0,24.882-8.062ZM36.655,0a2.977,2.977,0,0,1-.269-.9A3.244,3.244,0,0,1,33.853.186a3.564,3.564,0,0,1-2.445-.854,2.745,2.745,0,0,1-.969-2.152A2.837,2.837,0,0,1,31.622-5.27a5.837,5.837,0,0,1,3.419-.863h1.234v-.575a1.654,1.654,0,0,0-.357-1.113,1.405,1.405,0,0,0-1.127-.417,1.6,1.6,0,0,0-1.062.325,1.1,1.1,0,0,0-.385.891H30.662A2.693,2.693,0,0,1,31.2-8.637,3.557,3.557,0,0,1,32.721-9.8a5.545,5.545,0,0,1,2.208-.422,4.381,4.381,0,0,1,2.946.932,3.262,3.262,0,0,1,1.09,2.621v4.351a4.8,4.8,0,0,0,.4,2.162V0ZM34.438-1.865a2.309,2.309,0,0,0,1.095-.264,1.737,1.737,0,0,0,.742-.71V-4.564h-1q-2.013,0-2.143,1.392l-.009.158a1.073,1.073,0,0,0,.353.826A1.369,1.369,0,0,0,34.438-1.865ZM48.966-12.506v2.468h1.716v1.967H48.966v5.01a1.2,1.2,0,0,0,.213.8A1.072,1.072,0,0,0,50-2.022a4.276,4.276,0,0,0,.789-.065V-.056a5.52,5.52,0,0,1-1.624.241,2.56,2.56,0,0,1-2.876-2.848V-8.071H44.819v-1.967h1.466v-2.468ZM51.48-5.112a5.953,5.953,0,0,1,.575-2.663,4.211,4.211,0,0,1,1.656-1.809,4.831,4.831,0,0,1,2.51-.64A4.571,4.571,0,0,1,59.537-8.98,4.989,4.989,0,0,1,60.971-5.6l.019.687A5.247,5.247,0,0,1,59.7-1.211a4.482,4.482,0,0,1-3.46,1.4,4.5,4.5,0,0,1-3.465-1.392A5.339,5.339,0,0,1,51.48-4.991Zm2.681.19A3.752,3.752,0,0,0,54.7-2.733a1.775,1.775,0,0,0,1.54.757,1.779,1.779,0,0,0,1.521-.748,4.106,4.106,0,0,0,.547-2.393,3.715,3.715,0,0,0-.547-2.174,1.779,1.779,0,0,0-1.54-.771A1.75,1.75,0,0,0,54.7-7.3,4.175,4.175,0,0,0,54.161-4.921Zm11.689-7.584v2.468h1.716v1.967H65.851v5.01a1.2,1.2,0,0,0,.213.8,1.072,1.072,0,0,0,.816.241,4.276,4.276,0,0,0,.789-.065V-.056a5.52,5.52,0,0,1-1.624.241,2.56,2.56,0,0,1-2.876-2.848V-8.071H61.7v-1.967h1.466v-2.468ZM74.877,0a2.977,2.977,0,0,1-.269-.9A3.244,3.244,0,0,1,72.076.186a3.564,3.564,0,0,1-2.445-.854,2.745,2.745,0,0,1-.969-2.152A2.837,2.837,0,0,1,69.844-5.27a5.837,5.837,0,0,1,3.419-.863H74.5v-.575a1.654,1.654,0,0,0-.357-1.113,1.405,1.405,0,0,0-1.127-.417,1.6,1.6,0,0,0-1.062.325,1.1,1.1,0,0,0-.385.891H68.884a2.693,2.693,0,0,1,.538-1.614A3.557,3.557,0,0,1,70.944-9.8a5.545,5.545,0,0,1,2.208-.422,4.381,4.381,0,0,1,2.946.932,3.262,3.262,0,0,1,1.09,2.621v4.351a4.8,4.8,0,0,0,.4,2.162V0ZM72.66-1.865a2.309,2.309,0,0,0,1.095-.264,1.737,1.737,0,0,0,.742-.71V-4.564h-1q-2.013,0-2.143,1.392l-.009.158a1.073,1.073,0,0,0,.353.826A1.369,1.369,0,0,0,72.66-1.865ZM82.077,0h-2.69V-14.25h2.69ZM88.6-5.093a6.049,6.049,0,0,1,1.053-3.739,3.417,3.417,0,0,1,2.881-1.392,3.074,3.074,0,0,1,2.421,1.095V-14.25h2.69V0H95.223l-.13-1.067A3.155,3.155,0,0,1,92.514.186a3.407,3.407,0,0,1-2.844-1.4A6.244,6.244,0,0,1,88.6-5.093Zm2.681.2a3.963,3.963,0,0,0,.492,2.165,1.6,1.6,0,0,0,1.429.753,1.794,1.794,0,0,0,1.753-1.05V-6.994a1.768,1.768,0,0,0-1.735-1.05Q91.28-8.043,91.28-4.894ZM104.342.186a4.928,4.928,0,0,1-3.595-1.354A4.815,4.815,0,0,1,99.36-4.778v-.26a6.064,6.064,0,0,1,.584-2.7A4.289,4.289,0,0,1,101.6-9.579a4.648,4.648,0,0,1,2.445-.645,4.166,4.166,0,0,1,3.242,1.3,5.278,5.278,0,0,1,1.183,3.683v1.095h-6.392a2.491,2.491,0,0,0,.784,1.577,2.37,2.37,0,0,0,1.656.594A2.894,2.894,0,0,0,106.94-3.1l1.317,1.475a4.025,4.025,0,0,1-1.633,1.331A5.357,5.357,0,0,1,104.342.186Zm-.306-8.248a1.675,1.675,0,0,0-1.294.54,2.8,2.8,0,0,0-.635,1.547h3.729v-.214a2,2,0,0,0-.482-1.384A1.729,1.729,0,0,0,104.036-8.062ZM117.553,0h-2.69V-14.25h2.69Zm8.025,0a2.977,2.977,0,0,1-.269-.9A3.244,3.244,0,0,1,122.776.186a3.564,3.564,0,0,1-2.445-.854,2.745,2.745,0,0,1-.969-2.152,2.837,2.837,0,0,1,1.183-2.449,5.837,5.837,0,0,1,3.419-.863H125.2v-.575a1.654,1.654,0,0,0-.357-1.113,1.405,1.405,0,0,0-1.127-.417,1.6,1.6,0,0,0-1.062.325,1.1,1.1,0,0,0-.385.891h-2.681a2.693,2.693,0,0,1,.538-1.614A3.557,3.557,0,0,1,121.645-9.8a5.545,5.545,0,0,1,2.208-.422,4.381,4.381,0,0,1,2.946.932,3.262,3.262,0,0,1,1.09,2.621v4.351a4.8,4.8,0,0,0,.4,2.162V0Zm-2.217-1.865a2.309,2.309,0,0,0,1.095-.264,1.737,1.737,0,0,0,.742-.71V-4.564h-1q-2.013,0-2.143,1.392l-.009.158a1.073,1.073,0,0,0,.353.826A1.369,1.369,0,0,0,123.361-1.865ZM135.329,0V-8.071h-1.494v-1.967h1.494V-10.5a3.764,3.764,0,0,1,1.164-2.918,4.684,4.684,0,0,1,3.233-1.025,10.724,10.724,0,0,1,3.043.547l-.39,2.217a11.873,11.873,0,0,0-1.41-.348,6.929,6.929,0,0,0-1.076-.079q-1.874,0-1.874,1.661v.408H140v1.967h-1.976V0Zm8.693,0h-2.69V-10.038h2.69Zm4.685-10.038.083,1.16a3.5,3.5,0,0,1,2.885-1.345,2.913,2.913,0,0,1,2.375.937,4.372,4.372,0,0,1,.8,2.8V0h-2.681V-6.42a1.739,1.739,0,0,0-.371-1.239,1.661,1.661,0,0,0-1.234-.385,1.844,1.844,0,0,0-1.7.965V0h-2.681V-10.038Zm12.348,8.062a1.759,1.759,0,0,0,1.206-.408,1.43,1.43,0,0,0,.482-1.085h2.514A3.439,3.439,0,0,1,164.7-1.6a3.673,3.673,0,0,1-1.5,1.317,4.689,4.689,0,0,1-2.1.469,4.358,4.358,0,0,1-3.4-1.368,5.415,5.415,0,0,1-1.243-3.781V-5.14a5.353,5.353,0,0,1,1.234-3.7,4.307,4.307,0,0,1,3.386-1.382,4.222,4.222,0,0,1,3.02,1.072A3.794,3.794,0,0,1,165.257-6.3h-2.514a1.842,1.842,0,0,0-.482-1.273,1.608,1.608,0,0,0-1.225-.49,1.615,1.615,0,0,0-1.415.683,3.958,3.958,0,0,0-.478,2.216v.279a4.008,4.008,0,0,0,.473,2.23A1.635,1.635,0,0,0,161.055-1.976ZM172.6,0a2.977,2.977,0,0,1-.269-.9A3.244,3.244,0,0,1,169.8.186a3.564,3.564,0,0,1-2.445-.854,2.745,2.745,0,0,1-.969-2.152,2.837,2.837,0,0,1,1.183-2.449,5.837,5.837,0,0,1,3.419-.863h1.234v-.575a1.654,1.654,0,0,0-.357-1.113,1.405,1.405,0,0,0-1.127-.417,1.6,1.6,0,0,0-1.062.325,1.1,1.1,0,0,0-.385.891h-2.681a2.693,2.693,0,0,1,.538-1.614A3.557,3.557,0,0,1,168.671-9.8a5.545,5.545,0,0,1,2.208-.422,4.381,4.381,0,0,1,2.946.932,3.262,3.262,0,0,1,1.09,2.621v4.351a4.8,4.8,0,0,0,.4,2.162V0Zm-2.217-1.865a2.309,2.309,0,0,0,1.095-.264,1.737,1.737,0,0,0,.742-.71V-4.564h-1q-2.013,0-2.143,1.392l-.009.158a1.073,1.073,0,0,0,.353.826A1.369,1.369,0,0,0,170.388-1.865ZM10.177,25H.918V23.163l4.37-4.657A10.78,10.78,0,0,0,6.619,16.79,2.757,2.757,0,0,0,7.051,15.4,2.063,2.063,0,0,0,6.6,13.983a1.641,1.641,0,0,0-1.3-.515,1.77,1.77,0,0,0-1.433.626,2.481,2.481,0,0,0-.524,1.647H.649a4.428,4.428,0,0,1,.589-2.254,4.152,4.152,0,0,1,1.665-1.6,5.062,5.062,0,0,1,2.44-.58,4.793,4.793,0,0,1,3.242,1,3.545,3.545,0,0,1,1.155,2.83,4.542,4.542,0,0,1-.52,2.041A11.342,11.342,0,0,1,7.44,19.6L4.37,22.838h5.808Zm4.37-7.941h1.429a2.013,2.013,0,0,0,1.512-.51,1.87,1.87,0,0,0,.492-1.354,1.653,1.653,0,0,0-.487-1.271,1.888,1.888,0,0,0-1.341-.455,1.979,1.979,0,0,0-1.29.422,1.35,1.35,0,0,0-.52,1.1H11.662a3.3,3.3,0,0,1,.571-1.9,3.8,3.8,0,0,1,1.6-1.313,5.326,5.326,0,0,1,2.259-.473,5.051,5.051,0,0,1,3.358,1.025,3.5,3.5,0,0,1,1.215,2.825,2.842,2.842,0,0,1-.566,1.707,3.677,3.677,0,0,1-1.484,1.2,3.356,3.356,0,0,1,1.7,1.225,3.322,3.322,0,0,1,.561,1.93A3.556,3.556,0,0,1,19.561,24.1a5.278,5.278,0,0,1-3.474,1.085,5,5,0,0,1-3.307-1.067,3.484,3.484,0,0,1-1.285-2.82h2.681a1.553,1.553,0,0,0,.571,1.243,2.1,2.1,0,0,0,1.406.482,2.112,2.112,0,0,0,1.5-.506,1.745,1.745,0,0,0,.543-1.341q0-2.022-2.227-2.022H14.547Zm8.98,11.328-1.4-.733.334-.6A4.82,4.82,0,0,0,23.1,24.8V22.718h2.264l-.009,1.855a4.82,4.82,0,0,1-.52,2.078A5.327,5.327,0,0,1,23.527,28.386ZM36.618,25H27.359V23.163l4.37-4.657A10.78,10.78,0,0,0,33.06,16.79a2.757,2.757,0,0,0,.431-1.392,2.063,2.063,0,0,0-.455-1.415,1.641,1.641,0,0,0-1.3-.515,1.77,1.77,0,0,0-1.433.626,2.481,2.481,0,0,0-.524,1.647H27.09a4.428,4.428,0,0,1,.589-2.254,4.152,4.152,0,0,1,1.665-1.6,5.062,5.062,0,0,1,2.44-.58,4.793,4.793,0,0,1,3.242,1,3.545,3.545,0,0,1,1.155,2.83,4.542,4.542,0,0,1-.52,2.041A11.342,11.342,0,0,1,33.881,19.6L30.81,22.838h5.808Zm9.1-8.943a3.346,3.346,0,0,1,2.681-1.28q3.266,0,3.312,3.794V25H49.031V18.645a1.865,1.865,0,0,0-.371-1.276,1.591,1.591,0,0,0-1.234-.413,1.825,1.825,0,0,0-1.707.909V25H43.038V10.75h2.681ZM59.551,25a2.977,2.977,0,0,1-.269-.9,3.244,3.244,0,0,1-2.533,1.085,3.564,3.564,0,0,1-2.445-.854,2.745,2.745,0,0,1-.969-2.152,2.837,2.837,0,0,1,1.183-2.449,5.837,5.837,0,0,1,3.419-.863h1.234v-.575a1.654,1.654,0,0,0-.357-1.113,1.405,1.405,0,0,0-1.127-.417,1.6,1.6,0,0,0-1.062.325,1.1,1.1,0,0,0-.385.891H53.558a2.693,2.693,0,0,1,.538-1.614A3.557,3.557,0,0,1,55.618,15.2a5.545,5.545,0,0,1,2.208-.422,4.381,4.381,0,0,1,2.946.932,3.262,3.262,0,0,1,1.09,2.621v4.351a4.8,4.8,0,0,0,.4,2.162V25Zm-2.217-1.865a2.309,2.309,0,0,0,1.095-.264,1.737,1.737,0,0,0,.742-.71V20.436h-1q-2.013,0-2.143,1.392l-.009.158a1.073,1.073,0,0,0,.353.826A1.369,1.369,0,0,0,57.334,23.135Z" transform="translate(1087.025 2617.332)" fill="#12263f"/>
    <g id="Grupo_1102250" data-name="Grupo 1102250" transform="translate(-386 -319.494)">
      <path id="Trazado_882511" data-name="Trazado 882511" d="M11.453,184.717A5.791,5.791,0,0,0,8.1,182.724a7.305,7.305,0,0,0-4.365.374,5.623,5.623,0,0,0-2.253,1.734A3.644,3.644,0,0,0,0,187.627a3.844,3.844,0,0,0,1.62,3.021l2.742,1.827a7.112,7.112,0,0,0,7.425.424,4.214,4.214,0,0,0,2.055-2.179,3.614,3.614,0,0,0-.529-3.277l-1.862-2.726" transform="translate(670.975 2684.968)" fill="#fba457"/>
      <path id="Trazado_882512" data-name="Trazado 882512" d="M15.732,157.382a7.236,7.236,0,0,0-3.959,1.875,4.806,4.806,0,0,0-1.591,3.265v2.409c0,2.749,3.127,3.989,5.482,3.579a7.233,7.233,0,0,0,3.959-1.875,4.806,4.806,0,0,0,1.591-3.265v-2.408c0-2.749-3.126-3.99-5.482-3.58" transform="translate(663.786 2646.414)" fill="#fba457"/>
      <path id="Trazado_882513" data-name="Trazado 882513" d="M35.26,182.046c-2.288,0-5.342,1.989-4.647,4.612.758,2.861,3.821,3.914,6.474,3.914,2.288,0,5.342-1.988,4.647-4.612-.758-2.861-3.821-3.914-6.474-3.914" transform="translate(650.575 2658.945)" fill="#fba457"/>
      <path id="Trazado_882514" data-name="Trazado 882514" d="M54.014,156.6a19,19,0,0,0-9.671-3.872c-1.668-.218-3.869.943-5.09,1.927a10.175,10.175,0,0,0-3.388,5.083c-.379,1.617-.55,3.59.441,5.045a5.211,5.211,0,0,0,4.032,2.271h.007l.095.031c.343.111.693.193,1.034.311a12.962,12.962,0,0,1,1.317.545c.422.272.834.556,1.232.869,3.016,2.378,7.506.351,9.576-2.359,1.991-2.609,3.568-7.368.416-9.854" transform="translate(649.196 2666.947)" fill="#fba457"/>
      <path id="Trazado_882515" data-name="Trazado 882515" d="M56.673,210.722c-.5-2.755-3.519-4.412-6.146-4.412-2.265,0-5.5,1.438-5,4.231.5,2.756,3.519,4.412,6.145,4.412,2.265,0,5.5-1.437,5-4.231" transform="translate(646.494 2652.328)" fill="#fba457"/>
    </g>
    <g id="Grupo_1102252" data-name="Grupo 1102252" transform="translate(1292.3 2220.797)">
      <g id="Grupo_1102251" data-name="Grupo 1102251" clip-path="url(#clip-path-3)">
        <path id="Trazado_882516" data-name="Trazado 882516" d="M22.456,34.711a1.142,1.142,0,0,0-.335-.539,1.264,1.264,0,0,0-1-.186,29.825,29.825,0,0,0-4.081.783c-.377.1-.753.205-1.164.318.448-.374.885-.7,1.317-1.036a19.975,19.975,0,0,1,2.054-1.389c.9-.534,1.812-1.05,2.718-1.577a1.053,1.053,0,0,0,.656-1.062c-.072-.6-.167-1.193-.293-1.779a.833.833,0,0,0-.764-.719,2.515,2.515,0,0,0-.656.011,11.85,11.85,0,0,0-2.753.736c-.576.222-1.146.465-1.745.709.236-.24.449-.463.668-.679.322-.317.654-.623.971-.944q.844-.855,1.672-1.724a2.57,2.57,0,0,0,.731-1.26,2.172,2.172,0,0,0-.189-1.21c-.5-1.346-1.03-2.682-1.5-4.042a2.016,2.016,0,0,0-.465-.806.651.651,0,0,0-.644-.167,1.624,1.624,0,0,0-.4.177c-1.058.567-2.133,1.1-3.152,1.746-.179.114-.354.235-.531.353.295-.345.6-.676.921-.99.525-.512,1.033-1.042,1.552-1.561a7.992,7.992,0,0,0,1.113-1.349,1.564,1.564,0,0,0,.173-1.589,8.533,8.533,0,0,0-.564-1.007c-.329-.506-.658-1.012-1-1.506a2.883,2.883,0,0,0-.54-.665.718.718,0,0,0-1.032.129,3.616,3.616,0,0,0-.319.463,16.624,16.624,0,0,1-1.312,1.892c.277-.671.548-1.323.815-1.976.287-.7.576-1.4.809-2.123a2.2,2.2,0,0,0-.131-1.849c-.234-.415-.438-.849-.648-1.278C12.855,5.9,12.394,4.731,11.82,3.627A21.871,21.871,0,0,0,10.537,1.4,10.732,10.732,0,0,0,9.689.237.675.675,0,0,0,8.537.471a2.718,2.718,0,0,0-.176.5c-.4,1.493-.824,2.982-1.105,4.492A10.075,10.075,0,0,0,7.034,7.4a4.575,4.575,0,0,0,.11,1A2.208,2.208,0,0,0,6.868,8a8.023,8.023,0,0,0-.815-1.1.65.65,0,0,0-1.112.289,2.15,2.15,0,0,0-.073.264c-.124.506-.2,1.017-.288,1.526-.119.662-.282,1.32-.352,1.986a1.492,1.492,0,0,0,.145.859,11.59,11.59,0,0,0,.942,1.393c.494.689.988,1.376,1.432,2.1a14.776,14.776,0,0,1,1.549,3.5.424.424,0,0,1,.027.264c-.2-.177-.385-.335-.564-.5a11.953,11.953,0,0,0-2.014-1.559,6.178,6.178,0,0,0-1.681-.744.9.9,0,0,0-.555.037.944.944,0,0,0-.572.8,9.183,9.183,0,0,0-.1,1.416A8.8,8.8,0,0,0,3,20.567a1.8,1.8,0,0,0,.458.91,5.223,5.223,0,0,0,.8.607,12.208,12.208,0,0,1,2.5,2.083,13.022,13.022,0,0,1,1.358,1.9,7.572,7.572,0,0,1,.541,1.064c-.029,0-.045,0-.053-.006-.614-.457-1.222-.92-1.841-1.37-.907-.658-1.774-1.368-2.741-1.948A5.058,5.058,0,0,0,1.892,23a1.045,1.045,0,0,0-1.21.948A4.662,4.662,0,0,0,.7,25.2c.21,1.888.416,3.778.729,5.643A9.67,9.67,0,0,0,2.1,33.317a3.051,3.051,0,0,0,.8,1.1,6.849,6.849,0,0,0,1.222.754,13.3,13.3,0,0,1,2.34,1.5c.442.367.852.766,1.264,1.164a6.77,6.77,0,0,1,.947,1.112,2.736,2.736,0,0,1,.351.619c-.668-.377-1.3-.751-1.947-1.1-1.043-.555-2.161-.972-3.253-1.437a7.268,7.268,0,0,0-1.775-.547,1.091,1.091,0,0,0-1.036.3,1.219,1.219,0,0,0-.289.93,23.582,23.582,0,0,0,.249,2.767,1.241,1.241,0,0,0,.8,1.046,14.142,14.142,0,0,1,3.183,1.829c.159.124.311.256.465.386s.293.255.439.383a.205.205,0,0,1-.114-.033,21.276,21.276,0,0,0-3.578-1.649A6.988,6.988,0,0,0,1,42.111a.744.744,0,0,0-.44.055.823.823,0,0,0-.451.851c.015.22.048.437.074.656a1.883,1.883,0,0,0,1.225,1.715,18.8,18.8,0,0,1,2.322,1.127,16.357,16.357,0,0,1,2.236,1.473.314.314,0,0,1-.069,0,25.364,25.364,0,0,0-4.326-1.065,3.022,3.022,0,0,0-1-.031A.647.647,0,0,0,0,47.625a1.182,1.182,0,0,0,.065.271c.232.678.484,1.348.7,2.035a12.7,12.7,0,0,0,1.077,2.688,3.56,3.56,0,0,0,2.5,1.789,15.928,15.928,0,0,0,2.361.239c.642.027,1.289.017,1.934.025.126,0,.3-.041.367.022.085.077-.024.24-.046.365-.147.853-.286,1.707-.456,2.557-.022.109-.046.218-.069.328q.543.036,1.082.1c.079-.354.151-.71.213-1.066.148-.855.256-1.712.35-2.568.019-.176.076-.188.215-.13a7.162,7.162,0,0,0,2.86.526,3.692,3.692,0,0,0,2.121-.6,6.717,6.717,0,0,0,1.3-1.264,16.267,16.267,0,0,0,1.878-2.932,7.766,7.766,0,0,0,.879-2.695,1.038,1.038,0,0,0-.887-1.286c-.46-.09-.926-.155-1.395-.209a10.614,10.614,0,0,1-1.179-.173.335.335,0,0,1,.063-.042c1.289-.387,2.583-.755,3.878-1.115.581-.161,1.17-.259,1.754-.393a1.066,1.066,0,0,0,.8-.812,4.76,4.76,0,0,0,.111-.88c.089-.856.123-1.71.141-2.563.022-1.062.037-2.124.054-3.186a5.626,5.626,0,0,0-.216-1.941M8.2,34.117a2.626,2.626,0,0,1-1.249-.335,3.725,3.725,0,0,1-.745-.6,3.417,3.417,0,0,0-.652-.7c-.171-.119-.4-.18-.579-.292a1.849,1.849,0,0,1-.714-1.056L4.31,31.1a2.3,2.3,0,0,1,1.025.709,1.866,1.866,0,0,0,.593.715,5.2,5.2,0,0,1,2.3,1.538l-.028.057m.02-3.016A2.886,2.886,0,0,1,6.6,30.329c-.314-.236-.511-.647-.871-.826a5.9,5.9,0,0,0-.581-.2,1.607,1.607,0,0,1-.481-.346,1.718,1.718,0,0,1-.37-.51l.035-.053a1.852,1.852,0,0,1,1.111.47,5.868,5.868,0,0,0,.4.466,1.456,1.456,0,0,0,.53.272,3.811,3.811,0,0,1,1.073.526,2.956,2.956,0,0,1,.809.917Zm.186,12.2A4.86,4.86,0,0,1,6.4,42.092c-.4-.33-.666-.828-1.111-1.1-.217-.143-.484-.22-.715-.345a2.759,2.759,0,0,1-.605-.488,2.746,2.746,0,0,1-.484-.644l.039-.05a3.08,3.08,0,0,1,1.373.763c.18.19.323.429.517.6a2.5,2.5,0,0,0,.659.417A6.465,6.465,0,0,1,7.4,42.06a4.874,4.874,0,0,1,1.044,1.191Zm2.482,4.083c-.06.463-.157,1-.24,1.453q-.133.724-.278,1.446l-.063-.009q.527-5.843.784-11.71c.1-1.923.216-3.935.221-5.868.011-2.913-.213-5.894-.434-8.8-.334-4.855-.73-9.8-.916-14.663-.083-1.958-.145-3.918-.173-5.88l.063,0c.233,1.948.431,3.9.608,5.851.357,3.841.637,7.866.81,11.731.209,3.917.159,7.844.247,11.763a74.714,74.714,0,0,1-.63,14.69m4.917-9.318a3.134,3.134,0,0,1,.819-.137,2.407,2.407,0,0,0,.833-.027c.174-.052.336-.184.511-.254a1.308,1.308,0,0,1,.546-.058,1.385,1.385,0,0,1,.564.157l.006.063a1.689,1.689,0,0,1-1.034.36A3.842,3.842,0,0,0,17.5,38.1c-.365.017-.662.321-1,.429a2.779,2.779,0,0,1-1.608.234l-.022-.059a2.212,2.212,0,0,1,.937-.642m2.783,2.685c-.237-.02-.48-.1-.715-.1a2.055,2.055,0,0,0-.694.135,5.328,5.328,0,0,1-1.387.292,4.051,4.051,0,0,1-1.429-.178l-.006-.063a4.014,4.014,0,0,1,2.078-.458,9.387,9.387,0,0,0,1.419.069c.232-.04.456-.163.686-.225a2.265,2.265,0,0,1,.7-.046,2.3,2.3,0,0,1,.72.15l.006.063a2.554,2.554,0,0,1-1.38.359" transform="translate(0 0)" fill="#b1bf34"/>
      </g>
    </g>
  </g>
</svg>
