<svg xmlns="http://www.w3.org/2000/svg" width="31.559" height="31.559" viewBox="0 0 31.559 31.559">
  <g id="Grupo_1102393" data-name="Grupo 1102393" transform="translate(-705 -6481.54)">
    <circle id="Elipse_11686" data-name="Elipse 11686" cx="15.78" cy="15.78" r="15.78" transform="translate(705 6481.54)" fill="#b1bf34"/>
    <g id="evaluacion" transform="translate(712.074 6488.048)">
      <g id="Grupo_1102381" data-name="Grupo 1102381" transform="translate(0)">
        <path id="Trazado_882728" data-name="Trazado 882728" d="M19.368,32.761,16.9,30.3a.388.388,0,0,0-.549,0l-.062.062-.835-.835a3.724,3.724,0,0,0-2.213-5.163v-1.2a.388.388,0,0,0-.776,0V24.2a3.729,3.729,0,1,0,0,7.422v1.628a.423.423,0,0,1-.423.423H1.2a.423.423,0,0,1-.423-.423V18.365a.424.424,0,0,1,.423-.423H12.045a.424.424,0,0,1,.423.423v1.376a.388.388,0,0,0,.776,0V18.365a1.2,1.2,0,0,0-1.2-1.2H1.2a1.2,1.2,0,0,0-1.2,1.2V33.247a1.2,1.2,0,0,0,1.2,1.2H12.045a1.2,1.2,0,0,0,1.2-1.2V31.454a3.7,3.7,0,0,0,.44-.172l.843.843-.07.07a.393.393,0,0,0,0,.549l2.465,2.465a1.729,1.729,0,0,0,2.446-2.446Zm-4.8-3.238a2.952,2.952,0,1,1-.383-3.7A2.972,2.972,0,0,1,14.569,29.523Zm-.2,1.343a3.779,3.779,0,0,0,.671-.665l.706.706-.668.668Zm4.452,3.792a.962.962,0,0,1-1.348,0l-2.19-2.19,1.348-1.348,2.19,2.19A.954.954,0,0,1,18.819,34.658Z" transform="translate(0 -17.166)" fill="#575f19"/>
        <path id="Trazado_882729" data-name="Trazado 882729" d="M56.794,89a.388.388,0,0,0-.388-.388H54.228A.388.388,0,0,0,53.84,89v2.177a.388.388,0,0,0,.388.388h2.177a.388.388,0,0,0,.388-.388Zm-.776,1.789h-1.4v-1.4h1.4Z" transform="translate(-51.75 -85.838)" fill="#575f19"/>
        <path id="Trazado_882730" data-name="Trazado 882730" d="M56.794,202.089a.388.388,0,0,0-.388-.388H54.228a.388.388,0,0,0-.388.388v2.177a.388.388,0,0,0,.388.388h2.177a.388.388,0,0,0,.388-.388Zm-.776,1.789h-1.4v-1.4h1.4Z" transform="translate(-51.75 -194.538)" fill="#575f19"/>
        <path id="Trazado_882731" data-name="Trazado 882731" d="M56.405,314.79H54.228a.388.388,0,0,0-.388.388v2.177a.388.388,0,0,0,.388.388h2.177a.388.388,0,0,0,.388-.388v-2.177A.388.388,0,0,0,56.405,314.79Zm-.388,2.177h-1.4v-1.4h1.4Z" transform="translate(-51.75 -303.237)" fill="#575f19"/>
        <path id="Trazado_882732" data-name="Trazado 882732" d="M171.014,89a.388.388,0,0,0-.388-.388h-3.887a.388.388,0,0,0,0,.776h3.887A.388.388,0,0,0,171.014,89Z" transform="translate(-159.893 -85.838)" fill="#575f19"/>
        <path id="Trazado_882733" data-name="Trazado 882733" d="M169.82,131.644a.388.388,0,0,0-.388-.388h-2.694a.388.388,0,0,0,0,.776h2.694A.388.388,0,0,0,169.82,131.644Z" transform="translate(-159.893 -126.827)" fill="#575f19"/>
        <path id="Trazado_882734" data-name="Trazado 882734" d="M168.745,202.484a.388.388,0,0,0-.388-.388h-1.619a.388.388,0,0,0,0,.776h1.619A.388.388,0,0,0,168.745,202.484Z" transform="translate(-159.893 -194.917)" fill="#575f19"/>
        <path id="Trazado_882735" data-name="Trazado 882735" d="M167.111,244.74h-.373a.388.388,0,0,0,0,.776h.373a.388.388,0,1,0,0-.776Z" transform="translate(-159.893 -235.906)" fill="#575f19"/>
        <path id="Trazado_882736" data-name="Trazado 882736" d="M166.738,315.566h.373a.388.388,0,1,0,0-.776h-.373a.388.388,0,1,0,0,.776Z" transform="translate(-159.893 -303.237)" fill="#575f19"/>
        <path id="Trazado_882737" data-name="Trazado 882737" d="M166.738,358.21h1.619a.388.388,0,1,0,0-.776h-1.619a.388.388,0,0,0,0,.776Z" transform="translate(-159.893 -344.226)" fill="#575f19"/>
        <path id="Trazado_882738" data-name="Trazado 882738" d="M263.7,263.726a.388.388,0,0,0-.549.549l.926.926a.388.388,0,0,0,.549,0l1.892-1.892a.388.388,0,0,0-.549-.549l-1.618,1.618Z" transform="translate(-252.829 -253.117)" fill="#575f19"/>
        <path id="Trazado_882739" data-name="Trazado 882739" d="M321.965,117.919a.388.388,0,1,0-.21.507A.391.391,0,0,0,321.965,117.919Z" transform="translate(-308.75 -113.778)" fill="#575f19"/>
      </g>
    </g>
  </g>
</svg>
