<svg xmlns="http://www.w3.org/2000/svg" width="58" height="58" viewBox="0 0 58 58">
  <g id="Grupo_1103047" data-name="Grupo 1103047" transform="translate(-810 -495.042)">
    <circle id="Elipse_11686" data-name="Elipse 11686" cx="29" cy="29" r="29" transform="translate(810 495.042)" fill="#57d3fb"/>
    <path id="Trazado_885607" data-name="Trazado 885607" d="M30.848,27.975a18.662,18.662,0,0,1-4.165-.445,1.167,1.167,0,0,1-.244-.057,6.627,6.627,0,0,1-3.875-2.17l1.331-.972a5.388,5.388,0,0,0,3,1.56l.014,0a.77.77,0,0,1,.089.016,17.9,17.9,0,0,0,7.69,0,.814.814,0,0,1,.108-.018,5.431,5.431,0,0,0,3-1.563l1.331.973a6.731,6.731,0,0,1-3.938,2.187.77.77,0,0,1-.184.039,18.677,18.677,0,0,1-4.161.444ZM34.777,25.9a.429.429,0,0,0-.052.014Z" transform="translate(807.307 492.585)" fill="#2b697d"/>
    <g id="Grupo_1103046" data-name="Grupo 1103046">
      <path id="Trazado_885606" data-name="Trazado 885606" d="M22.5,34.775H20.851c0-.088,0-2.186.248-5.135a61,61,0,0,1,1.023-7.4c1.468-7.106,4.019-10.981,7.582-11.513a5.471,5.471,0,0,1,1.68,0c3.566.533,6.118,4.408,7.588,11.516a61.408,61.408,0,0,1,1.023,7.4c.126,1.531.183,3.451.213,4.761l-1.648.039c-.03-1.289-.084-3.176-.208-4.664a59.956,59.956,0,0,0-.994-7.2c-.905-4.375-2.717-9.7-6.213-10.221a4.422,4.422,0,0,0-1.2,0c-3.493.523-5.3,5.845-6.208,10.218a59.383,59.383,0,0,0-.994,7.2c-.239,2.877-.242,4.979-.242,5Z" transform="translate(807.608 494.991)" fill="#2b697d"/>
      <path id="Trazado_885608" data-name="Trazado 885608" d="M30.681,36.144a28.047,28.047,0,0,1-4.726-.381l-.043-.006-.062-.008a11.919,11.919,0,0,1-4.233-1.423l.875-1.4a10.5,10.5,0,0,0,3.622,1.191l.043.006.064.009a27.759,27.759,0,0,0,8.919,0l.056-.008.072-.01a10.462,10.462,0,0,0,3.6-1.188l.875,1.4a11.92,11.92,0,0,1-4.234,1.423l-.055.008-.072.01a28.108,28.108,0,0,1-4.7.377Z" transform="translate(807.474 491.07)" fill="#2b697d"/>
      <path id="Trazado_885609" data-name="Trazado 885609" d="M27.465,37.142H25.817c0-.03,0-3.057.179-6.149.08-1.589.245-4.058.57-6.771.716-6.074,1.868-10.479,3.427-13.088a.824.824,0,0,1,.707-.4v.813h.835l-.319.319.191.114c-1.418,2.375-2.526,6.675-3.2,12.437-.319,2.667-.481,5.1-.561,6.665-.174,3.049-.176,6.031-.176,6.06Z" transform="translate(806.734 494.979)" fill="#2b697d"/>
      <path id="Trazado_885610" data-name="Trazado 885610" d="M36.527,36.926c-.048-1.967-.13-3.928-.242-5.827-.555-9.27-1.851-16.038-3.649-19.073a.824.824,0,0,1-.156-.482H33.3l.011-.813a.824.824,0,0,1,.706.4c2.5,4.147,3.5,13.094,3.909,19.87.114,1.918.2,3.9.245,5.884Z" transform="translate(805.561 494.979)" fill="#2b697d"/>
      <path id="Trazado_885611" data-name="Trazado 885611" d="M24.312,51.452c-3.139,0-7.11-1.137-9.412-3.821-4.435-5.174-7.3-8.783-6.779-11.684a3.033,3.033,0,0,1,5.359-1.308,8.484,8.484,0,0,0,5,3.346c6.036,1.207,10.643,8.457,10.643,11.042,0,.492-.227,1.4-1.748,1.963a9.075,9.075,0,0,1-3.058.461ZM11.121,35.132a1.512,1.512,0,0,0-.36.045A1.321,1.321,0,0,0,9.744,36.24c-.394,2.179,2.407,5.651,6.408,10.318,2.572,3,7.486,3.606,10,3.07,1-.214,1.3-.537,1.324-.605,0-1.849-4.194-8.4-9.319-9.422a10.077,10.077,0,0,1-5.97-3.948,1.325,1.325,0,0,0-1.06-.521Z" transform="translate(809.86 490.973)" fill="#2b697d"/>
      <path id="Trazado_885612" data-name="Trazado 885612" d="M31.731,46.736l-1.165-1.165c.374-.375,9.247-9.177,15.16-7.993a7.466,7.466,0,0,1,5.441,3.652,2.964,2.964,0,0,1,.154,2.483A3.032,3.032,0,0,1,49.5,45.489a8.949,8.949,0,0,1-6.1-.382,3.587,3.587,0,0,1-1.942-2.025l1.563-.521a1.984,1.984,0,0,0,1.1,1.066,7.3,7.3,0,0,0,4.829.307,1.388,1.388,0,0,0,.832-.813,1.3,1.3,0,0,0-.064-1.1A5.9,5.9,0,0,0,45.4,39.194c-4.183-.837-11.29,5.16-13.671,7.543Z" transform="translate(805.898 490.271)" fill="#2b697d"/>
      <path id="Trazado_885613" data-name="Trazado 885613" d="M36.949,53.493a8.718,8.718,0,0,1-4.886-1.534l.914-1.371a6.954,6.954,0,0,0,6.354.852,11.1,11.1,0,0,0,6.064-5.2l1.558.54c-.616,1.775-3.5,5.012-7.1,6.224a9.092,9.092,0,0,1-2.908.491Z" transform="translate(805.634 488.728)" fill="#2b697d"/>
      <path id="Trazado_885614" data-name="Trazado 885614" d="M14.6,34.643c-1.39-3.172-2.687-11.777-.742-14.753a2.293,2.293,0,0,1,1.974-1.15c2.065,0,3.787,2,5.171,3.6.377.437.732.85,1.044,1.162l-1.165,1.165c-.356-.355-.731-.791-1.128-1.251-1.164-1.351-2.613-3.032-3.923-3.032-.1,0-.331,0-.595.4-1.457,2.23-.494,10.073.872,13.19Z" transform="translate(809.013 493.569)" fill="#2b697d"/>
      <path id="Trazado_885615" data-name="Trazado 885615" d="M48.811,35.74l-1.535-.6c1.46-3.756,2.157-11.99.807-13.408-.079-.083-.137-.132-.344-.061-1.567.522-3.236,2.22-4.577,3.584l-.557.564-1.165-1.165.547-.554c1.465-1.49,3.288-3.345,5.231-3.993a1.888,1.888,0,0,1,2.059.488c2.224,2.336.822,11.831-.465,15.141Z" transform="translate(803.983 493.35)" fill="#2b697d"/>
    </g>
  </g>
</svg>
