<svg xmlns="http://www.w3.org/2000/svg" width="58" height="58" viewBox="0 0 58 58">
  <g id="Grupo_1103051" data-name="Grupo 1103051" transform="translate(-600 -575.042)">
    <circle id="Elipse_11686" data-name="Elipse 11686" cx="29" cy="29" r="29" transform="translate(600 575.042)" fill="#57d3fb"/>
    <path id="Trazado_885599" data-name="Trazado 885599" d="M78.843,68.028a.611.611,0,0,0-.458.734,3.062,3.062,0,1,1-5.78-.581.611.611,0,0,0-1.113-.5A4.286,4.286,0,1,0,79.3,71.21a4.239,4.239,0,0,0,.272-2.717.611.611,0,0,0-.73-.465Z" transform="translate(556.946 533.418)" fill="#2b697d"/>
    <path id="Trazado_885600" data-name="Trazado 885600" d="M60.364,88.136A4.279,4.279,0,0,0,54.6,93.543a.619.619,0,0,0,1.155-.443,3.056,3.056,0,1,1,3.94,1.782.611.611,0,1,0,.431,1.143,4.279,4.279,0,0,0,.241-7.889Z" transform="translate(568.603 519.242)" fill="#2b697d"/>
    <path id="Trazado_885601" data-name="Trazado 885601" d="M86.055,37.065A3.063,3.063,0,1,1,83.9,31.332a.611.611,0,0,0-.431-1.143,4.279,4.279,0,1,0,3.02,8.008.611.611,0,0,0-.431-1.143Z" transform="translate(550.29 559.237)" fill="#2b697d"/>
    <path id="Trazado_885602" data-name="Trazado 885602" d="M38.71,4.761a5.254,5.254,0,0,0,.419-.975,5.553,5.553,0,0,0,.177-.8c.015-.134.04-.269.049-.4a3.109,3.109,0,0,0,0-.4,2.139,2.139,0,0,0-.782-1.5A.844.844,0,0,0,37.429.76l-.07.073a2.589,2.589,0,0,0-.452.663,2.552,2.552,0,0,0-.2.59c-.064.379-.076.749-.119,1.122q-.043.342-.092.688C34,3.591,31.13,6.076,28.893,8.31a6.657,6.657,0,0,0-1.9,3.811,3.319,3.319,0,0,1-2.029,2.54A6.724,6.724,0,0,0,21.4,18.209a3.316,3.316,0,0,1-2.54,2.029,6.66,6.66,0,0,0-3.811,1.9c-1.773,1.773-6.483,6.483-3.457,9.508,1.354,1.354,3.973,1.962,6.5,1.962a14.857,14.857,0,0,0,2.32-.18c-.452,2.188-.284,4.4,1.819,5.346a5.706,5.706,0,0,0,2.332.431c3.631,0,8.576-2.3,9.8-5a6.678,6.678,0,0,0,.556-2.02A4.673,4.673,0,0,1,37.008,28.7a6.724,6.724,0,0,0,3.035-6.706,4.673,4.673,0,0,1,1.244-3.857,6.675,6.675,0,0,0,1.152-1.751c.718-1.589.553-4.117-.443-6.761A10.969,10.969,0,0,0,38.71,4.761ZM12.455,30.787C10.982,29.31,12.08,26.841,15.918,23a5.446,5.446,0,0,1,3.118-1.556A4.545,4.545,0,0,0,22.529,18.7a5.5,5.5,0,0,1,2.9-2.9A4.548,4.548,0,0,0,28.184,12.3a5.447,5.447,0,0,1,1.556-3.118,28.119,28.119,0,0,1,2.589-2.338,25.582,25.582,0,0,0-2.155,4,6.66,6.66,0,0,0-.434,4.236,3.157,3.157,0,0,1-.211,1.962,4.279,4.279,0,1,0-3.619,7.733,3.056,3.056,0,0,1-.9.758,6.752,6.752,0,0,0-.984.657,4.279,4.279,0,1,0-2.876,4.759c-.141.376-.275.77-.4,1.174C17.618,32.792,13.871,32.2,12.455,30.787ZM27.261,20.254a6.66,6.66,0,0,0-.59,2.488,3.533,3.533,0,0,1-.177.957,3.056,3.056,0,1,1,2.347-5.627c-.034.037-.064.073-.1.11a6.666,6.666,0,0,0-1.479,2.072ZM22.8,27.486a6.764,6.764,0,0,0-.688,1.177h0l-.2.443a3.056,3.056,0,1,1,.886-1.617ZM41.317,15.871a5.453,5.453,0,0,1-.947,1.44,5.89,5.89,0,0,0-1.553,4.872,5.5,5.5,0,0,1-2.482,5.483A5.89,5.89,0,0,0,33.7,32.049a5.456,5.456,0,0,1-.455,1.65c-1.256,2.775-7.742,5.22-10.517,3.973-1.9-.859-1.745-3.561.492-8.5h0a5.447,5.447,0,0,1,2.369-2.555,4.545,4.545,0,0,0,2.3-3.817,5.5,5.5,0,0,1,1.7-3.75A4.545,4.545,0,0,0,30.938,14.8a5.447,5.447,0,0,1,.355-3.457C33.526,6.4,35.455,4.5,37.353,5.363c1.281.581,2.619,2.375,3.49,4.689s1.054,4.545.474,5.826Z" transform="translate(598.961 579.832)" fill="#2b697d"/>
  </g>
</svg>
