<svg xmlns="http://www.w3.org/2000/svg" width="58" height="58" viewBox="0 0 58 58">
  <g id="Grupo_1103050" data-name="Grupo 1103050" transform="translate(-810 -575.042)">
    <circle id="Elipse_11686" data-name="Elipse 11686" cx="29" cy="29" r="29" transform="translate(810 575.042)" fill="#57d3fb"/>
    <path id="Trazado_885620" data-name="Trazado 885620" d="M14.149,62.81a2.367,2.367,0,0,0,.969,1.56,2.5,2.5,0,0,0,1.464.469,2.63,2.63,0,0,0,.442-.038l.926-.157a.64.64,0,0,0,.525-.732l-.141-.888a2.367,2.367,0,0,0-.969-1.56,2.517,2.517,0,0,0-1.906-.432l-.926.157a.64.64,0,0,0-.525.732Zm1.524-.514a1.248,1.248,0,0,1,.945.21,1.1,1.1,0,0,1,.45.72l.042.262-.3.051a1.246,1.246,0,0,1-.945-.21,1.1,1.1,0,0,1-.45-.72l-.042-.262Z" transform="translate(808.83 541.467)" fill="#2b697d"/>
    <path id="Trazado_885621" data-name="Trazado 885621" d="M96.118,64.465a2.367,2.367,0,0,0-.969,1.56l-.141.888a.64.64,0,0,0,.525.732l.926.157a2.63,2.63,0,0,0,.442.038,2.5,2.5,0,0,0,1.464-.469,2.367,2.367,0,0,0,.969-1.56l.141-.888a.64.64,0,0,0-.525-.732l-.926-.157A2.517,2.517,0,0,0,96.118,64.465Zm1.95,1.144a1.1,1.1,0,0,1-.45.72,1.246,1.246,0,0,1-.945.21l-.3-.051.042-.262a1.1,1.1,0,0,1,.45-.72,1.25,1.25,0,0,1,.945-.21l.3.051Z" transform="translate(753.766 539.428)" fill="#2b697d"/>
    <path id="Trazado_885622" data-name="Trazado 885622" d="M4.64,26.891h15.21l-.073,1.034c0,.015,0,.03,0,.045a3.122,3.122,0,0,1-2.6,3.082l-.057.008a5.705,5.705,0,0,0-4.333,2.5A2.876,2.876,0,0,0,10,32.737a.64.64,0,0,0,.346,1.233,1.568,1.568,0,0,1,1.584.546,5.143,5.143,0,0,1-3.678,1.34.64.64,0,1,0,0,1.281,6.391,6.391,0,0,0,5.3-2.482,4.884,4.884,0,0,1,2.611-2.092c.107.44.189,1.139-.2,1.346a3.1,3.1,0,0,0-1.6,2.147,2.52,2.52,0,0,0,.69,2.156A.64.64,0,1,0,16,37.341a1.235,1.235,0,0,1-.365-1.075,1.825,1.825,0,0,1,.944-1.229,2.312,2.312,0,0,0,.85-2.73,4.412,4.412,0,0,0,3.633-4.314l.671-9.532a3.778,3.778,0,0,0-.71-2.51,7.309,7.309,0,0,0-4.088-2.5.64.64,0,1,0-.246,1.257,6.034,6.034,0,0,1,3.3,2,2.5,2.5,0,0,1,.463,1.66v.009a2.89,2.89,0,0,1-1.932-.52.64.64,0,0,0-.865.2,2.525,2.525,0,0,1-2.106,1.15A2.587,2.587,0,0,1,13,16.585a2.7,2.7,0,0,1,.035-.409.641.641,0,0,0-.462-.713,3.357,3.357,0,0,1,.833-6.574h.033a.64.64,0,0,0,.638-.584,3.271,3.271,0,0,1,3.237-3.041,3.173,3.173,0,0,1,.913.136.64.64,0,0,0,.82-.539,3.945,3.945,0,0,1,7.858,0,.64.64,0,0,0,.82.539,3.173,3.173,0,0,1,.913-.136A3.271,3.271,0,0,1,31.878,8.3a.64.64,0,0,0,.638.584h.033a3.357,3.357,0,0,1,.833,6.574.64.64,0,0,0-.462.714,2.693,2.693,0,0,1,.035.409,2.587,2.587,0,0,1-2.545,2.622,2.525,2.525,0,0,1-2.106-1.15.64.64,0,0,0-.865-.2c-.061.036-.129.083-.206.137a1.585,1.585,0,0,1-1.374.352,2.521,2.521,0,0,1,.628-1.833,6.934,6.934,0,0,1,3.548-1.8.64.64,0,1,0-.2-1.265,8.139,8.139,0,0,0-4.3,2.207,3.811,3.811,0,0,0-.952,2.866L25.367,28A4.413,4.413,0,0,0,29,32.307a2.312,2.312,0,0,0,.85,2.73,1.825,1.825,0,0,1,.944,1.229,1.235,1.235,0,0,1-.365,1.075.64.64,0,1,0,.938.872,2.52,2.52,0,0,0,.69-2.156,3.1,3.1,0,0,0-1.6-2.147c-.387-.208-.3-.9-.2-1.346a4.883,4.883,0,0,1,2.612,2.092,6.391,6.391,0,0,0,5.3,2.482.64.64,0,1,0,0-1.281,5.143,5.143,0,0,1-3.68-1.341,1.582,1.582,0,0,1,1.589-.544.64.64,0,1,0,.34-1.235,2.876,2.876,0,0,0-2.792.822,5.707,5.707,0,0,0-4.335-2.5l-.056-.008a3.122,3.122,0,0,1-2.594-3.082c0-.018,0-.035,0-.053l-.085-1.026H41.782a.64.64,0,0,0,0-1.281H26.455l-.491-5.947a2.693,2.693,0,0,0,1.667-.4,3.785,3.785,0,0,0,2.779,1.22,3.869,3.869,0,0,0,3.825-3.9c0-.021,0-.043,0-.064A4.648,4.648,0,0,0,33.073,7.64a4.528,4.528,0,0,0-4.432-3.657,4.363,4.363,0,0,0-.585.04,5.212,5.212,0,0,0-10.153,0,4.37,4.37,0,0,0-.587-.04A4.528,4.528,0,0,0,12.884,7.64a4.648,4.648,0,0,0-1.162,8.881c0,.022,0,.043,0,.064a3.869,3.869,0,0,0,3.826,3.9,3.786,3.786,0,0,0,2.81-1.254,3.822,3.822,0,0,0,2,.45l-.417,5.927H4.64a.64.64,0,1,0,0,1.281Z" transform="translate(815.628 582.937)" fill="#2b697d"/>
    <path id="Trazado_885623" data-name="Trazado 885623" d="M13.813,90.081a3.691,3.691,0,0,0-.445,2.821.64.64,0,0,0,1.25-.28,2.509,2.509,0,0,1,.2-1.743.868.868,0,0,1,.765-.29c.33,0,.639.007.93.014,1.709.039,3.059.069,4.6-1.447a2.958,2.958,0,0,1,2.848-.784.64.64,0,0,0,.4-1.218,4.239,4.239,0,0,0-4.142,1.089,3.544,3.544,0,0,1-2.918,1.091,3.3,3.3,0,0,0-2.477-2,.64.64,0,0,0-.3,1.246,2.351,2.351,0,0,1,1.287.726l-.227,0a2.147,2.147,0,0,0-1.767.773Z" transform="translate(809.329 523.79)" fill="#2b697d"/>
    <path id="Trazado_885624" data-name="Trazado 885624" d="M39.735,102.291c.1-.071.194-.146.3-.225a2.638,2.638,0,0,0,.869-2.571.64.64,0,0,0-1.247.291,1.356,1.356,0,0,1-.411,1.271c-.094.074-.186.142-.274.208-.968.724-1.569,1.346-1.116,3.321.077.336.152.623.22.876a3.4,3.4,0,0,0-3.108,1.156,1.258,1.258,0,0,1-1.706.168.64.64,0,0,0-.691,1.078,3.075,3.075,0,0,0,1.581.421,2.172,2.172,0,0,0,1.836-.894,2.4,2.4,0,0,1,2.27-.611,1.541,1.541,0,0,1-.342.4.64.64,0,1,0,.886.925c1.042-1,.855-1.693.545-2.845-.073-.27-.158-.585-.244-.962C38.8,102.99,39.036,102.814,39.735,102.291Z" transform="translate(796.408 515.631)" fill="#2b697d"/>
    <path id="Trazado_885625" data-name="Trazado 885625" d="M89.384,93.386a.639.639,0,0,0,.766-.484,3.691,3.691,0,0,0-.445-2.821,2.147,2.147,0,0,0-1.767-.773l-.227,0A2.351,2.351,0,0,1,89,88.584a.64.64,0,1,0-.3-1.246,3.3,3.3,0,0,0-2.477,2,3.545,3.545,0,0,1-2.918-1.091,4.238,4.238,0,0,0-4.142-1.089.64.64,0,1,0,.4,1.218,2.957,2.957,0,0,1,2.849.784c1.542,1.517,2.891,1.486,4.6,1.447.292-.007.6-.014.93-.014a.868.868,0,0,1,.765.29,2.508,2.508,0,0,1,.2,1.741.64.64,0,0,0,.484.766Z" transform="translate(764.832 523.79)" fill="#2b697d"/>
    <path id="Trazado_885626" data-name="Trazado 885626" d="M77.306,106.974a.675.675,0,0,0-.885-.295c-.043.028-1.07.839-1.706,0a3.468,3.468,0,0,0-3.108-1.222c.068-.253.143-.54.22-.876.453-1.975-.148-2.6-1.116-3.321-.088-.066-.18-.134-.274-.208a1.184,1.184,0,0,1-.313-1.223.64.64,0,0,0-1.219-.392,2.411,2.411,0,0,0,.743,2.624c.1.08.2.154.3.225.7.523.935.7.635,2.009-.086.377-.171.692-.244.962-.31,1.152-.5,1.847.545,2.845a.64.64,0,0,0,.886-.925,1.54,1.54,0,0,1-.342-.4,2.4,2.4,0,0,1,2.27.611,2.171,2.171,0,0,0,1.836.894,3.076,3.076,0,0,0,1.581-.422.64.64,0,0,0,.194-.885Z" transform="translate(771.591 515.636)" fill="#2b697d"/>
    <path id="Trazado_885627" data-name="Trazado 885627" d="M62.821,107.675a2.412,2.412,0,0,0-.845-1.534.635.635,0,0,0-.893.1.643.643,0,0,0,.086.9,1.123,1.123,0,0,1,.378.656.824.824,0,0,1-.25.6c-1.767,2.027-.8,3.208-.467,3.522a1.432,1.432,0,0,1,.2.225.627.627,0,0,0,.459.256.637.637,0,0,0,.588-.992,2.713,2.713,0,0,0-.372-.423c-.391-.365.032-1.14.557-1.745A2.053,2.053,0,0,0,62.821,107.675Z" transform="translate(777.379 510.871)" fill="#2b697d"/>
    <path id="Trazado_885628" data-name="Trazado 885628" d="M62.64,36.483a.64.64,0,0,0,.64-.64v-3.2a.64.64,0,1,0-1.281,0v3.2a.64.64,0,0,0,.64.64Z" transform="translate(776.199 561.178)" fill="#2b697d"/>
  </g>
</svg>
