<svg xmlns="http://www.w3.org/2000/svg" xmlns:xlink="http://www.w3.org/1999/xlink" width="1030.05" height="517" viewBox="0 0 1030.05 517">
  <defs>
    <linearGradient id="linear-gradient" x1="0.5" x2="0.5" y2="1" gradientUnits="objectBoundingBox">
      <stop offset="0" stop-color="#f6f6f6"/>
      <stop offset="1" stop-color="#fefefe"/>
    </linearGradient>
    <clipPath id="clip-path">
      <rect id="Rectángulo_402684" data-name="Rectángulo 402684" width="1011" height="517" rx="23" transform="translate(265.102 2219)" fill="url(#linear-gradient)"/>
    </clipPath>
    <clipPath id="clip-path-2">
      <rect id="Rectángulo_402686" data-name="Rectángulo 402686" width="22.675" height="58.045" fill="#b1bf34"/>
    </clipPath>
    <clipPath id="clip-path-3">
      <rect id="Rectángulo_402810" data-name="Rectángulo 402810" width="19.466" height="25" fill="none"/>
    </clipPath>
    <clipPath id="clip-path-4">
      <rect id="Rectángulo_402811" data-name="Rectángulo 402811" width="791.949" height="447.463" fill="none"/>
    </clipPath>
  </defs>
  <g id="Grupo_1103051" data-name="Grupo 1103051" transform="translate(-284.975 -5761.291)">
    <g id="Grupo_1103050" data-name="Grupo 1103050">
      <g id="Grupo_1102473" data-name="Grupo 1102473">
        <g id="Grupo_1102467" data-name="Grupo 1102467" transform="translate(-0.025 3542.291)">
          <g id="Enmascarar_grupo_1098955" data-name="Enmascarar grupo 1098955" transform="translate(38.949)" opacity="0.72" clip-path="url(#clip-path)">
            <rect id="Rectángulo_402683" data-name="Rectángulo 402683" width="1011" height="517" rx="23" transform="translate(265.102 2219)" fill="url(#linear-gradient)"/>
            <path id="Trazado_882508" data-name="Trazado 882508" d="M29.273,276.584c4.234-8.018,8.826-14.781,9.754-20.343,2.142-12.948,3.846-116.511-8.683-135.34-2.911-4.382-4.83-10.521-6.066-17.36-2.494,13.069-2.739,28.772-1.481,44.908,2.315,30.027-2.789,62.7,5.133,101.593a97.443,97.443,0,0,1,1.344,26.551Zm605.9-188.008c2.465,15.261,18.99,37.217,18.99,37.217s5.628,10.05,2.811,16.372c0,0,1.409,11.168-5.62,13.77s-20.047,5.212-31.662,1.119-25.309-4.093-32.676-4.466c-5.715-.281-7.195-.494-12.974.647-.97.19-4.9.669-5.406.905-3.687,1.666-6.067,2.3-9.818,4.534-5.384,3.218-12.6,8.338-16.482,13.26-7.015,9.3-13,22.7-13,22.7s-14.67,28.49-33.273,45.228c-18.58,16.736-21.844,27.563-29.743,34.455-7.922,6.892-13.506,12.3-13.506,12.3s-1.48,72.675-1.919,88.2c-.46,15.519-.244,6.831.417,17.68.373,6.078-.18,11.823.287,17.863.553,7.592-1.589,8.87,2.25,17,.51,1.065,1.035,2.13,1.566,3.2a112.759,112.759,0,0,0,6.62,11.952c1.459,2.3,7.173,10.575,7.1,12.9a6.373,6.373,0,0,1-.682,2.366c-5.075-.244-10.149-.57-15.224-.442-1.768.046-13.88.282-14.584-1.247-.022-.031-1.387-8.582-1.589-9.632-.417-2.221-.82-4.458-1.258-6.672l-.151-.692-.129-.677-7.389-12.37c-3.335-5.6.46-13.017.331-19.658-.13-6.6.575.921.7-5.713.086-6.011.2-12.035.2-18.045,0-18.875.618-22.131.618-22.131s-9.861,20.662-8.6,36.456c1.237,15.793,2.782,18.486,3.551,34.447.065,1.248-.288-1.726.129,3.766s5.34,12.119,8.338,19.97c.618,1.628,1.215,3.287,1.811,4.93-6.864,1.34-9.136,1.194-15.928.989a50.916,50.916,0,0,0-5.894.13c-4.9.411-7.13.251-9.646-4.739-1.523-3.02-1.408-6.429-1.48-9.753-3.882,5.142-1.854-2.755-5.363-6.063-1.789-1.7-2.451-.343-1.365-4.512,1.056-4.169,2.717-66.263,2.1-73.969s-2.954-14.774-4.284-20.982a207,207,0,0,1-3.22-21.766c-.417-4.633.661-8.026.863-12.622a211.65,211.65,0,0,0-.244-22.511c-2.048-7.121-4.787-16.471-11.184-20.45-11.565-6.84-20.363-4.96-32.676-2.351-74.25,15.748-139.206,24.215-200.655-18.966-5.779-4.062-3.881-3.857-7.964,2.473-12.442,19.361-13.815,13.572-20.787,35.2-3.644,11.351-6.929,23.706-10.307,35.284-1.366,4.64-2.494,9.22-3.687,13.907-.82,3.173-1.5,6.314-2.12,9.525,0,0-2.027,37.893-2.379,50.309-.331,12.416,4.3,22.253,7.769,31.45,2.164,5.729,4.809,11.138,6.994,16.95,3.421,9.121,4.894,10.149,10.285,17.627a10.284,10.284,0,0,1,2.078,7.866c-.791,3.675-7.813,2.731-10.48,2.5-2.451-.205-4.68-.449-7.131-.441-2.782.008-8.69.594-11.011-.86-1.61-1.027-3.378-3.91-4.615-5.485-.309-.4-.639-.783-.949-1.172-.438-.518-.884-1.042-1.322-1.56l-.439-.517s-9.287-2.96-9.754-8.369c-.489-5.417-10.523-115.8-13.772-120.718,0,0-7.432,45.28-7.9,67.434-.489,22.154-1.589,40.4,3.709,51.6,5.319,11.2,5.427,11.738,8.338,17.209,1.121,2.1,4.722,8.086.352,8.513-1.459.144-3.709.106-5.34.2a101.581,101.581,0,0,1-13.527.145l-.726-.053c-1.258-.092-7.5-.282-8.209-.594-1.078-.479-1.387-2-1.653-3.074-1.919-7.448,4.083-12.56-4.5-17.117-1.215-.64-2.43-1.065-3.637-1.727-2.185-1.194-2.12-4.047-3.306-6.383-2.954-5.782-2.142-2.876-2.005-9.707.043-2.13.043-4.268.108-6.4.841-29.244,1.237-46.574-.33-75.81-.532-10.179-1.546-25.9-4.543-35.5-.438-1.384-.791-2.746-1.1-4.093-2.6,7.912-5.513,14.492-7.483,22.785-.287,1.2-2.12,8.3-4.018,7.73-1.675-.51-3.026-4.861-3.242-6.6-.439-3.218-.373-6.6-.82-10.05-.2-1.369-.395-2.723-.618-4.085-.927-5.668-1.79-11.267-3-16.874C1.112,294.957-.233,286.482.034,277.094c.927-26.581,14.627-45.836,13.218-65.2s-6.613-101.25.776-139.585c2.76-14.409,8.38-21.926,14.411-25.8,6.886-5.189,21.14-13.412,42.983-14.082,32.079-.988,96.266-2.465,119.986-.988s225.56.578,235.774,1.073c10.235.494,57.675,4.427,64.187,4.922s42.322-7.38,42.322-7.38c-1.675-3.841-4.564-12.286-4.147-16.584.129-1.286.682-4.147,2.005-4.61,6.419-2.244,14.361-.51,20.19,2.785,0,0-2.142-1.621-1.833-11.647,0,0,8.87,11.974,14.98,11.974,6.131,0,8.87-5.181,24.467-4.853,6.268.145,13.837.372,19.968,1.552,1.718-.175,8.912-3.774,10.5-4.945,2.358-1.758,3.112-3.165,2.932,1.674-.18,4.428-1.718,12.492-5.1,15.254-.863.715-.618.251.4,2.1.532.944,1.056,1.879,1.589,2.815,15.3-9.875,28.464-15.17,46.684-12.271,1.229.205,6.893,1.369,7.058,2.837a38.529,38.529,0,0,1-1.071,7.364c-1.445,4.907-5.966,13.793-9.143,17.437a38.994,38.994,0,0,1-7.123,6.246,26.1,26.1,0,0,1-4.2,2.328c-.726.32-1.467.609-2.2.9a82.2,82.2,0,0,0-10.12,4.261c-2.034,1.087-2.236.806-2.646,2.86-2.177,9.753-3.227,21.073-1.71,31.039Z" transform="translate(-235.133 2283.883)" fill="#e8e8e8" fill-rule="evenodd" opacity="0.21"/>
            <path id="Trazado_882507" data-name="Trazado 882507" d="M695.656,310.069a129.018,129.018,0,0,0-3.07-23.938,134.807,134.807,0,0,0-6.037-19.985A79.461,79.461,0,0,0,678.481,251a48.071,48.071,0,0,0-13.6-13.814,34.934,34.934,0,0,0-13.661-5.086c-1.33-.206-1.716-.637-1.5-1.937a24.451,24.451,0,0,0,.139-4.429c-.087-4.5-.332-9-.3-13.489.027-4.13-.141-8.271.194-12.394a1.466,1.466,0,0,1,.666-1.3c3.8-2.339,7.581-4.7,11.373-7.049,3.426-2.122,6.959-4.087,10.264-6.39,2.136-1.49,4.494-2.7,6.669-4.141a6.618,6.618,0,0,0,2.9-7.249,22.117,22.117,0,0,0-4.567-9.165c-3-3.953-6.424-3.64-10.214-1.993a61.785,61.785,0,0,0-7.363,4.245c-2.591,1.582-5.138,3.226-7.69,4.863-5.953,3.819-12.288,7.055-18.389,10.646-4.207,2.475-8.6,4.668-12.9,7.013-1.426.78-2.825,1.609-4.195,2.477a2.049,2.049,0,0,1-2.75-.118c-4.056-3.347-8.18-6.615-12.241-9.956-4.637-3.816-9.222-7.687-13.851-11.511a1.961,1.961,0,0,1-.7-2.681,53.508,53.508,0,0,0,5.593-22.212c.076-4-.132-7.951-.41-11.939a99.63,99.63,0,0,0-3.37-19.579,102.994,102.994,0,0,0-5.217-13.455A113.365,113.365,0,0,0,572.6,81.108,147.44,147.44,0,0,0,558.95,64.144a206.114,206.114,0,0,0-19.3-18c-5.2-4.3-10.686-8.28-16.148-12.285-6.2-4.549-12.652-8.738-19.087-12.955-3.9-2.555-8.033-4.736-12.057-7.093-5.873-3.437-11.889-6.635-17.979-9.663C469.695,1.819,465-.726,459.594-1.335a18.118,18.118,0,0,1-2.081-.155q-.947.2-1.892.394c-4.236,1.913-5.881,5.144-5.275,9.727,1.787,13.523,5.836,26.606,9.383,39.787.282,1.05.586,2.095.87,3.146,1.819,6.737,4.339,13.29,6.348,19.979,1.7,5.645,3.832,11.174,5.8,16.741A86.514,86.514,0,0,0,476.6,98.11c1.085,2.182,1.6,4.6,2.51,6.871,1.9,4.766,3.641,9.586,5.829,14.255,1.587,3.391,2.842,6.921,4.521,10.27,2.491,4.969,5.1,9.887,7.893,14.726,1.726,2.989,3.52,5.937,5.473,8.781a86.866,86.866,0,0,0,21.664,21.672,89.049,89.049,0,0,0,19.551,10.3,82.778,82.778,0,0,0,16.373,4.307c5.7.81,11.416,1.024,16.979-.492a3.786,3.786,0,0,1,4.324,1.389,138.745,138.745,0,0,0,11.13,10.865,8.266,8.266,0,0,1,.759.812c1.2,1.381,1.17,1.508-.493,2.322-5.114,2.5-10.171,5.1-15.286,7.6-4.118,2.015-8.239,4.018-12.4,5.951-3.782,1.755-7.672,3.293-11.466,5.012-5.588,2.534-11.356,4.673-16.993,7.077-2.821,1.2-5.884,1.863-8.536,3.443-1.114.663-2.159.492-3.272-.6-4.456-4.367-9.083-8.579-13.591-12.9-2.522-2.418-4.947-4.927-7.392-7.415-1.2-1.225-.684-2.762-.706-4.138a64.681,64.681,0,0,0-1.181-13.139,150.1,150.1,0,0,0-5.695-19.537c-1.91-5.145-4.034-10.228-6.239-15.274-1.683-3.851-3.508-7.661-5.5-11.381-2.762-5.146-6.035-10.022-9.283-14.916a151.709,151.709,0,0,0-10.321-13.341c-2.738-3.268-5.808-6.3-8.821-9.349-3.978-4.031-8.2-7.824-12.562-11.479C438.489,95.29,432.958,90.951,427.2,86.9c-5.677-3.986-11.635-7.577-17.626-11.13-6.914-4.1-13.955-7.984-21-11.859-6.851-3.77-13.77-7.438-20.814-10.883-5.5-2.69-11.064-5.245-16.762-7.5-4.092-1.619-8.212-3.285-12.69-3.65-4.5-.368-8.736,2.281-9.162,6.646a18.025,18.025,0,0,0,2.081,9.515c.949,2.025,1.6,4.169,2.417,6.249,2.025,5.168,4.383,10.215,6.441,15.376,1.092,2.74,2.113,5.522,3.326,8.22,2.306,5.126,4.369,10.339,6.654,15.468,1.647,3.695,3.374,7.364,5.057,11.047,2.656,5.809,5.346,11.625,8.454,17.231a172.956,172.956,0,0,0,10.568,17.244q4.954,6.9,10.417,13.461c3.534,4.26,7.2,8.4,11.1,12.359a165.913,165.913,0,0,0,16.752,14.951c4.46,3.448,9.159,6.63,13.96,9.657,6.612,4.169,13.244,8.3,20.21,11.91,6.538,3.391,13.228,6.53,20.407,8.34,6.55,1.653,13.238,2.76,19.965,1.1.26-.064.525-.116.784-.182,3.655-.952,3.581-.9,5.86,2.193,3.267,4.441,6.822,8.678,10.5,12.828a16.255,16.255,0,0,1,2.509,3.425c.751,1.506.542,2.142-1.086,2.659-2.39.758-4.851,1.341-7.2,2.187-4.406,1.589-9.019,2.631-13.407,4.207-4.122,1.48-8.451,2.315-12.538,3.791-5.725,2.069-11.761,3.163-17.536,5.011-4.431,1.418-9,2.342-13.426,3.7-3.578,1.1-7.2,1.989-10.844,2.838a3.036,3.036,0,0,1-2.685-.582c-5.11-3.6-10.3-7.1-15.409-10.695-5.414-3.812-10.765-7.7-16.153-11.551a1.385,1.385,0,0,1-.421-1.919,62.554,62.554,0,0,0,3.783-10.153,43.435,43.435,0,0,0,1.2-14.55,52.941,52.941,0,0,0-1.819-9.536,60.24,60.24,0,0,0-6.36-13.845c-1.773-2.961-3.515-5.936-5.364-8.857-2.236-3.536-4.728-6.913-7.122-10.351-2.1-3.018-4.278-5.982-6.62-8.832a141.474,141.474,0,0,0-12.8-13.621,146.216,146.216,0,0,0-12.781-10.57,126.271,126.271,0,0,0-17.645-10.784q-7.957-4.08-16.038-7.913c-3.1-1.481-6.28-2.815-9.426-4.211-3.331-1.478-6.66-2.962-10-4.424-6.448-2.822-12.945-5.547-19.343-8.471-6.5-2.972-13.1-5.73-19.755-8.347a64.335,64.335,0,0,0-13.723-4.194c-3.091-.47-6.224-.3-8.334,2.371A6.526,6.526,0,0,0,232.764,98a113.991,113.991,0,0,0,4.756,15.607c1.443,3.838,2.423,7.832,4.143,11.551,2.193,4.74,3.07,9.882,5.527,14.52a18.73,18.73,0,0,1,.665,2.071c1.807,4.694,3.552,9.407,5.319,14.111,1.8,4.793,3.934,9.5,6.185,14.128a176.3,176.3,0,0,0,11.445,20.123,147.872,147.872,0,0,0,10.335,13.511,135.806,135.806,0,0,0,11.618,12.363,128.356,128.356,0,0,0,17.359,13.567A139.7,139.7,0,0,0,336.406,242.7a106.241,106.241,0,0,0,17.65,5.14,147.487,147.487,0,0,0,16.023,2.146c6.294.522,12.573.432,18.859.518a8.256,8.256,0,0,0,1.91-.287,2.532,2.532,0,0,1,2.135.487c5.38,3.913,10.748,7.845,16.141,11.742,1.424,1.031,2.96,1.921,4.367,2.968.428.318,1.309.446,1.175,1.125-.131.661-.956.548-1.5.656-4.214.83-8.436,1.627-12.653,2.437-2.058.394-4.106.837-6.173,1.181-5.658.945-11.347,1.8-17.041,2.46-4.424.508-8.805,1.492-13.257,1.559-4.379.065-8.592,1.225-13,1.039-2.187-.091-4.38.491-6.582.615-4.555.258-9.118.411-13.676.612a1.849,1.849,0,0,1-1.345-.426c-4-3.309-8.621-5.746-13.043-8.461-5.6-3.441-11.275-6.773-16.845-10.258-4.988-3.121-9.871-6.4-14.815-9.583a5.83,5.83,0,0,1-2.6-3.569c-.9-3.237-1.913-6.465-3.132-9.612-1.833-4.733-3.646-9.495-5.9-14.057a99.357,99.357,0,0,0-9.23-15.085c-2.719-3.673-5.43-7.337-8.443-10.8-2.258-2.594-4.728-5-7.218-7.386a113.682,113.682,0,0,0-10.539-8.749,137.584,137.584,0,0,0-17.255-11.023,156.519,156.519,0,0,0-20.142-8.984c-5.1-1.884-10.357-3.308-15.613-4.724-5.159-1.391-10.409-2.279-15.661-3.227a100.95,100.95,0,0,0-16.836-1.693c-5.392-.059-10.846.451-15.207,3.948a10.15,10.15,0,0,0-3.7,10.311,26.753,26.753,0,0,0,2.661,7.441c1.317,2.6,2.447,5.288,3.816,7.876,2.265,4.279,4.323,8.651,6.833,12.819,1.752,2.907,3.317,5.913,5.074,8.819a124.2,124.2,0,0,0,7.133,10.726c2.125,2.806,4.167,5.661,6.463,8.35a94.232,94.232,0,0,0,12.134,12.1,102.034,102.034,0,0,0,14.2,9.869,146.834,146.834,0,0,0,17.257,8.365c4.2,1.688,8.479,3.13,12.735,4.621a99.585,99.585,0,0,0,12.165,3.269c3.215.685,6.41,1.411,9.673,1.889q4.641.68,9.3,1.076a80.544,80.544,0,0,0,16.576-.443c2.547-.306,5.081-.766,7.645-.975a4.576,4.576,0,0,0,2.433-.722c1.139-.9,2.015-.443,2.98.226,5.836,4.043,11.866,7.8,17.982,11.439,3.175,1.888,6.274,3.894,9.391,5.872.383.243.913.371,1.142,1.066-1.982-.2-3.876.049-5.774-.013-5.583-.182-11.166-.305-16.749-.507q-6.208-.222-12.418-.509c-4.883-.224-9.758-.718-14.638-1.074-3.436-.25-6.878-.428-10.313-.7-5.094-.41-10.179-1.012-15.276-1.282-4.524-.239-9.015-.79-13.513-1.248-5.786-.59-11.6-.935-17.357-1.822-.531-.081-1.081-.04-1.616-.112-2.115-.29-4.293-.064-5.915-2.116-1.224-1.548-3.567-1.855-5.133-3.184q-5.483-4.647-11.071-9.177c-4.905-4-9.886-7.9-15.089-11.548-4.768-3.348-9.547-6.674-14.448-9.838a227.73,227.73,0,0,0-21.2-12.487c-4.5-2.258-9.162-4.232-13.886-6.048-4.773-1.835-9.579-3.59-14.511-4.951-4.151-1.145-8.307-2.264-12.573-3-3.606-.621-7.207-1.282-10.826-1.821-1.655-.247-3.331-.3-4.986-.409-4.078-.266-8.166-.292-12.255-.327a120.914,120.914,0,0,0-28.725,3.5,121.383,121.383,0,0,0-11.781,3.154,72.3,72.3,0,0,0-14.508,6.338c-3.765,2.312-6.845,5.179-7.017,9.885q.422,1.657.843,3.311a140.115,140.115,0,0,0,11.2,12.474c3.316,3.482,6.768,6.841,10,10.4,2.377,2.617,4.911,5.108,7.378,7.651,3.866,3.984,7.621,8.073,11.639,11.913,2.985,2.851,5.911,5.773,9.157,8.386,3.6,2.9,7.195,5.8,11,8.46a105.894,105.894,0,0,0,19.652,10.885,109.243,109.243,0,0,0,25.212,7.34,118.983,118.983,0,0,0,16.077,1.56,103.333,103.333,0,0,0,16.555-.834c1.736-.24,3.527-.193,5.277-.525a137.645,137.645,0,0,0,24.827-7.239,124.343,124.343,0,0,0,16.651-8.03c4.867-2.807,9.758-5.61,14.34-8.77,2.7-1.86,5.168-1.356,7.893-.982,3.2.44,6.392.942,9.591,1.392,4.26.6,8.518,1.217,12.787,1.745,3.206.4,6.425.667,9.639.987,2.785.279,5.56.679,8.342.985,1.928.211,3.859.229,5.785.441,5.4.6,10.825,1.091,16.246,1.329,4.081.181,8.162.461,12.254.523,5.42.084,10.844.52,16.266.773a18.755,18.755,0,0,1,3.477.248c-1.08.727-2.153,1.461-3.238,2.181-2.613,1.736-5.238,3.459-7.843,5.2-1.3.868-2.6,1.386-4.189.488a2.051,2.051,0,0,0-1.411-.2c-2.78.828-5.148-.669-7.655-1.319a103.884,103.884,0,0,0-13.422-2.83,97.989,97.989,0,0,0-18.678-.2,125.139,125.139,0,0,0-26.164,5.053,132.718,132.718,0,0,0-15.031,5.643,144.707,144.707,0,0,0-15.928,8.03,157.09,157.09,0,0,0-17.172,11.53,150.925,150.925,0,0,0-16.6,14.765c-2.436,2.52-4.613,5.249-6.831,7.951a89.448,89.448,0,0,0-7.564,10.648c-3.047,5.056-5.907,10.237-6.38,16.242-.42,5.333,2.816,9.406,7.826,11.08a24.728,24.728,0,0,0,8.622.975c5.751-.17,11.485-.463,17.225-.766,4.881-.259,9.755-.518,14.629-.87,6.86-.495,13.7-1.156,20.547-1.692,4.464-.349,8.833-1.209,13.271-1.515,6.6-.455,12.957-1.906,19.36-3.2a113.426,113.426,0,0,0,18.052-5.457,57.133,57.133,0,0,0,22.185-14.909,82.747,82.747,0,0,0,12.355-18.092c2.309-4.5,4.536-9.039,6.386-13.739,1.65-4.194,3.058-8.439,2.581-13.066-.2-1.908.385-3.161,2.428-4.165,5.472-2.693,10.707-5.808,16.1-8.649,1.718-.905,3.517-1.681,5.24-2.6,3.667-1.949,7.445-3.715,11.134-5.629a14.194,14.194,0,0,1,7.33-1.441c2.181.107,4.293-.206,6.44-.253,5.052-.112,10.087-.416,15.128-.724,3.059-.187,6.081-.709,9.139-.729,3.85-.026,7.58-.919,11.38-1.044,4.336-.144,8.509-1.276,12.786-1.412,4.653-.149,9.081-1.481,13.736-1.545a42.477,42.477,0,0,0,6.689-1.012c6.293-1.109,12.538-2.5,18.88-3.309,8.775-1.114,17.247-3.394,25.9-4.961a2.165,2.165,0,0,1,.467.069c-1.786,3.141-3.546,6.233-5.3,9.326-.606,1.066-1.272,2.106-1.791,3.21a2.25,2.25,0,0,1-2.828,1.4c-4.518-1.122-9.032-.29-13.5-.1a63.015,63.015,0,0,0-15.011,2.823,106.646,106.646,0,0,0-11.478,3.878,111.353,111.353,0,0,0-13.087,6.591,162.325,162.325,0,0,0-13.906,9.647c-4.485,3.312-8.758,6.886-13.039,10.437-4.518,3.75-8.83,7.716-13.043,11.771-3.281,3.16-6.44,6.433-9.584,9.722-3.642,3.81-7.057,7.8-10.444,11.805-3.128,3.7-6.058,7.552-8.992,11.394-2.872,3.758-5.726,7.535-8.425,11.407q-3.3,4.735-6.419,9.594c-4.086,6.338-7.876,12.836-11.5,19.419a177.416,177.416,0,0,0-8.93,19.125,151.97,151.97,0,0,0-5.487,15.708,69.711,69.711,0,0,0-2.626,13.161,38.235,38.235,0,0,0-.009,8.536c.808,5.771,5.652,9.671,11.777,9.679,6.91.01,13.351-1.87,19.813-3.743,2.974-.862,5.995-1.591,9-2.363,2.8-.72,5.7-1.2,8.387-2.175,4.948-1.794,10.041-3.181,15.078-4.7,5.72-1.725,11.327-3.732,17.041-5.47,4.771-1.451,9.374-3.384,14-5.22a175.274,175.274,0,0,0,19.2-9,120.071,120.071,0,0,0,18-11.749A116.387,116.387,0,0,0,430.473,417.6a108.349,108.349,0,0,0,14.684-20.823c1.776-3.352,3.44-6.748,4.914-10.212a141.521,141.521,0,0,0,7.482-25.139c.8-5,2.309-9.8,3.457-14.7a156.676,156.676,0,0,0,2.873-15.6c.422-3.275.767-6.571.915-9.895.176-3.929.087-7.855-.013-11.775a37.436,37.436,0,0,0-1.148-7.316,4.612,4.612,0,0,1,.778-3.913q9.391-13.443,18.793-26.879a2.523,2.523,0,0,1,1.7-1.021c5.2-1.062,10.156-2.9,15.216-4.37,4.235-1.235,8.562-2.321,12.661-3.894,3.285-1.263,6.728-2.042,10-3.277,5.66-2.14,11.447-3.981,17.066-6.19,2.144-.843,4.526-1.281,6.435-2.648a.781.781,0,0,1,.906-.1c.406.269.253.663.132.983Q545,256.97,542.645,263.1c-1.035,2.708-2.122,5.4-3.088,8.126a2.133,2.133,0,0,1-1.666,1.415,52.344,52.344,0,0,0-19.485,10.418c-3.837,3.29-6.942,7.209-10.265,10.94-2.786,3.128-5.244,6.5-7.728,9.828-2.7,3.618-5.16,7.4-7.511,11.253a172.475,172.475,0,0,0-12.145,24.081,184.687,184.687,0,0,0-6.145,17.574c-1.842,6.149-3.48,12.348-4.851,18.605q-1.681,7.675-3.02,15.434c-.953,5.521-1.869,11.048-2.7,16.586-.568,3.778-.869,7.6-1.4,11.382-.7,5.045-.967,10.143-1.846,15.168-.491,2.8-.625,5.669-.983,8.5-.488,3.838-1.065,7.664-1.55,11.5-.364,2.88-.637,5.773-.96,8.66a62.884,62.884,0,0,0-.539,10.225c.211,4,.576,8.105,3.822,11.209a8.87,8.87,0,0,0,8.808,2.218,23.637,23.637,0,0,0,8.218-4.571c3.17-2.448,6.278-4.973,9.366-7.514,4.173-3.431,8.3-6.913,12.451-10.366,3.476-2.889,7.008-5.72,10.432-8.665,3.505-3.011,7.118-5.9,10.54-9.011,3.607-3.274,7.233-6.528,10.822-9.822,2.978-2.734,5.683-5.7,8.454-8.619a119.813,119.813,0,0,0,13.937-18.213,155.023,155.023,0,0,0,9.2-16.778,150.019,150.019,0,0,0,6.31-15.089,116.983,116.983,0,0,0,4.77-15.768c.78-3.937,1.866-7.82,2.5-11.786.591-3.72.891-7.487,1.333-11.232.712-6.041.349-12.12.186-18.186-.054-1.989-.561-3.973-.746-5.967a59.536,59.536,0,0,0-2.384-12.106,90.059,90.059,0,0,0-8.121-19.139c-1.985-3.389-3.91-6.827-6.636-9.708-1.681-1.776-1.319-3-.381-4.879q4.3-8.629,8.8-17.163c2.273-4.339,4.5-8.717,7.146-12.867a5.266,5.266,0,0,1,2.439-2.057c5.305-2.36,10.623-4.717,15.781-7.342,5.391-2.743,10.857-5.362,16.2-8.182,5.066-2.675,10.08-5.447,15.071-8.249,2.93-1.644,5.9-3.241,8.852-4.865.874-.482,1.712-1.021,2.58-1.514.259-.148.571-.428.87-.157a.918.918,0,0,1,.187.7c-.756,6.226-1,12.5-1.362,18.756-.092,1.607-1.518,1.828-2.5,2.231-10.359,4.269-18.018,11.365-23.777,20.382a53.277,53.277,0,0,0-4.68,10.313c-1.982,5.346-2.893,10.913-3.92,16.455a70.487,70.487,0,0,0-.781,8.833c-.367,6.371.1,12.757.242,19.136.04,1.836.485,3.669.681,5.509.538,5.054,1.567,10.049,2.336,15.072,2.224,14.544,6.22,28.749,9.7,43.055,3.484,14.327,7.533,28.532,11.247,42.809a67.465,67.465,0,0,0,5.356,14.254c2.029,3.894,4.9,7.222,9.7,8.338a11.262,11.262,0,0,0,4.655-.184,19.717,19.717,0,0,0,8.117-3.793A51.029,51.029,0,0,0,663,417.716a143.84,143.84,0,0,0,9.895-14.992q3.719-6.482,6.9-13.2c2.311-4.888,4.294-9.91,6.121-15,1.62-4.517,2.916-9.115,4.2-13.718.931-3.33,1.628-6.723,2.264-10.132.833-4.455,1.64-8.913,2.187-13.412.339-2.781.464-5.587.707-8.38a148.075,148.075,0,0,0,.376-18.815m-171.911-195.7c-10.786-16.324-21.516-32.341-30.562-49.751,15.772,12.649,28.453,28.1,39.531,44.462C543.58,125.567,552.892,143,558.2,161.828c-12.751-15.221-23.462-31.259-34.452-47.456m-71.312,61.051c-14.35-15.366-27.229-31.4-42.046-46.241-19.309-20.116-40.05-38.381-61.079-57.092,38.93,18.692,71.694,48.581,95.759,82.993,8.1,11.572,14.129,23.566,24.856,33-6.632-2.9-12.413-7.619-17.49-12.661m-139.811-2.815C293.4,154.842,274.814,136.583,258.55,116.2c22.057,14.666,41.968,31.617,61.381,49.2,19.241,17.753,37.826,36.012,54.074,56.412-22.072-14.649-41.982-31.6-61.383-49.2m-150.2,1.542c16.437,10.168,30.754,22.5,45.744,34.18,14.871,11.857,29.722,22.586,45.719,33.347-37.285-6.98-71.194-37.932-91.463-67.527M30,233.87c25.1,8.444,49.535,17.2,74.849,24.5,25.252,7.508,50.565,13.329,76.271,19.8C129.407,280.635,71.931,263.734,30,233.87M213.076,348.647c-18.278,7.1-36.466,13.866-55.871,18.345,28.8-21.2,72.361-38.515,108.8-43.107-16.9,9.929-34.747,17.441-52.925,24.762m167.883,47.381c-19.52,20.442-40.686,39.543-64.76,55.188,18.143-21.509,37.544-41.551,56.748-62.051,19.395-20.34,38.3-40.8,58.891-60.215-13.806,24.438-31.55,46.474-50.879,67.079m135.035-2.3c-9.509,24.947-20.613,49.328-35.41,71.852,6.97-25.747,16.138-50.509,25.35-75.446,9.452-24.853,18.837-49.535,30.576-73.58-3.586,26.527-11.247,52.142-20.516,77.173M644.43,404.418c-.608-17.872.277-42.858.436-60.853.315-18.063.069-42.911,1.178-60.827a145.944,145.944,0,0,1,7.508,30.29c4.143,30.687,2.209,62.524-9.122,91.389" transform="translate(1236.613 2092.285) rotate(78)" fill="#e8e8e8" opacity="0.13" style="mix-blend-mode: multiply;isolation: isolate"/>
          </g>
          <path id="Trazado_886061" data-name="Trazado 886061" d="M3.989-4.759V0H1.206V-13.508h5.27a6.1,6.1,0,0,1,2.677.557,4.1,4.1,0,0,1,1.777,1.582,4.411,4.411,0,0,1,.622,2.333,3.878,3.878,0,0,1-1.359,3.131A5.661,5.661,0,0,1,6.429-4.759Zm0-2.254H6.476a2.445,2.445,0,0,0,1.684-.52,1.89,1.89,0,0,0,.58-1.484,2.228,2.228,0,0,0-.584-1.6,2.183,2.183,0,0,0-1.614-.631H3.989ZM19.3-1.021A3.362,3.362,0,0,1,16.551.186a3.171,3.171,0,0,1-2.463-.928A3.96,3.96,0,0,1,13.22-3.46v-6.578H15.9v6.492q0,1.57,1.429,1.57A1.936,1.936,0,0,0,19.2-2.924v-7.115h2.69V0H19.371Zm7.088-9.018.083,1.16a3.5,3.5,0,0,1,2.885-1.345,2.913,2.913,0,0,1,2.375.937,4.372,4.372,0,0,1,.8,2.8V0H29.845V-6.42a1.739,1.739,0,0,0-.371-1.239,1.661,1.661,0,0,0-1.234-.385,1.844,1.844,0,0,0-1.7.965V0H23.861V-10.038Zm11.383-2.468v2.468h1.716v1.967H37.768v5.01a1.2,1.2,0,0,0,.213.8,1.072,1.072,0,0,0,.816.241,4.276,4.276,0,0,0,.789-.065V-.056a5.52,5.52,0,0,1-1.624.241,2.56,2.56,0,0,1-2.876-2.848V-8.071H33.621v-1.967h1.466v-2.468Zm2.514,7.394a5.953,5.953,0,0,1,.575-2.663,4.211,4.211,0,0,1,1.656-1.809,4.831,4.831,0,0,1,2.51-.64A4.571,4.571,0,0,1,48.34-8.98,4.989,4.989,0,0,1,49.773-5.6l.019.687A5.247,5.247,0,0,1,48.5-1.211a4.482,4.482,0,0,1-3.46,1.4,4.5,4.5,0,0,1-3.465-1.392,5.339,5.339,0,0,1-1.294-3.785Zm2.681.19A3.752,3.752,0,0,0,43.5-2.733a1.775,1.775,0,0,0,1.54.757,1.779,1.779,0,0,0,1.521-.748,4.106,4.106,0,0,0,.547-2.393,3.715,3.715,0,0,0-.547-2.174,1.779,1.779,0,0,0-1.54-.771A1.75,1.75,0,0,0,43.5-7.3,4.175,4.175,0,0,0,42.963-4.921Zm12.793-.172A6.049,6.049,0,0,1,56.81-8.832a3.417,3.417,0,0,1,2.881-1.392,3.074,3.074,0,0,1,2.421,1.095V-14.25H64.8V0H62.381l-.13-1.067A3.155,3.155,0,0,1,59.672.186a3.407,3.407,0,0,1-2.844-1.4A6.244,6.244,0,0,1,55.757-5.093Zm2.681.2a3.963,3.963,0,0,0,.492,2.165,1.6,1.6,0,0,0,1.429.753,1.794,1.794,0,0,0,1.753-1.05V-6.994a1.768,1.768,0,0,0-1.735-1.05Q58.438-8.043,58.438-4.894ZM71.5.186a4.928,4.928,0,0,1-3.595-1.354,4.815,4.815,0,0,1-1.387-3.609v-.26a6.064,6.064,0,0,1,.584-2.7,4.289,4.289,0,0,1,1.656-1.837,4.648,4.648,0,0,1,2.445-.645,4.166,4.166,0,0,1,3.242,1.3,5.278,5.278,0,0,1,1.183,3.683v1.095H69.237a2.491,2.491,0,0,0,.784,1.577,2.37,2.37,0,0,0,1.656.594A2.894,2.894,0,0,0,74.1-3.1l1.317,1.475A4.025,4.025,0,0,1,73.783-.292,5.357,5.357,0,0,1,71.5.186Zm-.306-8.248a1.675,1.675,0,0,0-1.294.54,2.8,2.8,0,0,0-.635,1.547h3.729v-.214a2,2,0,0,0-.482-1.384A1.729,1.729,0,0,0,71.194-8.062ZM87.7,0a2.977,2.977,0,0,1-.269-.9A3.244,3.244,0,0,1,84.9.186a3.564,3.564,0,0,1-2.445-.854,2.745,2.745,0,0,1-.969-2.152A2.837,2.837,0,0,1,82.666-5.27a5.837,5.837,0,0,1,3.419-.863h1.234v-.575a1.654,1.654,0,0,0-.357-1.113,1.405,1.405,0,0,0-1.127-.417,1.6,1.6,0,0,0-1.062.325,1.1,1.1,0,0,0-.385.891H81.706a2.693,2.693,0,0,1,.538-1.614A3.557,3.557,0,0,1,83.765-9.8a5.545,5.545,0,0,1,2.208-.422,4.381,4.381,0,0,1,2.946.932,3.262,3.262,0,0,1,1.09,2.621v4.351a4.8,4.8,0,0,0,.4,2.162V0ZM85.481-1.865a2.309,2.309,0,0,0,1.095-.264,1.737,1.737,0,0,0,.742-.71V-4.564h-1q-2.013,0-2.143,1.392l-.009.158a1.073,1.073,0,0,0,.353.826A1.369,1.369,0,0,0,85.481-1.865ZM92.8,0V-8.071H91.308v-1.967H92.8v-.854a3.465,3.465,0,0,1,.969-2.621,3.755,3.755,0,0,1,2.714-.932,6.268,6.268,0,0,1,1.364.186l-.028,2.078A3.418,3.418,0,0,0,97-12.265q-1.512,0-1.512,1.419v.807h1.995v1.967H95.492V0ZM98.46-5.112a5.953,5.953,0,0,1,.575-2.663,4.211,4.211,0,0,1,1.656-1.809,4.831,4.831,0,0,1,2.51-.64,4.571,4.571,0,0,1,3.317,1.243A4.989,4.989,0,0,1,107.951-5.6l.019.687a5.247,5.247,0,0,1-1.29,3.706,4.482,4.482,0,0,1-3.46,1.4,4.5,4.5,0,0,1-3.465-1.392A5.339,5.339,0,0,1,98.46-4.991Zm2.681.19a3.752,3.752,0,0,0,.538,2.188,1.775,1.775,0,0,0,1.54.757,1.779,1.779,0,0,0,1.521-.748,4.106,4.106,0,0,0,.547-2.393,3.715,3.715,0,0,0-.547-2.174,1.779,1.779,0,0,0-1.54-.771,1.75,1.75,0,0,0-1.521.767A4.175,4.175,0,0,0,101.142-4.921Zm14.12-2.6A7.284,7.284,0,0,0,114.3-7.6a1.964,1.964,0,0,0-1.995,1.03V0h-2.681V-10.038h2.533l.074,1.2a2.484,2.484,0,0,1,2.236-1.382,2.809,2.809,0,0,1,.835.121Zm.538,2.412a5.953,5.953,0,0,1,.575-2.663,4.211,4.211,0,0,1,1.656-1.809,4.831,4.831,0,0,1,2.51-.64,4.571,4.571,0,0,1,3.317,1.243A4.989,4.989,0,0,1,125.291-5.6l.019.687a5.247,5.247,0,0,1-1.29,3.706,4.482,4.482,0,0,1-3.46,1.4,4.5,4.5,0,0,1-3.465-1.392A5.339,5.339,0,0,1,115.8-4.991Zm2.681.19a3.752,3.752,0,0,0,.538,2.188,1.775,1.775,0,0,0,1.54.757,1.779,1.779,0,0,0,1.521-.748,4.106,4.106,0,0,0,.547-2.393,3.715,3.715,0,0,0-.547-2.174,1.779,1.779,0,0,0-1.54-.771,1.75,1.75,0,0,0-1.521.767A4.175,4.175,0,0,0,118.481-4.921ZM11.81,35.5a4.78,4.78,0,0,1-1.61,3.433,5.653,5.653,0,0,1-3.827,1.252,5.083,5.083,0,0,1-4.087-1.749A7.171,7.171,0,0,1,.8,33.636V32.81a8.1,8.1,0,0,1,.687-3.433A5.145,5.145,0,0,1,3.447,27.1a5.5,5.5,0,0,1,2.964-.793,5.507,5.507,0,0,1,3.767,1.252,5.137,5.137,0,0,1,1.651,3.516H9.045a2.821,2.821,0,0,0-.728-1.9,2.7,2.7,0,0,0-1.906-.589,2.365,2.365,0,0,0-2.083,1,5.589,5.589,0,0,0-.71,3.094V33.7a5.982,5.982,0,0,0,.663,3.2,2.321,2.321,0,0,0,2.092,1.011A2.748,2.748,0,0,0,8.3,37.323,2.661,2.661,0,0,0,9.027,35.5ZM19.1,32.476a7.284,7.284,0,0,0-.965-.074,1.964,1.964,0,0,0-1.995,1.03V40H13.461V29.962h2.533l.074,1.2A2.484,2.484,0,0,1,18.3,29.776a2.809,2.809,0,0,1,.835.121Zm5.733,7.709a4.928,4.928,0,0,1-3.595-1.354,4.815,4.815,0,0,1-1.387-3.609v-.26a6.064,6.064,0,0,1,.584-2.7,4.289,4.289,0,0,1,1.656-1.837,4.648,4.648,0,0,1,2.445-.645,4.166,4.166,0,0,1,3.242,1.3,5.278,5.278,0,0,1,1.183,3.683v1.095H22.572a2.491,2.491,0,0,0,.784,1.577,2.37,2.37,0,0,0,1.656.594A2.894,2.894,0,0,0,27.433,36.9l1.317,1.475a4.025,4.025,0,0,1-1.633,1.331A5.357,5.357,0,0,1,24.835,40.186Zm-.306-8.248a1.675,1.675,0,0,0-1.294.54,2.8,2.8,0,0,0-.635,1.547h3.729v-.214a2,2,0,0,0-.482-1.384A1.729,1.729,0,0,0,24.529,31.938ZM34.66,38.024a1.759,1.759,0,0,0,1.206-.408,1.43,1.43,0,0,0,.482-1.085h2.514a3.439,3.439,0,0,1-.557,1.869,3.673,3.673,0,0,1-1.5,1.317,4.689,4.689,0,0,1-2.1.469,4.358,4.358,0,0,1-3.4-1.368,5.415,5.415,0,0,1-1.243-3.781V34.86a5.353,5.353,0,0,1,1.234-3.7,4.307,4.307,0,0,1,3.386-1.382,4.222,4.222,0,0,1,3.02,1.072A3.794,3.794,0,0,1,38.863,33.7H36.349a1.842,1.842,0,0,0-.482-1.273,1.793,1.793,0,0,0-2.639.193,3.958,3.958,0,0,0-.478,2.216v.279a4.008,4.008,0,0,0,.473,2.23A1.635,1.635,0,0,0,34.66,38.024ZM43.223,40h-2.69V29.962h2.69ZM40.375,27.364a1.32,1.32,0,0,1,.4-.993,1.739,1.739,0,0,1,2.194,0,1.417,1.417,0,0,1,0,1.995,1.72,1.72,0,0,1-2.18,0A1.316,1.316,0,0,1,40.375,27.364Zm7.57,2.6.083,1.123a3.528,3.528,0,0,1,2.885-1.308,2.677,2.677,0,0,1,2.663,1.531,3.447,3.447,0,0,1,3.015-1.531,2.994,2.994,0,0,1,2.431.951,4.371,4.371,0,0,1,.8,2.862V40H57.13V33.6a1.911,1.911,0,0,0-.334-1.248,1.48,1.48,0,0,0-1.178-.394,1.673,1.673,0,0,0-1.67,1.15L53.957,40H51.276V33.608a1.888,1.888,0,0,0-.343-1.262,1.5,1.5,0,0,0-1.169-.39,1.738,1.738,0,0,0-1.651.946V40H45.431V29.962ZM64.709,40h-2.69V29.962h2.69ZM61.861,27.364a1.32,1.32,0,0,1,.4-.993,1.739,1.739,0,0,1,2.194,0,1.417,1.417,0,0,1,0,1.995,1.72,1.72,0,0,1-2.18,0A1.316,1.316,0,0,1,61.861,27.364Zm9.676,12.821a4.928,4.928,0,0,1-3.595-1.354,4.815,4.815,0,0,1-1.387-3.609v-.26a6.064,6.064,0,0,1,.584-2.7A4.289,4.289,0,0,1,68.8,30.421a4.648,4.648,0,0,1,2.445-.645,4.166,4.166,0,0,1,3.242,1.3,5.278,5.278,0,0,1,1.183,3.683v1.095H69.274a2.491,2.491,0,0,0,.784,1.577,2.37,2.37,0,0,0,1.656.594A2.894,2.894,0,0,0,74.135,36.9l1.317,1.475a4.025,4.025,0,0,1-1.633,1.331A5.357,5.357,0,0,1,71.538,40.186Zm-.306-8.248a1.675,1.675,0,0,0-1.294.54,2.8,2.8,0,0,0-.635,1.547h3.729v-.214a2,2,0,0,0-.482-1.384A1.729,1.729,0,0,0,71.231,31.938Zm8.424-1.976.083,1.16a3.5,3.5,0,0,1,2.885-1.345A2.913,2.913,0,0,1,85,30.713a4.372,4.372,0,0,1,.8,2.8V40H83.116V33.58a1.739,1.739,0,0,0-.371-1.239,1.661,1.661,0,0,0-1.234-.385,1.844,1.844,0,0,0-1.7.965V40H77.132V29.962Zm11.383-2.468v2.468h1.716v1.967H91.039v5.01a1.2,1.2,0,0,0,.213.8,1.072,1.072,0,0,0,.816.241,4.276,4.276,0,0,0,.789-.065v2.032a5.519,5.519,0,0,1-1.624.241,2.56,2.56,0,0,1-2.876-2.848V31.929H86.892V29.962h1.466V27.494Zm2.514,7.394a5.953,5.953,0,0,1,.575-2.663,4.211,4.211,0,0,1,1.656-1.809,4.831,4.831,0,0,1,2.51-.64,4.571,4.571,0,0,1,3.317,1.243,4.989,4.989,0,0,1,1.433,3.377l.019.687a5.247,5.247,0,0,1-1.29,3.706,5,5,0,0,1-6.926,0,5.339,5.339,0,0,1-1.294-3.785Zm2.681.19a3.752,3.752,0,0,0,.538,2.188,1.933,1.933,0,0,0,3.062.009,4.106,4.106,0,0,0,.547-2.393,3.715,3.715,0,0,0-.547-2.174,1.779,1.779,0,0,0-1.54-.771,1.75,1.75,0,0,0-1.521.767A4.175,4.175,0,0,0,96.234,35.079ZM115.262,40a2.977,2.977,0,0,1-.269-.9,3.244,3.244,0,0,1-2.533,1.085,3.564,3.564,0,0,1-2.445-.854,2.745,2.745,0,0,1-.969-2.152,2.837,2.837,0,0,1,1.183-2.449,5.837,5.837,0,0,1,3.419-.863h1.234v-.575a1.654,1.654,0,0,0-.357-1.113,1.405,1.405,0,0,0-1.127-.417,1.6,1.6,0,0,0-1.062.325,1.1,1.1,0,0,0-.385.891h-2.681a2.693,2.693,0,0,1,.538-1.614,3.557,3.557,0,0,1,1.521-1.164,5.545,5.545,0,0,1,2.208-.422,4.381,4.381,0,0,1,2.946.932,3.262,3.262,0,0,1,1.09,2.621v4.351a4.8,4.8,0,0,0,.4,2.162V40Zm-2.217-1.865a2.309,2.309,0,0,0,1.095-.264,1.737,1.737,0,0,0,.742-.71V35.436h-1q-2.013,0-2.143,1.392l-.009.158a1.073,1.073,0,0,0,.353.826A1.369,1.369,0,0,0,113.044,38.135ZM122.461,40h-2.69V25.75h2.69Zm5.418-12.506v2.468H129.6v1.967h-1.716v5.01a1.2,1.2,0,0,0,.213.8,1.072,1.072,0,0,0,.816.241,4.276,4.276,0,0,0,.789-.065v2.032a5.519,5.519,0,0,1-1.624.241,2.56,2.56,0,0,1-2.876-2.848V31.929h-1.466V29.962H125.2V27.494Zm2.514,7.394a5.953,5.953,0,0,1,.575-2.663,4.211,4.211,0,0,1,1.656-1.809,4.831,4.831,0,0,1,2.51-.64,4.571,4.571,0,0,1,3.317,1.243,4.989,4.989,0,0,1,1.433,3.377l.019.687a5.247,5.247,0,0,1-1.29,3.706,5,5,0,0,1-6.926,0,5.339,5.339,0,0,1-1.294-3.785Zm2.681.19a3.752,3.752,0,0,0,.538,2.188,1.933,1.933,0,0,0,3.062.009,4.106,4.106,0,0,0,.547-2.393,3.715,3.715,0,0,0-.547-2.174,1.779,1.779,0,0,0-1.54-.771,1.75,1.75,0,0,0-1.521.767A4.175,4.175,0,0,0,133.074,35.079ZM11.81,75.5a4.78,4.78,0,0,1-1.61,3.433,5.653,5.653,0,0,1-3.827,1.252,5.083,5.083,0,0,1-4.087-1.749A7.171,7.171,0,0,1,.8,73.636V72.81a8.1,8.1,0,0,1,.687-3.433A5.145,5.145,0,0,1,3.447,67.1a5.5,5.5,0,0,1,2.964-.793,5.507,5.507,0,0,1,3.767,1.252,5.137,5.137,0,0,1,1.651,3.516H9.045a2.821,2.821,0,0,0-.728-1.9,2.7,2.7,0,0,0-1.906-.589,2.365,2.365,0,0,0-2.083,1,5.589,5.589,0,0,0-.71,3.094V73.7a5.982,5.982,0,0,0,.663,3.2,2.321,2.321,0,0,0,2.092,1.011A2.748,2.748,0,0,0,8.3,77.323,2.661,2.661,0,0,0,9.027,75.5ZM19.1,72.476a7.284,7.284,0,0,0-.965-.074,1.964,1.964,0,0,0-1.995,1.03V80H13.461V69.962h2.533l.074,1.2A2.484,2.484,0,0,1,18.3,69.776a2.809,2.809,0,0,1,.835.121Zm5.733,7.709a4.928,4.928,0,0,1-3.595-1.354,4.815,4.815,0,0,1-1.387-3.609v-.26a6.064,6.064,0,0,1,.584-2.7,4.289,4.289,0,0,1,1.656-1.837,4.648,4.648,0,0,1,2.445-.645,4.166,4.166,0,0,1,3.242,1.3,5.278,5.278,0,0,1,1.183,3.683v1.095H22.572a2.491,2.491,0,0,0,.784,1.577,2.37,2.37,0,0,0,1.656.594A2.894,2.894,0,0,0,27.433,76.9l1.317,1.475a4.025,4.025,0,0,1-1.633,1.331A5.357,5.357,0,0,1,24.835,80.186Zm-.306-8.248a1.675,1.675,0,0,0-1.294.54,2.8,2.8,0,0,0-.635,1.547h3.729v-.214a2,2,0,0,0-.482-1.384A1.729,1.729,0,0,0,24.529,71.938ZM34.66,78.024a1.759,1.759,0,0,0,1.206-.408,1.43,1.43,0,0,0,.482-1.085h2.514a3.439,3.439,0,0,1-.557,1.869,3.673,3.673,0,0,1-1.5,1.317,4.689,4.689,0,0,1-2.1.469,4.358,4.358,0,0,1-3.4-1.368,5.415,5.415,0,0,1-1.243-3.781V74.86a5.353,5.353,0,0,1,1.234-3.7,4.307,4.307,0,0,1,3.386-1.382,4.222,4.222,0,0,1,3.02,1.072A3.794,3.794,0,0,1,38.863,73.7H36.349a1.842,1.842,0,0,0-.482-1.273,1.793,1.793,0,0,0-2.639.193,3.958,3.958,0,0,0-.478,2.216v.279a4.008,4.008,0,0,0,.473,2.23A1.635,1.635,0,0,0,34.66,78.024ZM43.223,80h-2.69V69.962h2.69ZM40.375,67.364a1.32,1.32,0,0,1,.4-.993,1.739,1.739,0,0,1,2.194,0,1.417,1.417,0,0,1,0,1.995,1.72,1.72,0,0,1-2.18,0A1.316,1.316,0,0,1,40.375,67.364Zm7.57,2.6.083,1.123a3.528,3.528,0,0,1,2.885-1.308,2.677,2.677,0,0,1,2.663,1.531,3.447,3.447,0,0,1,3.015-1.531,2.994,2.994,0,0,1,2.431.951,4.371,4.371,0,0,1,.8,2.862V80H57.13V73.6a1.911,1.911,0,0,0-.334-1.248,1.48,1.48,0,0,0-1.178-.394,1.673,1.673,0,0,0-1.67,1.15L53.957,80H51.276V73.608a1.888,1.888,0,0,0-.343-1.262,1.5,1.5,0,0,0-1.169-.39,1.738,1.738,0,0,0-1.651.946V80H45.431V69.962ZM64.709,80h-2.69V69.962h2.69ZM61.861,67.364a1.32,1.32,0,0,1,.4-.993,1.739,1.739,0,0,1,2.194,0,1.417,1.417,0,0,1,0,1.995,1.72,1.72,0,0,1-2.18,0A1.316,1.316,0,0,1,61.861,67.364Zm9.676,12.821a4.928,4.928,0,0,1-3.595-1.354,4.815,4.815,0,0,1-1.387-3.609v-.26a6.064,6.064,0,0,1,.584-2.7A4.289,4.289,0,0,1,68.8,70.421a4.648,4.648,0,0,1,2.445-.645,4.166,4.166,0,0,1,3.242,1.3,5.278,5.278,0,0,1,1.183,3.683v1.095H69.274a2.491,2.491,0,0,0,.784,1.577,2.37,2.37,0,0,0,1.656.594A2.894,2.894,0,0,0,74.135,76.9l1.317,1.475a4.025,4.025,0,0,1-1.633,1.331A5.357,5.357,0,0,1,71.538,80.186Zm-.306-8.248a1.675,1.675,0,0,0-1.294.54,2.8,2.8,0,0,0-.635,1.547h3.729v-.214a2,2,0,0,0-.482-1.384A1.729,1.729,0,0,0,71.231,71.938Zm8.424-1.976.083,1.16a3.5,3.5,0,0,1,2.885-1.345A2.913,2.913,0,0,1,85,70.713a4.372,4.372,0,0,1,.8,2.8V80H83.116V73.58a1.739,1.739,0,0,0-.371-1.239,1.661,1.661,0,0,0-1.234-.385,1.845,1.845,0,0,0-1.7.965V80H77.132V69.962Zm11.383-2.468v2.468h1.716v1.967H91.039v5.01a1.2,1.2,0,0,0,.213.8,1.072,1.072,0,0,0,.816.241,4.275,4.275,0,0,0,.789-.065v2.032a5.52,5.52,0,0,1-1.624.241,2.56,2.56,0,0,1-2.876-2.848V71.929H86.892V69.962h1.466V67.494Zm2.514,7.394a5.953,5.953,0,0,1,.575-2.663,4.211,4.211,0,0,1,1.656-1.809,4.831,4.831,0,0,1,2.51-.64,4.571,4.571,0,0,1,3.317,1.243,4.989,4.989,0,0,1,1.433,3.377l.019.687a5.247,5.247,0,0,1-1.29,3.706,5,5,0,0,1-6.926,0,5.339,5.339,0,0,1-1.294-3.785Zm2.681.19a3.752,3.752,0,0,0,.538,2.188,1.933,1.933,0,0,0,3.062.009,4.106,4.106,0,0,0,.547-2.393,3.715,3.715,0,0,0-.547-2.174,1.779,1.779,0,0,0-1.54-.771,1.75,1.75,0,0,0-1.521.767A4.175,4.175,0,0,0,96.234,75.079Zm15.725-5.117.083,1.123a3.528,3.528,0,0,1,2.885-1.308,2.677,2.677,0,0,1,2.663,1.531,3.447,3.447,0,0,1,3.015-1.531,2.994,2.994,0,0,1,2.431.951,4.371,4.371,0,0,1,.8,2.862V80h-2.69V73.6a1.911,1.911,0,0,0-.334-1.248,1.48,1.48,0,0,0-1.178-.394,1.673,1.673,0,0,0-1.67,1.15L117.971,80H115.29V73.608a1.888,1.888,0,0,0-.343-1.262,1.5,1.5,0,0,0-1.169-.39,1.738,1.738,0,0,0-1.651.946V80h-2.681V69.962Zm18.555,10.224a4.928,4.928,0,0,1-3.595-1.354,4.815,4.815,0,0,1-1.387-3.609v-.26a6.064,6.064,0,0,1,.584-2.7,4.289,4.289,0,0,1,1.656-1.837,4.648,4.648,0,0,1,2.445-.645,4.166,4.166,0,0,1,3.242,1.3,5.278,5.278,0,0,1,1.183,3.683v1.095H128.25a2.491,2.491,0,0,0,.784,1.577,2.37,2.37,0,0,0,1.656.594,2.894,2.894,0,0,0,2.421-1.123l1.317,1.475a4.025,4.025,0,0,1-1.633,1.331A5.357,5.357,0,0,1,130.514,80.186Zm-.306-8.248a1.675,1.675,0,0,0-1.294.54,2.8,2.8,0,0,0-.635,1.547h3.729v-.214a2,2,0,0,0-.482-1.384A1.729,1.729,0,0,0,130.208,71.938Zm5.539,2.969a6.049,6.049,0,0,1,1.053-3.739,3.417,3.417,0,0,1,2.881-1.392,3.074,3.074,0,0,1,2.421,1.095V65.75h2.69V80H142.37l-.13-1.067a3.155,3.155,0,0,1-2.579,1.252,3.407,3.407,0,0,1-2.844-1.4A6.244,6.244,0,0,1,135.746,74.907Zm2.681.2a3.963,3.963,0,0,0,.492,2.165,1.6,1.6,0,0,0,1.429.753,1.794,1.794,0,0,0,1.753-1.05V73.006a1.768,1.768,0,0,0-1.735-1.05Q138.427,71.957,138.427,75.106ZM149.7,80h-2.69V69.962h2.69Zm-2.848-12.636a1.32,1.32,0,0,1,.4-.993,1.739,1.739,0,0,1,2.194,0,1.417,1.417,0,0,1,0,1.995,1.72,1.72,0,0,1-2.18,0A1.316,1.316,0,0,1,146.851,67.364Zm4.639,7.524a5.953,5.953,0,0,1,.575-2.663,4.211,4.211,0,0,1,1.656-1.809,4.831,4.831,0,0,1,2.51-.64,4.571,4.571,0,0,1,3.317,1.243A4.989,4.989,0,0,1,160.98,74.4l.019.687a5.247,5.247,0,0,1-1.29,3.706,5,5,0,0,1-6.926,0,5.339,5.339,0,0,1-1.294-3.785Zm2.681.19a3.752,3.752,0,0,0,.538,2.188,1.933,1.933,0,0,0,3.062.009,4.106,4.106,0,0,0,.547-2.393,3.715,3.715,0,0,0-.547-2.174,1.779,1.779,0,0,0-1.54-.771,1.75,1.75,0,0,0-1.521.767A4.175,4.175,0,0,0,154.171,75.079ZM11.81,115.5a4.78,4.78,0,0,1-1.61,3.433,5.653,5.653,0,0,1-3.827,1.252,5.083,5.083,0,0,1-4.087-1.749,7.171,7.171,0,0,1-1.489-4.8v-.826a8.1,8.1,0,0,1,.687-3.433A5.145,5.145,0,0,1,3.447,107.1a5.5,5.5,0,0,1,2.964-.793,5.507,5.507,0,0,1,3.767,1.252,5.137,5.137,0,0,1,1.651,3.516H9.045a2.821,2.821,0,0,0-.728-1.9,2.7,2.7,0,0,0-1.906-.589,2.365,2.365,0,0,0-2.083,1,5.589,5.589,0,0,0-.71,3.094V113.7a5.982,5.982,0,0,0,.663,3.2,2.321,2.321,0,0,0,2.092,1.011,2.748,2.748,0,0,0,1.925-.589,2.661,2.661,0,0,0,.728-1.823Zm7.292-3.024a7.284,7.284,0,0,0-.965-.074,1.964,1.964,0,0,0-1.995,1.03V120H13.461V109.962h2.533l.074,1.2a2.484,2.484,0,0,1,2.236-1.382,2.809,2.809,0,0,1,.835.121Zm5.733,7.709a4.928,4.928,0,0,1-3.595-1.354,4.815,4.815,0,0,1-1.387-3.609v-.26a6.064,6.064,0,0,1,.584-2.7,4.289,4.289,0,0,1,1.656-1.837,4.648,4.648,0,0,1,2.445-.645,4.166,4.166,0,0,1,3.242,1.3,5.278,5.278,0,0,1,1.183,3.683v1.095H22.572a2.491,2.491,0,0,0,.784,1.577,2.37,2.37,0,0,0,1.656.594,2.894,2.894,0,0,0,2.421-1.123l1.317,1.475a4.025,4.025,0,0,1-1.633,1.331A5.357,5.357,0,0,1,24.835,120.186Zm-.306-8.248a1.675,1.675,0,0,0-1.294.54,2.8,2.8,0,0,0-.635,1.547h3.729v-.214a2,2,0,0,0-.482-1.384A1.729,1.729,0,0,0,24.529,111.938Zm10.131,6.086a1.759,1.759,0,0,0,1.206-.408,1.43,1.43,0,0,0,.482-1.085h2.514a3.439,3.439,0,0,1-.557,1.869,3.673,3.673,0,0,1-1.5,1.317,4.689,4.689,0,0,1-2.1.469,4.358,4.358,0,0,1-3.4-1.368,5.415,5.415,0,0,1-1.243-3.781v-.176a5.353,5.353,0,0,1,1.234-3.7,4.307,4.307,0,0,1,3.386-1.382,4.222,4.222,0,0,1,3.02,1.072,3.794,3.794,0,0,1,1.155,2.853H36.349a1.842,1.842,0,0,0-.482-1.273,1.793,1.793,0,0,0-2.639.193,3.958,3.958,0,0,0-.478,2.216v.279a4.008,4.008,0,0,0,.473,2.23A1.635,1.635,0,0,0,34.66,118.024ZM43.223,120h-2.69V109.962h2.69Zm-2.848-12.636a1.32,1.32,0,0,1,.4-.993,1.739,1.739,0,0,1,2.194,0,1.417,1.417,0,0,1,0,1.995,1.72,1.72,0,0,1-2.18,0A1.316,1.316,0,0,1,40.375,107.364Zm7.57,2.6.083,1.123a3.528,3.528,0,0,1,2.885-1.308,2.677,2.677,0,0,1,2.663,1.531,3.447,3.447,0,0,1,3.015-1.531,2.994,2.994,0,0,1,2.431.951,4.371,4.371,0,0,1,.8,2.862V120H57.13v-6.4a1.911,1.911,0,0,0-.334-1.248,1.48,1.48,0,0,0-1.178-.394,1.673,1.673,0,0,0-1.67,1.15L53.957,120H51.276v-6.392a1.888,1.888,0,0,0-.343-1.262,1.5,1.5,0,0,0-1.169-.39,1.738,1.738,0,0,0-1.651.946V120H45.431V109.962ZM64.709,120h-2.69V109.962h2.69Zm-2.848-12.636a1.32,1.32,0,0,1,.4-.993,1.739,1.739,0,0,1,2.194,0,1.417,1.417,0,0,1,0,1.995,1.72,1.72,0,0,1-2.18,0A1.316,1.316,0,0,1,61.861,107.364Zm9.676,12.821a4.928,4.928,0,0,1-3.595-1.354,4.815,4.815,0,0,1-1.387-3.609v-.26a6.064,6.064,0,0,1,.584-2.7,4.289,4.289,0,0,1,1.656-1.837,4.648,4.648,0,0,1,2.445-.645,4.166,4.166,0,0,1,3.242,1.3,5.278,5.278,0,0,1,1.183,3.683v1.095H69.274a2.491,2.491,0,0,0,.784,1.577,2.37,2.37,0,0,0,1.656.594,2.894,2.894,0,0,0,2.421-1.123l1.317,1.475a4.025,4.025,0,0,1-1.633,1.331A5.357,5.357,0,0,1,71.538,120.186Zm-.306-8.248a1.675,1.675,0,0,0-1.294.54,2.8,2.8,0,0,0-.635,1.547h3.729v-.214a2,2,0,0,0-.482-1.384A1.729,1.729,0,0,0,71.231,111.938Zm8.424-1.976.083,1.16a3.5,3.5,0,0,1,2.885-1.345,2.913,2.913,0,0,1,2.375.937,4.372,4.372,0,0,1,.8,2.8V120H83.116v-6.42a1.739,1.739,0,0,0-.371-1.239,1.661,1.661,0,0,0-1.234-.385,1.845,1.845,0,0,0-1.7.965V120H77.132V109.962Zm11.383-2.468v2.468h1.716v1.967H91.039v5.01a1.2,1.2,0,0,0,.213.8,1.072,1.072,0,0,0,.816.241,4.275,4.275,0,0,0,.789-.065v2.032a5.52,5.52,0,0,1-1.624.241,2.56,2.56,0,0,1-2.876-2.848v-5.409H86.892v-1.967h1.466v-2.468Zm2.514,7.394a5.953,5.953,0,0,1,.575-2.663,4.211,4.211,0,0,1,1.656-1.809,4.831,4.831,0,0,1,2.51-.64,4.571,4.571,0,0,1,3.317,1.243,4.989,4.989,0,0,1,1.433,3.377l.019.687a5.247,5.247,0,0,1-1.29,3.706,5,5,0,0,1-6.926,0,5.339,5.339,0,0,1-1.294-3.785Zm2.681.19a3.752,3.752,0,0,0,.538,2.188,1.933,1.933,0,0,0,3.062.009,4.106,4.106,0,0,0,.547-2.393,3.715,3.715,0,0,0-.547-2.174,1.779,1.779,0,0,0-1.54-.771,1.75,1.75,0,0,0-1.521.767A4.175,4.175,0,0,0,96.234,115.079Zm22.256,0a6.078,6.078,0,0,1-1.03,3.762,3.411,3.411,0,0,1-2.876,1.35,3.134,3.134,0,0,1-2.607-1.252L111.857,120h-2.412V105.75h2.681v5.112a3.054,3.054,0,0,1,2.44-1.085,3.439,3.439,0,0,1,2.881,1.35,6.087,6.087,0,0,1,1.044,3.8Zm-2.681-.195a3.993,3.993,0,0,0-.482-2.222,1.631,1.631,0,0,0-1.438-.7A1.769,1.769,0,0,0,112.126,113v3.961a1.793,1.793,0,0,0,1.781,1.058,1.655,1.655,0,0,0,1.707-1.28A6.6,6.6,0,0,0,115.809,114.879ZM125.958,120a2.977,2.977,0,0,1-.269-.9,3.244,3.244,0,0,1-2.533,1.085,3.564,3.564,0,0,1-2.445-.854,2.745,2.745,0,0,1-.969-2.152,2.837,2.837,0,0,1,1.183-2.449,5.837,5.837,0,0,1,3.419-.863h1.234v-.575a1.654,1.654,0,0,0-.357-1.113,1.405,1.405,0,0,0-1.127-.417,1.6,1.6,0,0,0-1.062.325,1.1,1.1,0,0,0-.385.891h-2.681a2.693,2.693,0,0,1,.538-1.614,3.557,3.557,0,0,1,1.521-1.164,5.545,5.545,0,0,1,2.208-.422,4.381,4.381,0,0,1,2.946.932,3.262,3.262,0,0,1,1.09,2.621v4.351a4.8,4.8,0,0,0,.4,2.162V120Zm-2.217-1.865a2.309,2.309,0,0,0,1.095-.264,1.737,1.737,0,0,0,.742-.71v-1.726h-1q-2.013,0-2.143,1.392l-.009.158a1.073,1.073,0,0,0,.353.826A1.369,1.369,0,0,0,123.741,118.135Zm9.426-8.173v10.585a3.591,3.591,0,0,1-.881,2.584,3.35,3.35,0,0,1-2.542.923,5.452,5.452,0,0,1-1.327-.158v-2.125a5.033,5.033,0,0,0,.844.083q1.215,0,1.215-1.29v-10.6Zm-2.9-2.6a1.32,1.32,0,0,1,.4-.993,1.746,1.746,0,0,1,2.2,0,1.422,1.422,0,0,1-.009,1.995,1.72,1.72,0,0,1-2.18,0A1.316,1.316,0,0,1,130.263,107.364Zm4.583,7.524a5.953,5.953,0,0,1,.575-2.663,4.211,4.211,0,0,1,1.656-1.809,4.831,4.831,0,0,1,2.51-.64,4.571,4.571,0,0,1,3.317,1.243,4.989,4.989,0,0,1,1.433,3.377l.019.687a5.247,5.247,0,0,1-1.29,3.706,5,5,0,0,1-6.926,0,5.339,5.339,0,0,1-1.294-3.785Zm2.681.19a3.752,3.752,0,0,0,.538,2.188,1.933,1.933,0,0,0,3.062.009,4.106,4.106,0,0,0,.547-2.393,3.715,3.715,0,0,0-.547-2.174,1.779,1.779,0,0,0-1.54-.771,1.75,1.75,0,0,0-1.521.767A4.175,4.175,0,0,0,137.527,115.079Z" transform="translate(1125.025 2599)" fill="#12263f"/>
          <g id="Grupo_1102250" data-name="Grupo 1102250" transform="translate(-385.975 -253.826)">
            <path id="Trazado_882511" data-name="Trazado 882511" d="M11.453,184.717A5.791,5.791,0,0,0,8.1,182.724a7.305,7.305,0,0,0-4.365.374,5.623,5.623,0,0,0-2.253,1.734A3.644,3.644,0,0,0,0,187.627a3.844,3.844,0,0,0,1.62,3.021l2.742,1.827a7.112,7.112,0,0,0,7.425.424,4.214,4.214,0,0,0,2.055-2.179,3.614,3.614,0,0,0-.529-3.277l-1.862-2.726" transform="translate(670.975 2684.968)" fill="#fba457"/>
            <path id="Trazado_882512" data-name="Trazado 882512" d="M15.732,157.382a7.236,7.236,0,0,0-3.959,1.875,4.806,4.806,0,0,0-1.591,3.265v2.409c0,2.749,3.127,3.989,5.482,3.579a7.233,7.233,0,0,0,3.959-1.875,4.806,4.806,0,0,0,1.591-3.265v-2.408c0-2.749-3.126-3.99-5.482-3.58" transform="translate(663.786 2646.414)" fill="#fba457"/>
            <path id="Trazado_882513" data-name="Trazado 882513" d="M35.26,182.046c-2.288,0-5.342,1.989-4.647,4.612.758,2.861,3.821,3.914,6.474,3.914,2.288,0,5.342-1.988,4.647-4.612-.758-2.861-3.821-3.914-6.474-3.914" transform="translate(650.575 2658.945)" fill="#fba457"/>
            <path id="Trazado_882514" data-name="Trazado 882514" d="M54.014,156.6a19,19,0,0,0-9.671-3.872c-1.668-.218-3.869.943-5.09,1.927a10.175,10.175,0,0,0-3.388,5.083c-.379,1.617-.55,3.59.441,5.045a5.211,5.211,0,0,0,4.032,2.271h.007l.095.031c.343.111.693.193,1.034.311a12.962,12.962,0,0,1,1.317.545c.422.272.834.556,1.232.869,3.016,2.378,7.506.351,9.576-2.359,1.991-2.609,3.568-7.368.416-9.854" transform="translate(649.196 2666.947)" fill="#fba457"/>
            <path id="Trazado_882515" data-name="Trazado 882515" d="M56.673,210.722c-.5-2.755-3.519-4.412-6.146-4.412-2.265,0-5.5,1.438-5,4.231.5,2.756,3.519,4.412,6.145,4.412,2.265,0,5.5-1.437,5-4.231" transform="translate(646.494 2652.328)" fill="#fba457"/>
          </g>
          <g id="Grupo_1102252" data-name="Grupo 1102252" transform="translate(1292.325 2286.465)">
            <g id="Grupo_1102251" data-name="Grupo 1102251" clip-path="url(#clip-path-2)">
              <path id="Trazado_882516" data-name="Trazado 882516" d="M22.456,34.711a1.142,1.142,0,0,0-.335-.539,1.264,1.264,0,0,0-1-.186,29.825,29.825,0,0,0-4.081.783c-.377.1-.753.205-1.164.318.448-.374.885-.7,1.317-1.036a19.975,19.975,0,0,1,2.054-1.389c.9-.534,1.812-1.05,2.718-1.577a1.053,1.053,0,0,0,.656-1.062c-.072-.6-.167-1.193-.293-1.779a.833.833,0,0,0-.764-.719,2.515,2.515,0,0,0-.656.011,11.85,11.85,0,0,0-2.753.736c-.576.222-1.146.465-1.745.709.236-.24.449-.463.668-.679.322-.317.654-.623.971-.944q.844-.855,1.672-1.724a2.57,2.57,0,0,0,.731-1.26,2.172,2.172,0,0,0-.189-1.21c-.5-1.346-1.03-2.682-1.5-4.042a2.016,2.016,0,0,0-.465-.806.651.651,0,0,0-.644-.167,1.624,1.624,0,0,0-.4.177c-1.058.567-2.133,1.1-3.152,1.746-.179.114-.354.235-.531.353.295-.345.6-.676.921-.99.525-.512,1.033-1.042,1.552-1.561a7.992,7.992,0,0,0,1.113-1.349,1.564,1.564,0,0,0,.173-1.589,8.533,8.533,0,0,0-.564-1.007c-.329-.506-.658-1.012-1-1.506a2.883,2.883,0,0,0-.54-.665.718.718,0,0,0-1.032.129,3.616,3.616,0,0,0-.319.463,16.624,16.624,0,0,1-1.312,1.892c.277-.671.548-1.323.815-1.976.287-.7.576-1.4.809-2.123a2.2,2.2,0,0,0-.131-1.849c-.234-.415-.438-.849-.648-1.278C12.855,5.9,12.394,4.731,11.82,3.627A21.871,21.871,0,0,0,10.537,1.4,10.732,10.732,0,0,0,9.689.237.675.675,0,0,0,8.537.471a2.718,2.718,0,0,0-.176.5c-.4,1.493-.824,2.982-1.105,4.492A10.075,10.075,0,0,0,7.034,7.4a4.575,4.575,0,0,0,.11,1A2.208,2.208,0,0,0,6.868,8a8.023,8.023,0,0,0-.815-1.1.65.65,0,0,0-1.112.289,2.15,2.15,0,0,0-.073.264c-.124.506-.2,1.017-.288,1.526-.119.662-.282,1.32-.352,1.986a1.492,1.492,0,0,0,.145.859,11.59,11.59,0,0,0,.942,1.393c.494.689.988,1.376,1.432,2.1a14.776,14.776,0,0,1,1.549,3.5.424.424,0,0,1,.027.264c-.2-.177-.385-.335-.564-.5a11.953,11.953,0,0,0-2.014-1.559,6.178,6.178,0,0,0-1.681-.744.9.9,0,0,0-.555.037.944.944,0,0,0-.572.8,9.183,9.183,0,0,0-.1,1.416A8.8,8.8,0,0,0,3,20.567a1.8,1.8,0,0,0,.458.91,5.223,5.223,0,0,0,.8.607,12.208,12.208,0,0,1,2.5,2.083,13.022,13.022,0,0,1,1.358,1.9,7.572,7.572,0,0,1,.541,1.064c-.029,0-.045,0-.053-.006-.614-.457-1.222-.92-1.841-1.37-.907-.658-1.774-1.368-2.741-1.948A5.058,5.058,0,0,0,1.892,23a1.045,1.045,0,0,0-1.21.948A4.662,4.662,0,0,0,.7,25.2c.21,1.888.416,3.778.729,5.643A9.67,9.67,0,0,0,2.1,33.317a3.051,3.051,0,0,0,.8,1.1,6.849,6.849,0,0,0,1.222.754,13.3,13.3,0,0,1,2.34,1.5c.442.367.852.766,1.264,1.164a6.77,6.77,0,0,1,.947,1.112,2.736,2.736,0,0,1,.351.619c-.668-.377-1.3-.751-1.947-1.1-1.043-.555-2.161-.972-3.253-1.437a7.268,7.268,0,0,0-1.775-.547,1.091,1.091,0,0,0-1.036.3,1.219,1.219,0,0,0-.289.93,23.582,23.582,0,0,0,.249,2.767,1.241,1.241,0,0,0,.8,1.046,14.142,14.142,0,0,1,3.183,1.829c.159.124.311.256.465.386s.293.255.439.383a.205.205,0,0,1-.114-.033,21.276,21.276,0,0,0-3.578-1.649A6.988,6.988,0,0,0,1,42.111a.744.744,0,0,0-.44.055.823.823,0,0,0-.451.851c.015.22.048.437.074.656a1.883,1.883,0,0,0,1.225,1.715,18.8,18.8,0,0,1,2.322,1.127,16.357,16.357,0,0,1,2.236,1.473.314.314,0,0,1-.069,0,25.364,25.364,0,0,0-4.326-1.065,3.022,3.022,0,0,0-1-.031A.647.647,0,0,0,0,47.625a1.182,1.182,0,0,0,.065.271c.232.678.484,1.348.7,2.035a12.7,12.7,0,0,0,1.077,2.688,3.56,3.56,0,0,0,2.5,1.789,15.928,15.928,0,0,0,2.361.239c.642.027,1.289.017,1.934.025.126,0,.3-.041.367.022.085.077-.024.24-.046.365-.147.853-.286,1.707-.456,2.557-.022.109-.046.218-.069.328q.543.036,1.082.1c.079-.354.151-.71.213-1.066.148-.855.256-1.712.35-2.568.019-.176.076-.188.215-.13a7.162,7.162,0,0,0,2.86.526,3.692,3.692,0,0,0,2.121-.6,6.717,6.717,0,0,0,1.3-1.264,16.267,16.267,0,0,0,1.878-2.932,7.766,7.766,0,0,0,.879-2.695,1.038,1.038,0,0,0-.887-1.286c-.46-.09-.926-.155-1.395-.209a10.614,10.614,0,0,1-1.179-.173.335.335,0,0,1,.063-.042c1.289-.387,2.583-.755,3.878-1.115.581-.161,1.17-.259,1.754-.393a1.066,1.066,0,0,0,.8-.812,4.76,4.76,0,0,0,.111-.88c.089-.856.123-1.71.141-2.563.022-1.062.037-2.124.054-3.186a5.626,5.626,0,0,0-.216-1.941M8.2,34.117a2.626,2.626,0,0,1-1.249-.335,3.725,3.725,0,0,1-.745-.6,3.417,3.417,0,0,0-.652-.7c-.171-.119-.4-.18-.579-.292a1.849,1.849,0,0,1-.714-1.056L4.31,31.1a2.3,2.3,0,0,1,1.025.709,1.866,1.866,0,0,0,.593.715,5.2,5.2,0,0,1,2.3,1.538l-.028.057m.02-3.016A2.886,2.886,0,0,1,6.6,30.329c-.314-.236-.511-.647-.871-.826a5.9,5.9,0,0,0-.581-.2,1.607,1.607,0,0,1-.481-.346,1.718,1.718,0,0,1-.37-.51l.035-.053a1.852,1.852,0,0,1,1.111.47,5.868,5.868,0,0,0,.4.466,1.456,1.456,0,0,0,.53.272,3.811,3.811,0,0,1,1.073.526,2.956,2.956,0,0,1,.809.917Zm.186,12.2A4.86,4.86,0,0,1,6.4,42.092c-.4-.33-.666-.828-1.111-1.1-.217-.143-.484-.22-.715-.345a2.759,2.759,0,0,1-.605-.488,2.746,2.746,0,0,1-.484-.644l.039-.05a3.08,3.08,0,0,1,1.373.763c.18.19.323.429.517.6a2.5,2.5,0,0,0,.659.417A6.465,6.465,0,0,1,7.4,42.06a4.874,4.874,0,0,1,1.044,1.191Zm2.482,4.083c-.06.463-.157,1-.24,1.453q-.133.724-.278,1.446l-.063-.009q.527-5.843.784-11.71c.1-1.923.216-3.935.221-5.868.011-2.913-.213-5.894-.434-8.8-.334-4.855-.73-9.8-.916-14.663-.083-1.958-.145-3.918-.173-5.88l.063,0c.233,1.948.431,3.9.608,5.851.357,3.841.637,7.866.81,11.731.209,3.917.159,7.844.247,11.763a74.714,74.714,0,0,1-.63,14.69m4.917-9.318a3.134,3.134,0,0,1,.819-.137,2.407,2.407,0,0,0,.833-.027c.174-.052.336-.184.511-.254a1.308,1.308,0,0,1,.546-.058,1.385,1.385,0,0,1,.564.157l.006.063a1.689,1.689,0,0,1-1.034.36A3.842,3.842,0,0,0,17.5,38.1c-.365.017-.662.321-1,.429a2.779,2.779,0,0,1-1.608.234l-.022-.059a2.212,2.212,0,0,1,.937-.642m2.783,2.685c-.237-.02-.48-.1-.715-.1a2.055,2.055,0,0,0-.694.135,5.328,5.328,0,0,1-1.387.292,4.051,4.051,0,0,1-1.429-.178l-.006-.063a4.014,4.014,0,0,1,2.078-.458,9.387,9.387,0,0,0,1.419.069c.232-.04.456-.163.686-.225a2.265,2.265,0,0,1,.7-.046,2.3,2.3,0,0,1,.72.15l.006.063a2.554,2.554,0,0,1-1.38.359" transform="translate(0 0)" fill="#b1bf34"/>
            </g>
          </g>
        </g>
        <g id="Grupo_1102470" data-name="Grupo 1102470" transform="translate(1095.051 6123.959)">
          <g id="Grupo_1102469" data-name="Grupo 1102469" transform="translate(0 0)" clip-path="url(#clip-path-3)">
            <path id="Trazado_882884" data-name="Trazado 882884" d="M19.466,9.733A9.733,9.733,0,1,1,9.733,0a9.733,9.733,0,0,1,9.733,9.733" transform="translate(0 0)" fill="#fba457"/>
            <path id="Trazado_882885" data-name="Trazado 882885" d="M10.137,23.337a1.767,1.767,0,0,0,.215-.423,8.488,8.488,0,0,0-.191-2.814.951.951,0,0,1-.134-.361,3.434,3.434,0,0,0-.032.934,13.122,13.122,0,0,0,.113,2.112,1.919,1.919,0,0,1,.03.552ZM23.47,19.428a2.356,2.356,0,0,0,.418.774s.124.209.062.341c0,0,.031.232-.124.286a1.151,1.151,0,0,1-.7.024,2.689,2.689,0,0,0-.719-.093.932.932,0,0,0-.286.013c-.021,0-.108.014-.119.019a1.757,1.757,0,0,0-.216.094,1.436,1.436,0,0,0-.363.276,2.822,2.822,0,0,0-.286.472,3.89,3.89,0,0,1-.732.94,8.4,8.4,0,0,0-.655.716c-.174.143-.3.256-.3.256s-.033,1.511-.042,1.834a1.613,1.613,0,0,0,.009.368c.009.126,0,.246.006.371.012.158-.035.184.049.354.011.022.023.044.035.067a2.316,2.316,0,0,0,.146.248,1.109,1.109,0,0,1,.156.268.129.129,0,0,1-.015.049c-.112-.005-.223-.012-.335-.009-.039,0-.305.006-.321-.026,0,0-.03-.178-.035-.2-.009-.046-.018-.093-.028-.139l0-.014,0-.014-.163-.257c-.073-.117.01-.271.007-.409s.013.019.016-.119,0-.25,0-.375a3.632,3.632,0,0,1,.014-.46,1.763,1.763,0,0,0-.19.758c.027.328.061.384.078.716,0,.026-.006-.036,0,.079a2.123,2.123,0,0,0,.183.415c.014.034.027.068.04.1a1.284,1.284,0,0,1-.351.02,1.1,1.1,0,0,0-.13,0c-.108.009-.157.005-.213-.1a.439.439,0,0,1-.032-.2c-.085.107-.041-.057-.118-.126-.039-.036-.054-.007-.03-.094s.06-1.378.046-1.538a3.077,3.077,0,0,0-.094-.437,4.036,4.036,0,0,1-.071-.453,1.686,1.686,0,0,1,.019-.262,4.114,4.114,0,0,0-.005-.468.718.718,0,0,0-.245-.426.915.915,0,0,0-.719-.049c-1.633.327-3.063.5-4.415-.395-.127-.084-.085-.08-.175.051-.274.4-.3.282-.457.732-.08.236-.152.493-.227.734-.03.1-.055.192-.081.289-.018.066-.033.132-.047.2,0,0-.044.788-.052,1.047a1.575,1.575,0,0,0,.17.654c.049.119.106.232.154.352a1.133,1.133,0,0,0,.226.367.2.2,0,0,1,.046.164c-.017.077-.172.057-.231.052s-.1-.009-.157-.009a.635.635,0,0,1-.243-.018.554.554,0,0,1-.1-.114l-.021-.024-.029-.032-.01-.011s-.2-.061-.215-.174-.23-2.409-.3-2.511a13.339,13.339,0,0,0-.174,1.4,2.642,2.642,0,0,0,.081,1.073c.117.233.12.243.184.358.024.043.1.168.008.177-.032,0-.082,0-.118,0a2.338,2.338,0,0,1-.3,0h-.016c-.028,0-.165-.006-.181-.012s-.03-.042-.036-.064c-.042-.155.09-.261-.1-.356-.027-.013-.054-.022-.08-.036-.049-.025-.047-.084-.073-.133-.065-.12-.047-.06-.044-.2,0-.044,0-.088,0-.133a15.545,15.545,0,0,0-.007-1.576,3.343,3.343,0,0,0-.1-.738c-.01-.029-.017-.057-.024-.085-.057.165-.122.3-.165.474-.006.025-.047.173-.088.161s-.066-.1-.07-.139c-.01-.067-.009-.137-.018-.209,0-.029-.009-.057-.014-.086-.02-.117-.039-.234-.066-.35a2.042,2.042,0,0,1-.07-.56c.02-.553.322-.953.291-1.356a14.525,14.525,0,0,1,.017-2.9.755.755,0,0,1,.317-.536,1.7,1.7,0,0,1,.946-.292c.706-.02,2.119-.051,2.641-.02s4.964.012,5.189.022,1.269.092,1.412.1a8.674,8.674,0,0,0,.931-.153.909.909,0,0,1-.091-.345c0-.027.015-.086.044-.1a.6.6,0,0,1,.446.058s-.047-.035-.04-.244c0,0,.195.249.33.249s.195-.108.538-.1a2.99,2.99,0,0,1,.438.032,1.066,1.066,0,0,0,.231-.1c.052-.037.068-.066.065.035a.5.5,0,0,1-.112.317c-.019.015-.013.005.009.043l.035.058a1.42,1.42,0,0,1,1.027-.255c.027,0,.152.029.155.059a.773.773,0,0,1-.025.153,1.245,1.245,0,0,1-.2.364.828.828,0,0,1-.157.13.571.571,0,0,1-.093.049l-.049.019a1.888,1.888,0,0,0-.223.088c-.045.023-.049.017-.058.059a1.726,1.726,0,0,0-.038.645Z" transform="translate(-6.249 -11.578)" fill="#fff" fill-rule="evenodd"/>
            <path id="Trazado_882886" data-name="Trazado 882886" d="M18.529,54.583l3.4,6.147,4.141-6.458" transform="translate(-12.198 -35.729)" fill="#fba457"/>
          </g>
        </g>
        <circle id="Elipse_11723" data-name="Elipse 11723" cx="8.5" cy="8.5" r="8.5" transform="translate(1097.051 6204.959)" fill="#b1bf34"/>
        <circle id="Elipse_11724" data-name="Elipse 11724" cx="8.5" cy="8.5" r="8.5" transform="translate(1097.051 6246.959)" fill="#57d3fb"/>
        <circle id="Elipse_11725" data-name="Elipse 11725" cx="8.5" cy="8.5" r="8.5" transform="translate(1096.051 6165.959)" fill="#794e2d"/>
        <g id="Grupo_1102472" data-name="Grupo 1102472" transform="translate(418.051 5789.805)">
          <g id="Grupo_1102471" data-name="Grupo 1102471" clip-path="url(#clip-path-4)">
            <path id="Trazado_882887" data-name="Trazado 882887" d="M199.956,63.957l-50.994,64.015-42.315,130.6,115.574,63.841,122.064,30.156,114.984-2.17,84.574-119.126,15.245-34.286s-115.168-70.1-114.547-70.1S313.88,77.5,313.88,77.5Z" transform="translate(-32.721 -19.623)" fill="#573820"/>
            <path id="Trazado_882888" data-name="Trazado 882888" d="M126.866,280.584c-15.4-4.279-29.953,2.568-32.52,3.423s-22.25-4.818-22.25-4.818-27.386-6.307-30.809-8.018,47.068-119.811,73.6-173.725,35.943-69.319,65.9-66.751,240.08,55.8,240.083,55.8L133.955,0,0,266.789,230.184,371.807s-87.914-86.944-103.318-91.223" fill="#573820"/>
            <path id="Trazado_882889" data-name="Trazado 882889" d="M465.776,207.87c24.818,15.4,32.52,15.4,32.52,15.4l6.846,28.241s70.175-10.27,69.319-7.274-90.25,56.054-90.25,56.054l-48.387-9.414,48.387,50.492S369.928,303.718,369.928,301.15s5.135-24.817,0-28.241-53.059-28.669-53.059-28.669l-8.557-36.371s-17.116,14.549-19.684,14.549-26.529-21.4-26.529-21.4-17.115-18.827.855-38.51-29.1-27.385-46.212,2.568-16.26,66.751,29.1,65.04l45.357-1.711,24.818,28.24-12.007,17.7c4.226,26.623,9.44,61.038,9.44,61.038s54.77,25.674,51.347,11.125-7.7-29.1,18.828-20.539,46.212,31.664,46.212,31.664l-6.846,43.645s84.723-51.347,120.666-97.559,52.2-65.9,52.2-65.9l-86.434-22.251-.855-23.106-34.557-9.874c-6.35,5.972-11.347,12.023-18.654,15.776,1.867,3.012,5.13,6.218,10.421,9.5" transform="translate(-63.347 -44.529)" fill="#57d4fc"/>
            <path id="Trazado_882890" data-name="Trazado 882890" d="M564.58,213.257c7.306-3.753,12.3-9.8,18.654-15.776l-13.367-3.819s-12.18,8.478-5.287,19.6" transform="translate(-172.572 -59.418)" fill="#57d4fc"/>
            <path id="Trazado_882891" data-name="Trazado 882891" d="M412.088,366.772s-23.87,26.582-32.007,18.445-14.937-30.032-7.468-40.513" transform="translate(-113.334 -105.759)" fill="#573820"/>
            <path id="Trazado_882892" data-name="Trazado 882892" d="M439.065,99.964s-210.131-53.235-240.084-55.8S159.616,57,133.087,110.913s-77.022,172.013-73.6,173.725S90.3,292.655,90.3,292.655s19.683,5.675,22.251,4.819,17.116-7.7,32.52-3.423,103.318,91.222,103.318,91.222l4.511,2.059-48.78,73.6H422.463q-1.867-3.285-3.984-6.883c-10.229-17.36-100.983-24.955-130.572-37.975s11.686-22.785,38.753-34.72c20.478-9.03,45.711-34.825,56.783-46.849l1.244-7.931S365,303.465,338.475,294.907s-22.251,5.991-18.828,20.539S268.3,304.32,268.3,304.32l-9.439-61.038c-2.4-15.148-4.488-27.775-5.109-30.1-1.711-6.418-11.981,32.9-11.981,32.9l-26.53,51.4-37.655-12.837s-21.395-17.972-44.5-64.184,5.134-89.858,5.134-89.858l16.26,25.674s8.557-23.106,14.548-32.52,51.348-17.971,51.348-17.971,1.646-1.235,4.683-3.424c6.756-4.868,20.394-14.456,38.106-25.674,25.674-16.259,51.347,6.847,62.472,39.366s20.539,47.924,55.626,53.915c13.524,2.309,22.215.8,28.945-2.656-6.893-11.117,5.287-19.594,5.287-19.594l13.367,3.819a68.506,68.506,0,0,1,10.2-8.1C459.211,130.6,582.375,182.8,582.375,182.8l-24.818,72.742s-65.9,139.494-61.617,155.753,14.549,8.558,35.943,0,50.49-155.747,50.492-155.753l17.832-107Z" transform="translate(-18.201 -13.467)" fill="#b1c034"/>
            <path id="Trazado_882893" data-name="Trazado 882893" d="M628.525,454.452c-21.395,8.558-31.664,16.26-35.943,0S654.2,298.7,654.2,298.7l24.818-72.742s-123.163-52.2-143.309-39.366a68.552,68.552,0,0,0-10.2,8.1l34.557,9.873.855,23.107,86.434,22.25s-16.259,19.683-52.2,65.9-120.666,97.56-120.666,97.56l5.6-35.714c-11.072,12.025-36.3,37.82-56.782,46.85-27.066,11.935-68.342,21.7-38.753,34.72S504.893,479.844,515.122,497.2q2.117,3.593,3.984,6.884h125.68L679.017,298.7c0,.006-29.1,147.2-50.491,155.753" transform="translate(-114.843 -56.625)" fill="#573820"/>
            <path id="Trazado_882894" data-name="Trazado 882894" d="M308.225,337.734c-3.361-3.01-29.066-32.412-29.066-32.412l33.076,9.993Z" transform="translate(-85.649 -93.676)" fill="#57d4fc"/>
            <path id="Trazado_882895" data-name="Trazado 882895" d="M281.667,356.974l17.674,5.425-3.569,31.464-43.4,18.445-2.17-27.667L279.5,376.5Z" transform="translate(-76.765 -109.524)" fill="#57d4fc"/>
            <path id="Trazado_882896" data-name="Trazado 882896" d="M547.056,141.294a19.748,19.748,0,1,1-19.747-19.748,19.748,19.748,0,0,1,19.747,19.748" transform="translate(-155.726 -37.292)" fill="#fba457"/>
            <path id="Trazado_882897" data-name="Trazado 882897" d="M518.36,150.8a3.6,3.6,0,0,0,.435-.858c.1-.546.172-4.916-.387-5.71a1.93,1.93,0,0,1-.271-.732,6.966,6.966,0,0,0-.066,1.894,26.623,26.623,0,0,0,.229,4.286,3.9,3.9,0,0,1,.06,1.12Zm27.052-7.932a4.778,4.778,0,0,0,.848,1.571s.252.424.125.691c0,0,.063.472-.251.582a2.335,2.335,0,0,1-1.414.049,5.485,5.485,0,0,0-1.459-.189,1.891,1.891,0,0,0-.58.027c-.043.008-.218.029-.241.039a3.56,3.56,0,0,0-.438.191,2.928,2.928,0,0,0-.736.559,5.761,5.761,0,0,0-.58.958,7.9,7.9,0,0,1-1.486,1.908,16.958,16.958,0,0,0-1.328,1.454c-.353.29-.6.519-.6.519s-.067,3.067-.086,3.722a3.267,3.267,0,0,0,.019.745c.017.256-.008.5.013.754.025.32-.071.374.1.717.022.045.046.09.07.135a4.786,4.786,0,0,0,.3.5,2.236,2.236,0,0,1,.318.543.264.264,0,0,1-.03.1c-.227-.011-.453-.024-.68-.019-.079,0-.62.012-.651-.052,0,0-.062-.362-.071-.406-.019-.094-.037-.188-.056-.281l-.007-.029-.006-.029-.33-.521c-.148-.236.021-.549.015-.83s.026.039.032-.241c0-.254.009-.509.009-.762a7.369,7.369,0,0,1,.028-.934,3.577,3.577,0,0,0-.385,1.538c.055.666.124.78.159,1.453,0,.053-.012-.073.006.159a4.271,4.271,0,0,0,.372.842c.028.069.054.139.081.209a2.6,2.6,0,0,1-.711.042,2.08,2.08,0,0,0-.263.006c-.219.017-.318.01-.431-.2a.892.892,0,0,1-.066-.412c-.173.216-.083-.116-.24-.256-.08-.071-.109-.015-.061-.191s.122-2.794.094-3.119a6.255,6.255,0,0,0-.191-.886,8.2,8.2,0,0,1-.143-.919,3.427,3.427,0,0,1,.038-.532,8.354,8.354,0,0,0-.011-.95,1.456,1.456,0,0,0-.5-.864,1.851,1.851,0,0,0-1.459-.1c-3.313.664-6.214,1.022-8.958-.8-.258-.171-.173-.164-.356.1-.556.817-.617.572-.928,1.485-.163.478-.309,1-.46,1.488-.061.2-.112.389-.165.586-.036.134-.067.265-.1.4,0,0-.09,1.6-.106,2.125a3.2,3.2,0,0,0,.346,1.327c.1.241.215.47.313.715a2.3,2.3,0,0,0,.459.744.414.414,0,0,1,.093.332c-.035.155-.349.115-.467.1s-.209-.018-.319-.018a1.289,1.289,0,0,1-.494-.036,1.126,1.126,0,0,1-.206-.231c-.014-.017-.029-.033-.043-.05l-.059-.066-.019-.021s-.414-.125-.436-.353-.466-4.888-.611-5.1a27.24,27.24,0,0,0-.353,2.845,5.351,5.351,0,0,0,.166,2.178c.236.472.242.493.372.726.049.088.211.34.016.358-.065.006-.166,0-.239.009a4.737,4.737,0,0,1-.6.006h-.033c-.056,0-.336-.012-.367-.025-.049-.02-.062-.085-.073-.13-.086-.314.182-.53-.2-.723-.055-.027-.109-.045-.163-.072-.1-.049-.095-.171-.148-.269-.132-.245-.1-.122-.089-.41,0-.089,0-.18,0-.27a31.549,31.549,0,0,0-.015-3.2,6.775,6.775,0,0,0-.2-1.5c-.019-.058-.035-.116-.049-.173-.117.335-.247.612-.334.962-.013.05-.1.351-.18.326s-.134-.207-.143-.281c-.02-.135-.017-.278-.037-.424-.008-.058-.018-.114-.028-.174-.042-.237-.079-.473-.135-.709a4.174,4.174,0,0,1-.142-1.137c.042-1.122.653-1.934.591-2.751a29.47,29.47,0,0,1,.034-5.889,1.531,1.531,0,0,1,.643-1.087,3.465,3.465,0,0,1,1.919-.594c1.433-.04,4.3-.1,5.358-.04s10.071.024,10.527.045,2.575.186,2.866.207a17.593,17.593,0,0,0,1.89-.311,1.85,1.85,0,0,1-.185-.7c.006-.054.031-.175.089-.195a1.217,1.217,0,0,1,.905.117s-.1-.071-.082-.494c0,0,.4.5.669.5s.4-.218,1.092-.2a5.97,5.97,0,0,1,.889.066,2.165,2.165,0,0,0,.469-.209c.105-.075.139-.133.131.071a1.011,1.011,0,0,1-.228.643c-.038.03-.027.01.018.087l.071.119a2.878,2.878,0,0,1,2.084-.518c.055.009.308.058.315.12a1.567,1.567,0,0,1-.05.311,2.535,2.535,0,0,1-.4.739,1.675,1.675,0,0,1-.318.263,1.155,1.155,0,0,1-.188.1c-.033.014-.066.026-.1.039a3.955,3.955,0,0,0-.452.179c-.091.046-.1.035-.118.121a3.5,3.5,0,0,0-.077,1.309Z" transform="translate(-158.638 -42.687)" fill="#fff" fill-rule="evenodd"/>
            <path id="Trazado_882898" data-name="Trazado 882898" d="M526.089,176.449l6.9,12.471,8.4-13.1" transform="translate(-161.411 -53.943)" fill="#fba457"/>
            <path id="Trazado_882899" data-name="Trazado 882899" d="M508.608,255.292a19.748,19.748,0,1,1-19.747-19.748,19.748,19.748,0,0,1,19.747,19.748" transform="translate(-143.929 -72.268)" fill="#fba457"/>
            <path id="Trazado_882900" data-name="Trazado 882900" d="M479.912,264.8a3.588,3.588,0,0,0,.435-.858c.1-.546.172-4.915-.388-5.71a1.93,1.93,0,0,1-.271-.732,6.965,6.965,0,0,0-.066,1.894,26.616,26.616,0,0,0,.229,4.286,3.894,3.894,0,0,1,.06,1.12Zm27.052-7.931a4.78,4.78,0,0,0,.848,1.57s.252.424.125.692c0,0,.063.471-.251.581a2.335,2.335,0,0,1-1.414.049,5.456,5.456,0,0,0-1.459-.188,1.89,1.89,0,0,0-.579.027c-.043.008-.218.028-.241.038a3.58,3.58,0,0,0-.438.191,2.915,2.915,0,0,0-.736.559,5.733,5.733,0,0,0-.58.957,7.891,7.891,0,0,1-1.485,1.908,17.052,17.052,0,0,0-1.328,1.454c-.353.29-.6.519-.6.519s-.067,3.066-.086,3.721a3.275,3.275,0,0,0,.019.746c.017.256-.008.5.013.753.025.32-.071.374.1.717.022.045.046.09.07.135a4.709,4.709,0,0,0,.3.5,2.245,2.245,0,0,1,.318.543.261.261,0,0,1-.031.1c-.227-.01-.453-.024-.68-.019-.079,0-.62.012-.651-.053,0,0-.062-.362-.071-.406-.019-.094-.037-.188-.056-.281l-.007-.029-.006-.028-.33-.522c-.148-.236.021-.549.015-.83s.026.04.032-.241c0-.254.009-.508.009-.762a7.384,7.384,0,0,1,.028-.934,3.578,3.578,0,0,0-.385,1.538c.055.666.124.78.159,1.453,0,.053-.013-.073.006.159a4.307,4.307,0,0,0,.372.842c.028.069.054.139.081.208a2.6,2.6,0,0,1-.711.042,2.243,2.243,0,0,0-.263.006c-.219.017-.318.01-.431-.2a.891.891,0,0,1-.066-.412c-.173.217-.083-.116-.24-.256-.08-.072-.109-.015-.061-.191s.122-2.795.094-3.12a6.247,6.247,0,0,0-.191-.886,8.173,8.173,0,0,1-.144-.918,3.414,3.414,0,0,1,.038-.532,8.341,8.341,0,0,0-.011-.95,1.458,1.458,0,0,0-.5-.865,1.856,1.856,0,0,0-1.459-.1c-3.313.664-6.214,1.023-8.958-.8-.258-.171-.173-.163-.356.1-.556.817-.617.573-.928,1.485-.163.478-.309,1-.46,1.488-.061.2-.112.389-.165.586-.036.134-.067.266-.095.4,0,0-.09,1.6-.106,2.125a3.2,3.2,0,0,0,.346,1.327c.1.241.215.47.313.715a2.3,2.3,0,0,0,.459.744.415.415,0,0,1,.093.332c-.035.155-.349.115-.468.105s-.209-.019-.318-.019a1.289,1.289,0,0,1-.494-.036,1.122,1.122,0,0,1-.206-.231l-.043-.049-.059-.066-.019-.022s-.414-.125-.436-.353-.466-4.888-.611-5.1a27.062,27.062,0,0,0-.353,2.845,5.361,5.361,0,0,0,.165,2.177c.237.472.243.494.373.726.049.088.211.34.016.359-.065.005-.166,0-.239.008a4.745,4.745,0,0,1-.6.005h-.033c-.057,0-.335-.012-.367-.025-.049-.02-.062-.085-.073-.13-.086-.314.182-.53-.2-.722-.055-.027-.109-.045-.163-.072-.1-.05-.095-.171-.148-.27-.132-.244-.1-.121-.089-.41,0-.089,0-.18,0-.27a31.55,31.55,0,0,0-.015-3.2,6.782,6.782,0,0,0-.2-1.5c-.019-.058-.035-.116-.049-.173-.116.334-.247.611-.334.961-.013.05-.095.351-.18.326s-.134-.208-.143-.281c-.02-.136-.017-.279-.037-.424-.008-.058-.018-.115-.028-.174-.042-.238-.079-.474-.134-.71a4.142,4.142,0,0,1-.142-1.137c.042-1.122.653-1.934.591-2.751a29.469,29.469,0,0,1,.034-5.889,1.531,1.531,0,0,1,.643-1.087,3.459,3.459,0,0,1,1.919-.593c1.433-.041,4.3-.1,5.358-.041s10.071.024,10.528.045,2.575.187,2.866.207a17.607,17.607,0,0,0,1.89-.311,1.842,1.842,0,0,1-.185-.7c.006-.054.031-.175.089-.195a1.217,1.217,0,0,1,.905.117s-.1-.071-.082-.494c0,0,.4.5.669.5s.4-.218,1.092-.2a6.067,6.067,0,0,1,.889.066,2.164,2.164,0,0,0,.469-.209c.105-.074.139-.133.131.071a1.01,1.01,0,0,1-.228.643c-.038.03-.027.01.018.088l.071.119a2.881,2.881,0,0,1,2.084-.518c.055.009.308.058.315.12a1.576,1.576,0,0,1-.05.311,2.526,2.526,0,0,1-.4.739,1.682,1.682,0,0,1-.318.263,1.155,1.155,0,0,1-.188.1l-.1.038a3.833,3.833,0,0,0-.452.18c-.091.046-.1.034-.118.121a3.5,3.5,0,0,0-.077,1.309Z" transform="translate(-146.842 -77.663)" fill="#fff" fill-rule="evenodd"/>
            <path id="Trazado_882901" data-name="Trazado 882901" d="M487.642,290.447l6.9,12.471,8.4-13.1" transform="translate(-149.614 -88.919)" fill="#fba457"/>
            <path id="Trazado_882902" data-name="Trazado 882902" d="M408.889,282.428a19.748,19.748,0,1,1-19.748-19.748,19.748,19.748,0,0,1,19.748,19.748" transform="translate(-113.334 -80.593)" fill="#fba457"/>
            <path id="Trazado_882903" data-name="Trazado 882903" d="M380.193,291.933a3.584,3.584,0,0,0,.435-.858c.1-.546.172-4.915-.387-5.71a1.929,1.929,0,0,1-.271-.732,6.966,6.966,0,0,0-.066,1.895,26.616,26.616,0,0,0,.229,4.286,3.9,3.9,0,0,1,.06,1.12ZM407.245,284a4.78,4.78,0,0,0,.848,1.57s.252.424.125.692c0,0,.063.471-.251.581a2.335,2.335,0,0,1-1.414.049,5.455,5.455,0,0,0-1.459-.188,1.89,1.89,0,0,0-.579.027c-.043.008-.218.028-.241.038a3.563,3.563,0,0,0-.438.191,2.912,2.912,0,0,0-.736.559,5.727,5.727,0,0,0-.58.957,7.892,7.892,0,0,1-1.486,1.908,17.038,17.038,0,0,0-1.328,1.454c-.353.29-.6.519-.6.519s-.067,3.066-.086,3.721a3.276,3.276,0,0,0,.019.746c.017.256-.008.5.013.753.025.32-.071.374.1.717.022.045.046.09.07.135a4.7,4.7,0,0,0,.3.5,2.251,2.251,0,0,1,.318.543.262.262,0,0,1-.03.1c-.227-.01-.453-.024-.68-.019-.079,0-.62.012-.651-.053,0,0-.062-.362-.071-.406-.019-.094-.037-.188-.056-.281l-.007-.029-.006-.028-.33-.522c-.148-.236.021-.549.015-.83s.026.04.032-.241c0-.254.009-.508.009-.762a7.378,7.378,0,0,1,.028-.934,3.577,3.577,0,0,0-.385,1.538c.055.666.124.78.159,1.453,0,.053-.012-.073.006.159a4.31,4.31,0,0,0,.372.842c.028.069.054.139.081.208a2.6,2.6,0,0,1-.711.042,2.21,2.21,0,0,0-.263.006c-.219.017-.318.01-.431-.2a.891.891,0,0,1-.066-.412c-.173.217-.083-.116-.24-.256-.08-.072-.109-.015-.061-.191s.122-2.795.094-3.12a6.242,6.242,0,0,0-.191-.886,8.186,8.186,0,0,1-.143-.918,3.418,3.418,0,0,1,.038-.532,8.34,8.34,0,0,0-.011-.95,1.458,1.458,0,0,0-.5-.865,1.857,1.857,0,0,0-1.459-.1c-3.313.664-6.214,1.023-8.958-.8-.258-.171-.173-.163-.356.1-.556.817-.617.573-.928,1.486-.163.478-.309,1-.46,1.488-.061.2-.112.389-.165.586-.036.134-.067.266-.095.4,0,0-.09,1.6-.106,2.125a3.2,3.2,0,0,0,.346,1.327c.1.241.215.47.313.715a2.3,2.3,0,0,0,.459.744.415.415,0,0,1,.093.332c-.035.155-.349.115-.468.105s-.209-.019-.318-.019a1.292,1.292,0,0,1-.494-.036,1.123,1.123,0,0,1-.206-.231l-.043-.049-.059-.066-.019-.022s-.414-.125-.436-.353-.466-4.888-.611-5.1a27.077,27.077,0,0,0-.353,2.845,5.347,5.347,0,0,0,.166,2.177c.236.472.242.494.372.726.049.088.211.34.016.359-.065.006-.166,0-.239.008a4.74,4.74,0,0,1-.6.006h-.033c-.057,0-.335-.012-.367-.025-.049-.02-.062-.085-.073-.13-.086-.314.182-.53-.2-.722-.055-.027-.109-.045-.163-.072-.1-.05-.095-.171-.148-.27-.132-.244-.1-.121-.089-.41,0-.089,0-.18,0-.27a31.548,31.548,0,0,0-.015-3.2,6.781,6.781,0,0,0-.2-1.5c-.019-.058-.035-.116-.049-.173-.117.334-.248.611-.334.961-.013.05-.095.351-.179.327s-.134-.208-.143-.281c-.02-.136-.017-.279-.037-.424-.008-.058-.018-.115-.028-.174-.042-.238-.079-.474-.134-.71a4.143,4.143,0,0,1-.142-1.137c.042-1.122.653-1.934.591-2.751a29.47,29.47,0,0,1,.034-5.889,1.531,1.531,0,0,1,.643-1.087,3.459,3.459,0,0,1,1.919-.593c1.433-.041,4.3-.1,5.358-.041s10.071.024,10.527.045,2.575.187,2.866.207a17.6,17.6,0,0,0,1.89-.311,1.845,1.845,0,0,1-.185-.7c.006-.054.031-.175.089-.195a1.217,1.217,0,0,1,.905.117s-.1-.071-.082-.494c0,0,.4.5.669.5s.4-.218,1.092-.2a6.067,6.067,0,0,1,.889.066,2.164,2.164,0,0,0,.469-.209c.105-.074.139-.133.131.071a1.01,1.01,0,0,1-.228.643c-.038.03-.027.01.018.088l.071.118a2.881,2.881,0,0,1,2.084-.518c.055.009.308.058.315.12a1.567,1.567,0,0,1-.05.311,2.528,2.528,0,0,1-.4.739,1.679,1.679,0,0,1-.318.263,1.156,1.156,0,0,1-.188.1l-.1.038a3.829,3.829,0,0,0-.452.18c-.091.046-.1.034-.118.121a3.5,3.5,0,0,0-.077,1.309Z" transform="translate(-116.247 -85.989)" fill="#fff" fill-rule="evenodd"/>
            <path id="Trazado_882904" data-name="Trazado 882904" d="M387.922,317.583l6.9,12.471,8.4-13.1" transform="translate(-119.019 -97.244)" fill="#fba457"/>
            <path id="Trazado_882905" data-name="Trazado 882905" d="M398.93,472.988a19.748,19.748,0,1,1-19.747-19.748,19.747,19.747,0,0,1,19.747,19.748" transform="translate(-110.279 -139.059)" fill="#fba457"/>
            <path id="Trazado_882906" data-name="Trazado 882906" d="M370.234,482.494a3.586,3.586,0,0,0,.435-.858c.1-.546.172-4.915-.388-5.71a1.928,1.928,0,0,1-.271-.732,6.968,6.968,0,0,0-.066,1.895,26.62,26.62,0,0,0,.229,4.286,3.891,3.891,0,0,1,.06,1.12Zm27.052-7.931a4.78,4.78,0,0,0,.848,1.57s.252.424.125.692c0,0,.063.471-.251.581a2.335,2.335,0,0,1-1.414.049,5.458,5.458,0,0,0-1.459-.188,1.892,1.892,0,0,0-.579.027c-.043.008-.218.028-.241.038a3.551,3.551,0,0,0-.438.191,2.914,2.914,0,0,0-.736.559,5.722,5.722,0,0,0-.58.957,7.894,7.894,0,0,1-1.485,1.908,17.049,17.049,0,0,0-1.328,1.454c-.353.291-.6.519-.6.519s-.067,3.066-.086,3.721a3.273,3.273,0,0,0,.019.746c.017.256-.008.5.013.753.025.32-.071.374.1.717.022.045.046.09.07.135a4.7,4.7,0,0,0,.3.5,2.251,2.251,0,0,1,.317.543.261.261,0,0,1-.031.1c-.227-.01-.453-.024-.68-.019-.079,0-.62.012-.651-.053,0,0-.062-.362-.071-.406-.019-.094-.037-.188-.056-.281l-.007-.029-.006-.028-.33-.522c-.148-.236.021-.549.015-.83s.026.039.032-.241c0-.254.009-.508.009-.762a7.378,7.378,0,0,1,.028-.934,3.577,3.577,0,0,0-.385,1.538c.055.666.124.78.159,1.453,0,.053-.012-.073.006.159a4.312,4.312,0,0,0,.372.842c.028.069.054.139.081.208a2.609,2.609,0,0,1-.711.042,2.191,2.191,0,0,0-.263.006c-.219.017-.318.01-.431-.2a.891.891,0,0,1-.066-.412c-.173.217-.083-.116-.24-.256-.08-.072-.109-.015-.061-.191s.122-2.795.094-3.12a6.243,6.243,0,0,0-.191-.886,8.175,8.175,0,0,1-.143-.918,3.419,3.419,0,0,1,.038-.532,8.353,8.353,0,0,0-.011-.95,1.458,1.458,0,0,0-.5-.865,1.856,1.856,0,0,0-1.459-.1c-3.313.664-6.214,1.023-8.958-.8-.258-.171-.173-.163-.356.1-.556.817-.617.573-.928,1.486-.163.478-.309,1-.46,1.488-.061.2-.112.389-.165.586-.036.134-.067.266-.095.4,0,0-.09,1.6-.106,2.125a3.2,3.2,0,0,0,.346,1.327c.1.242.215.47.313.715a2.3,2.3,0,0,0,.459.744.415.415,0,0,1,.093.332c-.035.155-.349.115-.468.105s-.209-.019-.317-.019a1.292,1.292,0,0,1-.494-.036,1.125,1.125,0,0,1-.206-.231l-.043-.049-.059-.066-.019-.022s-.415-.125-.436-.353-.466-4.888-.611-5.1a27.066,27.066,0,0,0-.353,2.845,5.346,5.346,0,0,0,.166,2.177c.236.472.242.494.372.726.049.088.211.34.016.359-.065.006-.166,0-.239.008a4.746,4.746,0,0,1-.6.005h-.033c-.057,0-.335-.012-.367-.025-.049-.02-.062-.085-.073-.13-.086-.314.182-.53-.2-.722-.055-.027-.109-.045-.163-.072-.1-.05-.1-.171-.148-.27-.132-.244-.1-.121-.089-.41,0-.089,0-.18,0-.27a31.551,31.551,0,0,0-.015-3.2,6.784,6.784,0,0,0-.2-1.5c-.019-.058-.035-.116-.049-.173-.116.334-.247.611-.334.961-.013.05-.095.351-.18.326s-.134-.208-.143-.281c-.02-.136-.017-.279-.037-.424-.008-.058-.018-.115-.028-.174-.042-.238-.079-.474-.134-.71a4.145,4.145,0,0,1-.142-1.137c.042-1.122.653-1.934.591-2.751a29.473,29.473,0,0,1,.034-5.889,1.531,1.531,0,0,1,.643-1.087,3.458,3.458,0,0,1,1.919-.593c1.433-.041,4.3-.1,5.358-.041s10.071.023,10.527.045,2.575.187,2.866.207a17.6,17.6,0,0,0,1.89-.311,1.844,1.844,0,0,1-.185-.7c.006-.054.03-.175.089-.195a1.217,1.217,0,0,1,.905.117s-.1-.071-.082-.494c0,0,.4.5.669.5s.4-.218,1.092-.2a6.072,6.072,0,0,1,.889.066,2.163,2.163,0,0,0,.469-.209c.105-.074.139-.133.131.071a1.01,1.01,0,0,1-.228.643c-.038.03-.027.01.018.088l.071.119a2.882,2.882,0,0,1,2.084-.518c.055.009.308.058.315.12a1.57,1.57,0,0,1-.05.31,2.527,2.527,0,0,1-.4.739,1.68,1.68,0,0,1-.318.263,1.163,1.163,0,0,1-.188.1l-.1.038a3.838,3.838,0,0,0-.452.18c-.091.046-.1.034-.118.121a3.5,3.5,0,0,0-.077,1.309Z" transform="translate(-113.191 -144.455)" fill="#fff" fill-rule="evenodd"/>
            <path id="Trazado_882907" data-name="Trazado 882907" d="M377.963,508.143l6.9,12.471,8.4-13.1" transform="translate(-115.964 -155.711)" fill="#fba457"/>
            <path id="Trazado_882908" data-name="Trazado 882908" d="M646.639,358.2a19.748,19.748,0,1,1-19.748-19.748A19.748,19.748,0,0,1,646.639,358.2" transform="translate(-186.279 -103.842)" fill="#fba457"/>
            <path id="Trazado_882909" data-name="Trazado 882909" d="M617.943,367.71a3.577,3.577,0,0,0,.435-.858c.1-.546.172-4.915-.387-5.71a1.928,1.928,0,0,1-.271-.732,6.963,6.963,0,0,0-.066,1.895,26.623,26.623,0,0,0,.229,4.286,3.894,3.894,0,0,1,.06,1.12Zm27.052-7.931a4.78,4.78,0,0,0,.848,1.57s.252.424.125.692c0,0,.063.471-.251.581a2.335,2.335,0,0,1-1.414.049,5.456,5.456,0,0,0-1.459-.188,1.889,1.889,0,0,0-.58.027c-.043.008-.218.028-.241.038a3.564,3.564,0,0,0-.438.191,2.916,2.916,0,0,0-.736.559,5.728,5.728,0,0,0-.58.957,7.892,7.892,0,0,1-1.485,1.908,17.047,17.047,0,0,0-1.328,1.454c-.353.29-.6.519-.6.519s-.066,3.066-.086,3.721a3.278,3.278,0,0,0,.019.746c.017.256-.008.5.013.753.025.32-.071.374.1.717.022.045.047.09.07.135a4.692,4.692,0,0,0,.3.5,2.25,2.25,0,0,1,.318.543.261.261,0,0,1-.03.1c-.227-.01-.453-.024-.68-.019-.079,0-.62.012-.651-.053,0,0-.062-.362-.071-.406-.019-.094-.037-.188-.056-.281l-.007-.029-.006-.028-.33-.522c-.148-.236.021-.549.015-.83s.026.039.032-.241c0-.254.009-.508.009-.762a7.372,7.372,0,0,1,.028-.934,3.577,3.577,0,0,0-.385,1.538c.055.666.124.78.159,1.453,0,.053-.012-.073.006.159a4.31,4.31,0,0,0,.372.842c.028.069.054.139.081.208a2.605,2.605,0,0,1-.711.042,2.218,2.218,0,0,0-.263.006c-.219.017-.318.01-.431-.2a.89.89,0,0,1-.066-.412c-.173.217-.083-.116-.24-.256-.08-.072-.109-.015-.061-.191s.122-2.795.094-3.12a6.255,6.255,0,0,0-.191-.886,8.2,8.2,0,0,1-.143-.918,3.415,3.415,0,0,1,.038-.532,8.341,8.341,0,0,0-.011-.95,1.457,1.457,0,0,0-.5-.865,1.857,1.857,0,0,0-1.459-.1c-3.313.664-6.214,1.023-8.958-.8-.258-.171-.173-.163-.356.1-.556.817-.617.573-.928,1.486-.163.478-.309,1-.46,1.488-.061.2-.112.389-.165.586-.036.134-.067.266-.1.4,0,0-.09,1.6-.106,2.125a3.2,3.2,0,0,0,.346,1.327c.1.241.215.47.313.715a2.3,2.3,0,0,0,.459.744.415.415,0,0,1,.093.332c-.035.155-.349.115-.468.105s-.209-.019-.318-.019a1.29,1.29,0,0,1-.494-.036,1.125,1.125,0,0,1-.206-.231l-.043-.049-.059-.066-.019-.022s-.415-.125-.436-.353-.466-4.888-.611-5.1a27.271,27.271,0,0,0-.353,2.845,5.349,5.349,0,0,0,.166,2.177c.236.472.242.494.372.726.049.088.211.34.016.359-.065.006-.166,0-.239.008a4.751,4.751,0,0,1-.6.006h-.033c-.057,0-.336-.012-.367-.025-.049-.02-.062-.085-.073-.13-.086-.314.182-.53-.2-.722-.055-.027-.109-.045-.163-.072-.1-.05-.1-.171-.148-.27-.132-.244-.1-.121-.089-.41,0-.089,0-.18,0-.27a31.517,31.517,0,0,0-.015-3.2,6.782,6.782,0,0,0-.2-1.5c-.019-.058-.035-.116-.049-.173-.117.334-.247.611-.334.961-.013.05-.1.351-.18.326s-.134-.207-.143-.281c-.02-.136-.017-.279-.037-.424-.008-.058-.018-.115-.028-.174-.042-.238-.079-.474-.134-.71a4.168,4.168,0,0,1-.142-1.137c.042-1.122.653-1.934.59-2.751a29.536,29.536,0,0,1,.035-5.889,1.531,1.531,0,0,1,.643-1.087,3.46,3.46,0,0,1,1.919-.593c1.433-.041,4.3-.1,5.358-.041s10.071.024,10.527.045,2.575.187,2.866.207a17.594,17.594,0,0,0,1.89-.311,1.847,1.847,0,0,1-.185-.7c.006-.054.031-.175.089-.195a1.217,1.217,0,0,1,.905.117s-.1-.071-.082-.494c0,0,.4.5.669.5s.4-.218,1.092-.2a6.066,6.066,0,0,1,.889.066,2.162,2.162,0,0,0,.469-.209c.105-.074.139-.133.131.071a1.01,1.01,0,0,1-.228.643c-.038.03-.027.01.018.088l.071.119a2.881,2.881,0,0,1,2.084-.518c.055.009.308.058.315.12a1.562,1.562,0,0,1-.05.311,2.526,2.526,0,0,1-.4.739,1.684,1.684,0,0,1-.318.263,1.159,1.159,0,0,1-.188.1l-.1.038a3.844,3.844,0,0,0-.452.18c-.091.046-.1.034-.118.121a3.5,3.5,0,0,0-.077,1.309Z" transform="translate(-189.191 -109.238)" fill="#fff" fill-rule="evenodd"/>
            <path id="Trazado_882910" data-name="Trazado 882910" d="M625.672,393.359l6.9,12.471,8.4-13.1" transform="translate(-191.964 -120.493)" fill="#fba457"/>
            <path id="Trazado_882911" data-name="Trazado 882911" d="M588.454,563.912a19.748,19.748,0,1,1-19.747-19.747,19.747,19.747,0,0,1,19.747,19.747" transform="translate(-168.427 -166.956)" fill="#fba457"/>
            <path id="Trazado_882912" data-name="Trazado 882912" d="M559.758,573.418a3.583,3.583,0,0,0,.435-.858c.1-.546.172-4.915-.387-5.71a1.928,1.928,0,0,1-.271-.732,6.969,6.969,0,0,0-.066,1.894,26.623,26.623,0,0,0,.229,4.286,3.892,3.892,0,0,1,.06,1.12Zm27.052-7.932a4.78,4.78,0,0,0,.848,1.57s.252.424.125.692c0,0,.063.471-.251.581a2.335,2.335,0,0,1-1.414.049,5.456,5.456,0,0,0-1.459-.188,1.892,1.892,0,0,0-.579.027c-.043.008-.218.028-.241.038a3.586,3.586,0,0,0-.438.191,2.913,2.913,0,0,0-.736.559,5.733,5.733,0,0,0-.58.957,7.894,7.894,0,0,1-1.486,1.908,17.048,17.048,0,0,0-1.328,1.454c-.353.29-.6.519-.6.519s-.067,3.066-.086,3.721a3.274,3.274,0,0,0,.019.746c.017.257-.008.5.013.754.025.32-.071.374.1.717.022.045.046.09.07.135a4.719,4.719,0,0,0,.3.5,2.25,2.25,0,0,1,.318.543.262.262,0,0,1-.031.1c-.227-.01-.453-.024-.68-.019-.079,0-.62.012-.651-.053,0,0-.062-.362-.071-.406-.019-.094-.037-.188-.056-.281l-.007-.029-.006-.028-.33-.522c-.148-.236.021-.549.015-.83s.026.04.032-.24c0-.254.009-.508.009-.762a7.372,7.372,0,0,1,.028-.934,3.577,3.577,0,0,0-.385,1.538c.055.666.124.78.159,1.453,0,.053-.012-.073.006.159a4.311,4.311,0,0,0,.372.842c.028.069.054.139.081.208a2.608,2.608,0,0,1-.711.042,2.2,2.2,0,0,0-.263.006c-.219.017-.318.01-.431-.2a.89.89,0,0,1-.066-.412c-.173.217-.083-.117-.24-.256-.08-.072-.109-.015-.061-.191s.122-2.8.094-3.12a6.245,6.245,0,0,0-.191-.886,8.175,8.175,0,0,1-.143-.919,3.415,3.415,0,0,1,.038-.532,8.355,8.355,0,0,0-.011-.95,1.458,1.458,0,0,0-.5-.865,1.857,1.857,0,0,0-1.459-.1c-3.314.664-6.214,1.023-8.958-.8-.258-.171-.173-.163-.356.1-.556.817-.617.573-.928,1.485-.163.478-.309,1-.46,1.488-.061.2-.112.389-.165.586-.036.134-.067.266-.1.4,0,0-.09,1.6-.106,2.125a3.2,3.2,0,0,0,.346,1.327c.1.242.215.47.313.715a2.3,2.3,0,0,0,.459.744.415.415,0,0,1,.093.332c-.035.155-.349.115-.467.105s-.209-.019-.319-.019a1.29,1.29,0,0,1-.494-.036,1.126,1.126,0,0,1-.206-.231l-.043-.049-.059-.066-.019-.022s-.414-.125-.436-.353-.466-4.888-.611-5.1a27.24,27.24,0,0,0-.353,2.845,5.347,5.347,0,0,0,.166,2.177c.236.472.242.494.372.726.049.088.211.34.016.359-.065.005-.166,0-.239.008a4.746,4.746,0,0,1-.6.005h-.033c-.056,0-.335-.012-.367-.025-.049-.02-.062-.085-.073-.13-.086-.314.182-.53-.2-.722-.055-.027-.109-.045-.163-.072-.1-.05-.095-.171-.148-.27-.132-.244-.1-.121-.089-.41,0-.089,0-.18,0-.27a31.551,31.551,0,0,0-.015-3.2,6.781,6.781,0,0,0-.2-1.5c-.019-.058-.035-.116-.049-.173-.117.334-.247.611-.334.962-.013.05-.1.351-.18.326s-.134-.208-.143-.281c-.02-.136-.017-.279-.037-.424-.008-.058-.018-.115-.028-.174-.042-.238-.079-.474-.134-.71a4.171,4.171,0,0,1-.142-1.137c.042-1.122.653-1.934.591-2.751a29.465,29.465,0,0,1,.034-5.889,1.531,1.531,0,0,1,.643-1.087,3.46,3.46,0,0,1,1.919-.593c1.433-.041,4.3-.1,5.358-.041s10.071.024,10.527.045,2.575.187,2.866.207a17.574,17.574,0,0,0,1.89-.311,1.845,1.845,0,0,1-.185-.7c.006-.054.031-.175.089-.195a1.217,1.217,0,0,1,.905.117s-.1-.071-.082-.494c0,0,.4.5.669.5s.4-.218,1.092-.2a6.08,6.08,0,0,1,.889.066,2.16,2.16,0,0,0,.469-.209c.105-.074.139-.133.131.071a1.009,1.009,0,0,1-.228.643c-.038.03-.027.01.018.088l.071.119a2.881,2.881,0,0,1,2.084-.518c.055.009.308.058.315.12a1.567,1.567,0,0,1-.05.311,2.527,2.527,0,0,1-.4.739,1.688,1.688,0,0,1-.318.263,1.151,1.151,0,0,1-.188.1l-.1.038a3.834,3.834,0,0,0-.452.18c-.091.046-.1.034-.118.121a3.5,3.5,0,0,0-.077,1.309Z" transform="translate(-171.339 -172.352)" fill="#fff" fill-rule="evenodd"/>
            <path id="Trazado_882913" data-name="Trazado 882913" d="M567.487,599.068l6.9,12.471,8.4-13.1" transform="translate(-174.112 -183.607)" fill="#fba457"/>
            <path id="Trazado_882914" data-name="Trazado 882914" d="M748.358,482.7a19.748,19.748,0,1,1-19.748-19.748A19.748,19.748,0,0,1,748.358,482.7" transform="translate(-217.487 -142.038)" fill="#fba457"/>
            <path id="Trazado_882915" data-name="Trazado 882915" d="M719.662,492.2a3.587,3.587,0,0,0,.435-.858c.1-.546.172-4.915-.388-5.71a1.93,1.93,0,0,1-.271-.732,6.965,6.965,0,0,0-.066,1.894,26.623,26.623,0,0,0,.229,4.286,3.894,3.894,0,0,1,.06,1.12Zm27.052-7.931a4.781,4.781,0,0,0,.848,1.57s.252.424.125.692c0,0,.063.471-.251.581a2.335,2.335,0,0,1-1.414.049,5.455,5.455,0,0,0-1.459-.188,1.892,1.892,0,0,0-.58.027c-.043.008-.218.028-.241.038a3.567,3.567,0,0,0-.438.191,2.914,2.914,0,0,0-.736.559,5.725,5.725,0,0,0-.58.957,7.891,7.891,0,0,1-1.485,1.908,17.052,17.052,0,0,0-1.328,1.454c-.353.29-.6.519-.6.519s-.067,3.066-.086,3.721a3.271,3.271,0,0,0,.019.746c.017.256-.008.5.013.753.025.32-.071.374.1.717.022.045.046.09.07.135a4.716,4.716,0,0,0,.3.5,2.248,2.248,0,0,1,.318.543.263.263,0,0,1-.031.1c-.227-.01-.453-.024-.68-.019-.079,0-.62.012-.651-.053,0,0-.062-.362-.071-.406-.019-.094-.037-.188-.056-.281l-.007-.029-.006-.028-.33-.522c-.148-.236.021-.549.015-.83s.026.04.032-.241c0-.254.009-.508.009-.762a7.349,7.349,0,0,1,.028-.934,3.578,3.578,0,0,0-.385,1.538c.055.666.124.78.159,1.453,0,.053-.012-.073.006.159a4.3,4.3,0,0,0,.372.842c.028.069.054.139.081.208a2.6,2.6,0,0,1-.711.042,2.242,2.242,0,0,0-.263.006c-.219.017-.318.01-.431-.2a.892.892,0,0,1-.066-.412c-.173.217-.083-.116-.24-.256-.08-.072-.109-.015-.061-.191s.122-2.795.094-3.12a6.253,6.253,0,0,0-.191-.886,8.2,8.2,0,0,1-.144-.918,3.429,3.429,0,0,1,.038-.532,8.327,8.327,0,0,0-.011-.95,1.458,1.458,0,0,0-.5-.865,1.856,1.856,0,0,0-1.459-.1c-3.314.664-6.214,1.023-8.958-.8-.258-.171-.173-.163-.356.1-.556.817-.617.573-.928,1.486-.163.478-.309,1-.46,1.488-.061.2-.112.389-.165.586-.036.134-.067.267-.1.4,0,0-.09,1.6-.106,2.125a3.2,3.2,0,0,0,.346,1.327c.1.242.215.47.313.715a2.3,2.3,0,0,0,.459.744.415.415,0,0,1,.093.332c-.035.155-.349.115-.467.105s-.209-.019-.318-.019a1.292,1.292,0,0,1-.494-.036,1.126,1.126,0,0,1-.206-.231l-.043-.049-.059-.066-.019-.022s-.415-.125-.436-.353-.466-4.888-.611-5.1a27.259,27.259,0,0,0-.353,2.845,5.347,5.347,0,0,0,.166,2.177c.236.472.242.494.372.726.049.088.211.34.016.359-.065.006-.166,0-.239.008a4.758,4.758,0,0,1-.6.006h-.033c-.056,0-.335-.012-.367-.025-.049-.02-.062-.085-.073-.13-.086-.314.182-.53-.2-.722-.055-.027-.109-.045-.163-.072-.1-.05-.095-.171-.148-.27-.132-.244-.1-.121-.089-.41,0-.089,0-.18,0-.27a31.534,31.534,0,0,0-.015-3.2,6.781,6.781,0,0,0-.2-1.5c-.019-.058-.035-.116-.049-.173-.116.334-.247.611-.334.961-.013.05-.1.351-.18.326s-.134-.208-.143-.281c-.02-.136-.017-.279-.037-.424-.008-.058-.018-.115-.028-.174-.042-.238-.079-.474-.134-.71a4.17,4.17,0,0,1-.142-1.137c.042-1.122.653-1.934.591-2.751a29.474,29.474,0,0,1,.034-5.889,1.531,1.531,0,0,1,.643-1.087,3.459,3.459,0,0,1,1.919-.593c1.433-.041,4.3-.1,5.358-.041s10.071.024,10.527.045,2.575.187,2.866.207a17.61,17.61,0,0,0,1.89-.311,1.844,1.844,0,0,1-.185-.7c.006-.054.03-.175.089-.195a1.216,1.216,0,0,1,.905.117s-.1-.071-.082-.494c0,0,.4.5.669.5s.4-.218,1.092-.2a6.061,6.061,0,0,1,.889.066,2.164,2.164,0,0,0,.469-.209c.105-.074.139-.133.131.071a1.009,1.009,0,0,1-.228.643c-.038.03-.027.01.018.088l.071.119a2.881,2.881,0,0,1,2.084-.518c.055.009.308.058.315.12a1.576,1.576,0,0,1-.05.311,2.526,2.526,0,0,1-.4.739,1.68,1.68,0,0,1-.318.263,1.154,1.154,0,0,1-.188.1l-.1.038a3.831,3.831,0,0,0-.452.18c-.091.046-.1.034-.118.121a3.5,3.5,0,0,0-.077,1.309Z" transform="translate(-220.4 -147.434)" fill="#fff" fill-rule="evenodd"/>
            <path id="Trazado_882916" data-name="Trazado 882916" d="M727.391,517.852l6.9,12.471,8.4-13.1" transform="translate(-223.172 -158.689)" fill="#fba457"/>
            <path id="Trazado_882917" data-name="Trazado 882917" d="M873.873,297.43,914.56,180.251l28.115,3.928,96.116,13.431,21.157,78.119-145.931-9.765L912.39,297.43H873.873" transform="translate(-268.115 -55.303)" fill="none" stroke="#483f40" stroke-miterlimit="10" stroke-width="0.25"/>
            <path id="Trazado_882918" data-name="Trazado 882918" d="M902.058,268.122l23.32,14.5v10.489" transform="translate(-276.762 -82.263)" fill="none" stroke="#483f40" stroke-miterlimit="10" stroke-width="0.25"/>
            <path id="Trazado_882919" data-name="Trazado 882919" d="M1089.8,211.967l-53.9-3.543-.814,35.805" transform="translate(-317.578 -63.947)" fill="none" stroke="#483f40" stroke-miterlimit="10" stroke-width="0.25"/>
            <line id="Línea_2266" data-name="Línea 2266" y1="19.322" transform="translate(765.766 199.361)" fill="none" stroke="#483f40" stroke-miterlimit="10" stroke-width="0.25"/>
            <path id="Trazado_882920" data-name="Trazado 882920" d="M976.35,290.6c-.108-.007,1.657-36.787,1.657-36.787" transform="translate(-299.554 -77.874)" fill="none" stroke="#483f40" stroke-miterlimit="10" stroke-width="0.25"/>
            <path id="Trazado_882921" data-name="Trazado 882921" d="M969.088,185.919,959.959,224.3l13.02,8.679,39.06,4.34,36.347,19.079h17.359l-4.882-22.333-7.85,2.712-5.713-7.6-8.679-.542,9.765,23.869" transform="translate(-294.527 -57.042)" fill="none" stroke="#483f40" stroke-miterlimit="10" stroke-width="0.25"/>
            <line id="Línea_2267" data-name="Línea 2267" x1="28.477" y1="14.984" transform="translate(636.956 152.278)" fill="#483f40"/>
            <line id="Línea_2268" data-name="Línea 2268" y1="0.978" x2="0.353" transform="translate(627.692 186.37)" fill="none" stroke="#483f40" stroke-miterlimit="10" stroke-width="1"/>
            <line id="Línea_2269" data-name="Línea 2269" y1="28.815" x2="10.419" transform="translate(628.718 155.696)" fill="none" stroke="#483f40" stroke-miterlimit="10" stroke-width="1" stroke-dasharray="2.852 2.852"/>
            <line id="Línea_2270" data-name="Línea 2270" y1="0.978" x2="0.353" transform="translate(639.473 153.789)" fill="none" stroke="#483f40" stroke-miterlimit="10" stroke-width="1"/>
            <line id="Línea_2271" data-name="Línea 2271" y1="0.978" x2="0.353" transform="translate(630.888 188.673)" fill="none" stroke="#483f40" stroke-miterlimit="10" stroke-width="1"/>
            <line id="Línea_2272" data-name="Línea 2272" y1="28.815" x2="10.419" transform="translate(631.914 157.999)" fill="none" stroke="#483f40" stroke-miterlimit="10" stroke-width="1" stroke-dasharray="2.852 2.852"/>
            <line id="Línea_2273" data-name="Línea 2273" y1="0.978" x2="0.353" transform="translate(642.669 156.091)" fill="none" stroke="#483f40" stroke-miterlimit="10" stroke-width="1"/>
            <line id="Línea_2274" data-name="Línea 2274" y1="0.978" x2="0.353" transform="translate(634.756 190.269)" fill="none" stroke="#483f40" stroke-miterlimit="10" stroke-width="1"/>
            <line id="Línea_2275" data-name="Línea 2275" y1="28.815" x2="10.419" transform="translate(635.782 159.595)" fill="none" stroke="#483f40" stroke-miterlimit="10" stroke-width="1" stroke-dasharray="2.852 2.852"/>
            <line id="Línea_2276" data-name="Línea 2276" y1="0.978" x2="0.353" transform="translate(646.537 157.687)" fill="none" stroke="#483f40" stroke-miterlimit="10" stroke-width="1"/>
            <line id="Línea_2277" data-name="Línea 2277" y1="0.978" x2="0.353" transform="translate(638.015 193.161)" fill="none" stroke="#483f40" stroke-miterlimit="10" stroke-width="1"/>
            <line id="Línea_2278" data-name="Línea 2278" y1="29.856" x2="10.796" transform="translate(639.065 161.379)" fill="none" stroke="#483f40" stroke-miterlimit="10" stroke-width="1" stroke-dasharray="2.955 2.955"/>
            <line id="Línea_2279" data-name="Línea 2279" y1="0.978" x2="0.353" transform="translate(650.209 159.438)" fill="none" stroke="#483f40" stroke-miterlimit="10" stroke-width="1"/>
            <line id="Línea_2280" data-name="Línea 2280" y1="0.978" x2="0.353" transform="translate(641.8 194.961)" fill="none" stroke="#483f40" stroke-miterlimit="10" stroke-width="1"/>
            <line id="Línea_2281" data-name="Línea 2281" y1="29.709" x2="10.742" transform="translate(642.847 163.335)" fill="none" stroke="#483f40" stroke-miterlimit="10" stroke-width="1" stroke-dasharray="2.94 2.94"/>
            <line id="Línea_2282" data-name="Línea 2282" y1="0.978" x2="0.353" transform="translate(653.935 161.399)" fill="none" stroke="#483f40" stroke-miterlimit="10" stroke-width="1"/>
            <line id="Línea_2283" data-name="Línea 2283" y1="0.978" x2="0.353" transform="translate(645.963 196.574)" fill="none" stroke="#483f40" stroke-miterlimit="10" stroke-width="1"/>
            <line id="Línea_2284" data-name="Línea 2284" y1="29.709" x2="10.742" transform="translate(647.009 164.949)" fill="none" stroke="#483f40" stroke-miterlimit="10" stroke-width="1" stroke-dasharray="2.94 2.94"/>
            <line id="Línea_2285" data-name="Línea 2285" y1="0.978" x2="0.353" transform="translate(658.098 163.012)" fill="none" stroke="#483f40" stroke-miterlimit="10" stroke-width="1"/>
            <line id="Línea_2286" data-name="Línea 2286" y1="0.981" x2="0.345" transform="translate(649.178 199.827)" fill="none" stroke="#483f40" stroke-miterlimit="10" stroke-width="1"/>
            <line id="Línea_2287" data-name="Línea 2287" y1="30.603" x2="10.758" transform="translate(650.217 167.249)" fill="none" stroke="#483f40" stroke-miterlimit="10" stroke-width="1" stroke-dasharray="3.019 3.019"/>
            <line id="Línea_2288" data-name="Línea 2288" y1="0.981" x2="0.345" transform="translate(661.323 165.281)" fill="none" stroke="#483f40" stroke-miterlimit="10" stroke-width="1"/>
            <line id="Línea_2289" data-name="Línea 2289" y1="0.971" x2="0.372" transform="translate(649.178 208.824)" fill="none" stroke="#483f40" stroke-miterlimit="10" stroke-width="1"/>
            <line id="Línea_2290" data-name="Línea 2290" y1="37.691" x2="14.404" transform="translate(650.288 169.2)" fill="none" stroke="#483f40" stroke-miterlimit="10" stroke-width="1" stroke-dasharray="2.985 2.985"/>
            <line id="Línea_2291" data-name="Línea 2291" y1="0.971" x2="0.372" transform="translate(665.061 167.263)" fill="none" stroke="#483f40" stroke-miterlimit="10" stroke-width="1"/>
            <line id="Línea_2292" data-name="Línea 2292" y1="0.971" x2="0.372" transform="translate(653.54 209.946)" fill="none" stroke="#483f40" stroke-miterlimit="10" stroke-width="1"/>
            <line id="Línea_2293" data-name="Línea 2293" y1="36.369" x2="13.898" transform="translate(654.624 171.712)" fill="none" stroke="#483f40" stroke-miterlimit="10" stroke-width="1" stroke-dasharray="2.88 2.88"/>
            <line id="Línea_2294" data-name="Línea 2294" y1="0.971" x2="0.372" transform="translate(668.88 169.808)" fill="none" stroke="#483f40" stroke-miterlimit="10" stroke-width="1"/>
            <line id="Línea_2295" data-name="Línea 2295" y1="0.971" x2="0.371" transform="translate(657.578 210.83)" fill="none" stroke="#483f40" stroke-miterlimit="10" stroke-width="1"/>
            <line id="Línea_2296" data-name="Línea 2296" y1="34.748" x2="13.279" transform="translate(658.708 174.096)" fill="none" stroke="#483f40" stroke-miterlimit="10" stroke-width="1" stroke-dasharray="3.066 3.066"/>
            <line id="Línea_2297" data-name="Línea 2297" y1="0.971" x2="0.372" transform="translate(672.366 172.132)" fill="none" stroke="#483f40" stroke-miterlimit="10" stroke-width="1"/>
            <line id="Línea_2298" data-name="Línea 2298" y1="0.973" x2="0.365" transform="translate(662.462 210.828)" fill="none" stroke="#483f40" stroke-miterlimit="10" stroke-width="1"/>
            <line id="Línea_2299" data-name="Línea 2299" y1="33.366" x2="12.525" transform="translate(663.543 175.555)" fill="none" stroke="#483f40" stroke-miterlimit="10" stroke-width="1" stroke-dasharray="2.938 2.938"/>
            <line id="Línea_2300" data-name="Línea 2300" y1="0.973" x2="0.365" transform="translate(676.425 173.629)" fill="none" stroke="#483f40" stroke-miterlimit="10" stroke-width="1"/>
            <line id="Línea_2301" data-name="Línea 2301" y1="0.993" x2="0.31" transform="translate(668.399 210.809)" fill="none" stroke="#483f40" stroke-miterlimit="10" stroke-width="1"/>
            <line id="Línea_2302" data-name="Línea 2302" y1="26.58" x2="8.304" transform="translate(669.324 182.26)" fill="none" stroke="#483f40" stroke-miterlimit="10" stroke-width="1" stroke-dasharray="2.976 2.976"/>
            <line id="Línea_2303" data-name="Línea 2303" y1="0.993" x2="0.31" transform="translate(677.935 180.282)" fill="none" stroke="#483f40" stroke-miterlimit="10" stroke-width="1"/>
            <line id="Línea_2304" data-name="Línea 2304" y1="1.002" x2="0.28" transform="translate(672.698 210.8)" fill="none" stroke="#483f40" stroke-miterlimit="10" stroke-width="1"/>
            <line id="Línea_2305" data-name="Línea 2305" y1="12.149" x2="3.398" transform="translate(673.596 196.441)" fill="none" stroke="#483f40" stroke-miterlimit="10" stroke-width="1" stroke-dasharray="3.309 3.309"/>
            <line id="Línea_2306" data-name="Línea 2306" y1="1.002" x2="0.28" transform="translate(677.303 194.336)" fill="none" stroke="#483f40" stroke-miterlimit="10" stroke-width="1"/>
            <line id="Línea_2307" data-name="Línea 2307" x2="53.687" y2="9.256" transform="translate(559.731 152.279)" fill="none" stroke="#483f40" stroke-miterlimit="10" stroke-width="1"/>
            <path id="Trazado_882922" data-name="Trazado 882922" d="M882.639,234.683l6.485-2.389-5.311-4.423Z" transform="translate(-270.804 -69.913)" fill="#483f40"/>
          </g>
        </g>
      </g>
    </g>
  </g>
</svg>
