<svg xmlns="http://www.w3.org/2000/svg" xmlns:xlink="http://www.w3.org/1999/xlink" width="90" height="90" viewBox="0 0 90 90">
  <defs>
    <linearGradient id="linear-gradient" x1="0.5" x2="0.5" y2="1" gradientUnits="objectBoundingBox">
      <stop offset="0" stop-color="#edfafe"/>
      <stop offset="1" stop-color="#f6f8e9"/>
    </linearGradient>
  </defs>
  <g id="Grupo_1103043" data-name="Grupo 1103043" transform="translate(-1256.333 -237)">
    <g id="Grupo_1102160" data-name="Grupo 1102160" transform="translate(1256.333 237)">
      <circle id="Elipse_11700" data-name="Elipse 11700" cx="45" cy="45" r="45" fill="url(#linear-gradient)"/>
      <ellipse id="Elipse_11702" data-name="Elipse 11702" cx="9" cy="9.5" rx="9" ry="9.5" transform="translate(65 68)" fill="#fba457"/>
      <g id="Grupo_1102157" data-name="Grupo 1102157" transform="translate(24.708 24.617)">
        <path id="Trazado_882333" data-name="Trazado 882333" d="M505.873,48.075a.593.593,0,0,1-.593-.593V.593a.593.593,0,0,1,1.187,0V47.482a.593.593,0,0,1-.593.593" transform="translate(-484.85 0)" fill="#241f20"/>
        <path id="Trazado_882334" data-name="Trazado 882334" d="M508.3,22.083a.593.593,0,0,1-.108-1.177c18.386-3.417,17.722-14.72,17.438-19.546q-.005-.086-.01-.168c-12.569.22-17.419,7.123-19.2,11.26a.593.593,0,0,1-1.09-.469,18.719,18.719,0,0,1,7.032-8.341A25.07,25.07,0,0,1,526.177,0h0a.593.593,0,0,1,.593.569c.009.214.023.455.039.721.276,4.7,1.01,17.174-18.406,20.782a.594.594,0,0,1-.109.01" transform="translate(-484.849 0)" fill="#241f20"/>
        <path id="Trazado_882335" data-name="Trazado 882335" d="M505.874,60.7a.593.593,0,0,1-.348-1.074L519.431,49.56a.593.593,0,0,1,.7.961L506.221,60.587a.591.591,0,0,1-.348.113" transform="translate(-484.85 -42.113)" fill="#241f20"/>
        <path id="Trazado_882336" data-name="Trazado 882336" d="M508.3,155.778a.593.593,0,0,1-.108-1.177c18.386-3.417,17.722-14.72,17.438-19.546q-.005-.086-.01-.168c-12.569.22-17.419,7.123-19.2,11.26a.593.593,0,0,1-1.09-.469,18.718,18.718,0,0,1,7.032-8.341,25.069,25.069,0,0,1,13.819-3.642h0a.593.593,0,0,1,.593.569c.009.214.023.456.039.722.276,4.7,1.01,17.174-18.406,20.782a.594.594,0,0,1-.109.01" transform="translate(-484.849 -113.865)" fill="#241f20"/>
        <path id="Trazado_882337" data-name="Trazado 882337" d="M505.874,194.4a.593.593,0,0,1-.348-1.074l13.906-10.066a.593.593,0,0,1,.7.961l-13.906,10.066a.591.591,0,0,1-.348.113" transform="translate(-484.85 -155.979)" fill="#241f20"/>
        <path id="Trazado_882338" data-name="Trazado 882338" d="M386.136,22.083a.594.594,0,0,1-.109-.01C366.612,18.464,367.345,5.987,367.621,1.29c.016-.266.03-.507.039-.722A.593.593,0,0,1,368.253,0h0a25.07,25.07,0,0,1,13.819,3.642,18.719,18.719,0,0,1,7.031,8.341.593.593,0,0,1-1.09.469c-1.779-4.137-6.63-11.04-19.2-11.26l-.01.168c-.284,4.826-.948,16.129,17.438,19.546a.593.593,0,0,1-.108,1.177" transform="translate(-367.535 0)" fill="#241f20"/>
        <path id="Trazado_882339" data-name="Trazado 882339" d="M426.023,60.7a.591.591,0,0,1-.348-.113L411.769,50.521a.593.593,0,0,1,.7-.961l13.906,10.066a.593.593,0,0,1-.348,1.074" transform="translate(-405 -42.113)" fill="#241f20"/>
        <path id="Trazado_882340" data-name="Trazado 882340" d="M386.136,155.778a.594.594,0,0,1-.109-.01c-19.415-3.608-18.682-16.085-18.406-20.782.016-.266.03-.507.039-.722a.593.593,0,0,1,.593-.569h0a25.069,25.069,0,0,1,13.819,3.642,18.718,18.718,0,0,1,7.031,8.341.593.593,0,0,1-1.09.469c-1.779-4.137-6.63-11.04-19.2-11.26l-.01.168c-.284,4.826-.948,16.129,17.438,19.546a.593.593,0,0,1-.108,1.177" transform="translate(-367.535 -113.865)" fill="#241f20"/>
        <path id="Trazado_882341" data-name="Trazado 882341" d="M426.023,194.4a.591.591,0,0,1-.348-.113l-13.906-10.066a.593.593,0,0,1,.7-.961l13.906,10.066a.593.593,0,0,1-.348,1.074" transform="translate(-405 -155.979)" fill="#241f20"/>
        <path id="Trazado_882342" data-name="Trazado 882342" d="M467.328,333.333H451.071a.593.593,0,1,1,0-1.187h16.257a.593.593,0,1,1,0,1.187" transform="translate(-438.176 -282.881)" fill="#241f20"/>
      </g>
    </g>
  </g>
</svg>
