<svg id="vaca_1_" data-name="vaca (1)" xmlns="http://www.w3.org/2000/svg" width="94.864" height="80.141" viewBox="0 0 94.864 80.141">
  <g id="Grupo_1102411" data-name="Grupo 1102411" transform="translate(0 0)">
    <path id="Trazado_882779" data-name="Trazado 882779" d="M339.854,174.059a1.39,1.39,0,0,0-1.39,1.39v1.066a1.39,1.39,0,0,0,2.779,0v-1.066A1.39,1.39,0,0,0,339.854,174.059Z" transform="translate(-275.753 -149.171)" fill="#b1bf34"/>
    <path id="Trazado_882780" data-name="Trazado 882780" d="M405.878,174.059a1.39,1.39,0,0,0-1.39,1.39v1.066a1.39,1.39,0,1,0,2.779,0v-1.066A1.39,1.39,0,0,0,405.878,174.059Z" transform="translate(-329.544 -149.171)" fill="#b1bf34"/>
    <path id="Trazado_882781" data-name="Trazado 882781" d="M347.622,252.246a1.39,1.39,0,0,0-1.39,1.39v2.248a1.39,1.39,0,0,0,2.779,0v-2.248A1.39,1.39,0,0,0,347.622,252.246Z" transform="translate(-282.082 -212.871)" fill="#b1bf34"/>
    <path id="Trazado_882782" data-name="Trazado 882782" d="M398.11,257.274a1.39,1.39,0,0,0,1.39-1.39v-2.248a1.39,1.39,0,1,0-2.779,0v2.248A1.39,1.39,0,0,0,398.11,257.274Z" transform="translate(-323.215 -212.872)" fill="#b1bf34"/>
    <g id="Grupo_1102410" data-name="Grupo 1102410">
      <path id="Trazado_882783" data-name="Trazado 882783" d="M126.765,253.858a5.352,5.352,0,0,0-6.582.344,9.457,9.457,0,0,0-1,1c-.591.66-.629.653-.839.607a7.86,7.86,0,0,0-7.457,2.154,6.993,6.993,0,0,0-1.446,7.338,7.566,7.566,0,0,0,6.077,4.715q.291.029.576.028a5.6,5.6,0,0,0,4.768-2.705,8.207,8.207,0,0,1,4.008-3.209c1.5-.695,3.2-1.483,4-3.861a5.482,5.482,0,0,0-2.1-6.413Zm-.532,5.533c-.4,1.189-1.064,1.54-2.531,2.219a10.811,10.811,0,0,0-5.176,4.223,2.783,2.783,0,0,1-2.739,1.419,4.857,4.857,0,0,1-3.765-2.977,4.16,4.16,0,0,1,.961-4.485,4.741,4.741,0,0,1,3.54-1.392,5.817,5.817,0,0,1,1.231.131h0a3.442,3.442,0,0,0,3.5-1.469,7.027,7.027,0,0,1,.714-.725,2.6,2.6,0,0,1,3.235-.178A2.726,2.726,0,0,1,126.233,259.391Z" transform="translate(-88.767 -213.395)" fill="#b1bf34"/>
      <path id="Trazado_882784" data-name="Trazado 882784" d="M94.554,59.989a2.26,2.26,0,0,0-1.605-.9c-.751-.153-2.008-.41-4.06-2.559a8.174,8.174,0,0,0-8.117-2l-.219-4.168a3.96,3.96,0,0,0-7.326-2.3l-2.616,3.354c-.128,0-.256-.008-.385-.008s-.267.005-.4.008l-2.617-3.356a3.96,3.96,0,0,0-7.325,2.307l-.219,4.169A8.185,8.185,0,0,0,51.53,56.53a11.012,11.012,0,0,1-2.188,1.839H26.068A21.065,21.065,0,0,0,6.222,72.449,19.955,19.955,0,0,1,4.37,53.31a5.186,5.186,0,0,0,1.245.154,5.319,5.319,0,0,0,1.025-.1,5.217,5.217,0,0,0,3.348-2.221c2.33-3.466,3.3-6.264,2.875-8.318a3.856,3.856,0,0,0-1.716-2.519C8,38.284,3.478,42,1.269,45.285l0,0a5.266,5.266,0,0,0,.661,6.647,23.166,23.166,0,0,0,3.4,24.006A21.089,21.089,0,0,0,5.04,79.4c0,.955,0,1.881.013,2.784q0,.057,0,.114c.071,7.494.42,13.419,1.009,21.153l.993,13.077a3.5,3.5,0,0,0,3.44,3.34h5.946a3.315,3.315,0,0,0,3.138-1.575,3.476,3.476,0,0,0-.267-3.524l-1.439-2.35.7-8.577q.193.005.388.005h4.255l.962,12.681a3.5,3.5,0,0,0,3.439,3.34h5.94A3.32,3.32,0,0,0,36.7,118.3a3.474,3.474,0,0,0-.267-3.522L35,112.429l.767-8.577h7.685l.682,9.022c0,.014,0,.027,0,.04l.274,3.624a3.507,3.507,0,0,0,3.439,3.333H53.8a3.318,3.318,0,0,0,3.137-1.573,3.482,3.482,0,0,0-.262-3.528l-1.44-2.344.963-10.755.188.006c.913.03,2.157.071,3.6.065L61.1,116.533a3.5,3.5,0,0,0,3.44,3.34h5.94a3.32,3.32,0,0,0,3.143-1.576,3.474,3.474,0,0,0-.266-3.522l-1.436-2.345,1.14-12.792a12.1,12.1,0,0,0,3.629-2.324,8.433,8.433,0,0,0,2.622-6.27l0-.712a20.442,20.442,0,0,0,1.94-1.54c4.348-3.888,6.026-7.487,4.988-10.7-.012-.038-.027-.074-.04-.112.008-.044.014-.09.017-.135l.268-3.419c.072-.91.205-1.822.347-2.786.167-1.135.335-2.286.4-3.455,3.342-.842,6.836-2.965,7.5-6.092a2.685,2.685,0,0,0-.183-2.106ZM3.576,46.834c2.046-3.042,5.046-4.846,6.065-4.191a1.065,1.065,0,0,1,.5.742c.121.587.123,2.367-2.459,6.207a2.473,2.473,0,0,1-4.105-2.758Zm71.84,2.941c.616-.787,1.235-.875,1.439-.794a1.392,1.392,0,0,0,.19.06c.215.051.677.48.731,1.474l.141,2.687a17.279,17.279,0,0,0-4.073-1.411Zm-12.759.743c.055-1,.518-1.426.734-1.478a1.447,1.447,0,0,1,.34-.083,1.8,1.8,0,0,1,1.286.815L66.59,51.79c-.041.009-.081.019-.12.03a17.262,17.262,0,0,0-3.953,1.389Zm-9.12,7.934a5.223,5.223,0,0,1,3.944-1.474,17.294,17.294,0,0,0-3.743,6.436,11.916,11.916,0,0,0-.443,1.86c-2.461-.722-4.4-2.113-4.843-3.554C49.516,61.472,51.227,60.873,53.538,58.452Zm5.225,29.977c-.814,2.483-2.336,3.954-4.441,4.263a7.5,7.5,0,0,1-7-3.265,2.919,2.919,0,0,1,.114-3.5c2.133-2.834,2.089-5.96,2.054-8.472-.029-2.088-.009-3.406.748-4.169.6-.609,1.793-.96,3.544-1.055.04.326.077.658.1,1l.324,4.208c-.061.144-.119.29-.168.438C53,81.021,54.589,84.568,58.764,88.429ZM17.152,116.942a1.116,1.116,0,0,1-.712.152H10.495a.75.75,0,0,1-.668-.769l-.165-2.171h6.011l1.271,2.075A.99.99,0,0,1,17.152,116.942Zm17.123,0a1.121,1.121,0,0,1-.717.153h-5.94a.749.749,0,0,1-.668-.769l-.165-2.171H32.8l1.271,2.075A.989.989,0,0,1,34.275,116.94ZM32.3,111.373H26.574L26,103.852h6.972Zm22.205,5.568c-.021.03-.215.152-.712.152H47.85a.755.755,0,0,1-.668-.769l-.164-2.172h6.011l1.273,2.072A1,1,0,0,1,54.508,116.941Zm16.691,0a1.121,1.121,0,0,1-.717.153h-5.94a.75.75,0,0,1-.668-.769l-.165-2.171H69.72l1.271,2.075a.991.991,0,0,1,.209.712Zm-1.972-5.567H63.5l-.738-9.7a36.975,36.975,0,0,0,7.426-1.055Zm5.536-16.06a10.01,10.01,0,0,1-3.373,2.029,1.382,1.382,0,0,0-.245.092,32.24,32.24,0,0,1-9.827,1.513,1.419,1.419,0,0,0-.158,0l-.015,0c-1.892.041-3.552-.013-4.671-.05a14.353,14.353,0,0,0-1.707-.01,1.389,1.389,0,0,0-1.226,1.257l-1.005,11.225H46.808l-.681-9.016a1.39,1.39,0,0,0-1.386-1.285h-20c-.11-.019-5.774,0-5.774,0a11,11,0,0,1-1.473-.1,1.39,1.39,0,0,0-1.572,1.264l-.746,9.134H9.451l-.617-8.129c-.528-6.932-.862-12.4-.974-18.859a16.043,16.043,0,0,0,5.487,1.1,9.535,9.535,0,0,0,3.035-.467,8.151,8.151,0,0,0,4.892-4.591A10.106,10.106,0,0,1,24,76.7a1.39,1.39,0,0,0-1.761-2.151,12.805,12.805,0,0,0-3.487,4.715A5.41,5.41,0,0,1,15.5,82.38c-2.512.842-5.728-.113-7.675-1.008,0-.644-.006-1.3-.006-1.968A18.273,18.273,0,0,1,26.068,61.149H32.5c.555,8.564-1.779,9.562-3.347,10.233a1.39,1.39,0,1,0,1.093,2.556c3.4-1.452,5.557-4.238,5.037-12.788H45.556a4.929,4.929,0,0,0,.126.946c.658,3.114,4.092,5.193,7.532,6.033.037.453.094.9.158,1.346-2.379.163-4.022.763-5.106,1.857-1.617,1.631-1.585,3.936-1.553,6.165.032,2.3.066,4.687-1.5,6.762a5.69,5.69,0,0,0-.283,6.59,10.265,10.265,0,0,0,8.541,4.685,8.6,8.6,0,0,0,1.253-.09,7.989,7.989,0,0,0,6.31-5.156,15.867,15.867,0,0,0,9.171,3.059,15.111,15.111,0,0,0,6.265-1.39,5.551,5.551,0,0,1-1.711,3.358Zm9.325-24.075c-.142.968-.29,1.968-.369,2.973l-.033.422c-2.243-1.754-5.72-2.947-10.124-3.408a1.39,1.39,0,1,0-.289,2.764c5.484.574,9.538,2.521,10.327,4.961.833,2.575-1.822,5.646-4.2,7.771a17.669,17.669,0,0,1-2.168,1.666c-.036.021-.07.042-.1.066-5.235,3.338-11.1,2.762-16.117-1.733-3.52-3.15-5.019-5.9-4.335-7.965.058-.176.147-.335.22-.5,1.17-2.185,5.064-3.852,10.2-4.313a1.39,1.39,0,1,0-.248-2.768c-4.3.386-7.795,1.526-10.088,3.213l-.1-1.361c-.082-1.08-.233-2.026-.38-2.941a11.234,11.234,0,0,1,.107-5.816,14.547,14.547,0,0,1,27.687,0C84.786,66.492,84.448,68.8,84.089,71.238Zm3.06-5.905a11.252,11.252,0,0,0-.431-1.918,17.318,17.318,0,0,0-3.749-6.438,5.205,5.205,0,0,1,3.911,1.474c2.313,2.422,4.024,3.021,5.087,3.27C91.519,63.167,89.565,64.6,87.148,65.332Z" transform="translate(0 -39.732)" fill="#b1bf34"/>
    </g>
  </g>
</svg>
