<svg xmlns="http://www.w3.org/2000/svg" xmlns:xlink="http://www.w3.org/1999/xlink" width="127" height="127" viewBox="0 0 127 127">
  <defs>
    <linearGradient id="linear-gradient" x1="0.5" x2="0.5" y2="1" gradientUnits="objectBoundingBox">
      <stop offset="0" stop-color="#edfafe"/>
      <stop offset="1" stop-color="#f6f8e9"/>
    </linearGradient>
  </defs>
  <g id="Grupo_1102160" data-name="Grupo 1102160" transform="translate(11871 12151)">
    <circle id="Elipse_11700" data-name="Elipse 11700" cx="63.5" cy="63.5" r="63.5" transform="translate(-11871 -12151)" fill="url(#linear-gradient)"/>
    <circle id="Elipse_11702" data-name="Elipse 11702" cx="13" cy="13" r="13" transform="translate(-11779 -12054)" fill="#fba457"/>
    <g id="Grupo_1102157" data-name="Grupo 1102157" transform="translate(-87.349 -265)">
      <path id="Trazado_882333" data-name="Trazado 882333" d="M506.12,68.091a.84.84,0,0,1-.84-.84V.84a.84.84,0,0,1,1.681,0V67.251a.84.84,0,0,1-.84.84" transform="translate(-12225 -11851.134)" fill="#241f20"/>
      <path id="Trazado_882334" data-name="Trazado 882334" d="M509.551,31.277a.84.84,0,0,1-.153-1.667c26.041-4.84,25.1-20.848,24.7-27.684l-.014-.238c-17.8.311-24.671,10.088-27.191,15.948a.84.84,0,0,1-1.544-.664,26.513,26.513,0,0,1,9.959-11.813C520.567,1.748,527.152.012,534.879,0h0a.84.84,0,0,1,.839.805c.013.3.033.645.055,1.022.391,6.653,1.43,24.325-26.069,29.435a.841.841,0,0,1-.154.014" transform="translate(-12224.999 -11851.134)" fill="#241f20"/>
      <path id="Trazado_882335" data-name="Trazado 882335" d="M506.121,65.385a.84.84,0,0,1-.493-1.521l19.7-14.257a.84.84,0,0,1,.986,1.361l-19.7,14.257a.837.837,0,0,1-.492.16" transform="translate(-12225 -11890.193)" fill="#241f20"/>
      <path id="Trazado_882336" data-name="Trazado 882336" d="M509.551,164.972a.84.84,0,0,1-.153-1.667c26.041-4.84,25.1-20.848,24.7-27.684l-.014-.238c-17.8.311-24.671,10.088-27.191,15.948a.84.84,0,0,1-1.544-.664,26.512,26.512,0,0,1,9.959-11.813c5.261-3.411,11.846-5.147,19.572-5.159h0a.84.84,0,0,1,.839.805c.013.3.033.645.055,1.022.391,6.653,1.43,24.325-26.069,29.435a.842.842,0,0,1-.154.014" transform="translate(-12224.999 -11956.742)" fill="#241f20"/>
      <path id="Trazado_882337" data-name="Trazado 882337" d="M506.121,199.081a.84.84,0,0,1-.493-1.521l19.7-14.257a.84.84,0,0,1,.986,1.361l-19.7,14.257a.837.837,0,0,1-.492.16" transform="translate(-12225 -11995.803)" fill="#241f20"/>
      <path id="Trazado_882338" data-name="Trazado 882338" d="M393.881,31.277a.841.841,0,0,1-.154-.014c-27.5-5.11-26.46-22.782-26.069-29.435.022-.377.042-.719.055-1.022A.84.84,0,0,1,368.552,0h0c7.726.012,14.311,1.748,19.572,5.159a26.513,26.513,0,0,1,9.959,11.813.84.84,0,0,1-1.544.664C394.02,11.776,387.15,2,369.349,1.688l-.014.238c-.4,6.836-1.343,22.844,24.7,27.684a.84.84,0,0,1-.152,1.667" transform="translate(-12116.191 -11851.134)" fill="#241f20"/>
      <path id="Trazado_882339" data-name="Trazado 882339" d="M432.06,65.385a.837.837,0,0,1-.492-.16l-19.7-14.257a.84.84,0,0,1,.986-1.361l19.7,14.257a.84.84,0,0,1-.493,1.521" transform="translate(-12150.939 -11890.193)" fill="#241f20"/>
      <path id="Trazado_882340" data-name="Trazado 882340" d="M393.881,164.972a.842.842,0,0,1-.154-.014c-27.5-5.11-26.46-22.782-26.069-29.435.022-.377.042-.719.055-1.022a.84.84,0,0,1,.839-.805h0c7.726.012,14.311,1.748,19.572,5.159a26.512,26.512,0,0,1,9.959,11.813.84.84,0,0,1-1.544.664c-2.52-5.86-9.39-15.637-27.191-15.948l-.014.238c-.4,6.836-1.343,22.844,24.7,27.684a.84.84,0,0,1-.152,1.667" transform="translate(-12116.191 -11956.742)" fill="#241f20"/>
      <path id="Trazado_882341" data-name="Trazado 882341" d="M432.06,199.081a.837.837,0,0,1-.492-.16l-19.7-14.257a.84.84,0,0,1,.986-1.361l19.7,14.257a.84.84,0,0,1-.493,1.521" transform="translate(-12150.939 -11995.803)" fill="#241f20"/>
      <path id="Trazado_882342" data-name="Trazado 882342" d="M474.343,333.827H451.318a.84.84,0,1,1,0-1.681h23.025a.84.84,0,1,1,0,1.681" transform="translate(-12181.71 -12113.504)" fill="#241f20"/>
    </g>
  </g>
</svg>
