<svg xmlns="http://www.w3.org/2000/svg" xmlns:xlink="http://www.w3.org/1999/xlink" width="97" height="88" viewBox="0 0 97 88">
  <defs>
    <linearGradient id="linear-gradient" x1="0.5" x2="0.5" y2="1" gradientUnits="objectBoundingBox">
      <stop offset="0" stop-color="#edfafe"/>
      <stop offset="1" stop-color="#f6f8e9"/>
    </linearGradient>
  </defs>
  <g id="Grupo_1102162" data-name="Grupo 1102162" transform="translate(12055 11877)">
    <circle id="Elipse_11698" data-name="Elipse 11698" cx="44" cy="44" r="44" transform="translate(-12046 -11877)" fill="url(#linear-gradient)"/>
    <circle id="Elipse_11699" data-name="Elipse 11699" cx="9" cy="9" r="9" transform="translate(-12055 -11831)" fill="#57d3fb"/>
    <g id="Grupo_1102167" data-name="Grupo 1102167" transform="translate(-410.278 -114.976)">
      <path id="Trazado_882402" data-name="Trazado 882402" d="M114.721,122.1a10.7,10.7,0,0,1-4.81-1.137,8.685,8.685,0,0,1-5.021-7.623c-.293-5.575,5.664-12.425,9.488-15.433a.555.555,0,0,1,.686,0c3.824,3.008,9.782,9.859,9.488,15.433a8.685,8.685,0,0,1-5.021,7.623,10.7,10.7,0,0,1-4.81,1.137m0-23.046c-3.651,2.993-8.986,9.23-8.723,14.227a7.627,7.627,0,0,0,4.412,6.69,9.627,9.627,0,0,0,8.622,0,7.627,7.627,0,0,0,4.412-6.69c.263-5-5.072-11.234-8.723-14.227" transform="translate(-11707.329 -11827.226)" fill="#483f40"/>
      <path id="Trazado_882403" data-name="Trazado 882403" d="M33.612,139.529a.555.555,0,0,1-.555-.555V126.313a.555.555,0,1,1,1.11,0v12.661a.555.555,0,0,1-.555.555" transform="translate(-11645.471 -11851.312)" fill="#483f40"/>
      <path id="Trazado_882404" data-name="Trazado 882404" d="M66.97,251.46H37.405a4.353,4.353,0,0,1-4.348-4.348v-7.363a.555.555,0,1,1,1.11,0v7.363a3.242,3.242,0,0,0,3.239,3.239H66.97a3.242,3.242,0,0,0,3.239-3.239v-7.363a.555.555,0,1,1,1.11,0v7.363a4.354,4.354,0,0,1-4.349,4.348" transform="translate(-11645.471 -11949.011)" fill="#483f40"/>
      <path id="Trazado_882406" data-name="Trazado 882406" d="M70.761,43.281a.555.555,0,0,1-.555-.555v-5.92a3.242,3.242,0,0,0-3.239-3.239H37.4a3.242,3.242,0,0,0-3.239,3.239v5.92a.555.555,0,0,1-1.11,0v-5.92A4.353,4.353,0,0,1,37.4,32.457H66.967a4.354,4.354,0,0,1,4.348,4.348v5.92a.555.555,0,0,1-.555.555" transform="translate(-11645.47 -11770.954)" fill="#483f40"/>
      <path id="Trazado_882407" data-name="Trazado 882407" d="M48.338,5.613H7.945A2.806,2.806,0,0,1,7.945,0H48.338a2.806,2.806,0,0,1,0,5.613M7.945,1.11a1.7,1.7,0,0,0,0,3.393H48.338a1.7,1.7,0,0,0,0-3.393Z" transform="translate(-11621.427 -11743)" fill="#483f40"/>
      <path id="Trazado_882408" data-name="Trazado 882408" d="M48.338,325.218H7.945a2.806,2.806,0,0,1,0-5.613H48.338a2.806,2.806,0,0,1,0,5.613m-40.393-4.5a1.7,1.7,0,1,0,0,3.393H48.338a1.7,1.7,0,1,0,0-3.393Z" transform="translate(-11621.427 -12018.267)" fill="#483f40"/>
      <path id="Trazado_882409" data-name="Trazado 882409" d="M9.726,126.874H.555a.555.555,0,0,1,0-1.11H9.726a.555.555,0,0,1,0,1.11" transform="translate(-11617 -11851.317)" fill="#483f40"/>
      <path id="Trazado_882411" data-name="Trazado 882411" d="M9.726,240.307H.555a.555.555,0,0,1,0-1.11H9.726a.555.555,0,0,1,0,1.11" transform="translate(-11617 -11949.014)" fill="#483f40"/>
    </g>
  </g>
</svg>
