<svg xmlns="http://www.w3.org/2000/svg" width="58" height="58" viewBox="0 0 58 58">
  <g id="Grupo_1102392" data-name="Grupo 1102392" transform="translate(-180 -2989.888)">
    <circle id="Elipse_11666" data-name="Elipse 11666" cx="29" cy="29" r="29" transform="translate(180 2989.888)" fill="#b1bf34"/>
    <g id="_x31_5_Livestock" transform="translate(187.012 2977.238)">
      <g id="_x31_5_Livestock_1_" transform="translate(1.988 24.658)">
        <g id="Grupo_1102380" data-name="Grupo 1102380" transform="translate(0 0)">
          <path id="Trazado_882723" data-name="Trazado 882723" d="M38.182,36.169a9.682,9.682,0,0,0-2.554-.854,6.655,6.655,0,0,0,1.623-3.723,7.793,7.793,0,0,0-2.239-5.654.793.793,0,0,0-.831-.246.8.8,0,0,0-.569.654c-.008.038-.554,3.631-3.3,5.169l-.115.069a4.387,4.387,0,0,0-.838-.246,17.6,17.6,0,0,0-7.139.469,10.848,10.848,0,0,1-5.162-.023A16.5,16.5,0,0,0,9.712,31.4a4.325,4.325,0,0,0-.562.169c-.031-.023-.062-.038-.092-.062-2.731-1.508-3.3-5.116-3.3-5.154a.8.8,0,0,0-1.4-.408A7.749,7.749,0,0,0,2.12,31.584a6.667,6.667,0,0,0,1.623,3.739,9.006,9.006,0,0,0-2.546.854A2.114,2.114,0,0,0,.066,37.531,2.153,2.153,0,0,0,.32,39.254a8.836,8.836,0,0,0,6.093,4.069,1.211,1.211,0,0,1,1.008.908c.408,1.815,1.477,6.569,5.054,9.985v1.539c0,2.523,2.531,4.485,4.239,5.016a13.872,13.872,0,0,0,5.9.008c1.746-.469,4.269-2.523,4.269-5.031V54.208c3.585-3.415,4.646-8.169,5.054-9.985a1.211,1.211,0,0,1,1.008-.908,8.817,8.817,0,0,0,6.092-4.069,2.156,2.156,0,0,0-.854-3.077Zm-3.431-7.877a5.308,5.308,0,0,1,.9,3.185,5.6,5.6,0,0,1-2.069,3.669c-.385.008-.785.038-1.177.085h-.031a12.6,12.6,0,0,0-1.554.308,1.678,1.678,0,0,1-.462-1.639,1.566,1.566,0,0,1,.738-.977A8.465,8.465,0,0,0,34.751,28.292Zm-18.07,5.062a12.281,12.281,0,0,0,5.931.023,16.143,16.143,0,0,1,6.393-.462,3.588,3.588,0,0,0-.208.569,3.249,3.249,0,0,0,.4,2.585,17.8,17.8,0,0,0-3.577,1.969C20.6,41.546,20.613,48.185,20.982,51.5a3.66,3.66,0,0,0-1.3.923,3.66,3.66,0,0,0-1.3-.923c.369-3.315.385-9.954-4.639-13.462a17.844,17.844,0,0,0-3.585-1.969,3.254,3.254,0,0,0,.192-3.154,16.058,16.058,0,0,1,6.331.438Zm8.593,22.4c0,1.523-1.762,3.123-3.077,3.477a12.616,12.616,0,0,1-5.008.008c-1.323-.415-3.108-1.946-3.108-3.485V54.17a3.785,3.785,0,0,1,3.085-1.339,2.291,2.291,0,0,1,1.785,1.377.8.8,0,0,0,1.446,0,2.268,2.268,0,0,1,1.777-1.377,3.8,3.8,0,0,1,3.092,1.339ZM4.612,28.284a8.444,8.444,0,0,0,3.654,4.639,1.657,1.657,0,0,1,.285,2.615,11.417,11.417,0,0,0-2.777-.4,5.6,5.6,0,0,1-2.062-3.677A5.286,5.286,0,0,1,4.612,28.284ZM8.989,43.877a2.8,2.8,0,0,0-2.308-2.139,7.164,7.164,0,0,1-5-3.339.571.571,0,0,1-.069-.446A.581.581,0,0,1,1.9,37.6c3.585-1.815,7.616-.546,10.916,1.762C17.1,42.354,17.12,48.169,16.8,51.2a5.522,5.522,0,0,0-3.531,1.531c-2.969-3.054-3.908-7.223-4.277-8.854ZM37.682,38.4a7.152,7.152,0,0,1-4.992,3.339,2.821,2.821,0,0,0-2.315,2.139c-.362,1.623-1.3,5.792-4.285,8.854a5.47,5.47,0,0,0-3.523-1.523c-.323-3.031-.3-8.854,3.977-11.839a13.18,13.18,0,0,1,6.923-2.608,8.18,8.18,0,0,1,3.992.846.555.555,0,0,1,.223.792Z" transform="translate(0.012 -25.658)" fill="#575f19"/>
          <path id="Trazado_882724" data-name="Trazado 882724" d="M148.308,254.269a.8.8,0,0,0-.492-1.023l-.831-.285a.8.8,0,1,0-.531,1.515l.831.285A.807.807,0,0,0,148.308,254.269Z" transform="translate(-134.691 -235.435)" fill="#575f19"/>
          <path id="Trazado_882725" data-name="Trazado 882725" d="M335.785,252.862l-.831.285a.8.8,0,0,0,.531,1.515l.831-.285a.8.8,0,1,0-.531-1.515Z" transform="translate(-308.691 -235.342)" fill="#575f19"/>
          <path id="Trazado_882726" data-name="Trazado 882726" d="M209.085,412.9H208.4a.8.8,0,1,0,0,1.6h.685a.8.8,0,1,0,0-1.6Z" transform="translate(-191.629 -383.111)" fill="#575f19"/>
          <path id="Trazado_882727" data-name="Trazado 882727" d="M274.7,413.8a.8.8,0,0,0,.8.8h.685a.8.8,0,0,0,0-1.6H275.5A.79.79,0,0,0,274.7,413.8Z" transform="translate(-253.568 -383.202)" fill="#575f19"/>
        </g>
      </g>
    </g>
  </g>
</svg>
