<svg xmlns="http://www.w3.org/2000/svg" width="58" height="58" viewBox="0 0 58 58">
  <g id="Grupo_1103045" data-name="Grupo 1103045" transform="translate(-600 -495.042)">
    <circle id="Elipse_11686" data-name="Elipse 11686" cx="29" cy="29" r="29" transform="translate(600 495.042)" fill="#57d3fb"/>
    <g id="heno" transform="translate(607.694 414.853)">
      <path id="Trazado_885616" data-name="Trazado 885616" d="M40.257,117.427l.359-.359v-2.346l-.972-.972.972-.972v-2.347l-.972-.972.972-.972v-2.347l-.972-.972.972-.972V101.85l-.972-.972.972-.972V97.56l-1.585-1.585H31.422a1.828,1.828,0,0,0-.678.13,1.838,1.838,0,0,0-3.548,0,1.828,1.828,0,0,0-.678-.13h-11.2a1.828,1.828,0,0,0-.678.13,1.838,1.838,0,0,0-3.548,0,1.828,1.828,0,0,0-.678-.13H6.742V97.2H10.42a.614.614,0,0,1,.613.613v2.365L8.46,99.664l-.24,1.2,2.812.563V106.7H8.34v1.226h2.692v5.32l-2.572.514.24,1.2,2.331-.466v2.93H3.318l-.867-.867v-1.331l1.48-1.48-1.48-1.48v-1.331l1.48-1.48-1.48-1.48v-1.331l1.48-1.48-1.48-1.48v-1.331l1.48-1.48L2.452,99.4V98.068l.867-.867h2.2V95.975H2.811L1.226,97.56v2.346l.972.972-.972.972V104.2l.972.972-.972.972v2.347l.972.972-.972.972v2.347l.972.972-.972.972v2.346l.359.359H0V121.1H35.1v-1.226H1.226v-1.226h39.39v1.226H38.777V121.1h3.065v-3.678ZM31.422,97.2h7.1l.867.867V99.4l-1.48,1.48,1.48,1.48v1.331l-1.48,1.48,1.48,1.48v1.331l-1.48,1.48,1.48,1.48v1.331l-1.48,1.48,1.48,1.48v1.331l-.867.867H30.809V114.5l2.331.466.24-1.2-2.572-.514v-5.32H33.5V106.7H30.809v-5.272l2.812-.562-.24-1.2-2.572.514V97.814a.614.614,0,0,1,.613-.613Zm-3.065-.613a.613.613,0,0,1,1.226,0v20.839H28.358ZM15.323,97.2h11.2a.614.614,0,0,1,.613.613V103.2l-2.331-.466-.24,1.2,2.572.514v5.785L24.8,110.7l.24,1.2,2.091-.418v5.946H14.71v-5.946l2.091.418.24-1.2-2.331-.466v-5.785l2.572-.514-.24-1.2-2.331.466V97.814a.613.613,0,0,1,.613-.613Zm-3.065-.613a.613.613,0,0,1,1.226,0v20.839H12.258Z" fill="#2b697d"/>
      <path id="Trazado_885617" data-name="Trazado 885617" d="M444.5,402.25h1.226v1.226H444.5Z" transform="translate(-408.174 -282.371)" fill="#2b697d"/>
      <path id="Trazado_885618" data-name="Trazado 885618" d="M233.5,139.75h1.226v1.226H233.5Z" transform="translate(-214.418 -41.323)" fill="#2b697d"/>
      <path id="Trazado_885619" data-name="Trazado 885619" d="M263.5,139.75h1.226v1.226H263.5Z" transform="translate(-241.966 -41.323)" fill="#2b697d"/>
    </g>
  </g>
</svg>
