<svg id="fertilizacion" xmlns="http://www.w3.org/2000/svg" width="96.865" height="96.933" viewBox="0 0 96.865 96.933">
  <path id="Trazado_882773" data-name="Trazado 882773" d="M206.379,95.435a5.695,5.695,0,1,0,5.694,5.695A5.7,5.7,0,0,0,206.379,95.435Zm0,7.6a1.908,1.908,0,1,1,1.908-1.908A1.911,1.911,0,0,1,206.379,103.038Z" transform="translate(-162.728 -77.369)" fill="#b1bf34"/>
  <path id="Trazado_882774" data-name="Trazado 882774" d="M326.868,185.8a5.695,5.695,0,1,0,5.695,5.695A5.7,5.7,0,0,0,326.868,185.8Zm0,7.6a1.908,1.908,0,1,1,1.909-1.908A1.91,1.91,0,0,1,326.868,193.405Z" transform="translate(-260.408 -150.629)" fill="#b1bf34"/>
  <path id="Trazado_882775" data-name="Trazado 882775" d="M146.134,175.761a5.695,5.695,0,1,0,5.695,5.695A5.7,5.7,0,0,0,146.134,175.761Zm0,7.6a1.909,1.909,0,1,1,1.909-1.909A1.911,1.911,0,0,1,146.134,183.364Z" transform="translate(-113.887 -142.489)" fill="#b1bf34"/>
  <path id="Trazado_882776" data-name="Trazado 882776" d="M272.867,175.757a1.894,1.894,0,1,0,1.893,1.893A1.895,1.895,0,0,0,272.867,175.757Z" transform="translate(-219.711 -142.485)" fill="#b1bf34"/>
  <ellipse id="Elipse_11718" data-name="Elipse 11718" cx="1.893" cy="1.893" rx="1.893" ry="1.893" transform="translate(51.263 44.677)" fill="#b1bf34"/>
  <ellipse id="Elipse_11719" data-name="Elipse 11719" cx="1.893" cy="1.893" rx="1.893" ry="1.893" transform="translate(58.865 23.768)" fill="#b1bf34"/>
  <path id="Trazado_882777" data-name="Trazado 882777" d="M86.206,53.256A39.912,39.912,0,1,0,17.129,64.48c-2.96,4.688-2.68,9.381-.15,12.918l-2.8,2.8a5.721,5.721,0,0,0-1.611,4.832l.205,1.438a1.908,1.908,0,0,1-2.493,2.08,5.664,5.664,0,0,0-5.828,1.376L.735,93.643A1.893,1.893,0,0,0,3.412,96.32l3.715-3.715a1.9,1.9,0,0,1,1.953-.461,5.7,5.7,0,0,0,7.438-6.208L16.313,84.5a1.917,1.917,0,0,1,.54-1.619l2.8-2.8c4.129,2.954,10.1,2.975,15.847-2.444a39.845,39.845,0,0,0,14.971,2.15,23.751,23.751,0,1,0,35.73-26.525ZM12.461,39.918A36.123,36.123,0,1,1,82.83,51.431a23.547,23.547,0,0,0-4-1.349,31.909,31.909,0,1,0-56.067,8.55,22.733,22.733,0,0,0-3.206,2.784,36.151,36.151,0,0,1-7.093-21.5ZM50.111,68a28.075,28.075,0,0,1-8.472-.827c1.917-9.5-6.13-14.908-15.6-10.465a28.109,28.109,0,1,1,48.981-7.212A23.77,23.77,0,0,0,50.111,68ZM20.885,76.171c-3.313-3.313-2.67-8.072,1.677-12.419,3.583-3.583,10.609-6.841,14.1-3.355,3.547,3.547.242,10.5-3.355,14.1C28.956,78.84,24.2,79.483,20.885,76.171Zm17.359-1.632a20.708,20.708,0,0,0,2.215-3.765,31.778,31.778,0,0,0,9.123,1.032,23.609,23.609,0,0,0,.129,4.216A36.066,36.066,0,0,1,38.243,74.538Zm35.05,18.609A19.966,19.966,0,1,1,93.259,73.182,19.984,19.984,0,0,1,73.294,93.148Z" transform="translate(-0.18 -0.001)" fill="#b1bf34"/>
  <path id="Trazado_882778" data-name="Trazado 882778" d="M359.765,303.165a1.893,1.893,0,0,0-3.786,0c0,2.071-1.614,3.337-4.328,4.939-2.714-1.6-4.328-2.868-4.328-4.939a1.893,1.893,0,1,0-3.786,0c0,3.387,2.1,5.515,4.473,7.128-2.374,1.613-4.473,3.741-4.473,7.128s2.1,5.515,4.473,7.128c-2.374,1.613-4.473,3.742-4.473,7.128a1.893,1.893,0,1,0,3.786,0c0-2.071,1.614-3.337,4.328-4.939,2.714,1.6,4.328,2.868,4.328,4.939a1.893,1.893,0,0,0,3.786,0c0-3.386-2.1-5.515-4.473-7.128,2.374-1.613,4.473-3.742,4.473-7.128s-2.1-5.515-4.473-7.128C357.665,308.68,359.765,306.552,359.765,303.165Zm-8.114,19.195c-2.714-1.6-4.328-2.868-4.328-4.939s1.614-3.337,4.328-4.939c2.714,1.6,4.328,2.868,4.328,4.939S354.365,320.758,351.651,322.36Z" transform="translate(-278.538 -244.24)" fill="#b1bf34"/>
</svg>
