<svg xmlns="http://www.w3.org/2000/svg" width="84.486" height="87.918" viewBox="0 0 84.486 87.918">
  <g id="Outline" transform="translate(-24 -16)">
    <path id="Trazado_882785" data-name="Trazado 882785" d="M258.6,225.751a4.4,4.4,0,0,0-5.471-2.951L213.82,234.56a1.468,1.468,0,0,0-.583.336l-4.775,4.487a1.465,1.465,0,0,0,.751,2.511l6.455,1.128a1.469,1.469,0,0,0,.672-.04l31.894-9.543.138,3.018-10.134,3.032.84,2.808,11.23-3.36a1.465,1.465,0,0,0,1.044-1.471l-.224-4.891,4.519-1.352a4.4,4.4,0,0,0,2.951-5.471Zm-42.767,14.325-3.228-.564,2.388-2.244,6.688-2,.84,2.808Zm9.5-2.841-.84-2.808,23.471-7.023.138,3.018Zm30.35-9.529a1.457,1.457,0,0,1-.87.708l-3.817,1.142-.138-3.018,3.115-.932a1.465,1.465,0,0,1,1.71,2.1Z" transform="translate(-150.298 -168.77)" fill="#b1bf34"/>
    <path id="Trazado_882786" data-name="Trazado 882786" d="M78.216,247.445H53.306V225.465A1.465,1.465,0,0,0,51.841,224H25.465A1.465,1.465,0,0,0,24,225.465v46.89a1.465,1.465,0,0,0,1.465,1.465H78.216a1.465,1.465,0,0,0,1.465-1.465V248.91A1.465,1.465,0,0,0,78.216,247.445ZM62.1,250.375h5.861v5.861H62.1ZM35.722,226.931h5.861v5.861H35.722Zm-8.792,0h5.861v7.326a1.465,1.465,0,0,0,1.465,1.465h8.792a1.465,1.465,0,0,0,1.465-1.465v-7.326h5.861v20.514H26.931Zm8.792,23.445h5.861v5.861H35.722Zm-8.792,0h5.861V257.7a1.465,1.465,0,0,0,1.465,1.465h8.792a1.465,1.465,0,0,0,1.465-1.465v-7.327h5.861V270.89H26.931Zm49.82,20.514H53.306V250.375h5.861V257.7a1.465,1.465,0,0,0,1.465,1.465h8.792A1.465,1.465,0,0,0,70.89,257.7v-7.327h5.861Z" transform="translate(0 -169.902)" fill="#b1bf34"/>
    <path id="Trazado_882787" data-name="Trazado 882787" d="M280,448h2.931v2.931H280Z" transform="translate(-209.11 -352.874)" fill="#b1bf34"/>
    <path id="Trazado_882788" data-name="Trazado 882788" d="M136,448h2.931v2.931H136Z" transform="translate(-91.486 -352.874)" fill="#b1bf34"/>
    <path id="Trazado_882789" data-name="Trazado 882789" d="M136,320h2.931v2.931H136Z" transform="translate(-91.486 -248.319)" fill="#b1bf34"/>
    <path id="Trazado_882790" data-name="Trazado 882790" d="M138.931,27.722a2.934,2.934,0,0,1,2.931-2.931h8.792v2.931h-7.326a1.465,1.465,0,0,0-1.465,1.465V51.167h2.931V30.653h35.167V54.1h2.931V29.188a1.465,1.465,0,0,0-1.465-1.465H174.1V24.792h8.792a2.934,2.934,0,0,1,2.931,2.931v24.91h2.931V27.722a5.868,5.868,0,0,0-5.861-5.861H168.648l1.01-4.041A1.465,1.465,0,0,0,168.237,16H156.514a1.465,1.465,0,0,0-1.422,1.821l1.01,4.041H141.861A5.868,5.868,0,0,0,136,27.722V51.167h2.931Zm14.653-2.931h4.4a1.465,1.465,0,0,0,1.422-1.821l-1.01-4.041h7.969l-1.01,4.041a1.465,1.465,0,0,0,1.422,1.821h4.4v2.931H153.584Z" transform="translate(-91.486)" fill="#b1bf34"/>
    <path id="Trazado_882791" data-name="Trazado 882791" d="M355.722,349.188a2.934,2.934,0,0,1-2.931,2.931H344v2.931h8.792a5.868,5.868,0,0,0,5.861-5.861V336h-2.931Z" transform="translate(-261.388 -261.388)" fill="#b1bf34"/>
    <path id="Trazado_882792" data-name="Trazado 882792" d="M352.792,354.257V344h-2.931v8.792H344v2.931h7.327A1.465,1.465,0,0,0,352.792,354.257Z" transform="translate(-261.388 -267.923)" fill="#b1bf34"/>
    <path id="Trazado_882793" data-name="Trazado 882793" d="M208.792,113.465A1.465,1.465,0,0,0,207.327,112h-5.861A1.465,1.465,0,0,0,200,113.465v5.861a1.465,1.465,0,0,0,1.465,1.465h5.861a1.465,1.465,0,0,0,1.465-1.465Zm-2.931,4.4h-2.931v-2.931h2.931Z" transform="translate(-143.763 -78.416)" fill="#b1bf34"/>
    <path id="Trazado_882794" data-name="Trazado 882794" d="M207.327,184h-5.861A1.465,1.465,0,0,0,200,185.465v5.861a1.465,1.465,0,0,0,1.465,1.465h5.861a1.465,1.465,0,0,0,1.465-1.465v-5.861A1.465,1.465,0,0,0,207.327,184Zm-1.465,5.861h-2.931v-2.931h2.931Z" transform="translate(-143.763 -137.229)" fill="#b1bf34"/>
    <path id="Trazado_882795" data-name="Trazado 882795" d="M264,112h2.931v2.931H264Z" transform="translate(-196.041 -78.416)" fill="#b1bf34"/>
    <path id="Trazado_882796" data-name="Trazado 882796" d="M264,144h17.584v2.931H264Z" transform="translate(-196.041 -104.555)" fill="#b1bf34"/>
    <path id="Trazado_882797" data-name="Trazado 882797" d="M296,112h11.722v2.931H296Z" transform="translate(-222.18 -78.416)" fill="#b1bf34"/>
    <path id="Trazado_882798" data-name="Trazado 882798" d="M264,184h2.931v2.931H264Z" transform="translate(-196.041 -137.229)" fill="#b1bf34"/>
    <path id="Trazado_882799" data-name="Trazado 882799" d="M264,216h17.584v2.931H264Z" transform="translate(-196.041 -163.367)" fill="#b1bf34"/>
    <path id="Trazado_882800" data-name="Trazado 882800" d="M296,184h11.722v2.931H296Z" transform="translate(-222.18 -137.229)" fill="#b1bf34"/>
  </g>
</svg>
