<svg xmlns="http://www.w3.org/2000/svg" xmlns:xlink="http://www.w3.org/1999/xlink" width="400" height="237.129" viewBox="0 0 400 237.129">
  <defs>
    <clipPath id="clip-path">
      <rect id="Rectángulo_402855" data-name="Rectángulo 402855" width="199.578" height="188.142" fill="none"/>
    </clipPath>
    <clipPath id="clip-path-2">
      <rect id="Rectángulo_402834" data-name="Rectángulo 402834" width="81.498" height="97.591" fill="none"/>
    </clipPath>
    <clipPath id="clip-path-3">
      <rect id="Rectángulo_403027" data-name="Rectángulo 403027" width="102.984" height="86.014" fill="none"/>
    </clipPath>
    <clipPath id="clip-path-5">
      <rect id="Rectángulo_403017" data-name="Rectángulo 403017" width="93.46" height="5.338" fill="none"/>
    </clipPath>
    <clipPath id="clip-path-6">
      <rect id="Rectángulo_403023" data-name="Rectángulo 403023" width="6.84" height="4.754" fill="none"/>
    </clipPath>
    <clipPath id="clip-path-7">
      <rect id="Rectángulo_403024" data-name="Rectángulo 403024" width="9.029" height="4.754" fill="none"/>
    </clipPath>
    <clipPath id="clip-path-8">
      <rect id="Rectángulo_403025" data-name="Rectángulo 403025" width="3.878" height="18.562" fill="none"/>
    </clipPath>
  </defs>
  <g id="Grupo_1102911" data-name="Grupo 1102911" transform="translate(-915 -6475.959)">
    <path id="Trazado_882825" data-name="Trazado 882825" d="M19.015,0H380.985C391.487,0,400,5.392,400,12.043V225.086c0,6.651-8.513,12.043-19.015,12.043H19.015C8.513,237.129,0,231.737,0,225.086V12.043C0,5.392,8.513,0,19.015,0Z" transform="translate(915 6475.959)" fill="#edfafe"/>
    <ellipse id="Elipse_11726" data-name="Elipse 11726" cx="32.921" cy="31.156" rx="32.921" ry="31.156" transform="translate(954.403 6557.132)" fill="#57d3fb"/>
    <g id="Grupo_1102485" data-name="Grupo 1102485" transform="translate(966.246 6500.452)">
      <rect id="Rectángulo_402835" data-name="Rectángulo 402835" width="10.954" height="75.53" transform="translate(9.826 53.812)" fill="#b3b8ba"/>
      <g id="Grupo_1102484" data-name="Grupo 1102484">
        <g id="Grupo_1102483" data-name="Grupo 1102483" clip-path="url(#clip-path)">
          <path id="Trazado_883105" data-name="Trazado 883105" d="M39.725,174.91v65.953a1.415,1.415,0,0,1-1.449,1.371H31.534a1.415,1.415,0,0,1-1.449-1.371V174.91a1.415,1.415,0,0,1,1.449-1.371h6.742a1.415,1.415,0,0,1,1.449,1.371" transform="translate(-19.602 -116.31)" fill="#d3d6d8" fill-rule="evenodd"/>
          <path id="Trazado_883106" data-name="Trazado 883106" d="M36.055,176.479v66.054a.542.542,0,0,1-.554.525H32.923a.542.542,0,0,1-.554-.525V176.479a.542.542,0,0,1,.554-.525H35.5a.542.542,0,0,1,.554.525" transform="translate(-21.09 -117.929)" fill="#b3b8ba" fill-rule="evenodd"/>
          <path id="Trazado_883107" data-name="Trazado 883107" d="M48.713,177.558v63.895a1.657,1.657,0,0,1-1.694,1.6h0a1.657,1.657,0,0,1-1.694-1.6V177.558a1.656,1.656,0,0,1,1.694-1.6h0a1.656,1.656,0,0,1,1.694,1.6" transform="translate(-29.53 -117.929)" fill="#eaecec" fill-rule="evenodd"/>
          <path id="Trazado_883108" data-name="Trazado 883108" d="M51.495,181.657v26.417a.633.633,0,0,1-1.264,0V181.657a.633.633,0,0,1,1.264,0" transform="translate(-32.728 -121.35)" fill="#fff" fill-rule="evenodd"/>
          <path id="Trazado_883109" data-name="Trazado 883109" d="M51.495,272.526v-3.879a.633.633,0,0,0-1.264,0v3.879a.633.633,0,0,0,1.264,0" transform="translate(-32.728 -179.653)" fill="#fff" fill-rule="evenodd"/>
          <path id="Trazado_883110" data-name="Trazado 883110" d="M19.931,383.86H34.693a1.465,1.465,0,0,1,1.5,1.419v2.669a1.466,1.466,0,0,1-1.5,1.42H19.931a1.466,1.466,0,0,1-1.5-1.42v-2.669a1.465,1.465,0,0,1,1.5-1.419" transform="translate(-12.009 -257.273)" fill="#273335" fill-rule="evenodd"/>
          <path id="Rectángulo_402836" data-name="Rectángulo 402836" d="M2.214,0H14.406a2.213,2.213,0,0,1,2.213,2.213v0a2.214,2.214,0,0,1-2.214,2.214H2.213A2.213,2.213,0,0,1,0,2.214v0A2.214,2.214,0,0,1,2.214,0Z" transform="translate(6.994 127.128)" fill="#455456"/>
          <path id="Trazado_883111" data-name="Trazado 883111" d="M31.06,387.02h7.405a.559.559,0,0,1,.613.475v1.411a.559.559,0,0,1-.613.475H31.06a.559.559,0,0,1-.613-.475V387.5a.559.559,0,0,1,.613-.475" transform="translate(-19.837 -259.391)" fill="#747f81" fill-rule="evenodd"/>
          <path id="Trazado_883112" data-name="Trazado 883112" d="M35.3,389.116H20.461a.976.976,0,0,1-.391-.082v.2a.914.914,0,0,0,.934.883H35.845a.914.914,0,0,0,.934-.883v-2.684a.884.884,0,0,0-.53-.8l-.013-.006v2.486a.914.914,0,0,1-.933.884" transform="translate(-13.076 -258.537)" fill="#273335" fill-rule="evenodd"/>
          <path id="Trazado_883113" data-name="Trazado 883113" d="M23.542,387.02H22.169a.451.451,0,0,0-.461.437v1.488a.451.451,0,0,0,.461.437h1.373a.451.451,0,0,0,.461-.437v-1.488a.451.451,0,0,0-.461-.437" transform="translate(-14.144 -259.391)" fill="#747f81" fill-rule="evenodd"/>
          <path id="Trazado_883114" data-name="Trazado 883114" d="M23.718,388.1H23.1a.2.2,0,0,0-.208.2v.671a.2.2,0,0,0,.208.2h.619a.2.2,0,0,0,.208-.2v-.671a.2.2,0,0,0-.208-.2" transform="translate(-14.914 -260.112)" fill="#919898" fill-rule="evenodd"/>
          <path id="Trazado_883115" data-name="Trazado 883115" d="M34.255,388.1h-2.4a.221.221,0,0,0-.226.214v.636a.221.221,0,0,0,.226.214h2.4a.221.221,0,0,0,.226-.214v-.636a.221.221,0,0,0-.226-.214" transform="translate(-20.609 -260.112)" fill="#919898" fill-rule="evenodd"/>
          <path id="Trazado_883116" data-name="Trazado 883116" d="M41.542,388.1h-.619a.2.2,0,0,0-.208.2v.671a.2.2,0,0,0,.208.2h.619a.2.2,0,0,0,.208-.2v-.671a.2.2,0,0,0-.208-.2" transform="translate(-26.527 -260.112)" fill="#919898" fill-rule="evenodd"/>
          <path id="Trazado_883117" data-name="Trazado 883117" d="M19.931,154.824H34.693a1.466,1.466,0,0,1,1.5,1.42v2.67a1.465,1.465,0,0,1-1.5,1.419H19.931a1.465,1.465,0,0,1-1.5-1.419v-2.67a1.466,1.466,0,0,1,1.5-1.42" transform="translate(-12.009 -103.767)" fill="#273335" fill-rule="evenodd"/>
          <rect id="Rectángulo_402837" data-name="Rectángulo 402837" width="16.619" height="4.427" rx="2.213" transform="translate(6.994 51.598)" fill="#455456"/>
          <path id="Trazado_883118" data-name="Trazado 883118" d="M31.06,157.986h7.405a.559.559,0,0,1,.613.475v1.412a.559.559,0,0,1-.613.475H31.06a.559.559,0,0,1-.613-.475v-1.412a.559.559,0,0,1,.613-.475" transform="translate(-19.837 -105.886)" fill="#747f81" fill-rule="evenodd"/>
          <path id="Trazado_883119" data-name="Trazado 883119" d="M35.3,160.082H20.461A.966.966,0,0,1,20.07,160v.2a.914.914,0,0,0,.934.884H35.845a.914.914,0,0,0,.934-.884v-2.684a.886.886,0,0,0-.53-.8l-.013-.005V159.2a.913.913,0,0,1-.933.884" transform="translate(-13.076 -105.032)" fill="#273335" fill-rule="evenodd"/>
          <path id="Trazado_883120" data-name="Trazado 883120" d="M23.542,157.986H22.169a.451.451,0,0,0-.461.437v1.488a.451.451,0,0,0,.461.437h1.373A.451.451,0,0,0,24,159.91v-1.488a.451.451,0,0,0-.461-.437" transform="translate(-14.144 -105.886)" fill="#747f81" fill-rule="evenodd"/>
          <path id="Trazado_883121" data-name="Trazado 883121" d="M23.718,159.062H23.1a.2.2,0,0,0-.208.2v.671a.2.2,0,0,0,.208.2h.619a.2.2,0,0,0,.208-.2v-.671a.2.2,0,0,0-.208-.2" transform="translate(-14.914 -106.607)" fill="#919898" fill-rule="evenodd"/>
          <path id="Trazado_883122" data-name="Trazado 883122" d="M34.255,159.062h-2.4a.221.221,0,0,0-.226.214v.636a.221.221,0,0,0,.226.214h2.4a.221.221,0,0,0,.226-.214v-.636a.221.221,0,0,0-.226-.214" transform="translate(-20.609 -106.607)" fill="#919898" fill-rule="evenodd"/>
          <path id="Trazado_883123" data-name="Trazado 883123" d="M41.542,159.062h-.619a.2.2,0,0,0-.208.2v.671a.2.2,0,0,0,.208.2h.619a.2.2,0,0,0,.208-.2v-.671a.2.2,0,0,0-.208-.2" transform="translate(-26.527 -106.607)" fill="#919898" fill-rule="evenodd"/>
          <rect id="Rectángulo_402838" data-name="Rectángulo 402838" width="79.809" height="10.367" transform="translate(63.418 168.372)" fill="#b3b8ba"/>
          <path id="Trazado_883124" data-name="Trazado 883124" d="M263.5,521.576h-69.69a1.415,1.415,0,0,1-1.449-1.371v-6.38a1.415,1.415,0,0,1,1.449-1.371H263.5a1.415,1.415,0,0,1,1.449,1.371v6.38a1.416,1.416,0,0,1-1.449,1.371" transform="translate(-125.328 -343.459)" fill="#d3d6d8" fill-rule="evenodd"/>
          <path id="Trazado_883125" data-name="Trazado 883125" d="M265.121,518.225h-69.8a.542.542,0,0,1-.555-.524v-2.44a.542.542,0,0,1,.555-.524h69.8a.542.542,0,0,1,.554.524v2.44a.542.542,0,0,1-.554.524" transform="translate(-126.9 -344.99)" fill="#b3b8ba" fill-rule="evenodd"/>
          <path id="Trazado_883126" data-name="Trazado 883126" d="M263.98,530.9H196.465a1.657,1.657,0,0,1-1.7-1.6h0a1.657,1.657,0,0,1,1.7-1.6H263.98a1.656,1.656,0,0,1,1.695,1.6h0a1.656,1.656,0,0,1-1.695,1.6" transform="translate(-126.9 -353.673)" fill="#eaecec" fill-rule="evenodd"/>
          <path id="Trazado_883127" data-name="Trazado 883127" d="M337.959,533.795H310.045a.6.6,0,1,1,0-1.2h27.914a.6.6,0,1,1,0,1.2" transform="translate(-201.595 -356.961)" fill="#fff" fill-rule="evenodd"/>
          <path id="Trazado_883128" data-name="Trazado 883128" d="M291.4,533.795h4.1a.6.6,0,1,0,0-1.2h-4.1a.6.6,0,1,0,0,1.2" transform="translate(-189.447 -356.961)" fill="#fff" fill-rule="evenodd"/>
          <path id="Trazado_883129" data-name="Trazado 883129" d="M179.462,502.219v13.97a1.465,1.465,0,0,1-1.5,1.42h-2.82a1.466,1.466,0,0,1-1.5-1.42v-13.97a1.466,1.466,0,0,1,1.5-1.42h2.82a1.465,1.465,0,0,1,1.5,1.42" transform="translate(-113.135 -335.648)" fill="#273335" fill-rule="evenodd"/>
          <path id="Rectángulo_402839" data-name="Rectángulo 402839" d="M2.34,0h0A2.338,2.338,0,0,1,4.677,2.338V13.389a2.339,2.339,0,0,1-2.339,2.339h0A2.338,2.338,0,0,1,0,13.39V2.34A2.34,2.34,0,0,1,2.34,0Z" transform="translate(61.079 165.691)" fill="#455456"/>
          <path id="Trazado_883130" data-name="Trazado 883130" d="M182.52,513.4V520.4a.547.547,0,0,1-.5.58h-1.491a.547.547,0,0,1-.5-.58V513.4a.546.546,0,0,1,.5-.58h1.491a.547.547,0,0,1,.5.58" transform="translate(-117.294 -343.702)" fill="#747f81" fill-rule="evenodd"/>
          <path id="Trazado_883131" data-name="Trazado 883131" d="M176.266,516.855V502.809a.843.843,0,0,1,.087-.37h-.209a.914.914,0,0,0-.934.884v14.046a.914.914,0,0,0,.934.884h2.836a.942.942,0,0,0,.841-.5l.006-.012H177.2a.914.914,0,0,1-.934-.883" transform="translate(-114.157 -336.747)" fill="#273335" fill-rule="evenodd"/>
          <path id="Trazado_883132" data-name="Trazado 883132" d="M182.52,505.812v-1.3a.451.451,0,0,0-.461-.437h-1.572a.451.451,0,0,0-.462.437v1.3a.451.451,0,0,0,.462.437h1.572a.451.451,0,0,0,.461-.437" transform="translate(-117.294 -337.844)" fill="#747f81" fill-rule="evenodd"/>
          <path id="Trazado_883133" data-name="Trazado 883133" d="M184,506.043v-.586a.2.2,0,0,0-.208-.2h-.709a.2.2,0,0,0-.208.2v.586a.2.2,0,0,0,.208.2h.709a.2.2,0,0,0,.208-.2" transform="translate(-119.152 -338.638)" fill="#919898" fill-rule="evenodd"/>
          <path id="Trazado_883134" data-name="Trazado 883134" d="M184,516.484v-2.27a.221.221,0,0,0-.226-.214H183.1a.221.221,0,0,0-.227.214v2.27a.221.221,0,0,0,.227.214h.673a.221.221,0,0,0,.226-.214" transform="translate(-119.152 -344.496)" fill="#919898" fill-rule="evenodd"/>
          <path id="Trazado_883135" data-name="Trazado 883135" d="M184,523.866v-.586a.2.2,0,0,0-.208-.2h-.709a.2.2,0,0,0-.208.2v.586a.2.2,0,0,0,.208.2h.709a.2.2,0,0,0,.208-.2" transform="translate(-119.152 -350.583)" fill="#919898" fill-rule="evenodd"/>
          <path id="Trazado_883136" data-name="Trazado 883136" d="M408.5,502.219v13.97a1.466,1.466,0,0,1-1.5,1.42h-2.821a1.465,1.465,0,0,1-1.5-1.42v-13.97a1.465,1.465,0,0,1,1.5-1.42H407a1.466,1.466,0,0,1,1.5,1.42" transform="translate(-262.36 -335.648)" fill="#273335" fill-rule="evenodd"/>
          <path id="Rectángulo_402840" data-name="Rectángulo 402840" d="M2.339,0h0A2.338,2.338,0,0,1,4.678,2.338V13.39a2.338,2.338,0,0,1-2.338,2.338h0A2.338,2.338,0,0,1,0,13.39V2.339A2.339,2.339,0,0,1,2.339,0Z" transform="translate(140.888 165.691)" fill="#455456"/>
          <path id="Trazado_883137" data-name="Trazado 883137" d="M411.554,513.4V520.4a.547.547,0,0,1-.5.58h-1.492a.547.547,0,0,1-.5-.58V513.4a.547.547,0,0,1,.5-.58h1.492a.547.547,0,0,1,.5.58" transform="translate(-266.518 -343.702)" fill="#747f81" fill-rule="evenodd"/>
          <path id="Trazado_883138" data-name="Trazado 883138" d="M405.3,516.855V502.809a.838.838,0,0,1,.086-.37h-.208a.914.914,0,0,0-.934.884v14.046a.914.914,0,0,0,.934.884h2.836a.944.944,0,0,0,.841-.5l.006-.012h-2.627a.914.914,0,0,1-.934-.883" transform="translate(-263.382 -336.747)" fill="#273335" fill-rule="evenodd"/>
          <path id="Trazado_883139" data-name="Trazado 883139" d="M411.554,505.812v-1.3a.451.451,0,0,0-.461-.437h-1.572a.451.451,0,0,0-.462.437v1.3a.451.451,0,0,0,.462.437h1.572a.45.45,0,0,0,.461-.437" transform="translate(-266.518 -337.844)" fill="#747f81" fill-rule="evenodd"/>
          <path id="Trazado_883140" data-name="Trazado 883140" d="M413.039,506.043v-.586a.2.2,0,0,0-.208-.2h-.709a.2.2,0,0,0-.208.2v.586a.2.2,0,0,0,.208.2h.709a.2.2,0,0,0,.208-.2" transform="translate(-268.378 -338.638)" fill="#919898" fill-rule="evenodd"/>
          <path id="Trazado_883141" data-name="Trazado 883141" d="M413.039,516.484v-2.27a.221.221,0,0,0-.227-.214h-.672a.221.221,0,0,0-.227.214v2.27a.221.221,0,0,0,.227.214h.672a.221.221,0,0,0,.227-.214" transform="translate(-268.378 -344.496)" fill="#919898" fill-rule="evenodd"/>
          <path id="Trazado_883142" data-name="Trazado 883142" d="M413.039,523.866v-.586a.2.2,0,0,0-.208-.2h-.709a.2.2,0,0,0-.208.2v.586a.2.2,0,0,0,.208.2h.709a.2.2,0,0,0,.208-.2" transform="translate(-268.378 -350.583)" fill="#919898" fill-rule="evenodd"/>
          <path id="Trazado_883143" data-name="Trazado 883143" d="M58.652,462.5H32a11.564,11.564,0,0,1-7.96-3.139,10.36,10.36,0,0,1-3.317-7.533V429.509H9.768v22.317a20.432,20.432,0,0,0,6.526,14.863A22.813,22.813,0,0,0,32,472.865H58.652Z" transform="translate(-6.364 -287.868)" fill="#b3b8ba" fill-rule="evenodd"/>
          <path id="Trazado_883144" data-name="Trazado 883144" d="M59.945,517.268V506.9H32a11.563,11.563,0,0,1-7.96-3.139,10.36,10.36,0,0,1-3.317-7.533v-.469H9.767v.469a20.432,20.432,0,0,0,6.526,14.863A22.814,22.814,0,0,0,32,517.268Z" transform="translate(-6.364 -332.27)" fill="#b3b8ba" fill-rule="evenodd"/>
          <path id="Trazado_883145" data-name="Trazado 883145" d="M61.047,517.6l-.06-5.913H33.066c-8.34,0-15.164-6.458-15.164-14.351H11.654v-.153a19.821,19.821,0,0,0,6.334,14.423A22.141,22.141,0,0,0,33.229,517.6Z" transform="translate(-7.593 -333.224)" fill="#d3d6d8" fill-rule="evenodd"/>
          <path id="Trazado_883146" data-name="Trazado 883146" d="M18.4,497.646H14.338v.224c0,10.534,9.108,19.155,20.241,19.155H62.168v-3.84H34.095c-8.634,0-15.7-6.686-15.7-14.858Z" transform="translate(-9.342 -333.535)" fill="#eaecec" fill-rule="evenodd"/>
          <path id="Trazado_883147" data-name="Trazado 883147" d="M144.1,520.965v13.97a1.465,1.465,0,0,1-1.5,1.42h-2.82a1.465,1.465,0,0,1-1.5-1.42v-13.97a1.466,1.466,0,0,1,1.5-1.42h2.82a1.466,1.466,0,0,1,1.5,1.42" transform="translate(-90.093 -348.212)" fill="#273335" fill-rule="evenodd"/>
          <path id="Rectángulo_402841" data-name="Rectángulo 402841" d="M2.339,0h0A2.339,2.339,0,0,1,4.678,2.339v11.05A2.338,2.338,0,0,1,2.34,15.728h0A2.338,2.338,0,0,1,0,13.389V2.339A2.339,2.339,0,0,1,2.339,0Z" transform="translate(48.755 171.874)" fill="#455456"/>
          <path id="Trazado_883148" data-name="Trazado 883148" d="M147.155,532.142v7.008a.546.546,0,0,1-.5.579h-1.491a.546.546,0,0,1-.5-.579v-7.008a.546.546,0,0,1,.5-.58h1.491a.546.546,0,0,1,.5.58" transform="translate(-94.252 -356.266)" fill="#747f81" fill-rule="evenodd"/>
          <path id="Trazado_883149" data-name="Trazado 883149" d="M140.9,535.6V521.555a.838.838,0,0,1,.087-.37h-.209a.914.914,0,0,0-.934.884v14.046a.914.914,0,0,0,.934.883h2.836a.944.944,0,0,0,.841-.5l.006-.012h-2.627a.914.914,0,0,1-.934-.884" transform="translate(-91.115 -349.311)" fill="#273335" fill-rule="evenodd"/>
          <path id="Trazado_883150" data-name="Trazado 883150" d="M147.155,524.557v-1.3a.451.451,0,0,0-.461-.437h-1.572a.451.451,0,0,0-.462.437v1.3a.451.451,0,0,0,.462.436h1.572a.45.45,0,0,0,.461-.436" transform="translate(-94.252 -350.408)" fill="#747f81" fill-rule="evenodd"/>
          <path id="Trazado_883151" data-name="Trazado 883151" d="M148.639,524.789V524.2a.2.2,0,0,0-.208-.2h-.709a.2.2,0,0,0-.208.2v.586a.2.2,0,0,0,.208.2h.709a.2.2,0,0,0,.208-.2" transform="translate(-96.111 -351.202)" fill="#919898" fill-rule="evenodd"/>
          <path id="Trazado_883152" data-name="Trazado 883152" d="M148.639,535.23v-2.27a.221.221,0,0,0-.226-.213h-.673a.221.221,0,0,0-.227.213v2.27a.221.221,0,0,0,.227.214h.673a.221.221,0,0,0,.226-.214" transform="translate(-96.111 -357.06)" fill="#919898" fill-rule="evenodd"/>
          <path id="Trazado_883153" data-name="Trazado 883153" d="M148.639,542.612v-.586a.2.2,0,0,0-.208-.2h-.709a.2.2,0,0,0-.208.2v.586a.2.2,0,0,0,.208.2h.709a.2.2,0,0,0,.208-.2" transform="translate(-96.111 -363.147)" fill="#919898" fill-rule="evenodd"/>
          <path id="Trazado_883154" data-name="Trazado 883154" d="M37.672,477.1V471.19H33.066c-8.34,0-15.164-6.458-15.164-14.351V436.76H11.654v19.926a19.82,19.82,0,0,0,6.334,14.423A22.14,22.14,0,0,0,33.229,477.1Z" transform="translate(-7.593 -292.728)" fill="#d3d6d8" fill-rule="evenodd"/>
          <path id="Trazado_883155" data-name="Trazado 883155" d="M18.4,436.76H14.338v20.3c0,10.536,9.108,19.155,20.241,19.155h4.842v-3.84H34.095c-8.634,0-15.7-6.686-15.7-14.858Z" transform="translate(-9.342 -292.728)" fill="#eaecec" fill-rule="evenodd"/>
          <path id="Trazado_883156" data-name="Trazado 883156" d="M1.5,417.4H16.262a1.466,1.466,0,0,1,1.5,1.42v2.669a1.465,1.465,0,0,1-1.5,1.419H1.5A1.465,1.465,0,0,1,0,421.492v-2.669a1.466,1.466,0,0,1,1.5-1.42" transform="translate(0 -279.754)" fill="#273335" fill-rule="evenodd"/>
          <path id="Rectángulo_402842" data-name="Rectángulo 402842" d="M2.214,0H14.405a2.214,2.214,0,0,1,2.214,2.214v0a2.212,2.212,0,0,1-2.212,2.212H2.213A2.213,2.213,0,0,1,0,2.214v0A2.214,2.214,0,0,1,2.214,0Z" transform="translate(0.571 138.19)" fill="#455456"/>
          <path id="Trazado_883157" data-name="Trazado 883157" d="M12.629,420.564h7.405a.559.559,0,0,1,.613.475v1.412a.559.559,0,0,1-.613.474H12.629a.558.558,0,0,1-.613-.474v-1.412a.559.559,0,0,1,.613-.475" transform="translate(-7.829 -281.873)" fill="#747f81" fill-rule="evenodd"/>
          <path id="Trazado_883158" data-name="Trazado 883158" d="M16.873,422.661H2.031a.976.976,0,0,1-.391-.082v.2a.914.914,0,0,0,.934.883H17.415a.914.914,0,0,0,.934-.883v-2.684a.886.886,0,0,0-.53-.8l-.013-.005v2.486a.914.914,0,0,1-.934.884" transform="translate(-1.069 -281.019)" fill="#273335" fill-rule="evenodd"/>
          <path id="Trazado_883159" data-name="Trazado 883159" d="M5.111,420.564H3.739a.451.451,0,0,0-.462.437v1.488a.451.451,0,0,0,.462.436H5.111a.45.45,0,0,0,.461-.436V421a.451.451,0,0,0-.461-.437" transform="translate(-2.135 -281.873)" fill="#747f81" fill-rule="evenodd"/>
          <path id="Trazado_883160" data-name="Trazado 883160" d="M5.287,421.641H4.668a.2.2,0,0,0-.208.2v.671a.2.2,0,0,0,.208.2h.619a.2.2,0,0,0,.208-.2v-.671a.2.2,0,0,0-.208-.2" transform="translate(-2.906 -282.594)" fill="#919898" fill-rule="evenodd"/>
          <path id="Trazado_883161" data-name="Trazado 883161" d="M15.825,421.641h-2.4a.221.221,0,0,0-.226.214v.636a.221.221,0,0,0,.226.214h2.4a.221.221,0,0,0,.226-.214v-.636a.221.221,0,0,0-.226-.214" transform="translate(-8.601 -282.594)" fill="#919898" fill-rule="evenodd"/>
          <path id="Trazado_883162" data-name="Trazado 883162" d="M23.111,421.641h-.619a.2.2,0,0,0-.208.2v.671a.2.2,0,0,0,.208.2h.619a.2.2,0,0,0,.208-.2v-.671a.2.2,0,0,0-.208-.2" transform="translate(-14.519 -282.594)" fill="#919898" fill-rule="evenodd"/>
          <rect id="Rectángulo_402843" data-name="Rectángulo 402843" width="79.809" height="10.367" transform="translate(62.721 3.264)" fill="#b3b8ba"/>
          <path id="Trazado_883163" data-name="Trazado 883163" d="M191.8,11.783h69.69a1.415,1.415,0,0,1,1.449,1.371v6.38a1.415,1.415,0,0,1-1.449,1.371H191.8a1.415,1.415,0,0,1-1.449-1.371v-6.38a1.415,1.415,0,0,1,1.449-1.371" transform="translate(-124.025 -7.897)" fill="#d3d6d8" fill-rule="evenodd"/>
          <path id="Trazado_883164" data-name="Trazado 883164" d="M193.325,26.586h69.8a.542.542,0,0,1,.555.524v2.44a.542.542,0,0,1-.555.524h-69.8a.542.542,0,0,1-.554-.524V27.11a.542.542,0,0,1,.554-.524" transform="translate(-125.598 -17.819)" fill="#b3b8ba" fill-rule="evenodd"/>
          <path id="Trazado_883165" data-name="Trazado 883165" d="M194.466,14.484h67.515a1.657,1.657,0,0,1,1.7,1.6h0a1.657,1.657,0,0,1-1.7,1.6H194.466a1.656,1.656,0,0,1-1.695-1.6h0a1.656,1.656,0,0,1,1.695-1.6" transform="translate(-125.598 -9.708)" fill="#eaecec" fill-rule="evenodd"/>
          <path id="Trazado_883166" data-name="Trazado 883166" d="M198.508,15.675h27.914a.6.6,0,1,1,0,1.2H198.508a.6.6,0,1,1,0-1.2" transform="translate(-128.924 -10.506)" fill="#fff" fill-rule="evenodd"/>
          <path id="Trazado_883167" data-name="Trazado 883167" d="M289.6,15.675h-4.1a.6.6,0,1,0,0,1.2h4.1a.6.6,0,1,0,0-1.2" transform="translate(-185.602 -10.506)" fill="#fff" fill-rule="evenodd"/>
          <path id="Trazado_883168" data-name="Trazado 883168" d="M400.677,15.519V1.549a1.465,1.465,0,0,1,1.5-1.42H405a1.466,1.466,0,0,1,1.5,1.42v13.97a1.466,1.466,0,0,1-1.5,1.42h-2.82a1.465,1.465,0,0,1-1.5-1.42" transform="translate(-261.057 -0.086)" fill="#273335" fill-rule="evenodd"/>
          <path id="Rectángulo_402844" data-name="Rectángulo 402844" d="M2.34,0h0A2.338,2.338,0,0,1,4.677,2.338V13.389a2.339,2.339,0,0,1-2.339,2.339h0A2.338,2.338,0,0,1,0,13.39V2.34A2.34,2.34,0,0,1,2.34,0Z" transform="translate(140.191 0.583)" fill="#455456"/>
          <path id="Trazado_883169" data-name="Trazado 883169" d="M403.837,21.905V14.9a.547.547,0,0,1,.5-.58h1.491a.547.547,0,0,1,.5.58v7.008a.546.546,0,0,1-.5.58h-1.491a.547.547,0,0,1-.5-.58" transform="translate(-263.116 -9.596)" fill="#747f81" fill-rule="evenodd"/>
          <path id="Trazado_883170" data-name="Trazado 883170" d="M406.125,2.908V16.953a.843.843,0,0,1-.087.37h.209a.914.914,0,0,0,.934-.884V2.394a.914.914,0,0,0-.934-.884h-2.836a.942.942,0,0,0-.841.5l-.006.012h2.627a.914.914,0,0,1,.934.883" transform="translate(-262.287 -1.012)" fill="#273335" fill-rule="evenodd"/>
          <path id="Trazado_883171" data-name="Trazado 883171" d="M403.837,41.675v1.3a.451.451,0,0,0,.461.437h1.572a.451.451,0,0,0,.462-.437v-1.3a.451.451,0,0,0-.462-.437H404.3a.451.451,0,0,0-.461.437" transform="translate(-263.116 -27.639)" fill="#747f81" fill-rule="evenodd"/>
          <path id="Trazado_883172" data-name="Trazado 883172" d="M404.915,43.867v.586a.2.2,0,0,0,.208.2h.709a.2.2,0,0,0,.208-.2v-.586a.2.2,0,0,0-.208-.2h-.709a.2.2,0,0,0-.208.2" transform="translate(-263.818 -29.269)" fill="#919898" fill-rule="evenodd"/>
          <path id="Trazado_883173" data-name="Trazado 883173" d="M404.915,29.935V32.2a.221.221,0,0,0,.226.214h.672a.221.221,0,0,0,.227-.214v-2.27a.221.221,0,0,0-.227-.214h-.672a.221.221,0,0,0-.226.214" transform="translate(-263.818 -19.92)" fill="#919898" fill-rule="evenodd"/>
          <path id="Trazado_883174" data-name="Trazado 883174" d="M404.915,26.044v.586a.2.2,0,0,0,.208.2h.709a.2.2,0,0,0,.208-.2v-.586a.2.2,0,0,0-.208-.2h-.709a.2.2,0,0,0-.208.2" transform="translate(-263.818 -17.323)" fill="#919898" fill-rule="evenodd"/>
          <path id="Trazado_883175" data-name="Trazado 883175" d="M171.642,15.519V1.549a1.466,1.466,0,0,1,1.5-1.42h2.82a1.466,1.466,0,0,1,1.5,1.42v13.97a1.466,1.466,0,0,1-1.5,1.42h-2.82a1.466,1.466,0,0,1-1.5-1.42" transform="translate(-111.832 -0.086)" fill="#273335" fill-rule="evenodd"/>
          <path id="Rectángulo_402845" data-name="Rectángulo 402845" d="M2.339,0h0A2.338,2.338,0,0,1,4.678,2.338V13.39a2.338,2.338,0,0,1-2.338,2.338h0A2.338,2.338,0,0,1,0,13.39V2.339A2.339,2.339,0,0,1,2.339,0Z" transform="translate(60.382 0.583)" fill="#455456"/>
          <path id="Trazado_883176" data-name="Trazado 883176" d="M174.8,21.905V14.9a.547.547,0,0,1,.5-.58H176.8a.547.547,0,0,1,.5.58v7.008a.547.547,0,0,1-.5.58H175.3a.547.547,0,0,1-.5-.58" transform="translate(-113.891 -9.596)" fill="#747f81" fill-rule="evenodd"/>
          <path id="Trazado_883177" data-name="Trazado 883177" d="M177.091,2.908V16.953a.833.833,0,0,1-.087.37h.209a.914.914,0,0,0,.934-.884V2.394a.914.914,0,0,0-.934-.884h-2.836a.944.944,0,0,0-.841.5l-.006.012h2.627a.914.914,0,0,1,.934.883" transform="translate(-113.062 -1.012)" fill="#273335" fill-rule="evenodd"/>
          <path id="Trazado_883178" data-name="Trazado 883178" d="M174.8,41.675v1.3a.451.451,0,0,0,.461.437h1.572a.451.451,0,0,0,.462-.437v-1.3a.451.451,0,0,0-.462-.437h-1.572a.45.45,0,0,0-.461.437" transform="translate(-113.891 -27.639)" fill="#747f81" fill-rule="evenodd"/>
          <path id="Trazado_883179" data-name="Trazado 883179" d="M175.879,43.867v.586a.2.2,0,0,0,.208.2h.709a.2.2,0,0,0,.208-.2v-.586a.2.2,0,0,0-.208-.2h-.709a.2.2,0,0,0-.208.2" transform="translate(-114.592 -29.269)" fill="#919898" fill-rule="evenodd"/>
          <path id="Trazado_883180" data-name="Trazado 883180" d="M175.879,29.935V32.2a.221.221,0,0,0,.227.214h.673A.221.221,0,0,0,177,32.2v-2.27a.221.221,0,0,0-.226-.214h-.673a.221.221,0,0,0-.227.214" transform="translate(-114.592 -19.92)" fill="#919898" fill-rule="evenodd"/>
          <path id="Trazado_883181" data-name="Trazado 883181" d="M175.879,26.044v.586a.2.2,0,0,0,.208.2h.709a.2.2,0,0,0,.208-.2v-.586a.2.2,0,0,0-.208-.2h-.709a.2.2,0,0,0-.208.2" transform="translate(-114.592 -17.323)" fill="#919898" fill-rule="evenodd"/>
          <path id="Trazado_883182" data-name="Trazado 883182" d="M39.06,56.03V30.808a10.359,10.359,0,0,1,3.317-7.533,11.565,11.565,0,0,1,7.96-3.139H73.919V9.768H50.337a22.812,22.812,0,0,0-15.705,6.176,20.433,20.433,0,0,0-6.526,14.863V56.03Z" transform="translate(-18.312 -6.547)" fill="#b3b8ba" fill-rule="evenodd"/>
          <path id="Trazado_883183" data-name="Trazado 883183" d="M28.106,57.254H39.06V30.807a10.36,10.36,0,0,1,3.317-7.534,11.566,11.566,0,0,1,7.96-3.139h.5V9.767h-.5a22.812,22.812,0,0,0-15.705,6.176,20.434,20.434,0,0,0-6.526,14.864Z" transform="translate(-18.312 -6.546)" fill="#b3b8ba" fill-rule="evenodd"/>
          <path id="Trazado_883184" data-name="Trazado 883184" d="M29.991,58.4l6.249-.057V31.918c0-7.893,6.824-14.351,15.164-14.351V11.654h.162a22.14,22.14,0,0,0-15.241,5.994,19.822,19.822,0,0,0-6.334,14.424Z" transform="translate(-19.54 -7.811)" fill="#d3d6d8" fill-rule="evenodd"/>
          <path id="Trazado_883185" data-name="Trazado 883185" d="M53.154,18.179v-3.84h-.237c-11.131,0-20.24,8.62-20.24,19.155V59.6h4.057V33.036c0-8.171,7.065-14.857,15.7-14.857Z" transform="translate(-21.29 -9.61)" fill="#eaecec" fill-rule="evenodd"/>
          <path id="Trazado_883186" data-name="Trazado 883186" d="M34.831,143.785H20.07a1.466,1.466,0,0,1-1.5-1.42V139.7a1.466,1.466,0,0,1,1.5-1.42H34.831a1.466,1.466,0,0,1,1.5,1.42v2.669a1.466,1.466,0,0,1-1.5,1.42" transform="translate(-12.099 -92.676)" fill="#273335" fill-rule="evenodd"/>
          <path id="Rectángulo_402846" data-name="Rectángulo 402846" d="M2.214,0H14.4a2.214,2.214,0,0,1,2.214,2.214v0a2.213,2.213,0,0,1-2.213,2.213H2.213A2.213,2.213,0,0,1,0,2.214v0A2.214,2.214,0,0,1,2.214,0Z" transform="translate(7.042 46.141)" fill="#455456"/>
          <path id="Trazado_883187" data-name="Trazado 883187" d="M40.775,147.02H33.37a.558.558,0,0,1-.612-.475v-1.411a.558.558,0,0,1,.612-.475h7.405a.558.558,0,0,1,.613.475v1.411a.559.559,0,0,1-.613.475" transform="translate(-21.343 -96.954)" fill="#747f81" fill-rule="evenodd"/>
          <path id="Trazado_883188" data-name="Trazado 883188" d="M21.427,140.844H36.269a.97.97,0,0,1,.391.082v-.2a.914.914,0,0,0-.934-.883H20.884a.914.914,0,0,0-.934.883v2.684a.886.886,0,0,0,.53.8l.013.006v-2.486a.914.914,0,0,1,.934-.884" transform="translate(-12.998 -93.728)" fill="#273335" fill-rule="evenodd"/>
          <path id="Trazado_883189" data-name="Trazado 883189" d="M60.14,147.02h1.373a.451.451,0,0,0,.462-.437V145.1a.451.451,0,0,0-.462-.437H60.14a.451.451,0,0,0-.461.437v1.487a.45.45,0,0,0,.461.437" transform="translate(-38.883 -96.954)" fill="#747f81" fill-rule="evenodd"/>
          <path id="Trazado_883190" data-name="Trazado 883190" d="M62.319,148.578h.619a.2.2,0,0,0,.208-.2v-.671a.2.2,0,0,0-.208-.2h-.619a.2.2,0,0,0-.208.2v.671a.2.2,0,0,0,.208.2" transform="translate(-40.468 -98.867)" fill="#919898" fill-rule="evenodd"/>
          <path id="Trazado_883191" data-name="Trazado 883191" d="M48.388,148.578h2.4a.221.221,0,0,0,.225-.214v-.637a.221.221,0,0,0-.225-.214h-2.4a.221.221,0,0,0-.226.214v.637a.221.221,0,0,0,.226.214" transform="translate(-31.379 -98.867)" fill="#919898" fill-rule="evenodd"/>
          <path id="Trazado_883192" data-name="Trazado 883192" d="M44.5,148.578h.619a.2.2,0,0,0,.208-.2v-.671a.2.2,0,0,0-.208-.2H44.5a.2.2,0,0,0-.208.2v.671a.2.2,0,0,0,.208.2" transform="translate(-28.855 -98.867)" fill="#919898" fill-rule="evenodd"/>
          <path id="Trazado_883193" data-name="Trazado 883193" d="M29.991,36.277H36.24V31.918c0-7.893,6.824-14.351,15.164-14.351H72.62V11.654H51.566a22.139,22.139,0,0,0-15.241,5.994,19.821,19.821,0,0,0-6.334,14.423Z" transform="translate(-19.54 -7.811)" fill="#d3d6d8" fill-rule="evenodd"/>
          <path id="Trazado_883194" data-name="Trazado 883194" d="M74.37,18.179v-3.84H52.917c-11.133,0-20.24,8.62-20.24,19.155v4.583h4.057v-5.04c0-8.171,7.065-14.857,15.7-14.857Z" transform="translate(-21.29 -9.61)" fill="#eaecec" fill-rule="evenodd"/>
          <path id="Trazado_883195" data-name="Trazado 883195" d="M160.8,1.42V15.39a1.466,1.466,0,0,1-1.5,1.42h-2.82a1.465,1.465,0,0,1-1.5-1.42V1.42a1.465,1.465,0,0,1,1.5-1.42h2.82a1.466,1.466,0,0,1,1.5,1.42" transform="translate(-100.976)" fill="#273335" fill-rule="evenodd"/>
          <path id="Rectángulo_402847" data-name="Rectángulo 402847" d="M2.34,0h0A2.338,2.338,0,0,1,4.678,2.338V13.389a2.339,2.339,0,0,1-2.339,2.339h0A2.339,2.339,0,0,1,0,13.389V2.34A2.34,2.34,0,0,1,2.34,0Z" transform="translate(54.576 0.54)" fill="#455456"/>
          <path id="Trazado_883196" data-name="Trazado 883196" d="M163.859,12.6V19.6a.547.547,0,0,1-.5.58h-1.492a.546.546,0,0,1-.5-.58V12.6a.546.546,0,0,1,.5-.58h1.492a.546.546,0,0,1,.5.58" transform="translate(-105.136 -8.053)" fill="#747f81" fill-rule="evenodd"/>
          <path id="Trazado_883197" data-name="Trazado 883197" d="M157.6,16.055V2.009a.842.842,0,0,1,.086-.37h-.208a.914.914,0,0,0-.934.884V16.569a.914.914,0,0,0,.934.884h2.836a.944.944,0,0,0,.841-.5l.006-.012h-2.626a.914.914,0,0,1-.934-.883" transform="translate(-101.998 -1.098)" fill="#273335" fill-rule="evenodd"/>
          <path id="Trazado_883198" data-name="Trazado 883198" d="M163.859,5.012v-1.3a.451.451,0,0,0-.461-.437h-1.572a.45.45,0,0,0-.461.437v1.3a.45.45,0,0,0,.461.437H163.4a.451.451,0,0,0,.461-.437" transform="translate(-105.136 -2.196)" fill="#747f81" fill-rule="evenodd"/>
          <path id="Trazado_883199" data-name="Trazado 883199" d="M165.342,5.243V4.657a.2.2,0,0,0-.209-.2h-.709a.2.2,0,0,0-.208.2v.586a.2.2,0,0,0,.208.2h.709a.2.2,0,0,0,.209-.2" transform="translate(-106.993 -2.989)" fill="#919898" fill-rule="evenodd"/>
          <path id="Trazado_883200" data-name="Trazado 883200" d="M165.342,15.684v-2.27a.222.222,0,0,0-.227-.214h-.672a.221.221,0,0,0-.227.214v2.27a.221.221,0,0,0,.227.214h.672a.222.222,0,0,0,.227-.214" transform="translate(-106.993 -8.847)" fill="#919898" fill-rule="evenodd"/>
          <path id="Trazado_883201" data-name="Trazado 883201" d="M165.342,23.067v-.586a.2.2,0,0,0-.209-.2h-.709a.2.2,0,0,0-.208.2v.586a.2.2,0,0,0,.208.2h.709a.2.2,0,0,0,.209-.2" transform="translate(-106.993 -14.935)" fill="#919898" fill-rule="evenodd"/>
          <rect id="Rectángulo_402848" data-name="Rectángulo 402848" width="10.954" height="75.53" transform="translate(185.175 52.597)" fill="#b3b8ba"/>
          <path id="Trazado_883202" data-name="Trazado 883202" d="M533.294,237.181V171.228a1.415,1.415,0,0,1,1.449-1.371h6.742a1.415,1.415,0,0,1,1.449,1.371v65.953a1.415,1.415,0,0,1-1.449,1.371h-6.742a1.415,1.415,0,0,1-1.449-1.371" transform="translate(-347.463 -113.842)" fill="#d3d6d8" fill-rule="evenodd"/>
          <path id="Trazado_883203" data-name="Trazado 883203" d="M548.1,238.849V172.795a.542.542,0,0,1,.554-.525h2.578a.542.542,0,0,1,.554.525v66.054a.542.542,0,0,1-.554.525h-2.578a.542.542,0,0,1-.554-.525" transform="translate(-357.107 -115.46)" fill="#b3b8ba" fill-rule="evenodd"/>
          <path id="Trazado_883204" data-name="Trazado 883204" d="M535.995,237.769V173.874a1.657,1.657,0,0,1,1.694-1.6h0a1.657,1.657,0,0,1,1.694,1.6v63.895a1.656,1.656,0,0,1-1.694,1.6h0a1.656,1.656,0,0,1-1.694-1.6" transform="translate(-349.222 -115.46)" fill="#eaecec" fill-rule="evenodd"/>
          <path id="Trazado_883205" data-name="Trazado 883205" d="M537.186,313.929V287.512a.633.633,0,0,1,1.263,0v26.417a.633.633,0,0,1-1.263,0" transform="translate(-349.998 -192.297)" fill="#fff" fill-rule="evenodd"/>
          <path id="Trazado_883206" data-name="Trazado 883206" d="M537.186,268.867v3.879a.633.633,0,0,0,1.263,0v-3.879a.633.633,0,0,0-1.263,0" transform="translate(-349.998 -179.801)" fill="#fff" fill-rule="evenodd"/>
          <path id="Trazado_883207" data-name="Trazado 883207" d="M537.9,156.651H523.14a1.466,1.466,0,0,1-1.5-1.419v-2.669a1.466,1.466,0,0,1,1.5-1.42H537.9a1.466,1.466,0,0,1,1.5,1.42v2.669a1.466,1.466,0,0,1-1.5,1.419" transform="translate(-339.869 -101.3)" fill="#273335" fill-rule="evenodd"/>
          <path id="Rectángulo_402849" data-name="Rectángulo 402849" d="M2.214,0H14.407a2.212,2.212,0,0,1,2.212,2.212v0a2.213,2.213,0,0,1-2.213,2.213H2.212A2.212,2.212,0,0,1,0,2.214v0A2.214,2.214,0,0,1,2.214,0Z" transform="translate(182.342 50.384)" fill="#455456"/>
          <path id="Trazado_883208" data-name="Trazado 883208" d="M543.846,159.887h-7.405a.559.559,0,0,1-.613-.475V158a.559.559,0,0,1,.613-.475h7.405a.559.559,0,0,1,.613.475v1.412a.559.559,0,0,1-.613.475" transform="translate(-349.114 -105.578)" fill="#747f81" fill-rule="evenodd"/>
          <path id="Trazado_883209" data-name="Trazado 883209" d="M524.5,153.71h14.842a.977.977,0,0,1,.391.082v-.2a.914.914,0,0,0-.934-.883H523.955a.914.914,0,0,0-.934.883v2.684a.885.885,0,0,0,.53.8l.013.006v-2.486a.914.914,0,0,1,.934-.884" transform="translate(-340.769 -102.351)" fill="#273335" fill-rule="evenodd"/>
          <path id="Trazado_883210" data-name="Trazado 883210" d="M563.21,159.887h1.372a.451.451,0,0,0,.462-.437v-1.488a.451.451,0,0,0-.462-.437H563.21a.451.451,0,0,0-.461.437v1.488a.451.451,0,0,0,.461.437" transform="translate(-366.654 -105.578)" fill="#747f81" fill-rule="evenodd"/>
          <path id="Trazado_883211" data-name="Trazado 883211" d="M565.389,161.443h.619a.2.2,0,0,0,.208-.2v-.671a.2.2,0,0,0-.208-.2h-.619a.2.2,0,0,0-.208.2v.671a.2.2,0,0,0,.208.2" transform="translate(-368.238 -107.489)" fill="#919898" fill-rule="evenodd"/>
          <path id="Trazado_883212" data-name="Trazado 883212" d="M551.458,161.443h2.4a.221.221,0,0,0,.226-.214v-.636a.221.221,0,0,0-.226-.215h-2.4a.221.221,0,0,0-.226.215v.636a.221.221,0,0,0,.226.214" transform="translate(-359.15 -107.489)" fill="#919898" fill-rule="evenodd"/>
          <path id="Trazado_883213" data-name="Trazado 883213" d="M547.566,161.443h.619a.2.2,0,0,0,.208-.2v-.671a.2.2,0,0,0-.208-.2h-.619a.2.2,0,0,0-.208.2v.671a.2.2,0,0,0,.208.2" transform="translate(-356.626 -107.489)" fill="#919898" fill-rule="evenodd"/>
          <path id="Trazado_883214" data-name="Trazado 883214" d="M537.9,385.686H523.14a1.466,1.466,0,0,1-1.5-1.42V381.6a1.465,1.465,0,0,1,1.5-1.419H537.9a1.465,1.465,0,0,1,1.5,1.419v2.67a1.466,1.466,0,0,1-1.5,1.42" transform="translate(-339.869 -254.804)" fill="#273335" fill-rule="evenodd"/>
          <path id="Rectángulo_402850" data-name="Rectángulo 402850" d="M2.214,0H14.406a2.213,2.213,0,0,1,2.213,2.213v0a2.213,2.213,0,0,1-2.213,2.213H2.213A2.213,2.213,0,0,1,0,2.214v0A2.214,2.214,0,0,1,2.214,0Z" transform="translate(182.342 125.914)" fill="#455456"/>
          <path id="Trazado_883215" data-name="Trazado 883215" d="M543.846,388.921h-7.405a.559.559,0,0,1-.613-.475v-1.412a.559.559,0,0,1,.613-.475h7.405a.559.559,0,0,1,.613.475v1.412a.559.559,0,0,1-.613.475" transform="translate(-349.114 -259.082)" fill="#747f81" fill-rule="evenodd"/>
          <path id="Trazado_883216" data-name="Trazado 883216" d="M524.5,382.744h14.842a.965.965,0,0,1,.391.082v-.2a.914.914,0,0,0-.934-.884H523.955a.914.914,0,0,0-.934.884v2.684a.886.886,0,0,0,.53.8l.013.005v-2.486a.914.914,0,0,1,.934-.884" transform="translate(-340.769 -255.855)" fill="#273335" fill-rule="evenodd"/>
          <path id="Trazado_883217" data-name="Trazado 883217" d="M563.21,388.921h1.372a.451.451,0,0,0,.462-.437V387a.451.451,0,0,0-.462-.437H563.21a.451.451,0,0,0-.461.437v1.488a.45.45,0,0,0,.461.437" transform="translate(-366.654 -259.082)" fill="#747f81" fill-rule="evenodd"/>
          <path id="Trazado_883218" data-name="Trazado 883218" d="M565.389,390.48h.619a.2.2,0,0,0,.208-.2v-.671a.2.2,0,0,0-.208-.2h-.619a.2.2,0,0,0-.208.2v.671a.2.2,0,0,0,.208.2" transform="translate(-368.238 -260.996)" fill="#919898" fill-rule="evenodd"/>
          <path id="Trazado_883219" data-name="Trazado 883219" d="M551.458,390.48h2.4a.221.221,0,0,0,.226-.214v-.637a.221.221,0,0,0-.226-.214h-2.4a.221.221,0,0,0-.226.214v.637a.221.221,0,0,0,.226.214" transform="translate(-359.15 -260.996)" fill="#919898" fill-rule="evenodd"/>
          <path id="Trazado_883220" data-name="Trazado 883220" d="M547.566,390.48h.619a.2.2,0,0,0,.208-.2v-.671a.2.2,0,0,0-.208-.2h-.619a.2.2,0,0,0-.208.2v.671a.2.2,0,0,0,.208.2" transform="translate(-356.626 -260.996)" fill="#919898" fill-rule="evenodd"/>
          <path id="Trazado_883221" data-name="Trazado 883221" d="M422.69,19.967h26.652a11.563,11.563,0,0,1,7.96,3.139,10.36,10.36,0,0,1,3.318,7.533V52.956h10.954V30.64a20.431,20.431,0,0,0-6.526-14.863A22.812,22.812,0,0,0,449.342,9.6H422.69Z" transform="translate(-275.4 -6.434)" fill="#b3b8ba" fill-rule="evenodd"/>
          <path id="Trazado_883222" data-name="Trazado 883222" d="M418.976,9.6V19.967h27.946a11.564,11.564,0,0,1,7.961,3.139A10.361,10.361,0,0,1,458.2,30.64v.469h10.954V30.64a20.432,20.432,0,0,0-6.526-14.863A22.814,22.814,0,0,0,446.922,9.6Z" transform="translate(-272.98 -6.434)" fill="#b3b8ba" fill-rule="evenodd"/>
          <path id="Trazado_883223" data-name="Trazado 883223" d="M419.342,11.486l.06,5.914h27.92c8.34,0,15.164,6.458,15.164,14.351h6.249V31.9A19.821,19.821,0,0,0,462.4,17.48a22.141,22.141,0,0,0-15.241-5.994Z" transform="translate(-273.218 -7.698)" fill="#d3d6d8" fill-rule="evenodd"/>
          <path id="Trazado_883224" data-name="Trazado 883224" d="M464.916,33.55h4.057v-.224c0-10.534-9.108-19.155-20.24-19.155H421.144v3.84h28.073c8.634,0,15.7,6.686,15.7,14.858Z" transform="translate(-274.392 -9.498)" fill="#eaecec" fill-rule="evenodd"/>
          <path id="Trazado_883225" data-name="Trazado 883225" d="M417.762,15.454V1.485a1.466,1.466,0,0,1,1.5-1.42h2.82a1.466,1.466,0,0,1,1.5,1.42v13.97a1.466,1.466,0,0,1-1.5,1.42h-2.82a1.466,1.466,0,0,1-1.5-1.42" transform="translate(-272.189 -0.044)" fill="#273335" fill-rule="evenodd"/>
          <path id="Rectángulo_402851" data-name="Rectángulo 402851" d="M2.339,0h0A2.339,2.339,0,0,1,4.678,2.339v11.05A2.338,2.338,0,0,1,2.34,15.728h0A2.338,2.338,0,0,1,0,13.389V2.339A2.339,2.339,0,0,1,2.339,0Z" transform="translate(146.144 0.562)" fill="#455456"/>
          <path id="Trazado_883226" data-name="Trazado 883226" d="M420.924,21.84V14.832a.546.546,0,0,1,.5-.579h1.491a.546.546,0,0,1,.5.579V21.84a.546.546,0,0,1-.5.58h-1.491a.546.546,0,0,1-.5-.58" transform="translate(-274.249 -9.553)" fill="#747f81" fill-rule="evenodd"/>
          <path id="Trazado_883227" data-name="Trazado 883227" d="M423.21,2.843V16.889a.837.837,0,0,1-.087.37h.209a.914.914,0,0,0,.934-.884V2.328a.914.914,0,0,0-.934-.883H420.5a.944.944,0,0,0-.841.5l-.006.012h2.627a.914.914,0,0,1,.934.884" transform="translate(-273.418 -0.968)" fill="#273335" fill-rule="evenodd"/>
          <path id="Trazado_883228" data-name="Trazado 883228" d="M420.924,41.609v1.3a.451.451,0,0,0,.461.437h1.572a.451.451,0,0,0,.462-.437v-1.3a.451.451,0,0,0-.462-.436h-1.572a.45.45,0,0,0-.461.436" transform="translate(-274.249 -27.595)" fill="#747f81" fill-rule="evenodd"/>
          <path id="Trazado_883229" data-name="Trazado 883229" d="M422,43.8v.586a.2.2,0,0,0,.208.2h.709a.2.2,0,0,0,.208-.2V43.8a.2.2,0,0,0-.208-.2h-.709a.2.2,0,0,0-.208.2" transform="translate(-274.949 -29.225)" fill="#919898" fill-rule="evenodd"/>
          <path id="Trazado_883230" data-name="Trazado 883230" d="M422,29.871v2.27a.221.221,0,0,0,.226.213h.673a.221.221,0,0,0,.227-.213v-2.27a.221.221,0,0,0-.227-.214h-.673a.221.221,0,0,0-.226.214" transform="translate(-274.949 -19.877)" fill="#919898" fill-rule="evenodd"/>
          <path id="Trazado_883231" data-name="Trazado 883231" d="M422,25.979v.586a.2.2,0,0,0,.208.2h.709a.2.2,0,0,0,.208-.2v-.586a.2.2,0,0,0-.208-.2h-.709a.2.2,0,0,0-.208.2" transform="translate(-274.949 -17.28)" fill="#919898" fill-rule="evenodd"/>
          <path id="Trazado_883232" data-name="Trazado 883232" d="M486.422,11.486V17.4h4.606c8.34,0,15.164,6.458,15.164,14.351V51.829h6.249V31.9a19.82,19.82,0,0,0-6.334-14.423,22.14,22.14,0,0,0-15.241-5.994Z" transform="translate(-316.923 -7.698)" fill="#d3d6d8" fill-rule="evenodd"/>
          <path id="Trazado_883233" data-name="Trazado 883233" d="M507.447,53.63H511.5v-20.3c0-10.536-9.108-19.155-20.24-19.155h-4.843v3.84h5.326c8.634,0,15.7,6.686,15.7,14.858Z" transform="translate(-316.923 -9.498)" fill="#eaecec" fill-rule="evenodd"/>
          <path id="Trazado_883234" data-name="Trazado 883234" d="M538.032,141.984H523.27a1.466,1.466,0,0,1-1.5-1.42V137.9a1.465,1.465,0,0,1,1.5-1.419h14.761a1.465,1.465,0,0,1,1.5,1.419v2.669a1.466,1.466,0,0,1-1.5,1.42" transform="translate(-339.954 -91.47)" fill="#273335" fill-rule="evenodd"/>
          <rect id="Rectángulo_402852" data-name="Rectángulo 402852" width="16.619" height="4.427" rx="2.213" transform="translate(182.387 45.547)" fill="#455456"/>
          <path id="Trazado_883235" data-name="Trazado 883235" d="M543.976,145.22h-7.405a.559.559,0,0,1-.613-.475v-1.412a.559.559,0,0,1,.613-.474h7.405a.558.558,0,0,1,.613.474v1.412a.558.558,0,0,1-.613.475" transform="translate(-349.198 -95.748)" fill="#747f81" fill-rule="evenodd"/>
          <path id="Trazado_883236" data-name="Trazado 883236" d="M524.628,139.043h14.842a.976.976,0,0,1,.391.082v-.2a.914.914,0,0,0-.934-.883H524.085a.914.914,0,0,0-.934.883v2.684a.886.886,0,0,0,.53.8l.013.005v-2.485a.914.914,0,0,1,.934-.884" transform="translate(-340.854 -92.521)" fill="#273335" fill-rule="evenodd"/>
          <path id="Trazado_883237" data-name="Trazado 883237" d="M563.34,145.22h1.372a.451.451,0,0,0,.462-.437V143.3a.451.451,0,0,0-.462-.436H563.34a.45.45,0,0,0-.461.436v1.488a.451.451,0,0,0,.461.437" transform="translate(-366.738 -95.748)" fill="#747f81" fill-rule="evenodd"/>
          <path id="Trazado_883238" data-name="Trazado 883238" d="M565.519,146.777h.619a.2.2,0,0,0,.208-.2v-.671a.2.2,0,0,0-.208-.2h-.619a.2.2,0,0,0-.208.2v.671a.2.2,0,0,0,.208.2" transform="translate(-368.323 -97.66)" fill="#919898" fill-rule="evenodd"/>
          <path id="Trazado_883239" data-name="Trazado 883239" d="M551.588,146.777h2.4a.221.221,0,0,0,.226-.214v-.636a.221.221,0,0,0-.226-.214h-2.4a.221.221,0,0,0-.226.214v.636a.221.221,0,0,0,.226.214" transform="translate(-359.235 -97.66)" fill="#919898" fill-rule="evenodd"/>
          <path id="Trazado_883240" data-name="Trazado 883240" d="M547.7,146.777h.619a.2.2,0,0,0,.208-.2v-.671a.2.2,0,0,0-.208-.2H547.7a.2.2,0,0,0-.208.2v.671a.2.2,0,0,0,.208.2" transform="translate(-356.71 -97.66)" fill="#919898" fill-rule="evenodd"/>
          <path id="Trazado_883241" data-name="Trazado 883241" d="M466.323,401.653v25.223a10.359,10.359,0,0,1-3.317,7.533,11.565,11.565,0,0,1-7.96,3.139H431.465v10.367h23.581a22.812,22.812,0,0,0,15.705-6.176,20.433,20.433,0,0,0,6.526-14.863V401.653Z" transform="translate(-281.117 -269.198)" fill="#b3b8ba" fill-rule="evenodd"/>
          <path id="Trazado_883242" data-name="Trazado 883242" d="M520.443,397.94H509.489v26.447a10.359,10.359,0,0,1-3.317,7.533,11.565,11.565,0,0,1-7.96,3.139h-.5v10.367h.5a22.812,22.812,0,0,0,15.705-6.176,20.434,20.434,0,0,0,6.526-14.864Z" transform="translate(-324.282 -266.709)" fill="#b3b8ba" fill-rule="evenodd"/>
          <path id="Trazado_883243" data-name="Trazado 883243" d="M520.713,398.306l-6.249.057v26.423c0,7.893-6.824,14.351-15.164,14.351v5.913h-.162a22.14,22.14,0,0,0,15.241-5.994,19.821,19.821,0,0,0,6.334-14.423Z" transform="translate(-325.208 -266.955)" fill="#d3d6d8" fill-rule="evenodd"/>
          <path id="Trazado_883244" data-name="Trazado 883244" d="M499.6,441.533v3.84h.237c11.131,0,20.24-8.62,20.24-19.155v-26.11h-4.057v26.567c0,8.171-7.065,14.857-15.7,14.857Z" transform="translate(-325.511 -268.163)" fill="#eaecec" fill-rule="evenodd"/>
          <path id="Trazado_883245" data-name="Trazado 883245" d="M523,396.725h14.761a1.466,1.466,0,0,1,1.5,1.42v2.669a1.466,1.466,0,0,1-1.5,1.42H523a1.466,1.466,0,0,1-1.5-1.42v-2.669a1.466,1.466,0,0,1,1.5-1.42" transform="translate(-339.779 -265.895)" fill="#273335" fill-rule="evenodd"/>
          <path id="Rectángulo_402853" data-name="Rectángulo 402853" d="M2.214,0H14.4a2.214,2.214,0,0,1,2.214,2.214v0a2.213,2.213,0,0,1-2.213,2.213H2.213A2.213,2.213,0,0,1,0,2.214v0A2.214,2.214,0,0,1,2.214,0Z" transform="translate(182.294 131.371)" fill="#455456"/>
          <path id="Trazado_883246" data-name="Trazado 883246" d="M534.131,399.888h7.405a.558.558,0,0,1,.612.475v1.411a.558.558,0,0,1-.612.475h-7.405a.558.558,0,0,1-.613-.475v-1.411a.559.559,0,0,1,.613-.475" transform="translate(-347.608 -268.015)" fill="#747f81" fill-rule="evenodd"/>
          <path id="Trazado_883247" data-name="Trazado 883247" d="M538.374,401.983H523.532a.97.97,0,0,1-.391-.082v.2a.914.914,0,0,0,.934.883h14.842a.914.914,0,0,0,.934-.883v-2.684a.886.886,0,0,0-.53-.8l-.013-.006V401.1a.914.914,0,0,1-.934.884" transform="translate(-340.847 -267.161)" fill="#273335" fill-rule="evenodd"/>
          <path id="Trazado_883248" data-name="Trazado 883248" d="M526.612,399.888H525.24a.451.451,0,0,0-.462.437v1.487a.451.451,0,0,0,.462.437h1.373a.451.451,0,0,0,.461-.437v-1.487a.45.45,0,0,0-.461-.437" transform="translate(-341.914 -268.015)" fill="#747f81" fill-rule="evenodd"/>
          <path id="Trazado_883249" data-name="Trazado 883249" d="M526.79,400.963h-.619a.2.2,0,0,0-.208.2v.671a.2.2,0,0,0,.208.2h.619a.2.2,0,0,0,.208-.2v-.671a.2.2,0,0,0-.208-.2" transform="translate(-342.686 -268.736)" fill="#919898" fill-rule="evenodd"/>
          <path id="Trazado_883250" data-name="Trazado 883250" d="M537.327,400.963h-2.4a.221.221,0,0,0-.225.214v.637a.221.221,0,0,0,.225.214h2.4a.221.221,0,0,0,.226-.214v-.637a.221.221,0,0,0-.226-.214" transform="translate(-348.381 -268.736)" fill="#919898" fill-rule="evenodd"/>
          <path id="Trazado_883251" data-name="Trazado 883251" d="M544.612,400.963h-.619a.2.2,0,0,0-.208.2v.671a.2.2,0,0,0,.208.2h.619a.2.2,0,0,0,.208-.2v-.671a.2.2,0,0,0-.208-.2" transform="translate(-354.298 -268.736)" fill="#919898" fill-rule="evenodd"/>
          <path id="Trazado_883252" data-name="Trazado 883252" d="M481.345,465.386H475.1v4.359c0,7.893-6.824,14.351-15.164,14.351H438.716v5.913h21.055a22.138,22.138,0,0,0,15.241-5.994,19.821,19.821,0,0,0,6.334-14.423Z" transform="translate(-285.841 -311.913)" fill="#d3d6d8" fill-rule="evenodd"/>
          <path id="Trazado_883253" data-name="Trazado 883253" d="M438.716,485.284v3.84h21.453c11.133,0,20.24-8.62,20.24-19.155v-4.583h-4.057v5.04c0,8.172-7.065,14.857-15.7,14.857Z" transform="translate(-285.841 -311.914)" fill="#eaecec" fill-rule="evenodd"/>
          <path id="Trazado_883254" data-name="Trazado 883254" d="M419.36,516.124v-13.97a1.466,1.466,0,0,1,1.5-1.42h2.82a1.465,1.465,0,0,1,1.5,1.42v13.97a1.465,1.465,0,0,1-1.5,1.42h-2.82a1.466,1.466,0,0,1-1.5-1.42" transform="translate(-273.23 -335.605)" fill="#273335" fill-rule="evenodd"/>
          <path id="Rectángulo_402854" data-name="Rectángulo 402854" d="M2.339,0h0A2.338,2.338,0,0,1,4.678,2.338V13.389a2.339,2.339,0,0,1-2.339,2.339h0A2.339,2.339,0,0,1,0,13.389V2.339A2.339,2.339,0,0,1,2.339,0Z" transform="translate(146.701 165.67)" fill="#455456"/>
          <path id="Trazado_883255" data-name="Trazado 883255" d="M422.521,522.51V515.5a.547.547,0,0,1,.5-.58h1.492a.546.546,0,0,1,.5.58v7.008a.546.546,0,0,1-.5.58h-1.492a.546.546,0,0,1-.5-.58" transform="translate(-275.289 -345.114)" fill="#747f81" fill-rule="evenodd"/>
          <path id="Trazado_883256" data-name="Trazado 883256" d="M424.808,503.513v14.046a.842.842,0,0,1-.086.37h.208a.914.914,0,0,0,.934-.884V503a.914.914,0,0,0-.934-.884h-2.836a.944.944,0,0,0-.841.5l-.006.012h2.626a.914.914,0,0,1,.934.883" transform="translate(-274.459 -336.53)" fill="#273335" fill-rule="evenodd"/>
          <path id="Trazado_883257" data-name="Trazado 883257" d="M422.521,542.28v1.3a.451.451,0,0,0,.461.437h1.572a.45.45,0,0,0,.461-.437v-1.3a.45.45,0,0,0-.461-.437h-1.572a.451.451,0,0,0-.461.437" transform="translate(-275.289 -363.157)" fill="#747f81" fill-rule="evenodd"/>
          <path id="Trazado_883258" data-name="Trazado 883258" d="M423.6,544.472v.586a.2.2,0,0,0,.208.2h.709a.2.2,0,0,0,.208-.2v-.586a.2.2,0,0,0-.208-.2h-.709a.2.2,0,0,0-.208.2" transform="translate(-275.991 -364.787)" fill="#919898" fill-rule="evenodd"/>
          <path id="Trazado_883259" data-name="Trazado 883259" d="M423.6,530.54v2.27a.221.221,0,0,0,.227.214h.673a.221.221,0,0,0,.226-.214v-2.27a.221.221,0,0,0-.226-.214h-.673a.221.221,0,0,0-.227.214" transform="translate(-275.991 -355.438)" fill="#919898" fill-rule="evenodd"/>
          <path id="Trazado_883260" data-name="Trazado 883260" d="M423.6,526.648v.586a.2.2,0,0,0,.208.2h.709a.2.2,0,0,0,.208-.2v-.586a.2.2,0,0,0-.208-.2h-.709a.2.2,0,0,0-.208.2" transform="translate(-275.991 -352.841)" fill="#919898" fill-rule="evenodd"/>
        </g>
      </g>
    </g>
    <g id="Grupo_1102884" data-name="Grupo 1102884" transform="translate(1193.03 6490.773)">
      <ellipse id="Elipse_11727" data-name="Elipse 11727" cx="32.921" cy="31.156" rx="32.921" ry="31.156" transform="translate(0 6.173)" fill="#57d3fb"/>
      <g id="Grupo_1102482" data-name="Grupo 1102482" transform="translate(2.472)">
        <g id="Grupo_1102481" data-name="Grupo 1102481" clip-path="url(#clip-path-2)">
          <path id="Trazado_883095" data-name="Trazado 883095" d="M79.919,144.157a1.761,1.761,0,0,1,1.31,1.061q7.841,15.7,15.691,31.394c1.038,2.08,1.971,4.206,3.028,6.277a1.117,1.117,0,0,1-.3,1.5,17.323,17.323,0,0,1-2.975,2.127,3.089,3.089,0,0,1-4.078-1.628c-2.444-5.176-4.9-10.345-7.293-15.543-3.3-7.176-6.545-14.377-9.822-21.564a1.924,1.924,0,0,1,.132-2.153l4.307-1.476" transform="translate(-44.926 -89.217)" fill="#fba457"/>
          <path id="Trazado_883096" data-name="Trazado 883096" d="M111.831,119.238a2.052,2.052,0,0,1,2.079.468c2.769,2.368,5.547,4.728,8.308,7.1q3.919,3.372,7.809,6.773,4.282,3.732,8.548,7.482c2.346,2.066,4.623,4.2,7.036,6.2,1.213,1,1.35,3.431-.011,4.36a34.146,34.146,0,0,1-3.112,1.826,1.109,1.109,0,0,1-1.354-.271q-10.343-9.5-20.706-18.989c-3.626-3.334-7.217-6.7-10.83-10.049a1.776,1.776,0,0,1-.635-1.594l2.868-3.308" transform="translate(-65.074 -73.727)" fill="#fba457"/>
          <path id="Trazado_883097" data-name="Trazado 883097" d="M26.934,29.939c1.105,0,1.649.756,2.186,1.487.727.992,1.391,2.027,2.134,3.007a2.576,2.576,0,0,0,.989.768c1.451.627,2.937,1.18,4.39,1.8a4.846,4.846,0,0,1,.929.689l-3.372,3.494-4.265-1.621c-.685.2-1.374.4-2.053.616A1.494,1.494,0,0,1,26,39.6c-1.139-1.53-2.34-3.019-3.53-4.515-.3-.375-.65-.712-.978-1.067a9.889,9.889,0,0,0-.531-.846C16.235,27.056,11.441,20.985,6.8,14.806A48.861,48.861,0,0,1,.586,3.876,9.019,9.019,0,0,1,0,1.4C-.033,1.034.339.636.526.255L.853.67a4.96,4.96,0,0,0,.441,1.5C1.946,3.121,2.723,4,3.461,4.894q7.1,8.631,14.213,17.258c1.875,2.28,3.731,4.575,5.605,6.856a2.409,2.409,0,0,0,2.765.787l.89.144M26.441,36.6a1.279,1.279,0,0,0,1.74-.212,1.321,1.321,0,0,0-.26-1.734,1.41,1.41,0,0,0-1.8.328,1.1,1.1,0,0,0,.325,1.618" transform="translate(0 -0.158)" fill="#9bb6b8"/>
          <path id="Trazado_883098" data-name="Trazado 883098" d="M70.7,100.691,74.074,97.2l.966-.792c.6.52,1.217,1.048,1.825,1.588,1.635,1.454,3.239,2.941,4.913,4.355.516.436.61.727.1,1.167a1.732,1.732,0,0,0-.246.351l-3,3.081c-.522.277-.757-.122-1.064-.391a39.524,39.524,0,0,0-3.161-2.7,3.352,3.352,0,0,0-4.117.021,3.211,3.211,0,0,0-1.533,3.836,29.438,29.438,0,0,0,1.684,3.7,1.067,1.067,0,0,1,.007,1.238,4.511,4.511,0,0,0-.706.154c-1.149.446-2.291.91-3.435,1.367l-1.076.384-4.1-8.666,1.127-.686,4.518-1.855c.626-.209,1.256-.41,1.877-.633a1.537,1.537,0,0,0,.614-.327c.5-.548.96-1.13,1.435-1.7" transform="translate(-36.513 -59.664)" fill="#af7142"/>
          <path id="Trazado_883099" data-name="Trazado 883099" d="M27.713,29.781l-.89-.145a8.832,8.832,0,0,1-.991-.861Q15.851,17.131,5.888,5.472,3.764,2.989,1.632.512L1.3.1a2.963,2.963,0,0,1,2.836.939C6.192,2.8,8.215,4.611,10.111,6.526c3.9,3.941,6.9,8.531,10.169,12.929,2.388,3.217,4.713,6.476,7.063,9.718.139.192.248.4.37.608" transform="translate(-0.779 0)" fill="#747474"/>
          <path id="Trazado_883100" data-name="Trazado 883100" d="M62.129,98.676l-4.518,1.855a11.566,11.566,0,0,1-.619-2.079c-.126-1.147-.062-2.311-.135-3.466a1.965,1.965,0,0,0-.365-1c-.99-1.327-2.055-2.606-3.016-3.951-.2-.287-.089-.779-.121-1.176.328.354.68.692.978,1.067,1.19,1.5,2.391,2.985,3.53,4.515a1.494,1.494,0,0,0,1.873.577c.679-.22,1.368-.412,2.053-.616a20.67,20.67,0,0,1,.373,2.107,21.49,21.49,0,0,1-.033,2.172" transform="translate(-31.866 -54.991)" fill="#747474"/>
          <path id="Trazado_883101" data-name="Trazado 883101" d="M74,140.551c1.144-.457,2.286-.921,3.435-1.367a4.557,4.557,0,0,1,.706-.154l1.054,1.954-4.307,1.476L74,140.551" transform="translate(-44.197 -86.043)" fill="#747473"/>
          <path id="Trazado_883102" data-name="Trazado 883102" d="M104.6,119.065l3-3.081,1.636,1.308-2.868,3.308-1.765-1.536" transform="translate(-62.477 -71.781)" fill="#9ab5b6"/>
          <path id="Trazado_883103" data-name="Trazado 883103" d="M2.119,1.345Q4.247,3.825,6.375,6.3q9.969,11.653,19.944,23.3a8.8,8.8,0,0,0,.991.861,2.409,2.409,0,0,1-2.765-.787c-1.874-2.281-3.729-4.576-5.605-6.856q-7.1-8.632-14.213-17.258C3.988,4.672,3.212,3.8,2.56,2.845a4.943,4.943,0,0,1-.441-1.5" transform="translate(-1.266 -0.832)" fill="#b3d2d6"/>
          <path id="Trazado_883104" data-name="Trazado 883104" d="M64.839,92.136a1.1,1.1,0,0,1-.325-1.618,1.41,1.41,0,0,1,1.8-.328,1.321,1.321,0,0,1,.26,1.734,1.279,1.279,0,0,1-1.74.212" transform="translate(-38.398 -55.696)" fill="#747575"/>
        </g>
      </g>
    </g>
    <g id="Grupo_1102902" data-name="Grupo 1102902" transform="translate(1191.231 6588.364)">
      <g id="Grupo_1102885" data-name="Grupo 1102885" transform="translate(1.799 19.782)">
        <ellipse id="Elipse_11727-2" data-name="Elipse 11727" cx="32.921" cy="31.156" rx="32.921" ry="31.156" fill="#57d3fb"/>
      </g>
      <g id="Grupo_1102901" data-name="Grupo 1102901">
        <g id="Grupo_1102900" data-name="Grupo 1102900" clip-path="url(#clip-path-3)">
          <rect id="Rectángulo_403012" data-name="Rectángulo 403012" width="93.46" height="6.719" transform="translate(4.762 73.11)" fill="#8799a7"/>
          <rect id="Rectángulo_403013" data-name="Rectángulo 403013" width="102.984" height="3.186" transform="translate(0 79.829)" fill="#1c334b"/>
          <rect id="Rectángulo_403014" data-name="Rectángulo 403014" width="93.46" height="1.5" transform="translate(4.762 83.015)" fill="#8799a7"/>
          <rect id="Rectángulo_403015" data-name="Rectángulo 403015" width="4.618" height="1.5" transform="translate(8.02 84.515)" fill="#1c334b"/>
          <rect id="Rectángulo_403016" data-name="Rectángulo 403016" width="4.617" height="1.5" transform="translate(90.347 84.515)" fill="#1c334b"/>
          <g id="Grupo_1102899" data-name="Grupo 1102899">
            <g id="Grupo_1102898" data-name="Grupo 1102898" clip-path="url(#clip-path-3)">
              <g id="Grupo_1102888" data-name="Grupo 1102888" transform="translate(4.762 73.11)" style="mix-blend-mode: soft-light;isolation: isolate">
                <g id="Grupo_1102887" data-name="Grupo 1102887">
                  <g id="Grupo_1102886" data-name="Grupo 1102886" clip-path="url(#clip-path-5)">
                    <path id="Trazado_884541" data-name="Trazado 884541" d="M6.446,109.915c31.259-4.817,79.048-3.842,93.46-3.41v-1.929H6.446Z" transform="translate(-6.446 -104.577)" fill="#fff"/>
                  </g>
                </g>
              </g>
              <path id="Trazado_884542" data-name="Trazado 884542" d="M106.6,117.374v-3.186H98.869c-21.108,1-60.285,2.752-85.027,3.186Z" transform="translate(-3.617 -34.359)" fill="#112438"/>
              <rect id="Rectángulo_403018" data-name="Rectángulo 403018" width="75.232" height="1.081" transform="translate(13.876 72.029)" fill="#748490"/>
              <rect id="Rectángulo_403019" data-name="Rectángulo 403019" width="97.736" height="3.983" transform="translate(2.624 68.046)" fill="#8799a7"/>
              <rect id="Rectángulo_403020" data-name="Rectángulo 403020" width="1.354" height="56.478" transform="translate(20.585 11.567)" fill="#1c334b"/>
              <path id="Trazado_884543" data-name="Trazado 884543" d="M33.773.5H16.815a1.349,1.349,0,0,0-1.384,1.311v8.6a1.349,1.349,0,0,0,1.384,1.31H33.773a1.349,1.349,0,0,0,1.385-1.31v-8.6A1.35,1.35,0,0,0,33.773.5" transform="translate(-4.032 -0.15)" fill="#8799a7"/>
              <path id="Trazado_884544" data-name="Trazado 884544" d="M33.642,11.917H16.685a1.711,1.711,0,0,1-1.754-1.66V1.66A1.711,1.711,0,0,1,16.685,0H33.642A1.711,1.711,0,0,1,35.4,1.66v8.6a1.711,1.711,0,0,1-1.754,1.66M16.685.7a.99.99,0,0,0-1.015.961v8.6a.99.99,0,0,0,1.015.961H33.642a.99.99,0,0,0,1.015-.961V1.66A.99.99,0,0,0,33.642.7Z" transform="translate(-3.901)" fill="#1c334b"/>
              <rect id="Rectángulo_403021" data-name="Rectángulo 403021" width="14.835" height="4.754" transform="translate(13.844 2.203)" fill="#2ecf8c"/>
              <path id="Trazado_884545" data-name="Trazado 884545" d="M33.7,8h-15.2V2.9H33.7Zm-14.836-.35H33.326v-4.4H18.861Z" transform="translate(-4.832 -0.873)" fill="#1c334b"/>
              <rect id="Rectángulo_403022" data-name="Rectángulo 403022" width="4.217" height="1.438" transform="translate(13.844 8.447)" fill="#f86e6e"/>
              <g id="Grupo_1102891" data-name="Grupo 1102891" transform="translate(20.805 2.203)" style="mix-blend-mode: soft-light;isolation: isolate">
                <g id="Grupo_1102890" data-name="Grupo 1102890">
                  <g id="Grupo_1102889" data-name="Grupo 1102889" clip-path="url(#clip-path-6)">
                    <path id="Trazado_884546" data-name="Trazado 884546" d="M29.98,7.905,35,3.152H33.188L28.164,7.905Z" transform="translate(-28.164 -3.151)" fill="#fff"/>
                  </g>
                </g>
              </g>
              <g id="Grupo_1102894" data-name="Grupo 1102894" transform="translate(14.957 2.203)" style="mix-blend-mode: soft-light;isolation: isolate">
                <g id="Grupo_1102893" data-name="Grupo 1102893">
                  <g id="Grupo_1102892" data-name="Grupo 1102892" clip-path="url(#clip-path-7)">
                    <path id="Trazado_884547" data-name="Trazado 884547" d="M20.247,7.905h4.005l5.024-4.754H25.271Z" transform="translate(-20.247 -3.151)" fill="#fff"/>
                  </g>
                </g>
              </g>
              <path id="Trazado_884548" data-name="Trazado 884548" d="M28.1,53.5a1.889,1.889,0,0,0-1.939,1.835V84.144h3.878V55.335A1.889,1.889,0,0,0,28.1,53.5" transform="translate(-6.834 -16.098)" fill="#1c334b"/>
              <g id="Grupo_1102897" data-name="Grupo 1102897" transform="translate(19.323 37.402)" style="mix-blend-mode: soft-light;isolation: isolate">
                <g id="Grupo_1102896" data-name="Grupo 1102896">
                  <g id="Grupo_1102895" data-name="Grupo 1102895" clip-path="url(#clip-path-8)">
                    <path id="Trazado_884549" data-name="Trazado 884549" d="M30.035,67.75V55.334a1.942,1.942,0,0,0-3.878,0V72.062a50.565,50.565,0,0,0,3.878-4.312" transform="translate(-26.157 -53.499)" fill="#fff"/>
                  </g>
                </g>
              </g>
            </g>
          </g>
        </g>
      </g>
    </g>
  </g>
</svg>
