<svg xmlns="http://www.w3.org/2000/svg" xmlns:xlink="http://www.w3.org/1999/xlink" width="1028.013" height="325" viewBox="0 0 1028.013 325">
  <defs>
    <linearGradient id="linear-gradient" x1="0.5" x2="0.5" y2="1" gradientUnits="objectBoundingBox">
      <stop offset="0" stop-color="#f6f6f6"/>
      <stop offset="1" stop-color="#fefefe"/>
    </linearGradient>
    <clipPath id="clip-path">
      <rect id="Rectángulo_402684" data-name="Rectángulo 402684" width="997.025" height="325" rx="23" transform="translate(0 24)" fill="url(#linear-gradient)"/>
    </clipPath>
    <clipPath id="clip-path-2">
      <rect id="Rectángulo_402686" data-name="Rectángulo 402686" width="22.675" height="58.045" fill="#575f19"/>
    </clipPath>
    <linearGradient id="linear-gradient-3" x1="0.181" y1="0.5" x2="1" y2="0.867" gradientUnits="objectBoundingBox">
      <stop offset="0" stop-color="#b1bf34"/>
      <stop offset="0.711" stop-color="#59611a"/>
      <stop offset="1" stop-color="#575f19"/>
    </linearGradient>
    <linearGradient id="linear-gradient-4" x1="0.181" y1="0.5" x2="1" y2="0.867" gradientUnits="objectBoundingBox">
      <stop offset="0" stop-color="#57d3fb"/>
      <stop offset="1" stop-color="#2b697d"/>
    </linearGradient>
  </defs>
  <g id="Grupo_1102991" data-name="Grupo 1102991" transform="translate(-285 -10407.845)">
    <g id="Enmascarar_grupo_1098955" data-name="Enmascarar grupo 1098955" transform="translate(304.038 10383.845)" opacity="0.72" clip-path="url(#clip-path)">
      <rect id="Rectángulo_402683" data-name="Rectángulo 402683" width="997.025" height="517" rx="23" transform="translate(0)" fill="url(#linear-gradient)"/>
      <path id="Trazado_882508" data-name="Trazado 882508" d="M28.869,276.584c4.175-8.018,8.7-14.781,9.619-20.343C40.6,243.294,42.28,139.731,29.925,120.9c-2.871-4.382-4.764-10.521-5.983-17.36-2.46,13.069-2.7,28.772-1.46,44.908,2.283,30.027-2.75,62.7,5.062,101.593a98.786,98.786,0,0,1,1.325,26.551ZM626.389,88.577c2.431,15.261,18.727,37.217,18.727,37.217s5.551,10.05,2.772,16.372c0,0,1.39,11.168-5.543,13.77s-19.77,5.212-31.225,1.119-24.959-4.093-32.224-4.466c-5.636-.281-7.1-.494-12.795.647-.957.19-4.827.669-5.331.905-3.636,1.666-5.983,2.3-9.683,4.534-5.309,3.218-12.426,8.338-16.254,13.26-6.918,9.3-12.816,22.7-12.816,22.7s-14.467,28.49-32.813,45.228c-18.323,16.736-21.542,27.563-29.332,34.455-7.812,6.892-13.32,12.3-13.32,12.3s-1.46,72.675-1.892,88.2c-.454,15.519-.241,6.831.411,17.68.368,6.078-.178,11.823.283,17.863.545,7.592-1.567,8.87,2.219,17,.5,1.065,1.021,2.13,1.545,3.2a113.231,113.231,0,0,0,6.529,11.952c1.439,2.3,7.074,10.575,7,12.9a6.441,6.441,0,0,1-.673,2.366c-5-.244-10.009-.57-15.014-.442-1.744.046-13.688.282-14.382-1.247-.021-.031-1.368-8.582-1.567-9.632-.411-2.221-.808-4.458-1.24-6.672l-.149-.692-.127-.677-7.287-12.37c-3.289-5.6.454-13.017.326-19.658-.128-6.6.567.921.695-5.713.085-6.011.2-12.035.2-18.045,0-18.875.609-22.131.609-22.131s-9.725,20.662-8.485,36.456c1.22,15.793,2.743,18.486,3.5,34.447.064,1.248-.284-1.726.127,3.766s5.267,12.119,8.223,19.97c.609,1.628,1.2,3.287,1.786,4.93-6.77,1.34-9.01,1.194-15.708.989a49.52,49.52,0,0,0-5.813.13c-4.834.411-7.032.251-9.513-4.739-1.5-3.02-1.389-6.429-1.46-9.753-3.828,5.142-1.829-2.755-5.288-6.063-1.764-1.7-2.417-.343-1.346-4.512,1.042-4.169,2.679-66.263,2.07-73.969s-2.913-14.774-4.225-20.982a209.714,209.714,0,0,1-3.176-21.766c-.411-4.633.652-8.026.851-12.622a214.613,214.613,0,0,0-.241-22.511c-2.02-7.121-4.72-16.471-11.03-20.45-11.405-6.84-20.082-4.96-32.224-2.351-73.224,15.748-137.282,24.215-197.881-18.966-5.7-4.062-3.827-3.857-7.854,2.473-12.27,19.361-13.624,13.572-20.5,35.2-3.594,11.351-6.833,23.706-10.165,35.284-1.347,4.64-2.46,9.22-3.636,13.907-.808,3.173-1.482,6.314-2.091,9.525,0,0-2,37.893-2.346,50.309-.326,12.416,4.245,22.253,7.662,31.45,2.134,5.729,4.742,11.138,6.9,16.95,3.374,9.121,4.827,10.149,10.143,17.627a10.39,10.39,0,0,1,2.049,7.866c-.78,3.675-7.705,2.731-10.335,2.5-2.417-.205-4.615-.449-7.032-.441-2.743.008-8.57.594-10.859-.86-1.588-1.027-3.332-3.91-4.551-5.485-.3-.4-.63-.783-.936-1.172-.432-.518-.872-1.042-1.3-1.56l-.433-.517s-9.158-2.96-9.619-8.369c-.482-5.417-10.377-115.8-13.582-120.718,0,0-7.33,45.28-7.79,67.434-.482,22.154-1.567,40.4,3.657,51.6,5.245,11.2,5.352,11.738,8.223,17.209,1.105,2.1,4.657,8.086.347,8.513-1.439.144-3.657.106-5.267.2a98.8,98.8,0,0,1-13.34.145l-.716-.053c-1.241-.092-7.4-.282-8.1-.594-1.063-.479-1.368-2-1.63-3.074-1.892-7.448,4.026-12.56-4.437-17.117-1.2-.64-2.4-1.065-3.587-1.727-2.155-1.194-2.091-4.047-3.261-6.383-2.913-5.782-2.112-2.876-1.977-9.707.042-2.13.042-4.268.106-6.4.829-29.244,1.22-46.574-.326-75.81-.525-10.179-1.524-25.9-4.48-35.5-.432-1.384-.78-2.746-1.084-4.093-2.566,7.912-5.436,14.492-7.379,22.785-.283,1.2-2.091,8.3-3.962,7.73-1.652-.51-2.984-4.861-3.2-6.6-.433-3.218-.368-6.6-.808-10.05-.2-1.369-.39-2.723-.609-4.085-.914-5.668-1.765-11.267-2.963-16.874C1.1,294.957-.23,286.482.033,277.094c.914-26.581,14.425-45.836,13.035-65.2s-6.521-101.25.766-139.585C16.556,57.9,22.1,50.386,28.046,46.514,34.837,41.325,48.894,33.1,70.435,32.432c31.636-.988,94.936-2.465,118.327-.988s222.443.578,232.515,1.073c10.094.494,56.878,4.427,63.3,4.922s41.737-7.38,41.737-7.38c-1.652-3.841-4.5-12.286-4.089-16.584.127-1.286.673-4.147,1.977-4.61,6.33-2.244,14.163-.51,19.911,2.785,0,0-2.112-1.621-1.807-11.647,0,0,8.748,11.974,14.773,11.974,6.046,0,8.747-5.181,24.129-4.853,6.182.145,13.645.372,19.692,1.552,1.694-.175,8.789-3.774,10.356-4.945,2.325-1.758,3.069-3.165,2.892,1.674-.177,4.428-1.694,12.492-5.026,15.254-.851.715-.609.251.39,2.1.524.944,1.042,1.879,1.567,2.815C626.17,15.7,639.149,10.4,657.118,13.3c1.212.205,6.8,1.369,6.961,2.837a39.03,39.03,0,0,1-1.056,7.364c-1.425,4.907-5.884,13.793-9.017,17.437a38.623,38.623,0,0,1-7.024,6.246,25.637,25.637,0,0,1-4.147,2.328c-.716.32-1.446.609-2.169.9a80.45,80.45,0,0,0-9.98,4.261c-2.006,1.087-2.2.806-2.609,2.86-2.147,9.753-3.182,21.073-1.687,31.039Z" transform="translate(-493.32 64.883)" fill="#e8e8e8" fill-rule="evenodd" opacity="0.21"/>
      <path id="Trazado_882507" data-name="Trazado 882507" d="M696.849,309.4a126.06,126.06,0,0,0-3.135-23.63,132.408,132.408,0,0,0-6.089-19.738,78.641,78.641,0,0,0-8.107-14.969,48.13,48.13,0,0,0-13.627-13.669,35.382,35.382,0,0,0-13.668-5.057c-1.33-.207-1.717-.634-1.508-1.916a23.807,23.807,0,0,0,.127-4.37c-.1-4.437-.357-8.878-.341-13.312.016-4.076-.164-8.162.159-12.229a1.432,1.432,0,0,1,.662-1.283c3.79-2.3,7.563-4.617,11.347-6.924,3.418-2.085,6.943-4.013,10.24-6.277,2.131-1.464,4.483-2.648,6.653-4.067a6.461,6.461,0,0,0,2.878-7.145,21.866,21.866,0,0,0-4.59-9.056c-3.009-3.909-6.43-3.61-10.213-2a61.5,61.5,0,0,0-7.346,4.168c-2.585,1.553-5.126,3.169-7.672,4.777-5.939,3.752-12.26,6.927-18.349,10.454-4.2,2.431-8.583,4.582-12.869,6.884-1.423.766-2.819,1.58-4.185,2.432a2.068,2.068,0,0,1-2.748-.124c-4.063-3.314-8.194-6.55-12.261-9.859-4.645-3.779-9.238-7.612-13.875-11.4a1.929,1.929,0,0,1-.71-2.647,52.059,52.059,0,0,0,5.527-21.9c.065-3.943-.155-7.847-.443-11.782a97.467,97.467,0,0,0-3.423-19.329,101.447,101.447,0,0,0-5.252-13.291,112.289,112.289,0,0,0-10.81-19.024A147.058,147.058,0,0,0,559.532,66.34a206.716,206.716,0,0,0-19.343-17.816c-5.206-4.26-10.7-8.2-16.172-12.168-6.211-4.506-12.669-8.658-19.112-12.837-3.9-2.532-8.041-4.7-12.07-7.033-5.879-3.408-11.9-6.581-18-9.586-4.684-2.312-9.381-4.836-14.787-5.453a18.357,18.357,0,0,1-2.08-.159q-.946.192-1.889.384c-4.228,1.876-5.863,5.059-5.244,9.584,1.824,13.349,5.908,26.27,9.489,39.287.285,1.036.591,2.069.878,3.107,1.837,6.653,4.373,13.126,6.4,19.732,1.711,5.575,3.861,11.037,5.844,16.536a85.226,85.226,0,0,0,3.883,9.708c1.091,2.156,1.617,4.545,2.527,6.787,1.915,4.708,3.666,9.469,5.865,14.082,1.6,3.351,2.86,6.837,4.547,10.147,2.5,4.91,5.128,9.771,7.93,14.554,1.733,2.955,3.534,5.869,5.494,8.681a86.961,86.961,0,0,0,21.712,21.446,90.014,90.014,0,0,0,19.568,10.215,83.924,83.924,0,0,0,16.375,4.3c5.7.815,11.412,1.043,16.968-.438a3.827,3.827,0,0,1,4.326,1.383A139.034,139.034,0,0,0,593.8,201.531a8.274,8.274,0,0,1,.761.8c1.2,1.366,1.174,1.492-.487,2.29-5.1,2.452-10.151,5-15.255,7.456-4.11,1.976-8.223,3.941-12.379,5.837-3.775,1.721-7.659,3.228-11.445,4.913-5.578,2.484-11.336,4.579-16.963,6.936-2.816,1.179-5.876,1.822-8.522,3.373-1.112.651-2.156.48-3.272-.6-4.465-4.322-9.1-8.491-13.619-12.768-2.528-2.393-4.958-4.876-7.409-7.338-1.2-1.212-.691-2.727-.717-4.086a63.141,63.141,0,0,0-1.218-12.968,147.366,147.366,0,0,0-5.746-19.295c-1.923-5.082-4.06-10.1-6.278-15.089-1.693-3.805-3.528-7.569-5.534-11.246-2.775-5.085-6.059-9.907-9.319-14.745a151.189,151.189,0,0,0-10.352-13.194c-2.746-3.233-5.822-6.229-8.842-9.25-3.986-3.988-8.219-7.743-12.587-11.363-5.386-4.463-10.926-8.761-16.695-12.769-5.684-3.949-11.649-7.51-17.647-11.032-6.921-4.065-13.969-7.917-21.018-11.761-6.857-3.74-13.783-7.378-20.832-10.8-5.507-2.67-11.073-5.207-16.773-7.447-4.094-1.609-8.216-3.265-12.693-3.637-4.5-.375-8.725,2.226-9.137,6.532a17.662,17.662,0,0,0,2.106,9.395c.954,2,1.613,4.118,2.433,6.173,2.038,5.105,4.409,10.092,6.48,15.191,1.1,2.707,2.127,5.455,3.347,8.121,2.319,5.065,4.4,10.215,6.694,15.282,1.657,3.65,3.392,7.276,5.085,10.916,2.67,5.739,5.376,11.487,8.5,17.027a171.6,171.6,0,0,0,10.61,17.046q4.971,6.821,10.448,13.312c3.543,4.214,7.224,8.308,11.128,12.226a166.531,166.531,0,0,0,16.784,14.8c4.467,3.415,9.172,6.568,13.979,9.568,6.619,4.132,13.259,8.228,20.231,11.809,6.544,3.364,13.238,6.481,20.418,8.287,6.551,1.649,13.238,2.761,19.956,1.145.26-.062.524-.113.783-.178,3.65-.929,3.576-.881,5.862,2.181,3.278,4.391,6.842,8.582,10.527,12.688a16.183,16.183,0,0,1,2.517,3.387c.755,1.489.548,2.115-1.078,2.621-2.387.741-4.845,1.309-7.192,2.138-4.4,1.555-9.006,2.571-13.387,4.114-4.116,1.449-8.439,2.26-12.52,3.706-5.716,2.025-11.745,3.088-17.511,4.9-4.424,1.387-8.99,2.285-13.408,3.618-3.573,1.077-7.187,1.942-10.829,2.77a3.074,3.074,0,0,1-2.685-.582c-5.117-3.567-10.312-7.031-15.43-10.6-5.421-3.777-10.78-7.633-16.176-11.444a1.36,1.36,0,0,1-.426-1.9A60.9,60.9,0,0,0,400.819,228a42.28,42.28,0,0,0,1.159-14.355,51.816,51.816,0,0,0-1.844-9.415,59.473,59.473,0,0,0-6.4-13.68c-1.78-2.927-3.53-5.867-5.385-8.755-2.244-3.5-4.745-6.835-7.147-10.235-2.11-2.984-4.292-5.915-6.64-8.734a141.539,141.539,0,0,0-12.831-13.477,146.957,146.957,0,0,0-12.8-10.466,127.454,127.454,0,0,0-17.665-10.691q-7.964-4.048-16.051-7.854c-3.1-1.47-6.284-2.8-9.432-4.181-3.334-1.467-6.664-2.942-10-4.393-6.452-2.8-12.953-5.51-19.355-8.414-6.509-2.951-13.111-5.691-19.767-8.292a65.211,65.211,0,0,0-13.726-4.177c-3.09-.473-6.221-.314-8.323,2.316a6.356,6.356,0,0,0-.971,5.633,111.962,111.962,0,0,0,4.8,15.414c1.453,3.792,2.444,7.736,4.173,11.41,2.205,4.683,3.1,9.76,5.564,14.344a18.406,18.406,0,0,1,.67,2.046c1.819,4.637,3.576,9.292,5.356,13.94,1.813,4.735,3.958,9.382,6.221,13.959a174.672,174.672,0,0,0,11.5,19.889,147.331,147.331,0,0,0,10.366,13.361,135.864,135.864,0,0,0,11.646,12.232,129.121,129.121,0,0,0,17.387,13.436,141.28,141.28,0,0,0,26.31,13.049,107.7,107.7,0,0,0,17.654,5.121,149.51,149.51,0,0,0,16.02,2.162c6.292.533,12.567.462,18.849.564a8.328,8.328,0,0,0,1.908-.278,2.564,2.564,0,0,1,2.135.487c5.388,3.877,10.764,7.772,16.165,11.633,1.426,1.021,2.964,1.9,4.373,2.941.428.314,1.309.444,1.178,1.113-.129.652-.953.538-1.5.643-4.209.807-8.426,1.582-12.639,2.369-2.055.383-4.1.814-6.166,1.148-5.652.917-11.335,1.749-17.024,2.379-4.42.488-8.8,1.447-13.244,1.5-4.376.052-8.583,1.184-12.987.989-2.186-.1-4.376.472-6.577.588-4.551.242-9.111.38-13.666.565a1.872,1.872,0,0,1-1.345-.424c-4.008-3.276-8.632-5.694-13.059-8.386-5.608-3.411-11.287-6.715-16.864-10.17-4.994-3.094-9.883-6.34-14.834-9.5a5.8,5.8,0,0,1-2.613-3.529c-.908-3.2-1.93-6.385-3.157-9.493-1.846-4.676-3.67-9.379-5.94-13.888a98.569,98.569,0,0,0-9.267-14.911c-2.727-3.632-5.447-7.255-8.468-10.68-2.264-2.566-4.739-4.946-7.235-7.308a114.248,114.248,0,0,0-10.557-8.663,138.8,138.8,0,0,0-17.275-10.925,158.424,158.424,0,0,0-20.155-8.922c-5.107-1.873-10.36-3.293-15.617-4.706-5.16-1.387-10.409-2.278-15.661-3.228a102.311,102.311,0,0,0-16.831-1.718c-5.389-.074-10.839.415-15.187,3.853a9.9,9.9,0,0,0-3.665,10.164,26.324,26.324,0,0,0,2.68,7.35c1.324,2.569,2.46,5.225,3.836,7.782,2.276,4.229,4.345,8.549,6.865,12.668,1.759,2.874,3.331,5.844,5.1,8.717a123.413,123.413,0,0,0,7.159,10.6c2.131,2.774,4.181,5.6,6.482,8.257a94.391,94.391,0,0,0,12.16,11.978,102.821,102.821,0,0,0,14.215,9.779,148.531,148.531,0,0,0,17.27,8.3c4.2,1.678,8.482,3.113,12.741,4.6a100.97,100.97,0,0,0,12.167,3.26c3.215.684,6.41,1.41,9.672,1.891q4.64.684,9.3,1.088a81.483,81.483,0,0,0,16.565-.391c2.544-.294,5.075-.742,7.638-.94a4.6,4.6,0,0,0,2.43-.706c1.136-.881,2.012-.432,2.979.231,5.843,4.006,11.881,7.73,18,11.338,3.178,1.872,6.282,3.86,9.4,5.82.383.241.913.368,1.145,1.056-1.982-.208-3.873.038-5.771-.029-5.58-.195-11.16-.332-16.74-.547q-6.205-.236-12.413-.537c-4.881-.235-9.754-.736-14.633-1.1-3.434-.256-6.875-.441-10.309-.723-5.093-.419-10.176-1.027-15.271-1.308-4.522-.249-9.012-.805-13.508-1.269-5.784-.6-11.593-.955-17.352-1.847-.531-.082-1.081-.042-1.615-.115-2.114-.292-4.291-.075-5.917-2.1-1.228-1.531-3.571-1.84-5.139-3.156q-5.493-4.6-11.091-9.087c-4.914-3.957-9.9-7.82-15.112-11.438-4.775-3.317-9.56-6.612-14.467-9.748a229.966,229.966,0,0,0-21.218-12.381c-4.5-2.24-9.169-4.2-13.9-6.007-4.775-1.824-9.583-3.569-14.516-4.926-4.151-1.142-8.308-2.258-12.574-3-3.606-.623-7.206-1.286-10.824-1.827-1.655-.249-3.33-.306-4.984-.418-4.076-.274-8.162-.311-12.248-.358a122.065,122.065,0,0,0-28.7,3.378c-3.959.9-7.948,1.794-11.765,3.079A72.288,72.288,0,0,0,7.63,216.832C3.874,219.1.8,221.923.645,226.567q.427,1.636.851,3.269a140.052,140.052,0,0,0,11.224,12.341c3.323,3.445,6.783,6.769,10.021,10.29,2.383,2.589,4.922,5.054,7.4,7.57,3.875,3.943,7.639,7.988,11.666,11.788,2.991,2.822,5.924,5.713,9.175,8.3C54.587,283,58.185,285.867,62,288.505a106.993,106.993,0,0,0,19.671,10.8,110.736,110.736,0,0,0,25.218,7.314,120.585,120.585,0,0,0,16.072,1.585,104.49,104.49,0,0,0,16.542-.776c1.735-.231,3.524-.181,5.272-.5a138.281,138.281,0,0,0,24.792-7.074,124.14,124.14,0,0,0,16.618-7.877c4.857-2.756,9.736-5.508,14.307-8.613,2.69-1.828,5.161-1.323,7.886-.947,3.2.443,6.391.947,9.589,1.4,4.259.6,8.517,1.225,12.784,1.757,3.2.4,6.423.676,9.636,1,2.784.283,5.558.686,8.34,1,1.927.214,3.858.236,5.783.452,5.4.6,10.821,1.107,16.24,1.357,4.079.19,8.158.478,12.248.55,5.417.1,10.839.544,16.258.809a19,19,0,0,1,3.475.254c-1.077.715-2.148,1.435-3.23,2.143-2.607,1.706-5.225,3.4-7.824,5.114-1.294.853-2.6,1.361-4.185.47a2.077,2.077,0,0,0-1.41-.205c-2.776.81-5.147-.674-7.655-1.323a105.338,105.338,0,0,0-13.421-2.83,99.2,99.2,0,0,0-18.667-.248,126.092,126.092,0,0,0-26.134,4.913,132.975,132.975,0,0,0-15.007,5.526,144.375,144.375,0,0,0-15.9,7.879,155.924,155.924,0,0,0-17.129,11.329,148.974,148.974,0,0,0-16.552,14.523c-2.428,2.48-4.6,5.167-6.8,7.827a87.574,87.574,0,0,0-7.53,10.486c-3.031,4.98-5.875,10.085-6.331,16.009-.4,5.261,2.84,9.289,7.853,10.956a25.06,25.06,0,0,0,8.62.987c5.747-.151,11.477-.424,17.212-.707,4.877-.242,9.748-.484,14.618-.818,6.854-.469,13.686-1.1,20.53-1.612,4.46-.332,8.824-1.168,13.259-1.458,6.594-.431,12.944-1.845,19.34-3.105a113.91,113.91,0,0,0,18.026-5.334,56.707,56.707,0,0,0,22.13-14.65,80.971,80.971,0,0,0,12.3-17.818,149.247,149.247,0,0,0,6.343-13.54c1.637-4.134,3.033-8.319,2.543-12.886-.2-1.884.376-3.118,2.414-4.1,5.462-2.642,10.684-5.7,16.067-8.489,1.714-.889,3.51-1.649,5.23-2.549,3.66-1.913,7.43-3.645,11.111-5.523a14.3,14.3,0,0,1,7.322-1.4c2.18.112,4.29-.192,6.436-.232,5.048-.1,10.08-.382,15.117-.672,3.056-.176,6.076-.682,9.131-.694,3.848-.015,7.573-.886,11.371-1,4.333-.13,8.5-1.236,12.774-1.357,4.65-.134,9.072-1.436,13.723-1.486a42.85,42.85,0,0,0,6.682-.979c6.286-1.076,12.524-2.433,18.86-3.212,8.766-1.075,17.227-3.3,25.871-4.822a2.2,2.2,0,0,1,.467.069c-1.776,3.094-3.527,6.14-5.274,9.188-.6,1.05-1.266,2.075-1.781,3.163a2.244,2.244,0,0,1-2.822,1.369c-4.518-1.12-9.027-.311-13.494-.135a63.5,63.5,0,0,0-14.995,2.743,106.986,106.986,0,0,0-11.46,3.795,111.1,111.1,0,0,0-13.061,6.467,161.022,161.022,0,0,0-13.871,9.481c-4.473,3.255-8.733,6.77-13,10.263-4.5,3.687-8.8,7.589-13,11.579-3.27,3.109-6.418,6.33-9.551,9.567-3.629,3.75-7.031,7.677-10.4,11.62-3.116,3.641-6.033,7.435-8.955,11.218-2.859,3.7-5.7,7.419-8.388,11.232q-3.287,4.663-6.389,9.449c-4.066,6.243-7.836,12.644-11.443,19.13a172.918,172.918,0,0,0-8.871,18.847,147.9,147.9,0,0,0-5.44,15.485,67.8,67.8,0,0,0-2.587,12.979,37.256,37.256,0,0,0,.016,8.423c.823,5.7,5.676,9.559,11.8,9.584,6.906.029,13.337-1.808,19.79-3.637,2.97-.843,5.986-1.553,8.988-2.307,2.8-.7,5.691-1.166,8.376-2.123,4.94-1.756,10.026-3.111,15.055-4.594,5.712-1.686,11.31-3.651,17.015-5.35,4.764-1.419,9.359-3.313,13.975-5.112a175.062,175.062,0,0,0,19.166-8.83,119.242,119.242,0,0,0,17.958-11.543,114.768,114.768,0,0,0,14.478-13.351,106.073,106.073,0,0,0,14.616-20.506c1.765-3.3,3.419-6.649,4.882-10.063a137.683,137.683,0,0,0,7.407-24.785c.783-4.927,2.28-9.665,3.413-14.5a152.382,152.382,0,0,0,2.827-15.385c.412-3.23.748-6.482.886-9.761.165-3.876.065-7.751-.046-11.619a36.606,36.606,0,0,0-1.167-7.222,4.492,4.492,0,0,1,.767-3.859q9.348-13.239,18.706-26.47a2.509,2.509,0,0,1,1.7-1c5.2-1.033,10.141-2.829,15.194-4.27,4.229-1.206,8.55-2.266,12.642-3.807,3.28-1.237,6.719-2,9.982-3.206,5.651-2.1,11.429-3.9,17.038-6.061,2.14-.826,4.519-1.251,6.423-2.6a.787.787,0,0,1,.9-.1c.406.267.255.655.135.97q-2.305,6.056-4.639,12.1c-1.027,2.669-2.105,5.319-3.063,8.01a2.109,2.109,0,0,1-1.661,1.392,52.168,52.168,0,0,0-19.444,10.226c-3.826,3.236-6.917,7.094-10.228,10.767-2.775,3.079-5.223,6.4-7.7,9.677-2.686,3.563-5.137,7.292-7.475,11.083a168.207,168.207,0,0,0-12.07,23.728,179.725,179.725,0,0,0-6.092,17.325c-1.823,6.062-3.443,12.175-4.8,18.345q-1.658,7.569-2.974,15.222c-.937,5.445-1.837,10.9-2.656,16.359-.557,3.727-.847,7.494-1.364,11.227-.689,4.976-.937,10.006-1.8,14.963-.483,2.765-.608,5.592-.958,8.384-.477,3.786-1.043,7.56-1.516,11.346-.355,2.841-.621,5.7-.935,8.543a61.219,61.219,0,0,0-.51,10.088c.222,3.947.6,8,3.851,11.071a8.977,8.977,0,0,0,8.809,2.213,23.542,23.542,0,0,0,8.2-4.487c3.162-2.406,6.26-4.89,9.339-7.389,4.161-3.374,8.275-6.8,12.415-10.194,3.466-2.841,6.988-5.625,10.4-8.521,3.495-2.962,7.1-5.806,10.509-8.862,3.6-3.22,7.211-6.422,10.788-9.662,2.969-2.689,5.664-5.613,8.424-8.481a117.448,117.448,0,0,0,13.878-17.933,151.3,151.3,0,0,0,9.143-16.53,146.1,146.1,0,0,0,6.264-14.872,113.806,113.806,0,0,0,4.723-15.546c.768-3.882,1.843-7.712,2.461-11.623.581-3.669.87-7.385,1.3-11.08.695-5.96.315-11.958.134-17.945-.06-1.963-.572-3.922-.762-5.89a58.289,58.289,0,0,0-2.417-11.952,88.808,88.808,0,0,0-8.17-18.909c-1.993-3.349-3.927-6.748-6.659-9.6-1.685-1.757-1.327-2.962-.395-4.815q4.273-8.5,8.743-16.911c2.259-4.276,4.47-8.589,7.105-12.677a5.2,5.2,0,0,1,2.432-2.023c5.3-2.314,10.6-4.625,15.751-7.2,5.38-2.691,10.835-5.26,16.165-8.028,5.055-2.626,10.059-5.347,15.038-8.1,2.924-1.614,5.889-3.181,8.833-4.775.872-.473,1.708-1,2.574-1.487.258-.145.569-.42.869-.152a.9.9,0,0,1,.188.7c-.738,6.142-.967,12.328-1.308,18.5-.088,1.585-1.512,1.8-2.49,2.195a50.161,50.161,0,0,0-23.705,20.046,51.918,51.918,0,0,0-4.648,10.163c-1.966,5.269-2.861,10.761-3.872,16.226a68.6,68.6,0,0,0-.756,8.714c-.349,6.286.137,12.589.3,18.883.045,1.811.5,3.621.7,5.438.552,4.989,1.594,9.92,2.376,14.879,2.264,14.358,6.3,28.386,9.815,42.513,3.522,14.147,7.608,28.176,11.361,42.275a66.418,66.418,0,0,0,5.393,14.08c2.039,3.848,4.915,7.14,9.717,8.255a11.388,11.388,0,0,0,4.651-.168,19.693,19.693,0,0,0,8.1-3.72,50.243,50.243,0,0,0,10.393-10.4,140.668,140.668,0,0,0,9.847-14.766q3.7-6.386,6.862-13c2.3-4.816,4.263-9.767,6.075-14.787,1.606-4.453,2.889-8.987,4.163-13.524.922-3.283,1.608-6.63,2.234-9.991.82-4.394,1.613-8.79,2.148-13.228.331-2.743.448-5.512.683-8.268a144.227,144.227,0,0,0,.323-18.565M524.49,115.8C513.665,99.666,502.9,83.831,493.806,66.626c15.8,12.526,28.515,27.809,39.632,43.985,10.905,16.3,20.261,33.526,25.616,52.118-12.786-15.056-23.536-30.911-34.565-46.925m-71.1,60.043c-14.385-15.2-27.3-31.062-42.15-45.748-19.354-19.9-40.134-37.986-61.2-56.508,38.959,18.555,71.787,48.14,95.935,82.164,8.126,11.442,14.187,23.294,24.934,32.634-6.636-2.88-12.427-7.553-17.516-12.542m-139.735-3.17c-19.263-17.585-37.888-35.655-54.2-55.818,22.085,14.534,42.032,31.317,61.483,48.718,19.28,17.572,37.9,35.642,54.2,55.818-22.1-14.517-42.046-31.3-61.484-48.718m-150.109,1.1c16.455,10.08,30.8,22.291,45.813,33.856,14.9,11.742,29.767,22.371,45.785,33.035-37.282-6.992-71.258-37.631-91.6-66.891M31.374,232.334c25.112,8.4,49.554,17.116,74.873,24.385,25.258,7.479,50.572,13.3,76.282,19.757-51.674,2.284-109.163-14.555-151.154-44.142m183.29,113.774c-18.247,6.955-36.405,13.58-55.786,17.945,28.722-20.834,72.21-37.8,108.609-42.231-16.86,9.75-34.677,17.113-52.823,24.286M382.58,393.334c-19.451,20.116-40.551,38.906-64.566,54.276,18.072-21.174,37.4-40.9,56.539-61.071,19.326-20.017,38.162-40.155,58.687-59.254-13.729,24.076-31.4,45.771-50.66,66.049m134.948-1.894c-9.433,24.59-20.462,48.618-35.187,70.8,6.894-25.387,15.987-49.8,25.123-74.377,9.376-24.5,18.687-48.827,30.351-72.52-3.51,26.166-11.094,51.42-20.287,76.1m128.39,10.914c-.658-17.637.157-42.29.265-60.047.264-17.823-.052-42.343,1.007-60.019a143.094,143.094,0,0,1,7.589,29.911c4.226,30.293,2.383,61.7-8.86,90.155" transform="translate(959.37 -127.742) rotate(78)" fill="#e8e8e8" opacity="0.13" style="mix-blend-mode: multiply;isolation: isolate"/>
    </g>
    <path id="Trazado_886075" data-name="Trazado 886075" d="M9.333-5.854H3.989v3.618h6.271V0H1.206V-13.508h9.036v2.254H3.989v3.219H9.333Zm7.821,3.08a.864.864,0,0,0-.487-.775A5.533,5.533,0,0,0,15.1-4.054Q11.522-4.806,11.522-7.1a2.758,2.758,0,0,1,1.109-2.231,4.472,4.472,0,0,1,2.9-.9,4.813,4.813,0,0,1,3.057.9,2.836,2.836,0,0,1,1.146,2.338H17.052a1.3,1.3,0,0,0-.371-.951,1.57,1.57,0,0,0-1.16-.376,1.6,1.6,0,0,0-1.048.306.966.966,0,0,0-.371.779.826.826,0,0,0,.422.719,4.342,4.342,0,0,0,1.424.473,11.632,11.632,0,0,1,1.688.45,2.774,2.774,0,0,1,2.125,2.7A2.618,2.618,0,0,1,18.583-.663,5.083,5.083,0,0,1,15.54.186a5.309,5.309,0,0,1-2.24-.45A3.759,3.759,0,0,1,11.764-1.5a2.867,2.867,0,0,1-.557-1.693h2.542A1.4,1.4,0,0,0,14.278-2.1a2.1,2.1,0,0,0,1.317.38,1.941,1.941,0,0,0,1.164-.292A.909.909,0,0,0,17.154-2.774ZM30.522-4.926a6.02,6.02,0,0,1-1.053,3.716,3.376,3.376,0,0,1-2.844,1.4A3.127,3.127,0,0,1,24.167-.872V3.859H21.486v-13.9h2.486l.093.983a3.151,3.151,0,0,1,2.542-1.169,3.4,3.4,0,0,1,2.885,1.373,6.183,6.183,0,0,1,1.03,3.785Zm-2.681-.195a3.951,3.951,0,0,0-.5-2.162A1.617,1.617,0,0,0,25.9-8.043a1.756,1.756,0,0,0-1.735.965v4.11a1.786,1.786,0,0,0,1.753.993Q27.841-1.976,27.841-5.121ZM36.8.186a4.928,4.928,0,0,1-3.595-1.354,4.815,4.815,0,0,1-1.387-3.609v-.26a6.064,6.064,0,0,1,.584-2.7,4.289,4.289,0,0,1,1.656-1.837,4.648,4.648,0,0,1,2.445-.645,4.166,4.166,0,0,1,3.242,1.3,5.278,5.278,0,0,1,1.183,3.683v1.095H34.54a2.491,2.491,0,0,0,.784,1.577,2.37,2.37,0,0,0,1.656.594A2.894,2.894,0,0,0,39.4-3.1l1.317,1.475A4.025,4.025,0,0,1,39.085-.292,5.357,5.357,0,0,1,36.8.186ZM36.5-8.062a1.675,1.675,0,0,0-1.294.54,2.8,2.8,0,0,0-.635,1.547H38.3v-.214a2,2,0,0,0-.482-1.384A1.729,1.729,0,0,0,36.5-8.062ZM46.628-1.976a1.759,1.759,0,0,0,1.206-.408,1.43,1.43,0,0,0,.482-1.085h2.514A3.439,3.439,0,0,1,50.274-1.6a3.673,3.673,0,0,1-1.5,1.317,4.689,4.689,0,0,1-2.1.469,4.358,4.358,0,0,1-3.4-1.368,5.415,5.415,0,0,1-1.243-3.781V-5.14a5.353,5.353,0,0,1,1.234-3.7,4.307,4.307,0,0,1,3.386-1.382,4.222,4.222,0,0,1,3.02,1.072A3.794,3.794,0,0,1,50.831-6.3H48.316a1.842,1.842,0,0,0-.482-1.273,1.608,1.608,0,0,0-1.225-.49,1.615,1.615,0,0,0-1.415.683,3.958,3.958,0,0,0-.478,2.216v.279a4.008,4.008,0,0,0,.473,2.23A1.635,1.635,0,0,0,46.628-1.976ZM55.191,0H52.5V-10.038h2.69ZM52.343-12.636a1.32,1.32,0,0,1,.4-.993,1.516,1.516,0,0,1,1.1-.39,1.52,1.52,0,0,1,1.095.39,1.313,1.313,0,0,1,.408.993,1.316,1.316,0,0,1-.413,1,1.523,1.523,0,0,1-1.09.39,1.523,1.523,0,0,1-1.09-.39A1.316,1.316,0,0,1,52.343-12.636ZM62.019.186a4.928,4.928,0,0,1-3.595-1.354,4.815,4.815,0,0,1-1.387-3.609v-.26a6.064,6.064,0,0,1,.584-2.7,4.289,4.289,0,0,1,1.656-1.837,4.648,4.648,0,0,1,2.445-.645,4.166,4.166,0,0,1,3.242,1.3,5.278,5.278,0,0,1,1.183,3.683v1.095H59.755a2.491,2.491,0,0,0,.784,1.577,2.37,2.37,0,0,0,1.656.594A2.894,2.894,0,0,0,64.617-3.1l1.317,1.475A4.025,4.025,0,0,1,64.3-.292,5.357,5.357,0,0,1,62.019.186Zm-.306-8.248a1.675,1.675,0,0,0-1.294.54,2.8,2.8,0,0,0-.635,1.547h3.729v-.214a2,2,0,0,0-.482-1.384A1.729,1.729,0,0,0,61.713-8.062ZM73.105-2.774a.864.864,0,0,0-.487-.775,5.533,5.533,0,0,0-1.563-.506Q67.474-4.806,67.474-7.1a2.758,2.758,0,0,1,1.109-2.231,4.472,4.472,0,0,1,2.9-.9,4.813,4.813,0,0,1,3.057.9,2.836,2.836,0,0,1,1.146,2.338H73a1.3,1.3,0,0,0-.371-.951,1.57,1.57,0,0,0-1.16-.376,1.6,1.6,0,0,0-1.048.306.966.966,0,0,0-.371.779.826.826,0,0,0,.422.719,4.342,4.342,0,0,0,1.424.473,11.632,11.632,0,0,1,1.688.45,2.774,2.774,0,0,1,2.125,2.7A2.618,2.618,0,0,1,74.534-.663a5.083,5.083,0,0,1-3.043.849,5.309,5.309,0,0,1-2.24-.45A3.759,3.759,0,0,1,67.715-1.5a2.867,2.867,0,0,1-.557-1.693H69.7A1.4,1.4,0,0,0,70.229-2.1a2.1,2.1,0,0,0,1.317.38,1.941,1.941,0,0,0,1.164-.292A.909.909,0,0,0,73.105-2.774ZM88.181-1.021A3.362,3.362,0,0,1,85.435.186a3.171,3.171,0,0,1-2.463-.928A3.96,3.96,0,0,1,82.1-3.46v-6.578h2.681v6.492q0,1.57,1.429,1.57a1.936,1.936,0,0,0,1.874-.947v-7.115h2.69V0H88.255Zm7.83-11.485v2.468h1.716v1.967H96.011v5.01a1.2,1.2,0,0,0,.213.8,1.072,1.072,0,0,0,.816.241,4.276,4.276,0,0,0,.789-.065V-.056a5.52,5.52,0,0,1-1.624.241A2.56,2.56,0,0,1,93.33-2.663V-8.071H91.864v-1.967H93.33v-2.468ZM102.051,0H99.36V-10.038h2.69ZM99.2-12.636a1.32,1.32,0,0,1,.4-.993,1.516,1.516,0,0,1,1.1-.39,1.52,1.52,0,0,1,1.095.39,1.313,1.313,0,0,1,.408.993,1.316,1.316,0,0,1-.413,1,1.523,1.523,0,0,1-1.09.39,1.523,1.523,0,0,1-1.09-.39A1.316,1.316,0,0,1,99.2-12.636ZM107.088,0H104.4V-14.25h2.69Zm5.038,0h-2.69V-10.038h2.69Zm-2.848-12.636a1.32,1.32,0,0,1,.4-.993,1.516,1.516,0,0,1,1.1-.39,1.52,1.52,0,0,1,1.095.39,1.313,1.313,0,0,1,.408.993,1.316,1.316,0,0,1-.413,1,1.523,1.523,0,0,1-1.09.39,1.523,1.523,0,0,1-1.09-.39A1.316,1.316,0,0,1,109.278-12.636Zm8.136,10.474h4.908V0h-8.331V-1.633l4.722-6.244H114.13v-2.162h8.043v1.58ZM129.818,0a2.977,2.977,0,0,1-.269-.9A3.244,3.244,0,0,1,127.016.186a3.564,3.564,0,0,1-2.445-.854A2.745,2.745,0,0,1,123.6-2.82a2.837,2.837,0,0,1,1.183-2.449,5.837,5.837,0,0,1,3.419-.863h1.234v-.575a1.654,1.654,0,0,0-.357-1.113,1.405,1.405,0,0,0-1.127-.417,1.6,1.6,0,0,0-1.062.325,1.1,1.1,0,0,0-.385.891h-2.681a2.693,2.693,0,0,1,.538-1.614A3.557,3.557,0,0,1,125.884-9.8a5.545,5.545,0,0,1,2.208-.422,4.381,4.381,0,0,1,2.946.932,3.262,3.262,0,0,1,1.09,2.621v4.351a4.8,4.8,0,0,0,.4,2.162V0ZM127.6-1.865a2.309,2.309,0,0,0,1.095-.264,1.737,1.737,0,0,0,.742-.71V-4.564h-1q-2.013,0-2.143,1.392l-.009.158a1.073,1.073,0,0,0,.353.826A1.369,1.369,0,0,0,127.6-1.865Zm6.169-3.229a6.049,6.049,0,0,1,1.053-3.739,3.417,3.417,0,0,1,2.881-1.392,3.074,3.074,0,0,1,2.421,1.095V-14.25h2.69V0h-2.421l-.13-1.067A3.155,3.155,0,0,1,137.685.186a3.407,3.407,0,0,1-2.844-1.4A6.244,6.244,0,0,1,133.77-5.093Zm2.681.2a3.963,3.963,0,0,0,.492,2.165,1.6,1.6,0,0,0,1.429.753,1.794,1.794,0,0,0,1.753-1.05V-6.994a1.768,1.768,0,0,0-1.735-1.05Q136.451-8.043,136.451-4.894ZM150.71,0a2.977,2.977,0,0,1-.269-.9A3.244,3.244,0,0,1,147.909.186a3.564,3.564,0,0,1-2.445-.854,2.745,2.745,0,0,1-.969-2.152,2.837,2.837,0,0,1,1.183-2.449,5.837,5.837,0,0,1,3.419-.863h1.234v-.575a1.654,1.654,0,0,0-.357-1.113,1.405,1.405,0,0,0-1.127-.417,1.6,1.6,0,0,0-1.062.325,1.1,1.1,0,0,0-.385.891h-2.681a2.693,2.693,0,0,1,.538-1.614A3.557,3.557,0,0,1,146.777-9.8a5.545,5.545,0,0,1,2.208-.422,4.381,4.381,0,0,1,2.946.932,3.262,3.262,0,0,1,1.09,2.621v4.351a4.8,4.8,0,0,0,.4,2.162V0Zm-2.217-1.865a2.309,2.309,0,0,0,1.095-.264,1.737,1.737,0,0,0,.742-.71V-4.564h-1q-2.013,0-2.143,1.392l-.009.158a1.073,1.073,0,0,0,.353.826A1.369,1.369,0,0,0,148.493-1.865Zm12.023-.909a.864.864,0,0,0-.487-.775,5.533,5.533,0,0,0-1.563-.506q-3.581-.751-3.581-3.043a2.758,2.758,0,0,1,1.109-2.231,4.472,4.472,0,0,1,2.9-.9,4.813,4.813,0,0,1,3.057.9A2.836,2.836,0,0,1,163.1-6.986h-2.681a1.3,1.3,0,0,0-.371-.951,1.57,1.57,0,0,0-1.16-.376,1.6,1.6,0,0,0-1.048.306.966.966,0,0,0-.371.779.826.826,0,0,0,.422.719,4.343,4.343,0,0,0,1.424.473,11.632,11.632,0,0,1,1.688.45,2.774,2.774,0,0,1,2.125,2.7,2.618,2.618,0,0,1-1.178,2.222A5.083,5.083,0,0,1,158.9.186a5.309,5.309,0,0,1-2.24-.45A3.759,3.759,0,0,1,155.126-1.5a2.867,2.867,0,0,1-.557-1.693h2.542a1.4,1.4,0,0,0,.529,1.095,2.1,2.1,0,0,0,1.317.38,1.941,1.941,0,0,0,1.164-.292A.909.909,0,0,0,160.517-2.774Zm18.1-2.152a6.02,6.02,0,0,1-1.053,3.716,3.376,3.376,0,0,1-2.844,1.4,3.127,3.127,0,0,1-2.458-1.058V3.859h-2.681v-13.9h2.486l.093.983a3.151,3.151,0,0,1,2.542-1.169,3.4,3.4,0,0,1,2.885,1.373,6.183,6.183,0,0,1,1.03,3.785Zm-2.681-.195a3.951,3.951,0,0,0-.5-2.162A1.617,1.617,0,0,0,174-8.043a1.756,1.756,0,0,0-1.735.965v4.11a1.786,1.786,0,0,0,1.753.993Q175.936-1.976,175.936-5.121ZM186.094,0a2.977,2.977,0,0,1-.269-.9A3.244,3.244,0,0,1,183.292.186a3.564,3.564,0,0,1-2.445-.854,2.745,2.745,0,0,1-.969-2.152,2.837,2.837,0,0,1,1.183-2.449,5.837,5.837,0,0,1,3.419-.863h1.234v-.575a1.654,1.654,0,0,0-.357-1.113,1.405,1.405,0,0,0-1.127-.417,1.6,1.6,0,0,0-1.062.325,1.1,1.1,0,0,0-.385.891H180.1a2.693,2.693,0,0,1,.538-1.614A3.557,3.557,0,0,1,182.161-9.8a5.545,5.545,0,0,1,2.208-.422,4.381,4.381,0,0,1,2.946.932A3.262,3.262,0,0,1,188.4-6.67v4.351a4.8,4.8,0,0,0,.4,2.162V0Zm-2.217-1.865a2.309,2.309,0,0,0,1.095-.264,1.737,1.737,0,0,0,.742-.71V-4.564h-1q-2.013,0-2.143,1.392l-.009.158a1.073,1.073,0,0,0,.353.826A1.369,1.369,0,0,0,183.877-1.865ZM196.1-7.524a7.284,7.284,0,0,0-.965-.074,1.964,1.964,0,0,0-1.995,1.03V0h-2.681V-10.038H193l.074,1.2a2.484,2.484,0,0,1,2.236-1.382,2.809,2.809,0,0,1,.835.121ZM202.933,0a2.977,2.977,0,0,1-.269-.9A3.244,3.244,0,0,1,200.131.186a3.564,3.564,0,0,1-2.445-.854,2.745,2.745,0,0,1-.969-2.152A2.837,2.837,0,0,1,197.9-5.27a5.837,5.837,0,0,1,3.419-.863h1.234v-.575a1.654,1.654,0,0,0-.357-1.113,1.405,1.405,0,0,0-1.127-.417,1.6,1.6,0,0,0-1.062.325,1.1,1.1,0,0,0-.385.891h-2.681a2.693,2.693,0,0,1,.538-1.614A3.557,3.557,0,0,1,199-9.8a5.545,5.545,0,0,1,2.208-.422,4.381,4.381,0,0,1,2.946.932,3.262,3.262,0,0,1,1.09,2.621v4.351a4.8,4.8,0,0,0,.4,2.162V0Zm-2.217-1.865a2.309,2.309,0,0,0,1.095-.264,1.737,1.737,0,0,0,.742-.71V-4.564h-1q-2.013,0-2.143,1.392l-.009.158a1.073,1.073,0,0,0,.353.826A1.369,1.369,0,0,0,200.715-1.865ZM214.65-8.943a3.346,3.346,0,0,1,2.681-1.28q3.266,0,3.312,3.794V0h-2.681V-6.355a1.865,1.865,0,0,0-.371-1.276,1.591,1.591,0,0,0-1.234-.413,1.825,1.825,0,0,0-1.707.909V0h-2.681V-14.25h2.681ZM227.286.186a4.928,4.928,0,0,1-3.595-1.354A4.815,4.815,0,0,1,222.3-4.778v-.26a6.064,6.064,0,0,1,.584-2.7,4.289,4.289,0,0,1,1.656-1.837,4.648,4.648,0,0,1,2.445-.645,4.166,4.166,0,0,1,3.242,1.3,5.278,5.278,0,0,1,1.183,3.683v1.095h-6.392a2.491,2.491,0,0,0,.784,1.577,2.37,2.37,0,0,0,1.656.594A2.894,2.894,0,0,0,229.883-3.1L231.2-1.624a4.025,4.025,0,0,1-1.633,1.331A5.357,5.357,0,0,1,227.286.186Zm-.306-8.248a1.675,1.675,0,0,0-1.294.54,2.8,2.8,0,0,0-.635,1.547h3.729v-.214a2,2,0,0,0-.482-1.384A1.729,1.729,0,0,0,226.979-8.062Zm8.424-1.976.083,1.16a3.5,3.5,0,0,1,2.885-1.345,2.913,2.913,0,0,1,2.375.937,4.372,4.372,0,0,1,.8,2.8V0h-2.681V-6.42a1.739,1.739,0,0,0-.371-1.239,1.661,1.661,0,0,0-1.234-.385,1.844,1.844,0,0,0-1.7.965V0H232.88V-10.038ZM246.406,0h-2.69V-10.038h2.69Zm-2.848-12.636a1.32,1.32,0,0,1,.4-.993,1.516,1.516,0,0,1,1.1-.39,1.52,1.52,0,0,1,1.095.39,1.313,1.313,0,0,1,.408.993,1.316,1.316,0,0,1-.413,1,1.523,1.523,0,0,1-1.09.39,1.523,1.523,0,0,1-1.09-.39A1.316,1.316,0,0,1,243.558-12.636ZM249.264,0V-8.071H247.77v-1.967h1.494V-10.5a3.764,3.764,0,0,1,1.164-2.918,4.684,4.684,0,0,1,3.233-1.025,10.724,10.724,0,0,1,3.043.547l-.39,2.217a11.873,11.873,0,0,0-1.41-.348,6.929,6.929,0,0,0-1.076-.079q-1.874,0-1.874,1.661v.408h1.976v1.967h-1.976V0Zm8.693,0h-2.69V-10.038h2.69Zm6.392-1.976a1.759,1.759,0,0,0,1.206-.408,1.43,1.43,0,0,0,.482-1.085h2.514a3.439,3.439,0,0,1-.557,1.869,3.673,3.673,0,0,1-1.5,1.317,4.689,4.689,0,0,1-2.1.469A4.358,4.358,0,0,1,261-1.183a5.415,5.415,0,0,1-1.243-3.781V-5.14a5.353,5.353,0,0,1,1.234-3.7,4.307,4.307,0,0,1,3.386-1.382,4.222,4.222,0,0,1,3.02,1.072A3.794,3.794,0,0,1,268.551-6.3h-2.514a1.842,1.842,0,0,0-.482-1.273,1.608,1.608,0,0,0-1.225-.49,1.615,1.615,0,0,0-1.415.683,3.958,3.958,0,0,0-.478,2.216v.279a4.008,4.008,0,0,0,.473,2.23A1.635,1.635,0,0,0,264.349-1.976ZM275.9,0a2.978,2.978,0,0,1-.269-.9A3.244,3.244,0,0,1,273.1.186a3.564,3.564,0,0,1-2.445-.854,2.745,2.745,0,0,1-.969-2.152,2.837,2.837,0,0,1,1.183-2.449,5.837,5.837,0,0,1,3.419-.863h1.234v-.575a1.654,1.654,0,0,0-.357-1.113,1.405,1.405,0,0,0-1.127-.417,1.6,1.6,0,0,0-1.062.325,1.1,1.1,0,0,0-.385.891h-2.681a2.693,2.693,0,0,1,.538-1.614A3.557,3.557,0,0,1,271.965-9.8a5.545,5.545,0,0,1,2.208-.422,4.381,4.381,0,0,1,2.946.932,3.262,3.262,0,0,1,1.09,2.621v4.351a4.8,4.8,0,0,0,.4,2.162V0Zm-2.217-1.865a2.309,2.309,0,0,0,1.095-.264,1.737,1.737,0,0,0,.742-.71V-4.564h-1q-2.013,0-2.143,1.392l-.009.158a1.073,1.073,0,0,0,.353.826A1.369,1.369,0,0,0,273.682-1.865Zm12.228-5.659a7.284,7.284,0,0,0-.965-.074,1.964,1.964,0,0,0-1.995,1.03V0h-2.681V-10.038H282.8l.074,1.2a2.484,2.484,0,0,1,2.236-1.382,2.809,2.809,0,0,1,.835.121Zm1.419,6.207a1.35,1.35,0,0,1,.431-1.039,1.531,1.531,0,0,1,1.081-.4,1.543,1.543,0,0,1,1.09.4,1.35,1.35,0,0,1,.431,1.039,1.331,1.331,0,0,1-.427,1.025A1.55,1.55,0,0,1,288.841.1a1.537,1.537,0,0,1-1.085-.394A1.331,1.331,0,0,1,287.329-1.317Zm0-7.6a1.35,1.35,0,0,1,.431-1.039,1.531,1.531,0,0,1,1.081-.4,1.543,1.543,0,0,1,1.09.4,1.35,1.35,0,0,1,.431,1.039,1.331,1.331,0,0,1-.427,1.025,1.55,1.55,0,0,1-1.095.394,1.537,1.537,0,0,1-1.085-.394A1.331,1.331,0,0,1,287.329-8.916Z" transform="translate(346.338 10456.959)" fill="#12263f"/>
    <g id="Grupo_1102250" data-name="Grupo 1102250" transform="translate(285 10628.959)">
      <path id="Trazado_882511" data-name="Trazado 882511" d="M11.453,184.717A5.791,5.791,0,0,0,8.1,182.724a7.305,7.305,0,0,0-4.365.374,5.623,5.623,0,0,0-2.253,1.734A3.644,3.644,0,0,0,0,187.627a3.844,3.844,0,0,0,1.62,3.021l2.742,1.827a7.112,7.112,0,0,0,7.425.424,4.214,4.214,0,0,0,2.055-2.179,3.614,3.614,0,0,0-.529-3.277l-1.862-2.726" transform="translate(0 -118.752)" fill="#57d3fb"/>
      <path id="Trazado_882512" data-name="Trazado 882512" d="M15.732,157.382a7.236,7.236,0,0,0-3.959,1.875,4.806,4.806,0,0,0-1.591,3.265v2.409c0,2.749,3.127,3.989,5.482,3.579a7.233,7.233,0,0,0,3.959-1.875,4.806,4.806,0,0,0,1.591-3.265v-2.408c0-2.749-3.126-3.99-5.482-3.58" transform="translate(-7.19 -157.305)" fill="#57d3fb"/>
      <path id="Trazado_882513" data-name="Trazado 882513" d="M35.26,182.046c-2.288,0-5.342,1.989-4.647,4.612.758,2.861,3.821,3.914,6.474,3.914,2.288,0,5.342-1.988,4.647-4.612-.758-2.861-3.821-3.914-6.474-3.914" transform="translate(-20.4 -144.774)" fill="#57d3fb"/>
      <path id="Trazado_882514" data-name="Trazado 882514" d="M54.014,156.6a19,19,0,0,0-9.671-3.872c-1.668-.218-3.869.943-5.09,1.927a10.175,10.175,0,0,0-3.388,5.083c-.379,1.617-.55,3.59.441,5.045a5.211,5.211,0,0,0,4.032,2.271h.007l.095.031c.343.111.693.193,1.034.311a12.962,12.962,0,0,1,1.317.545c.422.272.834.556,1.232.869,3.016,2.378,7.506.351,9.576-2.359,1.991-2.609,3.568-7.368.416-9.854" transform="translate(-21.779 -136.772)" fill="#57d3fb"/>
      <path id="Trazado_882515" data-name="Trazado 882515" d="M56.673,210.722c-.5-2.755-3.519-4.412-6.146-4.412-2.265,0-5.5,1.438-5,4.231.5,2.756,3.519,4.412,6.145,4.412,2.265,0,5.5-1.437,5-4.231" transform="translate(-24.482 -151.391)" fill="#57d3fb"/>
    </g>
    <g id="Grupo_1102252" data-name="Grupo 1102252" transform="translate(1278.338 10451.31)">
      <g id="Grupo_1102251" data-name="Grupo 1102251" transform="translate(12 -1)" clip-path="url(#clip-path-2)">
        <path id="Trazado_882516" data-name="Trazado 882516" d="M22.456,34.711a1.142,1.142,0,0,0-.335-.539,1.264,1.264,0,0,0-1-.186,29.825,29.825,0,0,0-4.081.783c-.377.1-.753.205-1.164.318.448-.374.885-.7,1.317-1.036a19.975,19.975,0,0,1,2.054-1.389c.9-.534,1.812-1.05,2.718-1.577a1.053,1.053,0,0,0,.656-1.062c-.072-.6-.167-1.193-.293-1.779a.833.833,0,0,0-.764-.719,2.515,2.515,0,0,0-.656.011,11.85,11.85,0,0,0-2.753.736c-.576.222-1.146.465-1.745.709.236-.24.449-.463.668-.679.322-.317.654-.623.971-.944q.844-.855,1.672-1.724a2.57,2.57,0,0,0,.731-1.26,2.172,2.172,0,0,0-.189-1.21c-.5-1.346-1.03-2.682-1.5-4.042a2.016,2.016,0,0,0-.465-.806.651.651,0,0,0-.644-.167,1.624,1.624,0,0,0-.4.177c-1.058.567-2.133,1.1-3.152,1.746-.179.114-.354.235-.531.353.295-.345.6-.676.921-.99.525-.512,1.033-1.042,1.552-1.561a7.992,7.992,0,0,0,1.113-1.349,1.564,1.564,0,0,0,.173-1.589,8.533,8.533,0,0,0-.564-1.007c-.329-.506-.658-1.012-1-1.506a2.883,2.883,0,0,0-.54-.665.718.718,0,0,0-1.032.129,3.616,3.616,0,0,0-.319.463,16.624,16.624,0,0,1-1.312,1.892c.277-.671.548-1.323.815-1.976.287-.7.576-1.4.809-2.123a2.2,2.2,0,0,0-.131-1.849c-.234-.415-.438-.849-.648-1.278C12.855,5.9,12.394,4.731,11.82,3.627A21.871,21.871,0,0,0,10.537,1.4,10.732,10.732,0,0,0,9.689.237.675.675,0,0,0,8.537.471a2.718,2.718,0,0,0-.176.5c-.4,1.493-.824,2.982-1.105,4.492A10.075,10.075,0,0,0,7.034,7.4a4.575,4.575,0,0,0,.11,1A2.208,2.208,0,0,0,6.868,8a8.023,8.023,0,0,0-.815-1.1.65.65,0,0,0-1.112.289,2.15,2.15,0,0,0-.073.264c-.124.506-.2,1.017-.288,1.526-.119.662-.282,1.32-.352,1.986a1.492,1.492,0,0,0,.145.859,11.59,11.59,0,0,0,.942,1.393c.494.689.988,1.376,1.432,2.1a14.776,14.776,0,0,1,1.549,3.5.424.424,0,0,1,.027.264c-.2-.177-.385-.335-.564-.5a11.953,11.953,0,0,0-2.014-1.559,6.178,6.178,0,0,0-1.681-.744.9.9,0,0,0-.555.037.944.944,0,0,0-.572.8,9.183,9.183,0,0,0-.1,1.416A8.8,8.8,0,0,0,3,20.567a1.8,1.8,0,0,0,.458.91,5.223,5.223,0,0,0,.8.607,12.208,12.208,0,0,1,2.5,2.083,13.022,13.022,0,0,1,1.358,1.9,7.572,7.572,0,0,1,.541,1.064c-.029,0-.045,0-.053-.006-.614-.457-1.222-.92-1.841-1.37-.907-.658-1.774-1.368-2.741-1.948A5.058,5.058,0,0,0,1.892,23a1.045,1.045,0,0,0-1.21.948A4.662,4.662,0,0,0,.7,25.2c.21,1.888.416,3.778.729,5.643A9.67,9.67,0,0,0,2.1,33.317a3.051,3.051,0,0,0,.8,1.1,6.849,6.849,0,0,0,1.222.754,13.3,13.3,0,0,1,2.34,1.5c.442.367.852.766,1.264,1.164a6.77,6.77,0,0,1,.947,1.112,2.736,2.736,0,0,1,.351.619c-.668-.377-1.3-.751-1.947-1.1-1.043-.555-2.161-.972-3.253-1.437a7.268,7.268,0,0,0-1.775-.547,1.091,1.091,0,0,0-1.036.3,1.219,1.219,0,0,0-.289.93,23.582,23.582,0,0,0,.249,2.767,1.241,1.241,0,0,0,.8,1.046,14.142,14.142,0,0,1,3.183,1.829c.159.124.311.256.465.386s.293.255.439.383a.205.205,0,0,1-.114-.033,21.276,21.276,0,0,0-3.578-1.649A6.988,6.988,0,0,0,1,42.111a.744.744,0,0,0-.44.055.823.823,0,0,0-.451.851c.015.22.048.437.074.656a1.883,1.883,0,0,0,1.225,1.715,18.8,18.8,0,0,1,2.322,1.127,16.357,16.357,0,0,1,2.236,1.473.314.314,0,0,1-.069,0,25.364,25.364,0,0,0-4.326-1.065,3.022,3.022,0,0,0-1-.031A.647.647,0,0,0,0,47.625a1.182,1.182,0,0,0,.065.271c.232.678.484,1.348.7,2.035a12.7,12.7,0,0,0,1.077,2.688,3.56,3.56,0,0,0,2.5,1.789,15.928,15.928,0,0,0,2.361.239c.642.027,1.289.017,1.934.025.126,0,.3-.041.367.022.085.077-.024.24-.046.365-.147.853-.286,1.707-.456,2.557-.022.109-.046.218-.069.328q.543.036,1.082.1c.079-.354.151-.71.213-1.066.148-.855.256-1.712.35-2.568.019-.176.076-.188.215-.13a7.162,7.162,0,0,0,2.86.526,3.692,3.692,0,0,0,2.121-.6,6.717,6.717,0,0,0,1.3-1.264,16.267,16.267,0,0,0,1.878-2.932,7.766,7.766,0,0,0,.879-2.695,1.038,1.038,0,0,0-.887-1.286c-.46-.09-.926-.155-1.395-.209a10.614,10.614,0,0,1-1.179-.173.335.335,0,0,1,.063-.042c1.289-.387,2.583-.755,3.878-1.115.581-.161,1.17-.259,1.754-.393a1.066,1.066,0,0,0,.8-.812,4.76,4.76,0,0,0,.111-.88c.089-.856.123-1.71.141-2.563.022-1.062.037-2.124.054-3.186a5.626,5.626,0,0,0-.216-1.941M8.2,34.117a2.626,2.626,0,0,1-1.249-.335,3.725,3.725,0,0,1-.745-.6,3.417,3.417,0,0,0-.652-.7c-.171-.119-.4-.18-.579-.292a1.849,1.849,0,0,1-.714-1.056L4.31,31.1a2.3,2.3,0,0,1,1.025.709,1.866,1.866,0,0,0,.593.715,5.2,5.2,0,0,1,2.3,1.538l-.028.057m.02-3.016A2.886,2.886,0,0,1,6.6,30.329c-.314-.236-.511-.647-.871-.826a5.9,5.9,0,0,0-.581-.2,1.607,1.607,0,0,1-.481-.346,1.718,1.718,0,0,1-.37-.51l.035-.053a1.852,1.852,0,0,1,1.111.47,5.868,5.868,0,0,0,.4.466,1.456,1.456,0,0,0,.53.272,3.811,3.811,0,0,1,1.073.526,2.956,2.956,0,0,1,.809.917Zm.186,12.2A4.86,4.86,0,0,1,6.4,42.092c-.4-.33-.666-.828-1.111-1.1-.217-.143-.484-.22-.715-.345a2.759,2.759,0,0,1-.605-.488,2.746,2.746,0,0,1-.484-.644l.039-.05a3.08,3.08,0,0,1,1.373.763c.18.19.323.429.517.6a2.5,2.5,0,0,0,.659.417A6.465,6.465,0,0,1,7.4,42.06a4.874,4.874,0,0,1,1.044,1.191Zm2.482,4.083c-.06.463-.157,1-.24,1.453q-.133.724-.278,1.446l-.063-.009q.527-5.843.784-11.71c.1-1.923.216-3.935.221-5.868.011-2.913-.213-5.894-.434-8.8-.334-4.855-.73-9.8-.916-14.663-.083-1.958-.145-3.918-.173-5.88l.063,0c.233,1.948.431,3.9.608,5.851.357,3.841.637,7.866.81,11.731.209,3.917.159,7.844.247,11.763a74.714,74.714,0,0,1-.63,14.69m4.917-9.318a3.134,3.134,0,0,1,.819-.137,2.407,2.407,0,0,0,.833-.027c.174-.052.336-.184.511-.254a1.308,1.308,0,0,1,.546-.058,1.385,1.385,0,0,1,.564.157l.006.063a1.689,1.689,0,0,1-1.034.36A3.842,3.842,0,0,0,17.5,38.1c-.365.017-.662.321-1,.429a2.779,2.779,0,0,1-1.608.234l-.022-.059a2.212,2.212,0,0,1,.937-.642m2.783,2.685c-.237-.02-.48-.1-.715-.1a2.055,2.055,0,0,0-.694.135,5.328,5.328,0,0,1-1.387.292,4.051,4.051,0,0,1-1.429-.178l-.006-.063a4.014,4.014,0,0,1,2.078-.458,9.387,9.387,0,0,0,1.419.069c.232-.04.456-.163.686-.225a2.265,2.265,0,0,1,.7-.046,2.3,2.3,0,0,1,.72.15l.006.063a2.554,2.554,0,0,1-1.38.359" transform="translate(0 0)" fill="#575f19"/>
      </g>
    </g>
    <g id="Grupo_1102989" data-name="Grupo 1102989" transform="translate(44 -67)">
      <g id="Grupo_1102986" data-name="Grupo 1102986" transform="translate(346.051 10634.959)">
        <rect id="Rectángulo_403057" data-name="Rectángulo 403057" width="149" height="60" rx="30" fill="url(#linear-gradient-3)"/>
        <rect id="Rectángulo_403058" data-name="Rectángulo 403058" width="131" height="47" rx="23.5" transform="translate(9 7)" fill="#fff"/>
      </g>
      <path id="Trazado_886067" data-name="Trazado 886067" d="M-34.994-1.617A4.577,4.577,0,0,1-37.006-.294a8.429,8.429,0,0,1-2.883.47A5.711,5.711,0,0,1-42.8-.549a4.836,4.836,0,0,1-1.934-2.1,7.408,7.408,0,0,1-.7-3.243v-.87a7.868,7.868,0,0,1,.646-3.318,4.779,4.779,0,0,1,1.863-2.145,5.367,5.367,0,0,1,2.852-.743,5.345,5.345,0,0,1,3.56,1.085,4.639,4.639,0,0,1,1.521,3.16H-37.56a2.552,2.552,0,0,0-.778-1.608,2.484,2.484,0,0,0-1.657-.51,2.338,2.338,0,0,0-2.048,1.011,5.315,5.315,0,0,0-.712,3.006v.817a5.06,5.06,0,0,0,.765,3.041,2.618,2.618,0,0,0,2.241,1.028,2.925,2.925,0,0,0,2.118-.633V-4.781h-2.4V-6.724h5.036Zm7.313-5.511A6.9,6.9,0,0,0-28.6-7.2a1.86,1.86,0,0,0-1.89.976V0h-2.54V-9.51h2.4l.07,1.134a2.354,2.354,0,0,1,2.118-1.31,2.662,2.662,0,0,1,.791.114ZM-21.212,0a2.821,2.821,0,0,1-.255-.853,3.073,3.073,0,0,1-2.4,1.028,3.376,3.376,0,0,1-2.316-.809A2.6,2.6,0,0,1-27.1-2.672a2.687,2.687,0,0,1,1.121-2.32,5.529,5.529,0,0,1,3.239-.817h1.169v-.545a1.567,1.567,0,0,0-.338-1.055,1.331,1.331,0,0,0-1.068-.4,1.513,1.513,0,0,0-1.006.308,1.045,1.045,0,0,0-.365.844h-2.54a2.551,2.551,0,0,1,.51-1.529,3.37,3.37,0,0,1,1.441-1.1,5.253,5.253,0,0,1,2.092-.4,4.15,4.15,0,0,1,2.791.883,3.09,3.09,0,0,1,1.033,2.483V-2.2a4.546,4.546,0,0,0,.378,2.048V0Zm-2.1-1.767a2.188,2.188,0,0,0,1.037-.25,1.645,1.645,0,0,0,.7-.672V-4.324h-.949q-1.907,0-2.03,1.318l-.009.149a1.017,1.017,0,0,0,.334.782A1.3,1.3,0,0,0-23.313-1.767Zm8.622-7.743.079,1.063a3.342,3.342,0,0,1,2.733-1.239,2.536,2.536,0,0,1,2.522,1.45A3.265,3.265,0,0,1-6.5-9.686a2.836,2.836,0,0,1,2.3.9,4.141,4.141,0,0,1,.756,2.711V0H-5.99V-6.064a1.811,1.811,0,0,0-.316-1.182A1.4,1.4,0,0,0-7.422-7.62,1.585,1.585,0,0,0-9-6.53L-9,0h-2.54V-6.056a1.789,1.789,0,0,0-.325-1.2,1.416,1.416,0,0,0-1.107-.369,1.646,1.646,0,0,0-1.564.9V0h-2.54V-9.51ZM1.252,0h-2.54V-9.51h2.54ZM.505-13.368H3.274L.839-10.644H-1.226ZM5.779-9.51l.079,1.1A3.32,3.32,0,0,1,8.591-9.686a2.759,2.759,0,0,1,2.25.888A4.142,4.142,0,0,1,11.6-6.144V0H9.057V-6.082a1.648,1.648,0,0,0-.352-1.173A1.574,1.574,0,0,0,7.537-7.62a1.747,1.747,0,0,0-1.608.914V0H3.388V-9.51ZM17.9.176a4.668,4.668,0,0,1-3.406-1.283,4.561,4.561,0,0,1-1.314-3.419v-.246a5.745,5.745,0,0,1,.554-2.562A4.064,4.064,0,0,1,15.3-9.075a4.4,4.4,0,0,1,2.316-.611,3.947,3.947,0,0,1,3.072,1.23A5,5,0,0,1,21.81-4.966v1.037H15.754A2.36,2.36,0,0,0,16.5-2.435a2.245,2.245,0,0,0,1.569.563A2.742,2.742,0,0,0,20.36-2.936l1.248,1.4A3.813,3.813,0,0,1,20.061-.277,5.075,5.075,0,0,1,17.9.176Zm-.29-7.813a1.587,1.587,0,0,0-1.226.512,2.651,2.651,0,0,0-.6,1.466h3.533v-.2a1.891,1.891,0,0,0-.457-1.311A1.638,1.638,0,0,0,17.609-7.638ZM28.762,0a2.821,2.821,0,0,1-.255-.853,3.073,3.073,0,0,1-2.4,1.028,3.376,3.376,0,0,1-2.316-.809,2.6,2.6,0,0,1-.918-2.039,2.687,2.687,0,0,1,1.121-2.32,5.529,5.529,0,0,1,3.239-.817H28.4v-.545a1.567,1.567,0,0,0-.338-1.055A1.331,1.331,0,0,0,27-7.8a1.513,1.513,0,0,0-1.006.308,1.045,1.045,0,0,0-.365.844h-2.54a2.551,2.551,0,0,1,.51-1.529,3.37,3.37,0,0,1,1.441-1.1,5.253,5.253,0,0,1,2.092-.4,4.15,4.15,0,0,1,2.791.883,3.09,3.09,0,0,1,1.033,2.483V-2.2a4.546,4.546,0,0,0,.378,2.048V0Zm-2.1-1.767a2.188,2.188,0,0,0,1.037-.25,1.645,1.645,0,0,0,.7-.672V-4.324h-.949q-1.907,0-2.03,1.318l-.009.149a1.017,1.017,0,0,0,.334.782A1.3,1.3,0,0,0,26.662-1.767Zm11.391-.861a.818.818,0,0,0-.461-.734,5.241,5.241,0,0,0-1.481-.479q-3.393-.712-3.393-2.883a2.613,2.613,0,0,1,1.05-2.114,4.237,4.237,0,0,1,2.747-.848,4.56,4.56,0,0,1,2.9.853A2.687,2.687,0,0,1,40.5-6.618h-2.54a1.229,1.229,0,0,0-.352-.9,1.488,1.488,0,0,0-1.1-.356,1.52,1.52,0,0,0-.993.29.916.916,0,0,0-.352.738.783.783,0,0,0,.4.681,4.114,4.114,0,0,0,1.349.448,11.019,11.019,0,0,1,1.6.426,2.628,2.628,0,0,1,2.013,2.558,2.481,2.481,0,0,1-1.116,2.1,4.815,4.815,0,0,1-2.883.8A5.029,5.029,0,0,1,34.4-.25a3.561,3.561,0,0,1-1.455-1.169,2.716,2.716,0,0,1-.527-1.6h2.408a1.326,1.326,0,0,0,.5,1.037,1.987,1.987,0,0,0,1.248.36,1.839,1.839,0,0,0,1.1-.277A.861.861,0,0,0,38.052-2.628Zm4.228,1.38a1.279,1.279,0,0,1,.409-.984,1.45,1.45,0,0,1,1.024-.378,1.462,1.462,0,0,1,1.033.378,1.279,1.279,0,0,1,.409.984,1.261,1.261,0,0,1-.4.971A1.468,1.468,0,0,1,43.712.1a1.456,1.456,0,0,1-1.028-.374A1.261,1.261,0,0,1,42.28-1.248Zm0-7.2a1.279,1.279,0,0,1,.409-.984,1.45,1.45,0,0,1,1.024-.378,1.462,1.462,0,0,1,1.033.378,1.279,1.279,0,0,1,.409.984,1.261,1.261,0,0,1-.4.971,1.468,1.468,0,0,1-1.037.374,1.456,1.456,0,0,1-1.028-.374A1.261,1.261,0,0,1,42.28-8.446Z" transform="translate(422.051 10670.959)" fill="#12263f"/>
      <path id="Trazado_886068" data-name="Trazado 886068" d="M-31.9-4.509V0h-2.637V-12.8h4.992A5.776,5.776,0,0,1-27-12.27a3.886,3.886,0,0,1,1.683,1.5,4.178,4.178,0,0,1,.589,2.21A3.674,3.674,0,0,1-26.02-5.594a5.363,5.363,0,0,1-3.564,1.085Zm0-2.136h2.355a2.316,2.316,0,0,0,1.6-.492A1.79,1.79,0,0,0-27.4-8.543a2.111,2.111,0,0,0-.554-1.521,2.068,2.068,0,0,0-1.529-.6H-31.9ZM-17.675,0a2.821,2.821,0,0,1-.255-.853,3.073,3.073,0,0,1-2.4,1.028,3.376,3.376,0,0,1-2.316-.809,2.6,2.6,0,0,1-.918-2.039,2.687,2.687,0,0,1,1.121-2.32A5.529,5.529,0,0,1-19.2-5.81h1.169v-.545a1.567,1.567,0,0,0-.338-1.055,1.331,1.331,0,0,0-1.068-.4,1.513,1.513,0,0,0-1.006.308,1.045,1.045,0,0,0-.365.844h-2.54a2.551,2.551,0,0,1,.51-1.529,3.37,3.37,0,0,1,1.441-1.1,5.253,5.253,0,0,1,2.092-.4,4.15,4.15,0,0,1,2.791.883,3.09,3.09,0,0,1,1.033,2.483V-2.2a4.546,4.546,0,0,0,.378,2.048V0Zm-2.1-1.767a2.188,2.188,0,0,0,1.037-.25,1.645,1.645,0,0,0,.7-.672V-4.324h-.949q-1.907,0-2.03,1.318l-.009.149a1.017,1.017,0,0,0,.334.782A1.3,1.3,0,0,0-19.775-1.767ZM-11.2-9.51l.079,1.1A3.32,3.32,0,0,1-8.385-9.686a2.759,2.759,0,0,1,2.25.888,4.142,4.142,0,0,1,.756,2.654V0h-2.54V-6.082a1.648,1.648,0,0,0-.352-1.173A1.574,1.574,0,0,0-9.439-7.62a1.747,1.747,0,0,0-1.608.914V0h-2.54V-9.51Zm7.374,4.685A5.573,5.573,0,0,1-2.782-8.35,3.375,3.375,0,0,1,.026-9.686,2.96,2.96,0,0,1,2.461-8.613l.105-.9h2.3V-.316A4.064,4.064,0,0,1,4.3,1.854a3.641,3.641,0,0,1-1.6,1.406A5.608,5.608,0,0,1,.3,3.744,5.215,5.215,0,0,1-1.74,3.327a3.619,3.619,0,0,1-1.5-1.077L-2.118.7a2.975,2.975,0,0,0,2.3,1.063,2.178,2.178,0,0,0,1.573-.541A2.027,2.027,0,0,0,2.32-.308v-.51A2.938,2.938,0,0,1,.009.176a3.366,3.366,0,0,1-2.773-1.34A5.572,5.572,0,0,1-3.823-4.72Zm2.54.189A3.47,3.47,0,0,0-.765-2.607a1.65,1.65,0,0,0,1.424.735A1.764,1.764,0,0,0,2.32-2.744V-6.749A1.76,1.76,0,0,0,.677-7.62,1.66,1.66,0,0,0-.76-6.872,3.911,3.911,0,0,0-1.283-4.636Zm7.708-.207A5.64,5.64,0,0,1,6.97-7.365,3.989,3.989,0,0,1,8.539-9.079a4.577,4.577,0,0,1,2.377-.606,4.33,4.33,0,0,1,3.142,1.178,4.727,4.727,0,0,1,1.358,3.2l.018.65a4.97,4.97,0,0,1-1.222,3.511A4.247,4.247,0,0,1,10.934.176,4.268,4.268,0,0,1,7.651-1.143,5.058,5.058,0,0,1,6.425-4.729Zm2.54.18a3.555,3.555,0,0,0,.51,2.073,1.682,1.682,0,0,0,1.459.717,1.686,1.686,0,0,0,1.441-.709,3.89,3.89,0,0,0,.519-2.267,3.519,3.519,0,0,0-.519-2.06,1.686,1.686,0,0,0-1.459-.731,1.658,1.658,0,0,0-1.441.726A3.955,3.955,0,0,0,8.965-4.662ZM19.679,0H17.13V-13.5h2.549Zm7.6,0a2.821,2.821,0,0,1-.255-.853,3.073,3.073,0,0,1-2.4,1.028,3.376,3.376,0,0,1-2.316-.809,2.6,2.6,0,0,1-.918-2.039,2.687,2.687,0,0,1,1.121-2.32,5.529,5.529,0,0,1,3.239-.817h1.169v-.545a1.567,1.567,0,0,0-.338-1.055,1.331,1.331,0,0,0-1.068-.4,1.513,1.513,0,0,0-1.006.308,1.045,1.045,0,0,0-.365.844H21.6a2.551,2.551,0,0,1,.51-1.529,3.37,3.37,0,0,1,1.441-1.1,5.253,5.253,0,0,1,2.092-.4,4.15,4.15,0,0,1,2.791.883A3.09,3.09,0,0,1,29.47-6.319V-2.2a4.546,4.546,0,0,0,.378,2.048V0Zm-2.1-1.767a2.188,2.188,0,0,0,1.037-.25,1.645,1.645,0,0,0,.7-.672V-4.324h-.949q-1.907,0-2.03,1.318l-.009.149a1.017,1.017,0,0,0,.334.782A1.3,1.3,0,0,0,25.181-1.767Zm6.372.519a1.279,1.279,0,0,1,.409-.984,1.45,1.45,0,0,1,1.024-.378,1.462,1.462,0,0,1,1.033.378,1.279,1.279,0,0,1,.409.984,1.261,1.261,0,0,1-.4.971A1.468,1.468,0,0,1,32.985.1a1.456,1.456,0,0,1-1.028-.374A1.261,1.261,0,0,1,31.553-1.248Z" transform="translate(586.051 10590.959)" fill="#12263f"/>
      <path id="Trazado_886070" data-name="Trazado 886070" d="M-24.166-5.546h-5.062v3.428h5.941V0h-8.578V-12.8H-23.3v2.136h-5.924v3.05h5.063Zm7.409,2.918a.818.818,0,0,0-.461-.734A5.241,5.241,0,0,0-18.7-3.841q-3.393-.712-3.393-2.883a2.613,2.613,0,0,1,1.05-2.114,4.237,4.237,0,0,1,2.747-.848,4.56,4.56,0,0,1,2.9.853,2.687,2.687,0,0,1,1.085,2.215h-2.54a1.229,1.229,0,0,0-.352-.9,1.488,1.488,0,0,0-1.1-.356,1.52,1.52,0,0,0-.993.29.916.916,0,0,0-.352.738.783.783,0,0,0,.4.681,4.114,4.114,0,0,0,1.349.448,11.019,11.019,0,0,1,1.6.426,2.628,2.628,0,0,1,2.013,2.558A2.481,2.481,0,0,1-15.4-.628a4.815,4.815,0,0,1-2.883.8A5.029,5.029,0,0,1-20.408-.25a3.561,3.561,0,0,1-1.455-1.169,2.716,2.716,0,0,1-.527-1.6h2.408a1.326,1.326,0,0,0,.5,1.037,1.987,1.987,0,0,0,1.248.36,1.839,1.839,0,0,0,1.1-.277A.861.861,0,0,0-16.756-2.628Zm7.146-9.22V-9.51h1.626v1.863H-9.611V-2.9a1.133,1.133,0,0,0,.2.756,1.015,1.015,0,0,0,.773.229,4.051,4.051,0,0,0,.747-.062V-.053A5.229,5.229,0,0,1-9.426.176a2.425,2.425,0,0,1-2.725-2.7V-7.646H-13.54V-9.51h1.389v-2.338Zm8.385,4.72A6.9,6.9,0,0,0-2.14-7.2a1.86,1.86,0,0,0-1.89.976V0H-6.57V-9.51h2.4l.07,1.134a2.354,2.354,0,0,1,2.118-1.31,2.662,2.662,0,0,1,.791.114ZM4.206.176A4.668,4.668,0,0,1,.8-1.107,4.561,4.561,0,0,1-.514-4.526v-.246A5.745,5.745,0,0,1,.04-7.334a4.064,4.064,0,0,1,1.569-1.74,4.4,4.4,0,0,1,2.316-.611A3.947,3.947,0,0,1,7-8.455,5,5,0,0,1,8.117-4.966v1.037H2.061A2.36,2.36,0,0,0,2.8-2.435a2.245,2.245,0,0,0,1.569.563A2.742,2.742,0,0,0,6.667-2.936l1.248,1.4A3.813,3.813,0,0,1,6.368-.277,5.075,5.075,0,0,1,4.206.176Zm-.29-7.813a1.587,1.587,0,0,0-1.226.512,2.651,2.651,0,0,0-.6,1.466H5.621v-.2a1.891,1.891,0,0,0-.457-1.311A1.638,1.638,0,0,0,3.916-7.638ZM12.239,0H9.69V-13.5h2.549Zm4.772,0H14.462V-13.5h2.549Zm7.6,0a2.821,2.821,0,0,1-.255-.853,3.073,3.073,0,0,1-2.4,1.028,3.376,3.376,0,0,1-2.316-.809,2.6,2.6,0,0,1-.918-2.039,2.687,2.687,0,0,1,1.121-2.32,5.529,5.529,0,0,1,3.239-.817h1.169v-.545a1.567,1.567,0,0,0-.338-1.055,1.331,1.331,0,0,0-1.068-.4,1.513,1.513,0,0,0-1.006.308,1.045,1.045,0,0,0-.365.844h-2.54a2.551,2.551,0,0,1,.51-1.529,3.37,3.37,0,0,1,1.441-1.1,5.253,5.253,0,0,1,2.092-.4A4.15,4.15,0,0,1,25.77-8.8,3.09,3.09,0,0,1,26.8-6.319V-2.2A4.546,4.546,0,0,0,27.18-.149V0Zm-2.1-1.767a2.188,2.188,0,0,0,1.037-.25,1.645,1.645,0,0,0,.7-.672V-4.324H23.3q-1.907,0-2.03,1.318l-.009.149a1.017,1.017,0,0,0,.334.782A1.3,1.3,0,0,0,22.513-1.767Zm6.372.519a1.279,1.279,0,0,1,.409-.984,1.45,1.45,0,0,1,1.024-.378,1.462,1.462,0,0,1,1.033.378,1.279,1.279,0,0,1,.409.984,1.261,1.261,0,0,1-.4.971A1.468,1.468,0,0,1,30.318.1,1.456,1.456,0,0,1,29.29-.277,1.261,1.261,0,0,1,28.885-1.248Z" transform="translate(586.051 10751.959)" fill="#12263f"/>
      <path id="Trazado_886069" data-name="Trazado 886069" d="M-42.253,0V-12.8h4.482a5.886,5.886,0,0,1,3.533.892,3.05,3.05,0,0,1,1.2,2.615,2.891,2.891,0,0,1-.483,1.657,2.792,2.792,0,0,1-1.345,1.05,2.7,2.7,0,0,1,1.551.993,2.936,2.936,0,0,1,.567,1.828A3.377,3.377,0,0,1-33.921-.967,5.3,5.3,0,0,1-37.279,0Zm2.637-5.572v3.454h2.259A2.18,2.18,0,0,0-35.9-2.562a1.522,1.522,0,0,0,.523-1.226A1.607,1.607,0,0,0-37.2-5.572Zm0-1.863h1.951q2-.035,2-1.591a1.47,1.47,0,0,0-.505-1.252,2.658,2.658,0,0,0-1.6-.382h-1.846Zm14.027.308A6.9,6.9,0,0,0-26.5-7.2a1.86,1.86,0,0,0-1.89.976V0h-2.54V-9.51h2.4l.07,1.134a2.354,2.354,0,0,1,2.118-1.31,2.662,2.662,0,0,1,.791.114ZM-19.121,0a2.821,2.821,0,0,1-.255-.853,3.073,3.073,0,0,1-2.4,1.028,3.376,3.376,0,0,1-2.316-.809,2.6,2.6,0,0,1-.918-2.039,2.687,2.687,0,0,1,1.121-2.32A5.529,5.529,0,0,1-20.65-5.81h1.169v-.545a1.567,1.567,0,0,0-.338-1.055,1.331,1.331,0,0,0-1.068-.4,1.513,1.513,0,0,0-1.006.308,1.045,1.045,0,0,0-.365.844H-24.8a2.551,2.551,0,0,1,.51-1.529,3.37,3.37,0,0,1,1.441-1.1,5.253,5.253,0,0,1,2.092-.4,4.15,4.15,0,0,1,2.791.883,3.09,3.09,0,0,1,1.033,2.483V-2.2a4.546,4.546,0,0,0,.378,2.048V0Zm-2.1-1.767a2.188,2.188,0,0,0,1.037-.25,1.645,1.645,0,0,0,.7-.672V-4.324h-.949q-1.907,0-2.03,1.318l-.009.149a1.017,1.017,0,0,0,.334.782A1.3,1.3,0,0,0-21.221-1.767Zm10.2-.105a1.666,1.666,0,0,0,1.143-.387,1.355,1.355,0,0,0,.457-1.028h2.382a3.258,3.258,0,0,1-.527,1.771A3.48,3.48,0,0,1-8.991-.268a4.442,4.442,0,0,1-1.991.444,4.129,4.129,0,0,1-3.217-1.3A5.13,5.13,0,0,1-15.376-4.7v-.167a5.071,5.071,0,0,1,1.169-3.507A4.08,4.08,0,0,1-11-9.686,4,4,0,0,1-8.139-8.67a3.594,3.594,0,0,1,1.094,2.7H-9.426a1.745,1.745,0,0,0-.457-1.206,1.524,1.524,0,0,0-1.16-.464,1.53,1.53,0,0,0-1.34.647,3.749,3.749,0,0,0-.453,2.1v.264a3.8,3.8,0,0,0,.448,2.113A1.549,1.549,0,0,0-11.026-1.872Zm7.91-6.6A3.17,3.17,0,0,1-.576-9.686q3.094,0,3.138,3.595V0H.022V-6.021A1.767,1.767,0,0,0-.33-7.229,1.507,1.507,0,0,0-1.5-7.62a1.729,1.729,0,0,0-1.617.861V0h-2.54V-13.5h2.54ZM7.159,0H4.61V-9.51H7.159ZM4.46-11.971a1.251,1.251,0,0,1,.382-.94,1.436,1.436,0,0,1,1.042-.369,1.44,1.44,0,0,1,1.037.369,1.244,1.244,0,0,1,.387.94,1.247,1.247,0,0,1-.391.949,1.443,1.443,0,0,1-1.033.369,1.443,1.443,0,0,1-1.033-.369A1.247,1.247,0,0,1,4.46-11.971ZM14.761,0a2.821,2.821,0,0,1-.255-.853,3.073,3.073,0,0,1-2.4,1.028A3.376,3.376,0,0,1,9.791-.633a2.6,2.6,0,0,1-.918-2.039,2.687,2.687,0,0,1,1.121-2.32,5.529,5.529,0,0,1,3.239-.817H14.4v-.545a1.567,1.567,0,0,0-.338-1.055,1.331,1.331,0,0,0-1.068-.4,1.513,1.513,0,0,0-1.006.308,1.045,1.045,0,0,0-.365.844H9.083a2.551,2.551,0,0,1,.51-1.529,3.37,3.37,0,0,1,1.441-1.1,5.253,5.253,0,0,1,2.092-.4,4.15,4.15,0,0,1,2.791.883A3.09,3.09,0,0,1,16.95-6.319V-2.2a4.546,4.546,0,0,0,.378,2.048V0Zm-2.1-1.767a2.188,2.188,0,0,0,1.037-.25,1.645,1.645,0,0,0,.7-.672V-4.324h-.949q-1.907,0-2.03,1.318l-.009.149a1.017,1.017,0,0,0,.334.782A1.3,1.3,0,0,0,12.661-1.767ZM24.245-7.128a6.9,6.9,0,0,0-.914-.07,1.86,1.86,0,0,0-1.89.976V0H18.9V-9.51h2.4l.07,1.134a2.354,2.354,0,0,1,2.118-1.31,2.662,2.662,0,0,1,.791.114ZM28.147,0H25.6V-9.51h2.549Zm-2.7-11.971a1.251,1.251,0,0,1,.382-.94,1.436,1.436,0,0,1,1.042-.369,1.44,1.44,0,0,1,1.037.369,1.244,1.244,0,0,1,.387.94,1.247,1.247,0,0,1-.391.949,1.443,1.443,0,0,1-1.033.369,1.443,1.443,0,0,1-1.033-.369A1.247,1.247,0,0,1,25.449-11.971ZM35.75,0a2.821,2.821,0,0,1-.255-.853A3.073,3.073,0,0,1,33.1.176a3.376,3.376,0,0,1-2.316-.809,2.6,2.6,0,0,1-.918-2.039,2.687,2.687,0,0,1,1.121-2.32A5.529,5.529,0,0,1,34.22-5.81h1.169v-.545a1.567,1.567,0,0,0-.338-1.055,1.331,1.331,0,0,0-1.068-.4,1.513,1.513,0,0,0-1.006.308,1.045,1.045,0,0,0-.365.844h-2.54a2.551,2.551,0,0,1,.51-1.529,3.37,3.37,0,0,1,1.441-1.1,5.253,5.253,0,0,1,2.092-.4,4.15,4.15,0,0,1,2.791.883,3.09,3.09,0,0,1,1.033,2.483V-2.2a4.546,4.546,0,0,0,.378,2.048V0Zm-2.1-1.767a2.188,2.188,0,0,0,1.037-.25,1.645,1.645,0,0,0,.7-.672V-4.324H34.44q-1.907,0-2.03,1.318l-.009.149a1.017,1.017,0,0,0,.334.782A1.3,1.3,0,0,0,33.649-1.767ZM-64.169,13.527a3.17,3.17,0,0,1,2.54-1.213q3.094,0,3.138,3.595V22h-2.54V15.979a1.767,1.767,0,0,0-.352-1.208,1.507,1.507,0,0,0-1.169-.391,1.729,1.729,0,0,0-1.617.861V22h-2.54V8.5h2.54ZM-53.833,22h-2.54V12.49h2.54ZM-54.58,8.632h2.769l-2.435,2.725h-2.065Zm11.5,8.7a5.758,5.758,0,0,1-.976,3.564,3.231,3.231,0,0,1-2.725,1.279,2.969,2.969,0,0,1-2.47-1.187L-49.359,22h-2.285V8.5h2.54v4.843a2.893,2.893,0,0,1,2.312-1.028,3.258,3.258,0,0,1,2.729,1.279,5.767,5.767,0,0,1,.989,3.6Zm-2.54-.185a3.783,3.783,0,0,0-.457-2.1,1.545,1.545,0,0,0-1.362-.664,1.676,1.676,0,0,0-1.67.993v3.753a1.7,1.7,0,0,0,1.688,1A1.568,1.568,0,0,0-45.8,18.915,6.257,6.257,0,0,0-45.615,17.148Zm9.448-2.276a6.9,6.9,0,0,0-.914-.07,1.86,1.86,0,0,0-1.89.976V22h-2.54V12.49h2.4l.07,1.134a2.354,2.354,0,0,1,2.118-1.31,2.662,2.662,0,0,1,.791.114Zm3.9,7.128h-2.549V12.49h2.549Zm-2.7-11.971a1.251,1.251,0,0,1,.382-.94,1.436,1.436,0,0,1,1.042-.369,1.44,1.44,0,0,1,1.037.369,1.244,1.244,0,0,1,.387.94,1.247,1.247,0,0,1-.391.949,1.443,1.443,0,0,1-1.033.369,1.443,1.443,0,0,1-1.033-.369A1.247,1.247,0,0,1-34.963,10.029Zm4.395,7.146a5.731,5.731,0,0,1,1-3.542,3.237,3.237,0,0,1,2.729-1.318,2.913,2.913,0,0,1,2.294,1.037V8.5H-22V22h-2.294l-.123-1.011a2.989,2.989,0,0,1-2.443,1.187,3.228,3.228,0,0,1-2.694-1.323A5.916,5.916,0,0,1-30.568,17.175Zm2.54.189a3.754,3.754,0,0,0,.466,2.051,1.517,1.517,0,0,0,1.354.713,1.7,1.7,0,0,0,1.661-.995V15.375a1.675,1.675,0,0,0-1.644-.995Q-28.028,14.38-28.028,17.364Zm7.6-.207a5.64,5.64,0,0,1,.545-2.522,3.989,3.989,0,0,1,1.569-1.714,4.577,4.577,0,0,1,2.377-.606,4.33,4.33,0,0,1,3.142,1.178,4.727,4.727,0,0,1,1.358,3.2l.018.65a4.97,4.97,0,0,1-1.222,3.511,4.247,4.247,0,0,1-3.278,1.323A4.268,4.268,0,0,1-19.2,20.857a5.058,5.058,0,0,1-1.226-3.586Zm2.54.18a3.555,3.555,0,0,0,.51,2.073,1.682,1.682,0,0,0,1.459.717,1.686,1.686,0,0,0,1.441-.709,3.89,3.89,0,0,0,.519-2.267,3.519,3.519,0,0,0-.519-2.06,1.686,1.686,0,0,0-1.459-.731,1.658,1.658,0,0,0-1.441.726A3.955,3.955,0,0,0-17.886,17.338Zm12.63-.541a13.488,13.488,0,0,1,.536-3.832A10.112,10.112,0,0,1-3.138,9.744,5.907,5.907,0,0,1-.87,7.8l.492,1.371a6.118,6.118,0,0,0-2,2.936A13.592,13.592,0,0,0-3.1,16.744v.272a13.852,13.852,0,0,0,.712,4.658A6.237,6.237,0,0,0-.378,24.654L-.87,26A5.91,5.91,0,0,1-3.1,24.1a9.943,9.943,0,0,1-1.578-3.133,13.408,13.408,0,0,1-.58-3.709ZM3.331,12.49l.079,1.063a3.342,3.342,0,0,1,2.733-1.239,2.536,2.536,0,0,1,2.522,1.45,3.265,3.265,0,0,1,2.856-1.45,2.836,2.836,0,0,1,2.3.9,4.141,4.141,0,0,1,.756,2.711V22H12.032V15.936a1.811,1.811,0,0,0-.316-1.182A1.4,1.4,0,0,0,10.6,14.38a1.585,1.585,0,0,0-1.582,1.09L9.026,22H6.486V15.944a1.789,1.789,0,0,0-.325-1.2,1.416,1.416,0,0,0-1.107-.369,1.646,1.646,0,0,0-1.564.9V22H.949V12.49Zm18.9,8.543a3.185,3.185,0,0,1-2.6,1.143,3,3,0,0,1-2.333-.879,3.752,3.752,0,0,1-.822-2.575V12.49h2.54v6.151q0,1.487,1.354,1.487a1.834,1.834,0,0,0,1.775-.9V12.49h2.549V22H22.3ZM29.285,22H26.736V8.5h2.549Zm7.6,0a2.821,2.821,0,0,1-.255-.853,3.073,3.073,0,0,1-2.4,1.028,3.376,3.376,0,0,1-2.316-.809A2.6,2.6,0,0,1,31,19.328a2.687,2.687,0,0,1,1.121-2.32,5.529,5.529,0,0,1,3.239-.817h1.169v-.545a1.567,1.567,0,0,0-.338-1.055,1.331,1.331,0,0,0-1.068-.4,1.513,1.513,0,0,0-1.006.308,1.045,1.045,0,0,0-.365.844H31.21a2.551,2.551,0,0,1,.51-1.529,3.37,3.37,0,0,1,1.441-1.1,5.253,5.253,0,0,1,2.092-.4,4.15,4.15,0,0,1,2.791.883,3.09,3.09,0,0,1,1.033,2.483V19.8a4.546,4.546,0,0,0,.378,2.048V22Zm-2.1-1.767a2.188,2.188,0,0,0,1.037-.25,1.645,1.645,0,0,0,.7-.672V17.676h-.949q-1.907,0-2.03,1.318l-.009.149a1.017,1.017,0,0,0,.334.782A1.3,1.3,0,0,0,34.787,20.233Zm9.281-10.081V12.49h1.626v1.863H44.068V19.1a1.133,1.133,0,0,0,.2.756,1.015,1.015,0,0,0,.773.229,4.051,4.051,0,0,0,.747-.062v1.925a5.229,5.229,0,0,1-1.538.229,2.425,2.425,0,0,1-2.725-2.7V14.354H40.14V12.49h1.389V10.152Zm2.382,7A5.64,5.64,0,0,1,47,14.635a3.989,3.989,0,0,1,1.569-1.714,4.577,4.577,0,0,1,2.377-.606,4.33,4.33,0,0,1,3.142,1.178,4.727,4.727,0,0,1,1.358,3.2l.018.65a4.97,4.97,0,0,1-1.222,3.511,4.735,4.735,0,0,1-6.561,0,5.058,5.058,0,0,1-1.226-3.586Zm2.54.18a3.555,3.555,0,0,0,.51,2.073,1.831,1.831,0,0,0,2.9.009,3.89,3.89,0,0,0,.519-2.267,3.519,3.519,0,0,0-.519-2.06,1.686,1.686,0,0,0-1.459-.731,1.658,1.658,0,0,0-1.441.726A3.955,3.955,0,0,0,48.99,17.338ZM61.4,17a12.8,12.8,0,0,1-.571,3.823,10.378,10.378,0,0,1-1.644,3.243A5.921,5.921,0,0,1,56.892,26L56.4,24.654a6.18,6.18,0,0,0,1.969-2.9,13.431,13.431,0,0,0,.747-4.509v-.466a13.735,13.735,0,0,0-.716-4.632,6.442,6.442,0,0,0-2-3.006L56.892,7.8a5.923,5.923,0,0,1,2.254,1.881,10.244,10.244,0,0,1,1.644,3.173A12.708,12.708,0,0,1,61.4,16.6Zm2.1,3.753a1.279,1.279,0,0,1,.409-.984,1.588,1.588,0,0,1,2.057,0,1.279,1.279,0,0,1,.409.984,1.261,1.261,0,0,1-.4.971,1.614,1.614,0,0,1-2.065,0A1.261,1.261,0,0,1,63.5,20.752Z" transform="translate(617.051 10661.959)" fill="#12263f"/>
      <g id="Rectángulo_403059" data-name="Rectángulo 403059" transform="translate(524.051 10559.959)" fill="none" stroke="#b1bf34" stroke-width="2">
        <rect width="125" height="50" rx="25" stroke="none"/>
        <rect x="1" y="1" width="123" height="48" rx="24" fill="none"/>
      </g>
      <g id="Rectángulo_403060" data-name="Rectángulo 403060" transform="translate(524.051 10720.959)" fill="none" stroke="#b1bf34" stroke-width="2">
        <rect width="125" height="50" rx="25" stroke="none"/>
        <rect x="1" y="1" width="123" height="48" rx="24" fill="none"/>
      </g>
      <g id="Rectángulo_403061" data-name="Rectángulo 403061" transform="translate(524.051 10632.959)" fill="none" stroke="#b1bf34" stroke-width="2">
        <rect width="181" height="67" rx="33.5" stroke="none"/>
        <rect x="1" y="1" width="179" height="65" rx="32.5" fill="none"/>
      </g>
      <path id="Trazado_885954" data-name="Trazado 885954" d="M5069.949-860H5100" transform="translate(-4574.949 11524.959)" fill="none" stroke="#b1bf34" stroke-width="2"/>
      <path id="Trazado_885956" data-name="Trazado 885956" d="M5069.949-860h19" transform="translate(-4563.898 11440.959)" fill="none" stroke="#b1bf34" stroke-width="2"/>
      <path id="Trazado_885957" data-name="Trazado 885957" d="M5069.949-860h19" transform="translate(-4563.898 11609.959)" fill="none" stroke="#b1bf34" stroke-width="2"/>
      <path id="Trazado_885955" data-name="Trazado 885955" d="M5081-773.5V-944" transform="translate(-4574.949 11524.959)" fill="none" stroke="#b1bf34" stroke-width="2"/>
    </g>
    <g id="Grupo_1102990" data-name="Grupo 1102990" transform="translate(0 -70)">
      <g id="Grupo_1102988" data-name="Grupo 1102988" transform="translate(371 -55)">
        <g id="Grupo_1102987" data-name="Grupo 1102987" transform="translate(439.051 10691.959)">
          <rect id="Rectángulo_403057-2" data-name="Rectángulo 403057" width="176" height="60" rx="30" fill="url(#linear-gradient-4)"/>
          <rect id="Rectángulo_403058-2" data-name="Rectángulo 403058" width="158" height="47" rx="23.5" transform="translate(9 7)" fill="#fff"/>
        </g>
        <path id="Trazado_886071" data-name="Trazado 886071" d="M-53.06-2.118h5.6V0H-55.7V-12.8h2.637ZM-41.739.176a4.668,4.668,0,0,1-3.406-1.283,4.561,4.561,0,0,1-1.314-3.419v-.246a5.745,5.745,0,0,1,.554-2.562,4.064,4.064,0,0,1,1.569-1.74,4.4,4.4,0,0,1,2.316-.611,3.947,3.947,0,0,1,3.072,1.23,5,5,0,0,1,1.121,3.489v1.037h-6.056a2.36,2.36,0,0,0,.743,1.494,2.245,2.245,0,0,0,1.569.563,2.742,2.742,0,0,0,2.294-1.063l1.248,1.4A3.813,3.813,0,0,1-39.577-.277,5.075,5.075,0,0,1-41.739.176Zm-.29-7.813a1.587,1.587,0,0,0-1.226.512,2.651,2.651,0,0,0-.6,1.466h3.533v-.2a1.891,1.891,0,0,0-.457-1.311A1.638,1.638,0,0,0-42.029-7.638Zm5.273,2.813A5.573,5.573,0,0,1-35.714-8.35a3.375,3.375,0,0,1,2.808-1.336,2.96,2.96,0,0,1,2.435,1.072l.105-.9h2.3V-.316a4.064,4.064,0,0,1-.567,2.171,3.641,3.641,0,0,1-1.6,1.406,5.608,5.608,0,0,1-2.408.483,5.215,5.215,0,0,1-2.039-.417,3.619,3.619,0,0,1-1.5-1.077L-35.051.7a2.975,2.975,0,0,0,2.3,1.063,2.178,2.178,0,0,0,1.573-.541,2.027,2.027,0,0,0,.563-1.534v-.51a2.938,2.938,0,0,1-2.312.993A3.366,3.366,0,0,1-35.7-1.165,5.572,5.572,0,0,1-36.756-4.72Zm2.54.189A3.47,3.47,0,0,0-33.7-2.607a1.65,1.65,0,0,0,1.424.735,1.764,1.764,0,0,0,1.661-.871V-6.749a1.76,1.76,0,0,0-1.644-.871,1.66,1.66,0,0,0-1.437.748A3.911,3.911,0,0,0-34.216-4.636Zm13.8,3.669a3.185,3.185,0,0,1-2.6,1.143A3,3,0,0,1-25.352-.7a3.752,3.752,0,0,1-.822-2.575V-9.51h2.54v6.151q0,1.487,1.354,1.487a1.834,1.834,0,0,0,1.775-.9V-9.51h2.549V0h-2.391Zm6.759-8.543.079,1.063a3.342,3.342,0,0,1,2.733-1.239,2.536,2.536,0,0,1,2.522,1.45,3.265,3.265,0,0,1,2.856-1.45,2.836,2.836,0,0,1,2.3.9,4.141,4.141,0,0,1,.756,2.711V0H-4.957V-6.064a1.811,1.811,0,0,0-.316-1.182A1.4,1.4,0,0,0-6.39-7.62,1.585,1.585,0,0,0-7.972-6.53L-7.963,0H-10.5V-6.056a1.789,1.789,0,0,0-.325-1.2,1.416,1.416,0,0,0-1.107-.369,1.646,1.646,0,0,0-1.564.9V0h-2.54V-9.51ZM2.224,0H-.325V-9.51H2.224Zm-2.7-11.971a1.251,1.251,0,0,1,.382-.94A1.436,1.436,0,0,1,.949-13.28a1.44,1.44,0,0,1,1.037.369,1.244,1.244,0,0,1,.387.94,1.247,1.247,0,0,1-.391.949,1.443,1.443,0,0,1-1.033.369,1.443,1.443,0,0,1-1.033-.369A1.247,1.247,0,0,1-.475-11.971ZM6.653-9.51l.079,1.1A3.32,3.32,0,0,1,9.466-9.686a2.759,2.759,0,0,1,2.25.888,4.142,4.142,0,0,1,.756,2.654V0H9.932V-6.082A1.648,1.648,0,0,0,9.58-7.255,1.574,1.574,0,0,0,8.411-7.62,1.747,1.747,0,0,0,6.8-6.706V0H4.263V-9.51ZM14-4.843a5.64,5.64,0,0,1,.545-2.522,3.989,3.989,0,0,1,1.569-1.714,4.577,4.577,0,0,1,2.377-.606,4.33,4.33,0,0,1,3.142,1.178,4.727,4.727,0,0,1,1.358,3.2l.018.65a4.97,4.97,0,0,1-1.222,3.511A4.247,4.247,0,0,1,18.51.176a4.268,4.268,0,0,1-3.283-1.318A5.058,5.058,0,0,1,14-4.729Zm2.54.18a3.555,3.555,0,0,0,.51,2.073,1.682,1.682,0,0,0,1.459.717,1.686,1.686,0,0,0,1.441-.709,3.89,3.89,0,0,0,.519-2.267,3.519,3.519,0,0,0-.519-2.06,1.686,1.686,0,0,0-1.459-.731,1.658,1.658,0,0,0-1.441.726A3.955,3.955,0,0,0,16.541-4.662ZM29.725-2.628a.818.818,0,0,0-.461-.734,5.241,5.241,0,0,0-1.481-.479Q24.39-4.553,24.39-6.724a2.613,2.613,0,0,1,1.05-2.114,4.237,4.237,0,0,1,2.747-.848,4.56,4.56,0,0,1,2.9.853,2.687,2.687,0,0,1,1.085,2.215h-2.54a1.229,1.229,0,0,0-.352-.9,1.488,1.488,0,0,0-1.1-.356,1.52,1.52,0,0,0-.993.29.916.916,0,0,0-.352.738.783.783,0,0,0,.4.681,4.114,4.114,0,0,0,1.349.448,11.019,11.019,0,0,1,1.6.426,2.628,2.628,0,0,1,2.013,2.558,2.481,2.481,0,0,1-1.116,2.1,4.815,4.815,0,0,1-2.883.8A5.029,5.029,0,0,1,26.073-.25a3.561,3.561,0,0,1-1.455-1.169,2.716,2.716,0,0,1-.527-1.6H26.5A1.326,1.326,0,0,0,27-1.986a1.987,1.987,0,0,0,1.248.36,1.839,1.839,0,0,0,1.1-.277A.861.861,0,0,0,29.725-2.628ZM39.34,0a2.821,2.821,0,0,1-.255-.853,3.073,3.073,0,0,1-2.4,1.028A3.376,3.376,0,0,1,34.37-.633a2.6,2.6,0,0,1-.918-2.039,2.687,2.687,0,0,1,1.121-2.32,5.529,5.529,0,0,1,3.239-.817h1.169v-.545a1.567,1.567,0,0,0-.338-1.055,1.331,1.331,0,0,0-1.068-.4,1.513,1.513,0,0,0-1.006.308,1.045,1.045,0,0,0-.365.844h-2.54a2.551,2.551,0,0,1,.51-1.529,3.37,3.37,0,0,1,1.441-1.1,5.253,5.253,0,0,1,2.092-.4A4.15,4.15,0,0,1,40.5-8.8a3.09,3.09,0,0,1,1.033,2.483V-2.2a4.546,4.546,0,0,0,.378,2.048V0Zm-2.1-1.767a2.188,2.188,0,0,0,1.037-.25,1.645,1.645,0,0,0,.7-.672V-4.324H38.03q-1.907,0-2.03,1.318l-.009.149a1.017,1.017,0,0,0,.334.782A1.3,1.3,0,0,0,37.239-1.767ZM48.63-2.628a.818.818,0,0,0-.461-.734,5.241,5.241,0,0,0-1.481-.479q-3.393-.712-3.393-2.883a2.613,2.613,0,0,1,1.05-2.114,4.237,4.237,0,0,1,2.747-.848,4.56,4.56,0,0,1,2.9.853,2.687,2.687,0,0,1,1.085,2.215h-2.54a1.229,1.229,0,0,0-.352-.9,1.488,1.488,0,0,0-1.1-.356,1.52,1.52,0,0,0-.993.29.916.916,0,0,0-.352.738.783.783,0,0,0,.4.681,4.114,4.114,0,0,0,1.349.448,11.019,11.019,0,0,1,1.6.426A2.628,2.628,0,0,1,51.1-2.733a2.481,2.481,0,0,1-1.116,2.1,4.815,4.815,0,0,1-2.883.8A5.029,5.029,0,0,1,44.978-.25a3.561,3.561,0,0,1-1.455-1.169A2.716,2.716,0,0,1,43-3.023H45.4a1.326,1.326,0,0,0,.5,1.037,1.987,1.987,0,0,0,1.248.36,1.839,1.839,0,0,0,1.1-.277A.861.861,0,0,0,48.63-2.628Zm4.228,1.38a1.279,1.279,0,0,1,.409-.984A1.45,1.45,0,0,1,54.29-2.61a1.462,1.462,0,0,1,1.033.378,1.279,1.279,0,0,1,.409.984,1.261,1.261,0,0,1-.4.971A1.468,1.468,0,0,1,54.29.1a1.456,1.456,0,0,1-1.028-.374A1.261,1.261,0,0,1,52.857-1.248Zm0-7.2a1.279,1.279,0,0,1,.409-.984,1.45,1.45,0,0,1,1.024-.378,1.462,1.462,0,0,1,1.033.378,1.279,1.279,0,0,1,.409.984,1.261,1.261,0,0,1-.4.971A1.468,1.468,0,0,1,54.29-7.1a1.456,1.456,0,0,1-1.028-.374A1.261,1.261,0,0,1,52.857-8.446Z" transform="translate(528.051 10727.959)" fill="#12263f"/>
      </g>
      <path id="Trazado_886072" data-name="Trazado 886072" d="M-14.708-4.263a4.528,4.528,0,0,1-1.525,3.252A5.355,5.355,0,0,1-19.859.176,4.816,4.816,0,0,1-23.73-1.481a6.793,6.793,0,0,1-1.411-4.548v-.782a7.671,7.671,0,0,1,.65-3.252,4.874,4.874,0,0,1,1.859-2.158,5.207,5.207,0,0,1,2.808-.751,5.217,5.217,0,0,1,3.568,1.187,4.866,4.866,0,0,1,1.564,3.331h-2.637a2.673,2.673,0,0,0-.69-1.8,2.555,2.555,0,0,0-1.806-.558,2.24,2.24,0,0,0-1.973.945,5.3,5.3,0,0,0-.672,2.931v.967a5.667,5.667,0,0,0,.628,3.032,2.2,2.2,0,0,0,1.982.958,2.6,2.6,0,0,0,1.824-.558,2.521,2.521,0,0,0,.69-1.727ZM-7.633,0a2.821,2.821,0,0,1-.255-.853,3.073,3.073,0,0,1-2.4,1.028A3.376,3.376,0,0,1-12.6-.633a2.6,2.6,0,0,1-.918-2.039A2.687,2.687,0,0,1-12.4-4.992,5.529,5.529,0,0,1-9.163-5.81h1.169v-.545a1.567,1.567,0,0,0-.338-1.055A1.331,1.331,0,0,0-9.4-7.8a1.513,1.513,0,0,0-1.006.308,1.045,1.045,0,0,0-.365.844h-2.54a2.551,2.551,0,0,1,.51-1.529,3.37,3.37,0,0,1,1.441-1.1,5.253,5.253,0,0,1,2.092-.4A4.15,4.15,0,0,1-6.478-8.8,3.09,3.09,0,0,1-5.445-6.319V-2.2A4.546,4.546,0,0,0-5.067-.149V0Zm-2.1-1.767A2.188,2.188,0,0,0-8.7-2.017a1.645,1.645,0,0,0,.7-.672V-4.324h-.949q-1.907,0-2.03,1.318l-.009.149a1.017,1.017,0,0,0,.334.782A1.3,1.3,0,0,0-9.734-1.767ZM2.2-.967A3.185,3.185,0,0,1-.4.176,3,3,0,0,1-2.733-.7a3.752,3.752,0,0,1-.822-2.575V-9.51h2.54v6.151q0,1.487,1.354,1.487a1.834,1.834,0,0,0,1.775-.9V-9.51H4.663V0H2.272Zm12.938-3.7a5.7,5.7,0,0,1-1,3.52A3.2,3.2,0,0,1,11.448.176a2.963,2.963,0,0,1-2.329-1V3.656H6.579V-9.51H8.934l.088.932A2.985,2.985,0,0,1,11.43-9.686a3.22,3.22,0,0,1,2.733,1.3A5.858,5.858,0,0,1,15.139-4.8ZM12.6-4.852a3.743,3.743,0,0,0-.47-2.048,1.532,1.532,0,0,0-1.367-.721,1.663,1.663,0,0,0-1.644.914v3.894a1.692,1.692,0,0,0,1.661.94Q12.6-1.872,12.6-4.852ZM19.455,0h-2.54V-9.51h2.54Zm-.747-13.368h2.769l-2.435,2.725H16.976Zm3.067,12.12a1.279,1.279,0,0,1,.409-.984,1.45,1.45,0,0,1,1.024-.378,1.462,1.462,0,0,1,1.033.378,1.279,1.279,0,0,1,.409.984,1.261,1.261,0,0,1-.4.971A1.468,1.468,0,0,1,23.208.1a1.456,1.456,0,0,1-1.028-.374A1.261,1.261,0,0,1,21.775-1.248Z" transform="translate(1076.051 10588.959)" fill="#12263f"/>
      <path id="Trazado_886073" data-name="Trazado 886073" d="M-25.879-2.118h5.6V0h-8.235V-12.8h2.637ZM-13.425,0a2.821,2.821,0,0,1-.255-.853A3.073,3.073,0,0,1-16.08.176,3.376,3.376,0,0,1-18.4-.633a2.6,2.6,0,0,1-.918-2.039,2.687,2.687,0,0,1,1.121-2.32,5.529,5.529,0,0,1,3.239-.817h1.169v-.545a1.567,1.567,0,0,0-.338-1.055,1.331,1.331,0,0,0-1.068-.4A1.513,1.513,0,0,0-16.2-7.5a1.045,1.045,0,0,0-.365.844H-19.1a2.551,2.551,0,0,1,.51-1.529,3.37,3.37,0,0,1,1.441-1.1,5.253,5.253,0,0,1,2.092-.4A4.15,4.15,0,0,1-12.27-8.8a3.09,3.09,0,0,1,1.033,2.483V-2.2a4.546,4.546,0,0,0,.378,2.048V0Zm-2.1-1.767a2.188,2.188,0,0,0,1.037-.25,1.645,1.645,0,0,0,.7-.672V-4.324h-.949q-1.907,0-2.03,1.318l-.009.149a1.017,1.017,0,0,0,.334.782A1.3,1.3,0,0,0-15.526-1.767Zm14.81-2.9A5.758,5.758,0,0,1-1.692-1.1,3.231,3.231,0,0,1-4.417.176a2.969,2.969,0,0,1-2.47-1.187L-7,0H-9.286V-13.5h2.54v4.843A2.893,2.893,0,0,1-4.434-9.686,3.258,3.258,0,0,1-1.705-8.407a5.767,5.767,0,0,1,.989,3.6Zm-2.54-.185a3.783,3.783,0,0,0-.457-2.1A1.545,1.545,0,0,0-5.076-7.62a1.676,1.676,0,0,0-1.67.993v3.753a1.7,1.7,0,0,0,1.688,1A1.568,1.568,0,0,0-3.441-3.085,6.257,6.257,0,0,0-3.256-4.852ZM3.529,0H.98V-13.5H3.529Zm7.6,0a2.821,2.821,0,0,1-.255-.853A3.073,3.073,0,0,1,8.477.176,3.376,3.376,0,0,1,6.161-.633a2.6,2.6,0,0,1-.918-2.039,2.687,2.687,0,0,1,1.121-2.32A5.529,5.529,0,0,1,9.6-5.81h1.169v-.545a1.567,1.567,0,0,0-.338-1.055,1.331,1.331,0,0,0-1.068-.4A1.513,1.513,0,0,0,8.358-7.5a1.045,1.045,0,0,0-.365.844H5.454a2.551,2.551,0,0,1,.51-1.529A3.37,3.37,0,0,1,7.4-9.286a5.253,5.253,0,0,1,2.092-.4,4.15,4.15,0,0,1,2.791.883A3.09,3.09,0,0,1,13.32-6.319V-2.2A4.546,4.546,0,0,0,13.7-.149V0Zm-2.1-1.767a2.188,2.188,0,0,0,1.037-.25,1.645,1.645,0,0,0,.7-.672V-4.324H9.822q-1.907,0-2.03,1.318l-.009.149a1.017,1.017,0,0,0,.334.782A1.3,1.3,0,0,0,9.031-1.767Zm14.81-2.9A5.758,5.758,0,0,1,22.865-1.1,3.231,3.231,0,0,1,20.14.176a2.969,2.969,0,0,1-2.47-1.187L17.556,0H15.271V-13.5h2.54v4.843a2.893,2.893,0,0,1,2.312-1.028,3.258,3.258,0,0,1,2.729,1.279,5.767,5.767,0,0,1,.989,3.6ZM21.3-4.852a3.783,3.783,0,0,0-.457-2.1,1.545,1.545,0,0,0-1.362-.664,1.676,1.676,0,0,0-1.67.993v3.753a1.7,1.7,0,0,0,1.688,1,1.568,1.568,0,0,0,1.617-1.213A6.257,6.257,0,0,0,21.3-4.852Zm4.236,3.6a1.279,1.279,0,0,1,.409-.984,1.45,1.45,0,0,1,1.024-.378A1.462,1.462,0,0,1,28-2.232a1.279,1.279,0,0,1,.409.984,1.261,1.261,0,0,1-.4.971A1.468,1.468,0,0,1,26.969.1a1.456,1.456,0,0,1-1.028-.374A1.261,1.261,0,0,1,25.537-1.248Z" transform="translate(1076.051 10673.959)" fill="#12263f"/>
      <path id="Trazado_886074" data-name="Trazado 886074" d="M-22.447-4.263a4.528,4.528,0,0,1-1.525,3.252A5.355,5.355,0,0,1-27.6.176a4.816,4.816,0,0,1-3.872-1.657A6.793,6.793,0,0,1-32.88-6.029v-.782a7.671,7.671,0,0,1,.65-3.252,4.874,4.874,0,0,1,1.859-2.158,5.207,5.207,0,0,1,2.808-.751,5.217,5.217,0,0,1,3.568,1.187A4.866,4.866,0,0,1-22.43-8.455h-2.637a2.673,2.673,0,0,0-.69-1.8,2.555,2.555,0,0,0-1.806-.558,2.24,2.24,0,0,0-1.973.945,5.3,5.3,0,0,0-.672,2.931v.967a5.667,5.667,0,0,0,.628,3.032,2.2,2.2,0,0,0,1.982.958,2.6,2.6,0,0,0,1.824-.558,2.521,2.521,0,0,0,.69-1.727Zm6.908-2.865a6.9,6.9,0,0,0-.914-.07,1.86,1.86,0,0,0-1.89.976V0h-2.54V-9.51h2.4l.07,1.134a2.354,2.354,0,0,1,2.118-1.31,2.662,2.662,0,0,1,.791.114ZM-9.07,0a2.821,2.821,0,0,1-.255-.853,3.073,3.073,0,0,1-2.4,1.028,3.376,3.376,0,0,1-2.316-.809,2.6,2.6,0,0,1-.918-2.039,2.687,2.687,0,0,1,1.121-2.32A5.529,5.529,0,0,1-10.6-5.81h1.169v-.545a1.567,1.567,0,0,0-.338-1.055,1.331,1.331,0,0,0-1.068-.4,1.513,1.513,0,0,0-1.006.308,1.045,1.045,0,0,0-.365.844h-2.54a2.551,2.551,0,0,1,.51-1.529,3.37,3.37,0,0,1,1.441-1.1,5.253,5.253,0,0,1,2.092-.4A4.15,4.15,0,0,1-7.915-8.8,3.09,3.09,0,0,1-6.882-6.319V-2.2A4.546,4.546,0,0,0-6.5-.149V0Zm-2.1-1.767a2.188,2.188,0,0,0,1.037-.25,1.645,1.645,0,0,0,.7-.672V-4.324h-.949q-1.907,0-2.03,1.318l-.009.149a1.017,1.017,0,0,0,.334.782A1.3,1.3,0,0,0-11.171-1.767ZM-1.89-11.848V-9.51H-.264v1.863H-1.89V-2.9a1.133,1.133,0,0,0,.2.756,1.015,1.015,0,0,0,.773.229,4.051,4.051,0,0,0,.747-.062V-.053A5.229,5.229,0,0,1-1.705.176a2.425,2.425,0,0,1-2.725-2.7V-7.646H-5.818V-9.51H-4.43v-2.338ZM4.7-3.595,6.46-9.51H9.185L5.361,1.477l-.211.5A2.9,2.9,0,0,1,2.338,3.841a4,4,0,0,1-1.125-.167V1.749l.387.009a2.09,2.09,0,0,0,1.077-.22A1.443,1.443,0,0,0,3.234.809l.3-.782L.2-9.51H2.936ZM12.867,0H10.318V-13.5h2.549ZM17.64,0H15.091V-9.51H17.64Zm-2.7-11.971a1.251,1.251,0,0,1,.382-.94,1.436,1.436,0,0,1,1.042-.369,1.44,1.44,0,0,1,1.037.369,1.244,1.244,0,0,1,.387.94,1.247,1.247,0,0,1-.391.949,1.443,1.443,0,0,1-1.033.369,1.443,1.443,0,0,1-1.033-.369A1.247,1.247,0,0,1,14.941-11.971ZM25.242,0a2.821,2.821,0,0,1-.255-.853,3.073,3.073,0,0,1-2.4,1.028,3.376,3.376,0,0,1-2.316-.809,2.6,2.6,0,0,1-.918-2.039,2.687,2.687,0,0,1,1.121-2.32,5.529,5.529,0,0,1,3.239-.817h1.169v-.545a1.567,1.567,0,0,0-.338-1.055,1.331,1.331,0,0,0-1.068-.4,1.513,1.513,0,0,0-1.006.308,1.045,1.045,0,0,0-.365.844h-2.54a2.551,2.551,0,0,1,.51-1.529,3.37,3.37,0,0,1,1.441-1.1,5.253,5.253,0,0,1,2.092-.4A4.15,4.15,0,0,1,26.4-8.8a3.09,3.09,0,0,1,1.033,2.483V-2.2a4.546,4.546,0,0,0,.378,2.048V0Zm-2.1-1.767a2.188,2.188,0,0,0,1.037-.25,1.645,1.645,0,0,0,.7-.672V-4.324h-.949q-1.907,0-2.03,1.318l-.009.149a1.017,1.017,0,0,0,.334.782A1.3,1.3,0,0,0,23.142-1.767Zm6.372.519a1.279,1.279,0,0,1,.409-.984,1.45,1.45,0,0,1,1.024-.378,1.462,1.462,0,0,1,1.033.378,1.279,1.279,0,0,1,.409.984,1.261,1.261,0,0,1-.4.971A1.468,1.468,0,0,1,30.946.1a1.456,1.456,0,0,1-1.028-.374A1.261,1.261,0,0,1,29.514-1.248Z" transform="translate(1076.051 10754.959)" fill="#12263f"/>
      <g id="Rectángulo_403062" data-name="Rectángulo 403062" transform="translate(1014.051 10557.959)" fill="none" stroke="#57d3fb" stroke-width="2">
        <rect width="125" height="50" rx="25" stroke="none"/>
        <rect x="1" y="1" width="123" height="48" rx="24" fill="none"/>
      </g>
      <g id="Rectángulo_403063" data-name="Rectángulo 403063" transform="translate(1014.051 10642.959)" fill="none" stroke="#57d3fb" stroke-width="2">
        <rect width="125" height="50" rx="25" stroke="none"/>
        <rect x="1" y="1" width="123" height="48" rx="24" fill="none"/>
      </g>
      <g id="Rectángulo_403064" data-name="Rectángulo 403064" transform="translate(1014.051 10723.959)" fill="none" stroke="#57d3fb" stroke-width="2">
        <rect width="125" height="50" rx="25" stroke="none"/>
        <rect x="1" y="1" width="123" height="48" rx="24" fill="none"/>
      </g>
      <path id="Trazado_885960" data-name="Trazado 885960" d="M5069.949-860H5100" transform="translate(-4083.924 11526.459)" fill="none" stroke="#57d3fb" stroke-width="2"/>
      <path id="Trazado_885958" data-name="Trazado 885958" d="M5069.949-860h19" transform="translate(-4072.873 11442.459)" fill="none" stroke="#57d3fb" stroke-width="2"/>
      <path id="Trazado_885961" data-name="Trazado 885961" d="M5069.949-860h19" transform="translate(-4072.873 11611.459)" fill="none" stroke="#57d3fb" stroke-width="2"/>
      <path id="Trazado_885959" data-name="Trazado 885959" d="M5081-773.5V-944" transform="translate(-4083.924 11526.459)" fill="none" stroke="#57d3fb" stroke-width="2"/>
    </g>
  </g>
</svg>
