<svg xmlns="http://www.w3.org/2000/svg" width="93.012" height="101.331" viewBox="0 0 93.012 101.331">
  <g id="cuidado-de-la-salud" transform="translate(-21.018)">
    <path id="Trazado_882770" data-name="Trazado 882770" d="M182.307,24.677l8.213,8.2a1.491,1.491,0,0,0,2.106-2.111l-8.211-8.195a11.51,11.51,0,1,1,18.874-12.386,1.491,1.491,0,0,0,1.382.933h0a1.491,1.491,0,0,0,1.382-.932,11.511,11.511,0,1,1,18.876,12.386l-20.258,20.22-7.447-7.433a1.491,1.491,0,1,0-2.106,2.11l8.5,8.484c.88.806,1.278.806,2.107,0l21.313-21.274.016-.016A14.494,14.494,0,1,0,204.672,6.441a14.494,14.494,0,1,0-22.381,18.219l.016.016Z" transform="translate(-126.012)" fill="#b1bf34"/>
    <path id="Trazado_882771" data-name="Trazado 882771" d="M273.284,62.375H267.11a1.491,1.491,0,0,0-1.491,1.491V68.55h-4.684a1.491,1.491,0,0,0-1.491,1.491v6.175a1.491,1.491,0,0,0,1.491,1.491h4.684v4.684a1.491,1.491,0,0,0,1.491,1.491h6.175a1.491,1.491,0,0,0,1.491-1.491V77.707h4.684a1.491,1.491,0,0,0,1.491-1.491V70.041a1.491,1.491,0,0,0-1.491-1.491h-4.684V63.866A1.491,1.491,0,0,0,273.284,62.375Zm4.684,9.157v3.193h-4.684a1.491,1.491,0,0,0-1.491,1.491V80.9H268.6V76.216a1.491,1.491,0,0,0-1.491-1.491h-4.684V71.532h4.684a1.491,1.491,0,0,0,1.491-1.491V65.357h3.193v4.684a1.491,1.491,0,0,0,1.491,1.491Z" transform="translate(-191.238 -50.03)" fill="#b1bf34"/>
    <path id="Trazado_882772" data-name="Trazado 882772" d="M113.3,237.172a5.484,5.484,0,0,0-7.458-2l-19.058,11a5.471,5.471,0,0,0-5.276-4.049h-9.1c-3.674-1.569-7.652-3.075-11.69-3.075-5.313,0-10.361,2.38-14.6,6.882a30.8,30.8,0,0,0-3.8,4.987l-2.931-2.931a1.491,1.491,0,0,0-2.108,0l-3.18,3.18-1.632-1.633a1.491,1.491,0,0,0-2.109,0l-8.9,8.906a1.491,1.491,0,0,0,0,2.108l5.616,5.62a1.491,1.491,0,1,0,2.109-2.108L24.617,259.5l6.8-6.8L57.67,278.974l-6.8,6.8-17.1-17.113a1.491,1.491,0,1,0-2.109,2.108l18.154,18.167a1.491,1.491,0,0,0,1.054.437h0a1.491,1.491,0,0,0,1.054-.437l8.906-8.9a1.491,1.491,0,0,0,0-2.108l-3.138-3.14,3.188-3.188a1.491,1.491,0,0,0,0-2.108l-2.914-2.914h8.478a1.491,1.491,0,0,0,0-2.982H54.988L44.5,253.1c1.6-2.794,7.119-11.065,16.219-11.065,3.752,0,7.461,1.52,10.875,2.975a1.489,1.489,0,0,0,.537.1h9.377c3.072,0,3.739,4.843,0,4.957h-18a1.491,1.491,0,0,0,0,2.982h18a5.425,5.425,0,0,0,5-3.27l20.825-12.025c2.266-1.319,5.348,2.11,2.306,4.41L84.505,261.806a8.428,8.428,0,0,1-5.172,1.782H72.944a1.491,1.491,0,0,0,0,2.982h6.389a11.422,11.422,0,0,0,7.009-2.415L111.4,244.571c2.573-1.958,3.367-4.857,1.9-7.4ZM55.6,272.664,36.208,253.277l2.126-2.126,19.387,19.387Z" transform="translate(0 -188.038)" fill="#b1bf34"/>
  </g>
</svg>
