<svg xmlns="http://www.w3.org/2000/svg" width="58" height="58" viewBox="0 0 58 58">
  <g id="Grupo_1103044" data-name="Grupo 1103044" transform="translate(-285 -1005.5)">
    <g id="Grupo_1103043" data-name="Grupo 1103043" transform="translate(-420 -5490.039)">
      <circle id="Elipse_11686" data-name="Elipse 11686" cx="29" cy="29" r="29" transform="translate(705 6495.539)" fill="#57d3fb"/>
    </g>
    <g id="granero" transform="translate(284.619 1017.168)">
      <path id="Trazado_882768" data-name="Trazado 882768" d="M44.075,8.7l-6.14-5.91a.948.948,0,0,0-.378-.223L29.348.041a.968.968,0,0,0-.557,0l-8.21,2.526a.947.947,0,0,0-.378.223L14.063,8.7a.947.947,0,1,0,1.314,1.365l.819-.788V31.385a.947.947,0,0,0,.947.947H41a.947.947,0,0,0,.947-.944l.074-22.041.745.717A.947.947,0,0,0,44.075,8.7ZM27.748,25.739l-3.236,3.33V22.41ZM29.069,27.1l3.245,3.339h-6.49Zm4.557,1.971-3.236-3.33,3.236-3.33ZM29.069,24.38l-3.245-3.339h6.49Zm10.982,6.057H35.52V20.094a.947.947,0,0,0-.947-.947H23.565a.947.947,0,0,0-.947.947V30.437H18.09V7.452l3.264-3.141,7.715-2.374,7.715,2.374,3.344,3.218Z" fill="#2b697d"/>
      <path id="Trazado_882769" data-name="Trazado 882769" d="M202.8,86.939a3.629,3.629,0,1,0,3.629,3.629A3.633,3.633,0,0,0,202.8,86.939Zm0,5.364a1.735,1.735,0,1,1,1.735-1.735A1.737,1.737,0,0,1,202.8,92.3Z" transform="translate(-173.691 -81.449)" fill="#2b697d"/>
    </g>
  </g>
</svg>
